<?xml version="1.0" encoding="UTF-8"?>
<svg id="_レイヤー_1" data-name="レイヤー_1" xmlns="http://www.w3.org/2000/svg" width="75.49mm" height="112.89mm" version="1.1" viewBox="0 0 214 320">
  <!-- Generator: Adobe Illustrator 29.6.1, SVG Export Plug-In . SVG Version: 2.1.1 Build 9)  -->
  <defs>
    <style>
      .st0 {
        fill-opacity: .2;
      }

      .st1 {
        fill: #ea9761;
      }

      .st2 {
        fill: #f8b27d;
      }

      .st3 {
        fill: #6e4123;
      }

      .st4 {
        fill: #dfceb9;
      }

      .st5 {
        fill: #d6915e;
      }

      .st6 {
        fill: #fbf5e7;
      }

      .st7 {
        fill: #5e9783;
      }

      .st8 {
        fill: #9c5b30;
      }

      .st9 {
        fill: #d6bb99;
      }

      .st10 {
        fill: #4f3526;
      }

      .st11 {
        fill: #4f443e;
      }

      .st12 {
        fill: #6cbba0;
      }
    </style>
  </defs>
  <path class="st0" d="M116.4,288.13c.26.35.95.9,1.25,1.25,1.08,1.91-.35,3.69,1.15,5.63,1.81,2.35,3.32,1.13,5.75,1.45.07.01.15-.02.21,0-.36,5.05.12,7.55,5.74,7.29,3.1-.14,6.7-.52,9.82-.83,1.44-.14,7.7-.69,8.46-1.36.82-.72.27-3.19.43-4.26,1.73-.31,5.43-.75,6.59-2.07.76-.87.67-1.67.72-2.72,2.65.32,10.62,3.1,7.62,6.87-2.71,3.4-16.05,6.06-20.53,6.82-17.29,2.95-35.96,2.95-53.43,1.93-11.2-.65-26.09-1.87-36.47-6.14-9.54-3.93-4-8.16,2.92-9.68.03.76-.1,1.45.19,2.2.87,2.2,5.1,2.43,7.12,2.8.16,1.12-.4,3.48.43,4.26.72.68,4.73,1.01,5.95,1.16,4.58.54,9.22.66,13.79,1.21,3.96-.81,4.98-3.72,4.49-7.46.07,0,.14,0,.21,0,1.71-.14,3.78.49,5.15-.7,1.76-1.53.95-3.7,1.12-5.76.43-.45,1.33-1.21,1.67-1.67l19.64-.21h0Z"/>
  <path class="st5" d="M75.03,260.42c-.07.31-.75.33-.84,0,.27-.01.56-.01.84,0Z"/>
  <path class="st2" d="M92.37,265.21c-.09,1.6-.32,3.3-.21,4.89.24,3.27,1.55,6.06,1.46,9.69-.04,1.54-.26,3.06-1.46,4.17-.43-6.69-8.61-7.5-13.44-4.54-.62.38-2.57,2.18-2.76,2.25-.09.03-.21,0-.3,0-1.27-2.79-4.85-6.25-8.15-5.62l1.43-.24c1.27-2.56,3.91-4.81,4.21-7.78.12-1.18,0-2.63,0-3.85,6.02,2.34,12.94,2.37,19.23,1.04h0Z"/>
  <path class="st3" d="M96.76,288.33c-.34.46-1.24,1.21-1.67,1.67-2.06,2.17-4.34,4.15-6.27,6.46-.07,0-.14,0-.21,0-.68.09-.39.42-.84.72-3,2.04-5.99,1.91-9.52,1.79-4.77-.16-9.62-.83-14.31-1.67-2.02-.36-6.25-.59-7.12-2.8-.3-.75-.16-1.44-.19-2.2-.04-.87-.09-2.08,0-2.92,1.23,1.32,2.69,1.89,4.4,2.39,5.42,1.58,19.51,3.67,24.49,1.51.65-.28,1.33-.82,1.93-1.2l10.56-10.2c.26,2.45.23,4.47-1.25,6.46h0Z"/>
  <path class="st11" d="M67.5,276.04c3.31-.63,6.88,2.83,8.15,5.62.1,0,.21.03.3,0,.2-.07,2.14-1.86,2.76-2.25,4.83-2.96,13.01-2.15,13.44,4.54.03.46.06,1.08-.04,1.52-.2.87-1.81,2.47-2.67,1.61.36-1.35-.99-3.18-2.1-3.84-3.43-2.02-8.39.22-10.75,3-.45.53-.65,1.58-1.35,1.67-.02-.28-.5-.29-.63-.42-.92-.93-1.64-2.64-2.61-3.75-2.42-2.76-5.35-4.04-8.67-1.87-.31-2.02,2.28-5.47,4.18-5.83h0Z"/>
  <path class="st8" d="M98.01,281.87l-10.56,10.2c-.6.38-1.29.92-1.93,1.2-4.98,2.16-19.07.07-24.49-1.51-1.71-.5-3.17-1.07-4.4-2.39.16-1.49,2.49-3.06,3.76-3.75-.72,2.45.05,3.17,2.3,3.75.6.15,1.44.12,1.67.21.16.06.82.89,1.71,1.11,1.09.26,1.69-.21,2.53-.03.71.15,1.18,1.04,2.36,1.19,1.4.18,1.69-.09,2.8-.61.48-.22.92-.55,1.46-.62,3.06,2.73,6.4,2.06,9.68.17.76-.44,4.37-3.08,4.53-3.71.87.87,2.47-.73,2.67-1.61.1-.43.07-1.06.04-1.52,1.2-1.11,1.42-2.62,1.46-4.17,1.73,0,4.16-.11,4.39,2.08Z"/>
  <path class="st2" d="M74.61,287.5c-.79.33-.21.92-.26,1.51-.06.72-.58,1.48-.58,2.24-1.12.52-1.41.79-2.8.61-1.18-.15-1.66-1.04-2.36-1.19-.84-.18-1.43.29-2.53.03-.89-.21-1.55-1.05-1.71-1.11-.15-2.03.16-3.95,1.67-5.42-2.79-.4-3.71,3.06-3.34,5.21-2.25-.58-3.02-1.3-2.3-3.75.47-1.59,1.58-2.88,2.93-3.75,3.32-2.17,6.26-.89,8.67,1.87.97,1.11,1.69,2.82,2.61,3.75h0ZM68.97,290.42c-.1-1.82.12-3.93,1.57-5.21.23-.52-.79-.45-1.16-.33-1.69.54-2.07,4.04-1.87,5.53h1.46Z"/>
  <path class="st1" d="M92.67,260.45c.09,1.4-.23,3.37-.3,4.76-6.28,1.32-13.21,1.29-19.23-1.04,0-1.26-.17-2.78,0-4.03,4.38.31,10.92.7,19.53.31h0Z"/>
  <path class="st10" d="M88.61,296.46c.49,3.74-.53,6.65-4.49,7.46-4.58-.55-9.22-.67-13.79-1.21-1.22-.14-5.22-.48-5.95-1.16-.83-.78-.27-3.14-.43-4.26,4.69.84,9.54,1.52,14.31,1.68,3.52.12,6.52.25,9.52-1.79.45-.31.15-.64.84-.72h0Z"/>
  <path class="st10" d="M95.09,290c-.17,2.07.65,4.23-1.12,5.76-1.37,1.19-3.45.56-5.15.7,1.93-2.3,4.21-4.29,6.27-6.46Z"/>
  <path class="st2" d="M89.45,287.08c-.17.63-3.77,3.27-4.53,3.71-3.28,1.89-6.62,2.56-9.68-.17l.42-2.5h-.64c.01-.11.22-.19.21-.21.7-.09.9-1.14,1.35-1.67,2.36-2.78,7.32-5.03,10.75-3,1.12.66,2.46,2.49,2.1,3.84h0Z"/>
  <path class="st1" d="M75.23,287.92s-.2.1-.21.2h.64s-.42,2.5-.42,2.5c-.54.08-.98.4-1.46.62,0-.75.52-1.52.58-2.24.05-.59-.54-1.18.26-1.51.13.13.61.13.63.42h0Z"/>
  <path class="st1" d="M62.69,289.38c-.36-2.15.55-5.61,3.34-5.21-1.51,1.46-1.82,3.38-1.67,5.41-.23-.08-1.07-.05-1.67-.21Z"/>
  <path class="st1" d="M68.97,290.42h-1.46c-.2-1.49.17-4.99,1.87-5.53.38-.12,1.39-.19,1.16.33-1.45,1.28-1.66,3.39-1.57,5.21Z"/>
  <path class="st2" d="M140.02,264.17c.05,5.26.68,6.9,3.88,11.03.27.35.62.55.93.84-3.12-.24-6.12,3.01-7.32,5.62-.31.2-1.05-.79-1.36-1.03-2.6-2.06-4.93-3.2-8.36-2.93-3.53.28-6.17,2.55-6.78,6.05-.06-.2-.69-.88-.89-1.5-.34-1.01-.31-1.64-.36-2.66-.18-3.85.98-6.25,1.25-9.69.13-1.57-.11-3.31-.2-4.89,6.16,1.91,13.2,1.26,19.23-.83Z"/>
  <path class="st3" d="M156.53,289.58c.09.82.04,2.07,0,2.92-.05,1.04.04,1.85-.72,2.72-1.16,1.32-4.87,1.76-6.59,2.07-5.56,1-12.45,1.84-18.09,1.68-1.46-.04-3.21-.21-4.47-.96-.51-.31-1.58-1.45-1.9-1.54-.06-.02-.14,0-.21,0-2.26-2.4-4.72-4.6-6.9-7.08-.31-.35-.99-.9-1.25-1.25-1.36-1.79-1.54-3.83-1.25-6.04.67.31,1.26.95,1.78,1.45,2.56,2.45,7.58,8.14,10.4,9.63,3.57,1.89,13.2.77,17.36.14,3.84-.58,8.75-1.37,11.83-3.73h0Z"/>
  <path class="st11" d="M144.83,276.04c2.56.2,4.18,2.63,5.02,4.79l.21.62c.01.14,0,.28,0,.42-4.45-3-7.81.55-10.33,3.98-.31.43-.46,1.06-.75,1.44-.03.04-.53.53-.63.62-.95.09-1.04-1.03-1.56-1.67-3.05-3.77-10.84-6.13-12.86-.2-.14.41-.34.7-.21,1.25-1.01.05-2.1-.67-2.45-1.62-.25-.69-.13-1.46-.26-1.92.62-3.5,3.25-5.77,6.78-6.05,3.43-.28,5.76.87,8.36,2.93.31.25,1.05,1.24,1.36,1.03,1.2-2.62,4.19-5.87,7.32-5.62Z"/>
  <path class="st8" d="M119.75,279.58c.05,1.02.02,1.65.36,2.66.21.62.84,1.31.89,1.5.14.46.01,1.23.26,1.92.35.95,1.44,1.66,2.45,1.62-.13-.55.07-.84.21-1.25-.19,1.41,1.41,2.52,2.41,3.33,3.56,2.87,7.85,4.58,11.8,1.26.09.09.84.3,1.04.42,2.06,1.19,3.04,1.22,5.01-.21.08-.06.14-.17.21-.21.68-.08,1.27.26,1.96.2,1.54-.12,2.12-1.59,3.68-1.24.28,0,.36-.19.42-.21,2.44-.7,2.84-1.63,2.09-3.96,1.1.71,3.38,2.2,3.81,3.4.11.3.13.47.16.77-3.08,2.36-7.99,3.14-11.83,3.72-4.16.63-13.79,1.75-17.36-.14-2.82-1.49-7.84-7.18-10.4-9.63-.53-.5-1.11-1.14-1.78-1.45.3-2.38,2.76-2.15,4.6-2.5h0Z"/>
  <path class="st2" d="M150.05,281.88c1.23.83,2.06,2.15,2.51,3.54.75,2.33.35,3.26-2.09,3.96-.11-.78.08-1.52-.05-2.35-.24-1.52-1.42-3.02-3.08-2.86-.15.58.38.38.6.74.73,1.18.92,3.1.86,4.47.4-.22,1.13.21,1.26.21-1.57-.35-2.14,1.12-3.68,1.24-.69.06-1.27-.28-1.96-.2.46-.27.7-.25,1.26-.21.06-1.98-.09-5.86-2.93-5.32l1.04,1.89c.46,1.34.42,2.46.43,3.84-1.98,1.43-2.96,1.39-5.02.21.91.12-.13-1.13-.2-1.58-.1-.68.04-1.47-.01-2.17.29-.39.43-1.01.75-1.44,2.52-3.43,5.88-6.98,10.33-3.97h0Z"/>
  <path class="st2" d="M138.35,287.92c-.21.19-.61.17-.65.33.21.53.12,2.07.44,2.38-3.95,3.33-8.24,1.62-11.8-1.26-1-.81-2.59-1.92-2.41-3.33,2.01-5.92,9.81-3.57,12.86.2.52.64.61,1.76,1.56,1.67Z"/>
  <path class="st1" d="M140.18,259.95c-.35,1.14-.17,3.01-.16,4.21-6.03,2.09-13.07,2.75-19.23.83-.07-1.32-.43-3.11-.29-4.44,7.19.27,19.68-.6,19.68-.6Z"/>
  <path class="st10" d="M149.21,297.29c-.16,1.07.39,3.54-.42,4.27-.76.67-7.01,1.22-8.46,1.36-3.13.31-6.72.69-9.82.83-5.63.26-6.1-2.24-5.74-7.29.32.09,1.39,1.24,1.9,1.54,1.26.76,3,.92,4.47.96,5.63.17,12.53-.67,18.09-1.67h0Z"/>
  <path class="st10" d="M124.56,296.46c-2.43-.32-3.94.9-5.75-1.45-1.49-1.93-.06-3.72-1.15-5.63,2.18,2.48,4.63,4.68,6.9,7.08Z"/>
  <path class="st1" d="M138.97,287.29c.05.7-.09,1.49.01,2.17.07.44,1.11,1.69.2,1.58-.21-.12-.95-.33-1.04-.42-.31-.31-.23-1.85-.44-2.38.04-.16.44-.14.65-.33.1-.09.6-.58.63-.62Z"/>
  <path class="st1" d="M150.05,289.58c-.13,0-.85-.42-1.26-.21.06-1.37-.12-3.28-.86-4.47-.22-.36-.75-.16-.6-.74,1.66-.16,2.84,1.35,3.08,2.86.13.83-.06,1.57.05,2.35-.06.02-.14.21-.42.21h0Z"/>
  <path class="st1" d="M144.2,290.83c-.01-1.38.02-2.5-.43-3.84l-1.04-1.89c2.84-.54,2.99,3.34,2.93,5.32-.55-.05-.8-.06-1.26.21-.07.04-.13.15-.21.21h0Z"/>
  <path class="st2" d="M62.28,80.62c.34.09,1.25.8,1.25,1.15v4.17c0,.25.18,1.08.21,1.56-.81-.16-1.15-1-1.81-1.42-3.14-2-5.05,1.21-5.29,4.03-.41,4.69,2.59,12.58,8.36,11.77.22,1.54.52,3.26.84,4.79-5.7.45-10.07-5.48-11.39-10.42-1.1-4.12-1.13-11.41,2.51-14.37,1.44-1.17,3.51-1.75,5.33-1.25h0Z"/>
  <path class="st1" d="M63.74,87.5c.31,4.78.57,9.64,1.25,14.37-5.77.81-8.76-7.08-8.36-11.77.24-2.82,2.15-6.04,5.29-4.03.66.42,1,1.26,1.81,1.42Z"/>
  <path class="st2" d="M147.54,106.67c.31-1.5.62-3.07.84-4.58,6.58.38,10.34-10.77,7.2-15.4-1.77-2.62-4.01-.64-5.94.61.04-.59.21-1.6.21-1.98v-3.54c0-.2.84-1.08,1.04-1.15,1.31-.43,3.05-.17,4.29.41,4.2,1.98,4.85,8.77,4.25,12.79-.85,5.67-5.28,13.38-11.88,12.84h0Z"/>
  <path class="st1" d="M148.38,102.08c.71-4.9.95-9.85,1.25-14.79,1.93-1.25,4.17-3.23,5.94-.61,3.14,4.64-.62,15.78-7.2,15.4Z"/>
  <path class="st6" d="M119.33,30.83c22.61,3.54,34.19,19.52,32.19,42.2l-.64,7.6c-.21.07-1.04.95-1.04,1.15v3.54c0,.38-.17,1.39-.21,1.98-.3,4.94-.54,9.89-1.25,14.79-.22,1.51-.52,3.08-.84,4.58-1.25,6.02-3.77,12.66-7.32,17.71-2.63,3.73-6.24,7.26-9.72,10.2-.48.4-3.03,2.13-3.13,2.3-.3.5,0,1.68-.1,2.29,0-.02-.17-.13-.2-.31-.06-.3.22-1.79-.32-1.56-5.77,4.44-10.94,9.77-16.73,14.16-.65.49-2.44,1.98-3.04,2.2-.42.15-.49.02-.82-.11-.44-.17-1.26-.74-1.67-1.04-5.86-4.23-11.32-11.07-17.36-14.89-.34-.21-.62-.35-1.03-.32-.06-.39-.14-.47-.41-.74-.9-.91-2.6-1.88-3.66-2.81-2.78-2.43-6.77-6.51-8.89-9.37-.04-.06,0-.53-.16-.77-3.56-5.18-5.9-10.76-7.16-16.94-.31-1.53-.61-3.25-.84-4.79-.68-4.74-.94-9.6-1.25-14.38-.03-.48-.21-1.32-.21-1.56v-4.17c0-.35-.91-1.05-1.25-1.15-1.01-13.01-1.26-27.12,7.83-37.5,6.12-6.99,16.07-11.21,25.18-12.5,7.39-1.04,16.68-.94,24.03.21h0ZM116.19,100.63c8.57,1.71,14.39,7.39,15.44,16.17.07.56-.04,1.13.03,1.64.03.25-.08.41.31.3.73-.21,3.89-2.68,4.61-3.32,10.46-9.23,10.25-25.56,9.93-38.45-.28-11.55-.83-27.12-13.28-32.39-7.86-3.33-15.65.28-23.43,1.22-10.51,1.27-20.88-5.91-31.01-.5-10.87,5.81-11.6,19.96-11.91,30.83-.37,13.05-.62,29.89,9.92,39.29.42.38,4.65,3.63,4.92,3.33-.14-7.18,3.92-13.86,10.6-16.62,1.35-.56,3.53-.85,4.65-1.51.57-.12.6.19.89.47,2,2.02,3.5,3.19,6.54,3.49,4.32.42,8.76-.15,11.39-3.81.14-.2.41-.13.42-.15h0ZM94.46,115.21c-1.67.2-4.63,3.59-5.47,5.07-.15.27-.9,1.66-.8,1.8,11.66,4.54,25.29,4.87,36.9.01-.79-2.92-3.21-5.57-5.76-7.09-3.87-2.31-8.89-2.76-12.43-5.83-2.3,1.47-4.48,2.61-7.02,3.63-1.76.71-4.13.95-5.42,2.41h0Z"/>
  <path class="st6" d="M119.75,29.79c-7.69-4.34-17.12-4.03-24.87,0-9.6-12.91,10.17-27.23,22.57-16.77,5.42,4.56,6.36,11.03,2.3,16.77Z"/>
  <path class="st4" d="M119.75,29.79c-.14.2-.3.77-.42,1.04-7.35-1.15-16.64-1.25-24.03-.21-.26-.19-.3-.67-.42-.83,7.75-4.02,17.18-4.34,24.87,0Z"/>
  <path class="st2" d="M96.97,100.62c-1.12.66-3.3.95-4.65,1.51-6.69,2.75-10.75,9.44-10.6,16.62-.27.3-4.49-2.95-4.92-3.33-10.55-9.39-10.3-26.24-9.92-39.28.31-10.87,1.05-25.02,11.91-30.83,10.13-5.42,20.5,1.77,31.01.5,7.79-.94,15.57-4.55,23.43-1.22,12.45,5.27,13,20.84,13.28,32.39.32,12.89.53,29.22-9.93,38.45-.73.64-3.88,3.12-4.61,3.32-.39.11-.28-.06-.31-.3-.07-.51.04-1.09-.03-1.64-1.05-8.78-6.86-14.46-15.44-16.17.05-.09.2-1.75.19-1.96-.03-1.22-1.17-3.84-2.7-3.66.33,2.01,1.15,4.48-.97,5.8-2.39,1.49-10.09,1.58-12.31-.17-.86-.68-1.29-2.17-1.13-3.22.1-.62.55-1.13.61-1.89.03-.37.14-.55-.32-.53-1.43.06-3.03,4.03-2.19,5.3,0,.1-.31.27-.41.34ZM118.49,56.46c-4.86.24-9.62,1.11-14.53.84-.67-.04-8.88-1.19-8.88-.74.07.53.8.88,1.26,1.04,4.13,1.43,18.05,1.89,21.59-.55.21-.15.5-.32.56-.59ZM94.6,71.18c1.6-1.51.34-3.63-1.25-4.55-4.43-2.54-15.45-1.47-17.99,3.59-.89,1.76-.73,3.86,1.66,3.75,1.89-.09,5.06-1.56,7.34-1.86.8-.11,2.06-.2,2.89-.24,1.8-.09,6.13.47,7.36-.69h0ZM123.68,65.48c-1.9.19-5.26,1.12-5.72,3.26-.93,4.36,5.35,2.99,7.96,3.13,1.65.09,3.7.4,5.33.73,2.26.46,7.48,3.3,7.1-1.03-.47-5.45-10.58-6.5-14.67-6.09h0ZM87.24,82.18c-.16.02-1.36.69-1.54.86-2.59,2.62.11,7.42,3.82,5.68,2.24-1.05,2.45-4.43.5-5.86-.6-.44-2.08-.78-2.78-.68ZM124.19,89.11c2.58.4,5.07-1.55,4.4-4.28-.52-2.13-2.26-3-4.3-2.5-.95.23-2.23,1.69-2.4,2.62-.02.09-.06,1.49-.05,1.57.02.15.31.14.33.19.2.44.38,1.16.71,1.52.3.33,1.22.51,1.32.86h0Z"/>
  <path class="st2" d="M119.33,115c2.56,1.52,4.97,4.17,5.76,7.09-11.61,4.86-25.24,4.53-36.9-.01-.1-.14.65-1.54.8-1.8.84-1.48,3.8-4.87,5.47-5.07.82-.1,1.77.07,2.61,0,3.51-.33,6.69-2.11,9.83-3.53,1.15.56,2.26,1.26,3.45,1.76,2.7,1.13,6.08,2.3,8.98,1.57h0Z"/>
  <path class="st1" d="M96.97,100.63c.11-.06.41-.24.41-.34-.83-1.26.76-5.23,2.19-5.3.46-.02.35.16.32.53-.07.76-.52,1.27-.61,1.89-.16,1.06.27,2.54,1.13,3.22,2.22,1.76,9.92,1.66,12.31.17,2.13-1.32,1.3-3.79.97-5.8,1.53-.18,2.66,2.45,2.7,3.66,0,.21-.15,1.87-.19,1.96-.01.02-.28-.05-.42.15-2.63,3.65-7.07,4.23-11.39,3.81-3.03-.29-4.53-1.47-6.54-3.49-.28-.28-.31-.59-.89-.47h0Z"/>
  <path class="st6" d="M123.67,65.48c4.1-.42,14.2.63,14.67,6.09.38,4.33-4.84,1.5-7.1,1.03-1.63-.33-3.68-.64-5.33-.73-2.61-.14-8.89,1.23-7.96-3.13.46-2.14,3.82-3.07,5.72-3.26h0Z"/>
  <path class="st6" d="M94.6,71.18c-1.23,1.15-5.56.6-7.36.69-.83.04-2.09.14-2.89.24-2.28.3-5.45,1.77-7.34,1.86-2.39.11-2.55-1.99-1.66-3.75,2.55-5.06,13.56-6.13,17.99-3.59,1.59.91,2.86,3.04,1.25,4.55h0Z"/>
  <path class="st11" d="M124.19,89.11c-.09-.35-1.02-.54-1.31-.86-.32-.36-.51-1.08-.71-1.52-.02-.05-.31-.05-.33-.19-.01-.08.04-1.48.05-1.57.17-.93,1.45-2.39,2.4-2.62,2.05-.5,3.79.37,4.3,2.5.67,2.73-1.83,4.68-4.4,4.28h0Z"/>
  <path class="st11" d="M87.24,82.18c.7-.1,2.18.24,2.78.68,1.95,1.44,1.74,4.81-.5,5.86-3.71,1.74-6.41-3.06-3.82-5.68.17-.17,1.38-.84,1.54-.86Z"/>
  <path class="st1" d="M119.33,115c-2.9.74-6.29-.44-8.98-1.57-1.18-.49-2.3-1.19-3.45-1.76-3.14,1.42-6.32,3.2-9.83,3.53-.84.08-1.79-.1-2.61,0,1.3-1.46,3.67-1.7,5.42-2.41,2.53-1.02,4.72-2.16,7.02-3.63,3.54,3.07,8.56,3.52,12.43,5.83Z"/>
  <path class="st1" d="M118.49,56.46c-.06.27-.34.44-.56.59-3.54,2.45-17.47,1.98-21.59.55-.45-.16-1.18-.5-1.26-1.04,0-.46,8.2.7,8.88.74,4.91.27,9.68-.6,14.53-.84Z"/>
  <path class="st4" d="M106.16,153.54c.33.13.4.26.82.11.6-.22,2.39-1.71,3.04-2.2,5.78-4.39,10.96-9.72,16.73-14.16.54-.23.26,1.26.32,1.56.04.19.2.29.2.31.08.51.18.8.21,1.46l-.31,4.17c-1.65,1.26-3.09,2.79-4.33,4.43-4.7,6.24-9.35,14.07-13.71,20.71-3.44,5.24-6.81,10.53-10.1,15.87l-1.64-.07,22.98-35.42c-2.45,1.39-4.71,3.14-7.17,4.52-1.35.76-4.52,2.51-5.88,2.89-1.59.45-2,0-3.33-.67-.19-.1-.28-.35-.34-.38.5-.94,1.19-1.79,1.85-2.62.25-.31.31-.32.66-.51h0Z"/>
  <path class="st4" d="M104.49,152.5c-.97.97-1.92,2-2.72,3.12-1.55-.54-3.11-1.6-4.5-2.5-2.32-1.5-4.75-3.26-6.89-5.01-.72-.59-3.79-3.09-4.09-3.63-.34-.6,0-1.12-.41-1.58.06-1.66.45-4.08.21-5.62.41-.03.7.11,1.03.32,6.03,3.82,11.49,10.66,17.36,14.89h0Z"/>
  <path class="st9" d="M106.16,153.54c-.35.18-.42.19-.66.5-.65.83-1.35,1.68-1.85,2.62-.05-.03-.15.03-.21,0-.53-.29-1.02-.74-1.67-.62.05-.07-.05-.35,0-.42.79-1.12,1.75-2.16,2.72-3.12.41.3,1.24.87,1.67,1.04Z"/>
  <path class="st6" d="M127.9,151.88c.49,11.02,1.03,22.1,1.46,33.12-1.11.05-2.32.1-3.42.23-9.64,1.17-18.91,1.18-28.66,1.03l-13.27-1.06c0-.21,0-.42,0-.62.63.19,1.02-.79,1.34-1.27,6.09-8.84,11.38-18.25,18.09-26.65.05.03.15-.03.21,0,.06.03.15.28.34.38,1.33.67,1.74,1.12,3.33.67,1.35-.38,4.52-2.13,5.88-2.89,2.47-1.38,4.72-3.13,7.17-4.52l-22.98,35.42,1.64.07c3.29-5.33,6.66-10.63,10.1-15.87,4.36-6.63,9.01-14.47,13.71-20.71,1.24-1.65,2.68-3.18,4.33-4.43l.31-4.17c.04.85.21,2.13.21,2.81v3.96c0,1.26.15,3.1.21,4.48h0Z"/>
  <path class="st6" d="M104.49,234.17c-1.23,6.38-2.13,12.87-3.62,19.21-.35,1.5-.89,4.78-1.95,5.76-1.52,1.42-14.31,2.05-17.32,1.91-2.19-.1-13.16-.19-17.44-5.01.07-3.22-.09-6.47,0-9.7.02-.75.19-1.54.22-2.39.07-2.36.1-4.72.21-7.08l.13-6.03c3.78.41,32.37,3.38,39.78,3.32Z"/>
  <path class="st6" d="M131.03,232.71c.06,1.12-.32,2.68.42,3.54-.06.01-.98.63-1.01.75l.37,1.87c5.71.32,11.63-1,17.05-2.61-.02-.42.26-.97.31-1.26.53,5.02.53,10.07.62,15.11.04,1.89.57,3.99.08,5.89-.7,2.69-7.04,3.8-9.47,4.2-6.19,1.03-22.29,1.12-25.22-1.11-1.21-.92-1.93-6.28-2.31-8.01-1.22-5.6-2.17-11.28-3.2-16.91,7.51.27,14.92-.67,22.36-1.46Z"/>
  <path class="st4" d="M148.17,233.96c-.03.34.05.72,0,1.04-.04.29-.33.84-.31,1.26-5.43,1.61-11.34,2.93-17.06,2.61l-.37-1.87c.03-.11.95-.73,1.01-.75.75-.17,2.14.08,3.03,0,4.45-.43,9.38-1.11,13.69-2.29Z"/>
  <path class="st4" d="M80.84,235.88c-.12.76.13,2.85-.94,2.88-2.4.07-7.88-1.1-10.39-1.68-1.48-.35-3.63-.82-4.9-1.6,0,0,.01-1.09.04-1.92,3.54.41,7.12,1.44,10.68,1.89,1.72.22,3.8.49,5.51.44Z"/>
  <path class="st4" d="M130.82,228.13c.04,1.54.14,3.05.21,4.58-7.44.79-14.85,1.73-22.36,1.46-.5-1.52-3.67-1.53-4.18,0-7.42.05-15.35-.62-22.68-1.6.02-.83.15-3.82.17-4.34,6.51.77,13.77,1.4,20.33,1.56,6.89.16,13.94.03,20.89-.62,2.53-.24,5.11-.72,7.63-1.04h0Z"/>
  <path class="st6" d="M101.78,155.62c-.05.07.05.35,0,.42-5.18,7.37-10.56,15.32-15.34,22.93-.87,1.38-1.8,2.42-2.01,4.05-.05.39.27.85-.41.73.51-12.18,1.15-24.43,1.67-36.67.06-1.39.15-2.77.21-4.17.4.45.07.98.41,1.57.31.54,3.38,3.04,4.09,3.63,2.14,1.75,4.56,3.51,6.89,5.01,1.39.9,2.95,1.96,4.5,2.5h0Z"/>
  <path class="st6" d="M129.78,195.21c.42,10.97.73,21.95,1.04,32.92-2.52.32-5.1.8-7.63,1.04-6.95.65-14,.78-20.89.62-6.56-.16-22.06-1.52-22.63-1.89.1-3.34,3.91-31.44,3.92-32.47l10.87.84c-2.97,4.71-5.36,10.05-7.05,15.37-.73,2.31-2.15,6.86-2.33,9.13-.06.69-.16,1.53.4,2.05.87.79,4.67,1.86,5.96,2.18.88.22,4.31,1.21,4.84.59.25-.29.68-5.25.83-6.16,1.18-7.1,2.62-14.33,5.72-20.86,2.34.28,4.9.4,7.2-.16,4.48,8.16,5.49,17.76,6.83,26.86.06.2.18.37.37.47.49.25,3.39-.47,4.15-.66,1.41-.35,5.26-1.46,6.3-2.26.82-.64.29-2.15.11-3.02-.25-1.21-.67-2.59-1-3.79-1.85-6.73-4.38-13.52-7.88-19.54l10.87-1.25h0Z"/>
  <path class="st4" d="M103.45,156.67c-6.71,8.4-12.01,17.82-18.09,26.65-.32.47-.71,1.45-1.34,1.27.01-.28-.01-.56,0-.83.68.12.36-.34.41-.73.22-1.63,1.15-2.67,2.01-4.05,4.79-7.62,10.16-15.57,15.34-22.93.65-.11,1.14.34,1.67.62h0Z"/>
  <path class="st11" d="M129.36,185c.13,3.4.29,6.81.42,10.21l-10.87,1.25c3.51,6.02,6.03,12.81,7.88,19.54.33,1.21.75,2.59,1,3.79.18.87.72,2.38-.11,3.02-1.04.81-4.89,1.92-6.3,2.26-.76.19-3.65.91-4.15.66-.19-.09-.31-.27-.37-.47-1.34-9.1-2.35-18.7-6.83-26.87-2.3.56-4.87.44-7.2.16-3.1,6.53-4.54,13.76-5.72,20.86-.15.91-.57,5.86-.83,6.16-.54.62-3.97-.37-4.84-.59-1.29-.32-5.1-1.39-5.96-2.18-.56-.52-.46-1.36-.4-2.05.18-2.27,1.6-6.82,2.33-9.13,1.68-5.32,4.08-10.66,7.05-15.37l-10.87-.84c0-1.07.21-2.35.21-3.23v-3.96c0-.76.17-2.09.21-3.02l13.27,1.06c9.74.15,19.02.13,28.66-1.03,1.1-.13,2.31-.18,3.42-.23h0Z"/>
  <path class="st12" d="M144.2,127.08c7.9,5.26,11.25,9.04,15.74,17.53,4.07,7.7,10.35,22.46,9.97,31.12-.3,6.74-5.63,13.52-10.04,18.22-1.1.12-2.3-.02-2.66-1.2-1.3-8.47-2.53-16.98-3.98-25.41-.88-5.12-1.59-11.31-3.18-16.2-.07-.21-.95-2.98-1.46-2.39.04.93-.06,1.88,0,2.81.37,5.91,1.48,12.19,2.09,18.13,1.02,9.96,2.09,19.98,3.14,29.89.74,7.02,1.38,14.13,2.09,21.14.22,2.13.71,4.57.83,6.67.1,1.83-.25,2.76-1.81,3.82-1.37.93-5.15,2.31-6.76,2.74-4.31,1.18-9.24,1.86-13.69,2.29-.89.09-2.28-.17-3.03,0-.74-.86-.36-2.42-.42-3.54-.07-1.53-.17-3.04-.21-4.58-.31-10.97-.63-21.94-1.05-32.92-.13-3.4-.28-6.81-.42-10.21-.43-11.02-.97-22.1-1.46-33.12.28-.24.34-.55.34-.9,0-2.33-.4-4.71-.24-7.02,5.95-5.07,11.42-10.66,16.19-16.88h0ZM140.24,155.83c.03-1.93,2.39-6.8-1.15-6.67-.57.02-4.62.91-4.92,1.15-.54.45-.42,2.01.08,2.41.86.69,3.22-.49,3.47-.23l-.44,2.89c-1.54.04-3.2.28-4.34,1.4-1.92,1.89-1.6,5.41,1.02,6.43,3.2,1.24,4.31-2.35,5.24-4.67.19-.13,2.76.67,2.87.85.76,1.22-2.45,3.39-2.5,4.24-.04.7.74,1.54,1.38,1.56,1.29.04,3.8-3.18,3.66-4.57.37-.33,2.21,1.65,2.84-.41.47-1.52-1.55-2.04-1.76-2.65-.39-1.12.75-3.1-1.2-3.39-1.7-.25-1.58.96-1.76,2.28l-2.5-.63h0Z"/>
  <path class="st12" d="M69.59,126.67c1.25,1.06,1.87,2.66,2.84,3.94,3.17,4.2,7.54,8.36,11.39,11.97.26.25,1.55,1.13,1.6,1.22.35.6-.33,2.57.25,3.29-.52,12.23-1.88,45.1-1.88,45.1,0,.78-1.39,34.08-1.71,41.6-.04.93-.21,1.79-.39,1.93s-.86.18-1.6.16c-5.98-.14-16.52-2.48-17.03-2.6-1.12-.27-5.41-2.38-6.06-3.29-1.05-1.47-.27-1.96-.17-3.43.65-8.93,1.97-17.83,2.93-26.77,1.7-15.81,3.72-31.76,5.02-47.6.05-.56.31-3.21,0-3.43-.35-.07-.43.09-.6.34-.82,1.19-2.12,7.6-2.48,9.4-2.27,11.25-3.44,22.71-5.37,34.03-.49,1.47-1.46,1.64-2.84,1.24-.57-.17-2.66-2.6-3.13-3.23-2.4-3.13-5.52-8.31-6.42-12.14-1.5-6.41,2.32-17.16,4.71-23.31,4.63-11.9,9.9-21.26,20.93-28.4h0ZM75.46,155.82c-.26-.36,1.39-4.27.94-5.62-.69-2.06-5.48-.38-6.98.04-.01.61-.24,1.89.26,2.28.87.68,2.91-.46,3.38.18l-.74,2.61c-1.2.15-2.09.02-3.25.51-2.65,1.12-3.6,4.99-1.13,6.76,3.21,2.31,5.03-1.51,6.08-4.02.6-.15,3.14.67,3.08,1.29-.13,1.45-3.08,3.05-3.11,3.78.85,2.64,2.9,1.28,4.18-.2.75-.87.97-1.68,1.56-2.6,1.01,1.44,3.12.76,2.82-.93-.13-.75-1.68-1.54-1.85-2.14-.22-.75.63-2.25-.08-3.13-1.86-1.04-2.52,0-2.67,1.83l-2.49-.64h0Z"/>
  <path class="st7" d="M159.87,193.96c-1.86,1.98-3.76,4.14-6.06,5.62-1.04-9.92-2.12-19.93-3.14-29.89-.61-5.94-1.71-12.22-2.09-18.13-.06-.93.04-1.88,0-2.81.51-.59,1.4,2.18,1.46,2.39,1.6,4.89,2.3,11.08,3.18,16.2,1.45,8.43,2.67,16.94,3.98,25.41.36,1.18,1.56,1.32,2.66,1.2h0Z"/>
  <path class="st7" d="M53.5,193.75c1.38.4,2.35.24,2.84-1.24,1.92-11.32,3.1-22.78,5.37-34.03.36-1.79,1.66-8.2,2.48-9.4.17-.25.24-.41.6-.34.31.23.05,2.88,0,3.43-1.3,15.84-3.31,31.79-5.02,47.6-2.24-1.74-4.61-3.76-6.27-6.04h0Z"/>
  <path class="st7" d="M140.23,124.38c1.22.83,2.6,1.49,3.82,2.29.19.12.13.4.15.42-4.77,6.22-10.24,11.8-16.19,16.87-.16,2.31.23,4.68.24,7.02,0,.35-.07.66-.35.9-.06-1.38-.21-3.21-.21-4.48v-3.96c0-.68-.17-1.97-.21-2.81-.03-.65-.12-.95-.21-1.46.1-.61-.19-1.79.1-2.29.1-.17,2.65-1.89,3.13-2.3,3.48-2.94,7.1-6.47,9.72-10.2h0Z"/>
  <path class="st7" d="M86.1,137.29c.24,1.54-.14,3.96-.21,5.62-.05,1.39-.15,2.77-.21,4.17-.59-.72.1-2.69-.26-3.29-.05-.09-1.34-.97-1.6-1.22-3.85-3.6-8.22-7.77-11.39-11.97-.97-1.28-1.59-2.88-2.84-3.94,1.17-.76,2.51-1.33,3.55-2.29,2.12,2.86,6.1,6.94,8.89,9.37,1.07.93,2.76,1.9,3.66,2.81.26.27.35.35.41.74h0Z"/>
  <path class="st6" d="M140.24,155.83l2.5.63c.19-1.32.07-2.54,1.76-2.28,1.95.29.81,2.27,1.2,3.39.21.61,2.23,1.12,1.76,2.64-.63,2.06-2.47.08-2.84.41.14,1.4-2.37,4.61-3.66,4.57-.64-.02-1.42-.85-1.38-1.56.05-.84,3.26-3.02,2.5-4.24-.11-.18-2.68-.98-2.87-.85-.93,2.32-2.05,5.91-5.24,4.67-2.63-1.02-2.94-4.54-1.02-6.43,1.14-1.12,2.8-1.36,4.34-1.4l.44-2.89c-.25-.26-2.61.92-3.47.23-.5-.4-.62-1.96-.08-2.41.29-.24,4.35-1.13,4.92-1.15,3.53-.14,1.17,4.73,1.15,6.67h0ZM136.26,158.34c-1.16-.33-2.78,1.34-1.46,1.99.83.41,1.47-1.35,1.46-1.99Z"/>
  <path class="st6" d="M75.46,155.82l2.49.64c.14-1.83.81-2.87,2.67-1.83.71.89-.13,2.38.08,3.13.17.6,1.72,1.39,1.85,2.14.29,1.69-1.81,2.37-2.82.93-.59.93-.81,1.73-1.56,2.6-1.28,1.48-3.34,2.84-4.18.2.02-.74,2.98-2.34,3.11-3.78.05-.62-2.48-1.44-3.08-1.29-1.04,2.51-2.86,6.33-6.08,4.02-2.47-1.77-1.52-5.64,1.13-6.76,1.16-.49,2.05-.36,3.25-.51l.74-2.61c-.47-.64-2.51.49-3.38-.18-.5-.39-.27-1.67-.26-2.28,1.51-.42,6.29-2.1,6.98-.04.45,1.34-1.2,5.26-.94,5.62h0ZM71.05,158.13c-.87-.08-2.44.92-1.85,1.85.59.93,2.17-1.14,1.85-1.85Z"/>
  <path class="st12" d="M136.26,158.34c0,.65-.63,2.4-1.46,1.99-1.32-.65.3-2.32,1.46-1.99Z"/>
  <path class="st12" d="M71.05,158.13c.32.71-1.29,2.73-1.85,1.85-.56-.88.99-1.92,1.85-1.85Z"/>
</svg>