<svg width="130" height="99" viewBox="0 0 130 99" fill="none" xmlns="http://www.w3.org/2000/svg">
<path d="M22.5 99L32 81L52 84.5L22.5 99Z" fill="white"/>
<path d="M130 44C130 68.3005 107.441 88 65 88C22.5588 88 0 68.3005 0 44C0 19.6995 19.1176 -1.24577e-10 65 0C110.882 1.24577e-10 130 19.6995 130 44Z" fill="white"/>
<path d="M98.1351 39.0409C98.0285 39.8516 97.8898 40.7156 97.7191 41.6329C97.5485 42.5502 97.3191 43.4782 97.0311 44.4169C96.7218 45.4942 96.3591 46.4222 95.9431 47.2009C95.5271 47.9796 95.0685 48.5822 94.5671 49.0089C94.0765 49.4249 93.5378 49.6329 92.9511 49.6329C92.3645 49.6329 91.8205 49.4356 91.3191 49.0409C90.8285 48.6356 90.4338 48.0809 90.1351 47.3769C89.8471 46.6729 89.7031 45.8729 89.7031 44.9769C89.7031 44.0489 89.8898 43.1742 90.2631 42.3529C90.6365 41.5316 91.1538 40.8062 91.8151 40.1769C92.4871 39.5369 93.2658 39.0356 94.1511 38.6729C95.0471 38.3102 96.0125 38.1289 97.0471 38.1289C98.0391 38.1289 98.9298 38.2889 99.7191 38.6089C100.519 38.9289 101.202 39.3716 101.767 39.9369C102.332 40.5022 102.764 41.1636 103.063 41.9209C103.362 42.6782 103.511 43.4942 103.511 44.3689C103.511 45.4889 103.282 46.4916 102.823 47.3769C102.364 48.2622 101.682 48.9929 100.775 49.5689C99.8791 50.1449 98.7591 50.5396 97.4151 50.7529L96.2151 48.8489C96.5245 48.8169 96.7965 48.7796 97.0311 48.7369C97.2658 48.6942 97.4898 48.6462 97.7031 48.5929C98.2151 48.4649 98.6898 48.2836 99.1271 48.0489C99.5751 47.8036 99.9645 47.5049 100.295 47.1529C100.626 46.7902 100.882 46.3689 101.063 45.8889C101.255 45.4089 101.351 44.8809 101.351 44.3049C101.351 43.6756 101.255 43.0996 101.063 42.5769C100.871 42.0542 100.588 41.6009 100.215 41.2169C99.8418 40.8222 99.3885 40.5236 98.8551 40.3209C98.3218 40.1076 97.7085 40.0009 97.0151 40.0009C96.1618 40.0009 95.4098 40.1556 94.7591 40.4649C94.1085 40.7636 93.5591 41.1529 93.1111 41.6329C92.6631 42.1129 92.3218 42.6302 92.0871 43.1849C91.8631 43.7396 91.7511 44.2676 91.7511 44.7689C91.7511 45.3022 91.8151 45.7502 91.9431 46.1129C92.0711 46.4649 92.2258 46.7316 92.4071 46.9129C92.5991 47.0836 92.8018 47.1689 93.0151 47.1689C93.2391 47.1689 93.4578 47.0569 93.6711 46.8329C93.8951 46.5982 94.1138 46.2462 94.3271 45.7769C94.5405 45.3076 94.7538 44.7156 94.9671 44.0009C95.2125 43.2329 95.4205 42.4116 95.5911 41.5369C95.7618 40.6622 95.8845 39.8089 95.9591 38.9769L98.1351 39.0409Z" fill="black"/>
<path d="M80.0936 37.2311C80.0296 37.4444 79.9656 37.7057 79.9016 38.0151C79.8376 38.3244 79.7896 38.5644 79.7576 38.7351C79.6829 39.0977 79.5869 39.5404 79.4696 40.0631C79.3629 40.5857 79.2403 41.1404 79.1016 41.7271C78.9736 42.3137 78.8403 42.8737 78.7016 43.4071C78.5629 43.9724 78.3923 44.5857 78.1896 45.2471C77.9869 45.8977 77.7683 46.5644 77.5336 47.2471C77.3096 47.9191 77.0803 48.5644 76.8456 49.1831C76.6109 49.7911 76.3816 50.3351 76.1576 50.8151L73.9336 50.0631C74.1683 49.6577 74.4189 49.1671 74.6856 48.5911C74.9523 48.0044 75.2083 47.3751 75.4536 46.7031C75.7096 46.0311 75.9443 45.3644 76.1576 44.7031C76.3709 44.0417 76.5523 43.4284 76.7016 42.8631C76.8083 42.4897 76.9096 42.1057 77.0056 41.7111C77.1016 41.3164 77.1869 40.9324 77.2616 40.5591C77.3363 40.1857 77.4003 39.8391 77.4536 39.5191C77.5176 39.1884 77.5656 38.9004 77.5976 38.6551C77.6296 38.3564 77.6509 38.0577 77.6616 37.7591C77.6723 37.4604 77.6669 37.2204 77.6456 37.0391L80.0936 37.2311ZM76.0136 39.6151C76.6643 39.6151 77.3416 39.5831 78.0456 39.5191C78.7496 39.4551 79.4589 39.3644 80.1736 39.2471C80.8883 39.1297 81.5976 38.9911 82.3016 38.8311V40.8311C81.6403 40.9804 80.9363 41.1084 80.1896 41.2151C79.4429 41.3217 78.7069 41.4071 77.9816 41.4711C77.2563 41.5244 76.5896 41.5511 75.9816 41.5511C75.5976 41.5511 75.2509 41.5457 74.9416 41.5351C74.6323 41.5137 74.3336 41.4977 74.0456 41.4871L73.9976 39.4871C74.4136 39.5297 74.7709 39.5617 75.0696 39.5831C75.3683 39.6044 75.6829 39.6151 76.0136 39.6151ZM81.0376 42.0631C81.4856 42.0204 81.9816 41.9831 82.5256 41.9511C83.0696 41.9191 83.5976 41.9031 84.1096 41.9031C84.5683 41.9031 85.0323 41.9137 85.5016 41.9351C85.9816 41.9564 86.4563 41.9937 86.9256 42.0471L86.8776 43.9671C86.4829 43.9137 86.0456 43.8711 85.5656 43.8391C85.0963 43.7964 84.6163 43.7751 84.1256 43.7751C83.5816 43.7751 83.0536 43.7911 82.5416 43.8231C82.0403 43.8444 81.5389 43.8871 81.0376 43.9511V42.0631ZM81.9016 46.0951C81.8376 46.3191 81.7843 46.5537 81.7416 46.7991C81.6989 47.0337 81.6776 47.2417 81.6776 47.4231C81.6776 47.5937 81.7149 47.7537 81.7896 47.9031C81.8643 48.0524 81.9816 48.1857 82.1416 48.3031C82.3016 48.4097 82.5203 48.4951 82.7976 48.5591C83.0856 48.6231 83.4429 48.6551 83.8696 48.6551C84.4136 48.6551 84.9576 48.6284 85.5016 48.5751C86.0563 48.5111 86.6216 48.4257 87.1976 48.3191L87.1176 50.3671C86.6696 50.4204 86.1736 50.4684 85.6296 50.5111C85.0856 50.5644 84.4936 50.5911 83.8536 50.5911C82.5096 50.5911 81.4803 50.3724 80.7656 49.9351C80.0616 49.4871 79.7096 48.8577 79.7096 48.0471C79.7096 47.6844 79.7416 47.3164 79.8056 46.9431C79.8696 46.5697 79.9336 46.2231 79.9976 45.9031L81.9016 46.0951Z" fill="black"/>
<path d="M58.9638 38.5117C60.1371 38.6504 61.2144 38.7357 62.1958 38.7677C63.1878 38.7891 64.1051 38.7677 64.9478 38.7037C65.6838 38.6397 66.3878 38.5437 67.0598 38.4157C67.7318 38.2877 68.3931 38.1224 69.0438 37.9197L69.2998 39.7597C68.7238 39.9197 68.0998 40.0584 67.4278 40.1757C66.7558 40.2931 66.0678 40.3837 65.3638 40.4477C64.5424 40.5117 63.5931 40.5437 62.5158 40.5437C61.4491 40.5331 60.3024 40.4691 59.0758 40.3517L58.9638 38.5117ZM58.6758 41.8717C59.6464 41.9571 60.5744 42.0157 61.4598 42.0477C62.3451 42.0797 63.1771 42.0797 63.9558 42.0477C64.7345 42.0157 65.4438 41.9731 66.0838 41.9197C66.9478 41.8451 67.6891 41.7384 68.3078 41.5997C68.9264 41.4504 69.4651 41.3117 69.9238 41.1837L70.2438 43.0717C69.7638 43.1891 69.2358 43.3011 68.6598 43.4077C68.0838 43.5144 67.4704 43.6051 66.8198 43.6797C66.1371 43.7437 65.3531 43.7971 64.4678 43.8397C63.5931 43.8717 62.6705 43.8824 61.6998 43.8717C60.7291 43.8504 59.7585 43.8131 58.7878 43.7597L58.6758 41.8717ZM64.0198 38.9597C63.9451 38.6611 63.8598 38.3677 63.7638 38.0797C63.6678 37.7811 63.5611 37.4771 63.4438 37.1677L65.6038 36.9277C65.6678 37.4291 65.7478 37.9251 65.8438 38.4157C65.9505 38.8957 66.0678 39.3597 66.1958 39.8077C66.3344 40.2557 66.4678 40.6877 66.5958 41.1037C66.7238 41.4664 66.8891 41.8824 67.0918 42.3517C67.3051 42.8104 67.5344 43.2744 67.7798 43.7437C68.0251 44.2024 68.2704 44.6184 68.5158 44.9917C68.6224 45.1411 68.7291 45.2851 68.8358 45.4237C68.9531 45.5517 69.0864 45.6797 69.2358 45.8077L68.2598 47.2797C67.9611 47.2157 67.5878 47.1517 67.1398 47.0877C66.7024 47.0237 66.2438 46.9651 65.7638 46.9117C65.2944 46.8584 64.8625 46.8104 64.4678 46.7677L64.6278 45.2477C64.9584 45.2797 65.3158 45.3117 65.6998 45.3437C66.0944 45.3757 66.4091 45.4077 66.6438 45.4397C66.2171 44.7251 65.8491 44.0264 65.5398 43.3437C65.2411 42.6611 64.9905 42.0264 64.7878 41.4397C64.6598 41.0664 64.5531 40.7464 64.4678 40.4797C64.3825 40.2024 64.3024 39.9464 64.2278 39.7117C64.1638 39.4664 64.0944 39.2157 64.0198 38.9597ZM61.7478 45.5837C61.5558 45.8504 61.3904 46.1277 61.2518 46.4157C61.1131 46.6931 61.0438 47.0077 61.0438 47.3597C61.0438 47.9464 61.3158 48.3731 61.8598 48.6397C62.4144 48.8957 63.2198 49.0237 64.2758 49.0237C65.0331 49.0237 65.7478 48.9917 66.4198 48.9277C67.1025 48.8637 67.7264 48.7784 68.2918 48.6717L68.1798 50.7037C67.6251 50.7997 67.0011 50.8744 66.3078 50.9277C65.6144 50.9811 64.9424 51.0077 64.2918 51.0077C63.2251 51.0077 62.3025 50.8957 61.5238 50.6717C60.7558 50.4477 60.1585 50.1011 59.7318 49.6317C59.3051 49.1517 59.0864 48.5331 59.0758 47.7757C59.0651 47.2637 59.1291 46.8051 59.2678 46.3997C59.4171 45.9837 59.5824 45.5837 59.7638 45.1997L61.7478 45.5837Z" fill="black"/>
<path d="M51.1306 44.7679C51.1306 44.4159 51.0399 44.0959 50.8586 43.8079C50.6879 43.5199 50.4266 43.2906 50.0746 43.1199C49.7333 42.9386 49.3066 42.8479 48.7946 42.8479C48.2186 42.8479 47.6586 42.8959 47.1146 42.9919C46.5813 43.0879 46.1013 43.1999 45.6746 43.3279C45.2586 43.4452 44.9119 43.5466 44.6346 43.6319C44.3999 43.6959 44.1386 43.7866 43.8506 43.9039C43.5733 44.0106 43.3173 44.1066 43.0826 44.1919L42.4746 41.9039C42.7519 41.8826 43.0506 41.8452 43.3706 41.7919C43.6906 41.7386 43.9786 41.6852 44.2346 41.6319C44.6293 41.5359 45.0773 41.4346 45.5786 41.3279C46.0906 41.2106 46.6453 41.1092 47.2426 41.0239C47.8399 40.9386 48.4479 40.8959 49.0666 40.8959C49.9199 40.8959 50.6666 41.0559 51.3066 41.3759C51.9573 41.6852 52.4639 42.1332 52.8266 42.7199C53.1893 43.3066 53.3706 44.0159 53.3706 44.8479C53.3706 45.7012 53.1839 46.4746 52.8106 47.1679C52.4373 47.8612 51.9093 48.4692 51.2266 48.9919C50.5439 49.5039 49.7386 49.9306 48.8106 50.2719C47.8826 50.6132 46.8639 50.8586 45.7546 51.0079L44.6026 49.0239C45.5946 48.9066 46.4906 48.7359 47.2906 48.5119C48.1013 48.2879 48.7893 48.0052 49.3546 47.6639C49.9306 47.3119 50.3679 46.9012 50.6666 46.4319C50.9759 45.9519 51.1306 45.3972 51.1306 44.7679ZM44.8426 37.0879C45.3013 37.1839 45.8506 37.2746 46.4906 37.3599C47.1413 37.4452 47.8079 37.5199 48.4906 37.5839C49.1839 37.6479 49.8399 37.7012 50.4586 37.7439C51.0879 37.7759 51.6106 37.7972 52.0266 37.8079L51.7066 39.7759C51.2373 39.7439 50.6879 39.7012 50.0586 39.6479C49.4293 39.5946 48.7786 39.5359 48.1066 39.4719C47.4346 39.3972 46.7839 39.3226 46.1546 39.2479C45.5359 39.1626 44.9919 39.0826 44.5226 39.0079L44.8426 37.0879Z" fill="black"/>
<path d="M33.1193 37.168C33.098 37.3173 33.0766 37.504 33.0553 37.728C33.034 37.9413 33.018 38.1653 33.0073 38.4C32.9966 38.624 32.986 38.8373 32.9753 39.04C32.9646 39.424 32.9593 39.84 32.9593 40.288C32.97 40.736 32.9753 41.1893 32.9753 41.648C32.9753 42.096 32.986 42.624 33.0073 43.232C33.0393 43.8293 33.0766 44.448 33.1193 45.088C33.162 45.728 33.194 46.3253 33.2153 46.88C33.2473 47.424 33.2633 47.8666 33.2633 48.208C33.2633 48.56 33.21 48.9013 33.1033 49.232C32.9966 49.5626 32.8153 49.856 32.5593 50.112C32.3033 50.3786 31.9566 50.5866 31.5193 50.736C31.082 50.896 30.5273 50.976 29.8553 50.976C29.098 50.976 28.3993 50.88 27.7593 50.688C27.13 50.5066 26.6286 50.2026 26.2553 49.776C25.882 49.3493 25.6953 48.7733 25.6953 48.048C25.6953 47.4933 25.8553 46.992 26.1753 46.544C26.4953 46.0853 26.9753 45.7226 27.6153 45.456C28.266 45.1893 29.082 45.056 30.0633 45.056C30.8953 45.056 31.7006 45.152 32.4793 45.344C33.2686 45.536 34.0046 45.7866 34.6873 46.096C35.3806 46.3946 36.0046 46.736 36.5593 47.12C37.1246 47.4933 37.61 47.872 38.0153 48.256L36.7833 50.16C36.3886 49.7653 35.9353 49.3706 35.4233 48.976C34.922 48.5813 34.3726 48.224 33.7753 47.904C33.178 47.584 32.538 47.328 31.8553 47.136C31.1833 46.9333 30.4846 46.832 29.7593 46.832C29.1406 46.832 28.65 46.9333 28.2873 47.136C27.9353 47.328 27.7593 47.6 27.7593 47.952C27.7593 48.3466 27.9406 48.624 28.3033 48.784C28.666 48.944 29.13 49.024 29.6953 49.024C30.1966 49.024 30.554 48.9066 30.7673 48.672C30.9806 48.4266 31.0873 48.0373 31.0873 47.504C31.0873 47.2266 31.0766 46.8426 31.0553 46.352C31.034 45.8506 31.0126 45.312 30.9913 44.736C30.97 44.1493 30.9486 43.584 30.9273 43.04C30.906 42.496 30.8953 42.032 30.8953 41.648C30.8953 41.328 30.8953 41.0133 30.8953 40.704C30.8953 40.3946 30.8953 40.096 30.8953 39.808C30.8953 39.52 30.89 39.264 30.8793 39.04C30.8686 38.7733 30.8526 38.5226 30.8313 38.288C30.8206 38.0533 30.8046 37.84 30.7833 37.648C30.7726 37.456 30.746 37.296 30.7033 37.168H33.1193ZM31.8873 40.224C32.122 40.224 32.458 40.224 32.8953 40.224C33.3326 40.2133 33.8126 40.1973 34.3353 40.176C34.8686 40.1546 35.402 40.128 35.9353 40.096C36.4793 40.0533 36.9806 40.0106 37.4393 39.968L37.5033 41.872C37.0553 41.9146 36.5593 41.952 36.0153 41.984C35.4713 42.016 34.9326 42.0426 34.3993 42.064C33.866 42.0746 33.3753 42.0853 32.9273 42.096C32.49 42.1066 32.1486 42.112 31.9033 42.112L31.8873 40.224Z" fill="black"/>
</svg>
