<svg width="130" height="99" viewBox="0 0 130 99" fill="none" xmlns="http://www.w3.org/2000/svg">
<path d="M22.5 99L32 81L52 84.5L22.5 99Z" fill="white"/>
<path d="M130 44C130 68.3005 107.441 88 65 88C22.5588 88 0 68.3005 0 44C0 19.6995 19.1176 -1.24577e-10 65 0C110.882 1.24577e-10 130 19.6995 130 44Z" fill="white"/>
<path d="M86.4296 38.7594C86.9416 38.7914 87.4056 38.8074 87.9496 38.8074C88.6376 38.8074 91.6456 38.6634 92.6216 38.5674C93.1336 38.5034 93.5016 38.4394 93.7256 38.3594L94.9896 39.8314C94.6536 40.0554 94.0616 40.4394 93.7256 40.7114C92.5896 41.6234 91.0216 42.9514 89.9176 43.7994C92.0616 43.5914 94.7176 43.4154 96.6696 43.4154V45.3034C95.1336 45.2234 93.5336 45.2074 92.5576 45.3514C91.0856 45.5434 89.8696 46.5834 89.8696 47.8954C89.8696 49.1594 90.8616 49.6554 92.2856 49.8154C93.1816 49.9114 94.1256 49.9114 94.7336 49.8634L94.3016 51.9594C90.2056 52.1354 87.8216 50.9034 87.8216 48.2314C87.8216 47.2554 88.3816 46.2634 88.9896 45.7034C87.5176 45.8314 85.7256 46.0714 84.1256 46.3434L83.9336 44.4074C84.7816 44.3274 85.9016 44.1834 86.7496 44.0874C88.1736 43.1594 90.2536 41.3354 91.2456 40.4554C90.5896 40.5034 88.6216 40.5994 87.9656 40.6634C87.5656 40.6954 87.0376 40.7434 86.5256 40.8074L86.4296 38.7594Z" fill="black"/>
<path d="M69.8279 39.3679C71.0119 39.4959 72.4999 39.5599 74.1799 39.5599C75.7639 39.5599 77.5879 39.4639 78.8199 39.3359V41.4639C77.6999 41.5599 75.7159 41.6559 74.1959 41.6559C72.5159 41.6559 71.1239 41.5919 69.8279 41.4799V39.3679ZM71.1719 46.1519C71.0119 46.7279 70.8999 47.2239 70.8999 47.7679C70.8999 48.7919 71.8759 49.5279 74.1799 49.5279C76.3399 49.5279 78.3879 49.2879 79.7959 48.8879L79.8119 51.1439C78.4199 51.4799 76.4999 51.6879 74.2599 51.6879C70.5959 51.6879 68.7559 50.4559 68.7559 48.2639C68.7559 47.3359 68.9479 46.5519 69.0759 45.9599L71.1719 46.1519Z" fill="black"/>
<path d="M61.1306 45.7679C61.1306 44.7119 60.2986 43.8479 58.7946 43.8479C57.0346 43.8479 55.4506 44.3919 54.6346 44.6319C54.1706 44.7599 53.5466 45.0159 53.0826 45.1919L52.4746 42.9039C53.0186 42.8559 53.7066 42.7439 54.2346 42.6319C55.4026 42.3599 57.1946 41.8959 59.0666 41.8959C61.5946 41.8959 63.3706 43.3359 63.3706 45.8479C63.3706 49.2719 60.2026 51.3999 55.7546 52.0079L54.6026 50.0239C58.5706 49.5759 61.1306 48.2639 61.1306 45.7679ZM54.8426 38.0879C56.6986 38.4879 60.3306 38.7919 62.0266 38.8079L61.7066 40.7759C59.8346 40.6479 56.3626 40.3279 54.5226 40.0079L54.8426 38.0879Z" fill="black"/>
<path d="M37.7593 48.952C37.7593 49.736 38.5753 50.024 39.6953 50.024C40.7193 50.024 41.0873 49.576 41.0873 48.504C41.0873 48.36 41.0873 48.168 41.0713 47.944C40.6553 47.88 40.2073 47.832 39.7593 47.832C38.5113 47.832 37.7593 48.264 37.7593 48.952ZM43.1193 38.168C43.0393 38.632 42.9913 39.416 42.9753 40.04C42.9593 40.408 42.9593 40.792 42.9593 41.208C44.2393 41.192 46.1113 41.128 47.4393 40.968L47.5033 42.872C46.1593 42.984 44.2713 43.064 42.9753 43.096C43.0073 44.056 43.0713 45.336 43.1513 46.52C45.1833 47.112 46.9113 48.232 48.0153 49.256L46.7833 51.16C45.8713 50.248 44.6713 49.304 43.2473 48.648C43.2633 48.856 43.2633 49.048 43.2633 49.208C43.2633 50.632 42.5433 51.976 39.8553 51.976C37.5673 51.976 35.6953 51.224 35.6953 49.048C35.6953 47.384 37.1193 46.056 40.0633 46.056C40.3833 46.056 40.7033 46.072 41.0073 46.104C40.9593 44.856 40.8953 43.496 40.8953 42.648C40.8953 41.672 40.8953 40.728 40.8793 40.04C40.8473 39.256 40.7993 38.568 40.7033 38.168H43.1193Z" fill="black"/>
</svg>
