<svg xmlns="http://www.w3.org/2000/svg" width="1080" height="560" fill="none" viewBox="0 0 1080 560"><g clip-path="url(#a)"><path fill="#fff" d="M1008.14 418.227h-79.746v142.039h79.746z"/><path fill="#30bca7" d="M1008.14 418.227v142.04h-79.746v-142.04zm0-2.364h-79.746a2.363 2.363 0 0 0-2.363 2.364v142.04a2.363 2.363 0 0 0 2.363 2.363h79.746c1.31 0 2.37-1.058 2.37-2.363v-142.04a2.366 2.366 0 0 0-2.37-2.364"/><path fill="#fff" d="M1012.28 409.363h-88.022a.296.296 0 0 0-.295.296v5.613c0 .163.132.295.295.295h88.022c.16 0 .29-.132.29-.295v-5.613a.293.293 0 0 0-.29-.296"/><path fill="#30bca7" d="M1012.28 409.363c.16 0 .29.133.29.296v5.613c0 .162-.13.295-.29.295h-88.022a.296.296 0 0 1-.295-.295v-5.613c0-.163.132-.296.295-.296zm0-2.363h-88.022a2.663 2.663 0 0 0-2.658 2.659v5.613a2.663 2.663 0 0 0 2.658 2.659h88.022a2.66 2.66 0 0 0 2.65-2.659v-5.613a2.66 2.66 0 0 0-2.65-2.659"/><path fill="#fff" d="M961.533 428.902h-23.086v12.299h23.086z"/><path fill="#30bca7" d="M961.533 428.902v12.299h-23.085v-12.299zm2.363-2.363h-27.811v17.025h27.811z"/><path fill="#30bca7" d="M951.172 428.41h-2.363v13.436h2.363z"/><path fill="#fff" d="M998.453 428.902h-23.086v12.299h23.086z"/><path fill="#30bca7" d="M998.452 428.902v12.299h-23.085v-12.299zm2.368-2.363h-27.816v17.025h27.816z"/><path fill="#30bca7" d="M988.091 428.41h-2.362v13.436h2.362z"/><path fill="#fff" d="M961.533 456.672h-23.086v12.298h23.086z"/><path fill="#30bca7" d="M961.533 456.672v12.298h-23.085v-12.298zm2.363-2.363h-27.811v17.025h27.811z"/><path fill="#30bca7" d="M951.172 456.18h-2.363v13.436h2.363z"/><path fill="#fff" d="M998.453 456.672h-23.086v12.298h23.086z"/><path fill="#30bca7" d="M998.452 456.672v12.298h-23.085v-12.298zm2.368-2.363h-27.816v17.025h27.816z"/><path fill="#30bca7" d="M988.091 456.18h-2.362v13.436h2.362z"/><path fill="#fff" d="M961.533 484.441h-23.086v12.299h23.086z"/><path fill="#30bca7" d="M961.533 484.442v12.298h-23.085v-12.298zm2.363-2.364h-27.811v17.025h27.811z"/><path fill="#30bca7" d="M951.172 483.945h-2.363v13.436h2.363z"/><path fill="#fff" d="M998.453 484.441h-23.086v12.299h23.086z"/><path fill="#30bca7" d="M998.452 484.442v12.298h-23.085v-12.298zm2.368-2.364h-27.816v17.025h27.816z"/><path fill="#30bca7" d="M988.091 483.945h-2.362v13.436h2.362z"/><path fill="#fff" d="M987.023 560.32h-36.626v-39.882h36.626z"/><path fill="#30bca7" d="M987.022 520.438v39.882h-36.625v-39.882zm2.363-2.364h-41.351v44.609h41.351z"/><path fill="#30bca7" d="M969.891 519.719h-2.363v41.38h2.363z"/><path fill="#fff" d="M992.782 511.578h-48.144v6.499h48.144z"/><path fill="#30bca7" d="M992.783 511.578v6.5h-48.145v-6.5zm2.363-2.363h-52.871v11.226h52.871z"/><path fill="#fff" d="M876.707 512.434h-78.568v47.948h78.568z"/><path fill="#30bca7" d="M876.708 512.434v47.948h-78.569v-47.948zm2.363-2.364h-83.295v52.676h83.295z"/><path fill="#fff" d="M875.445 498.608h-76.046v-26.68l37.929-22.022 38.117 22.022z"/><path fill="#30bca7" d="m837.328 449.909 38.114 22.021v26.68h-76.043v-26.68zm-.003-2.733-1.185.688-37.928 22.022-1.176.682v30.403h80.772v-30.406l-1.181-.682-38.115-22.022-1.184-.685z"/><path fill="#fff" d="M882.881 509.807h-91.535l7.679-8.756h77.387l6.699 8.275a.295.295 0 0 1-.23.481"/><path fill="#30bca7" d="m876.412 501.05 6.699 8.275a.297.297 0 0 1-.231.482h-91.535l7.68-8.757zm1.125-2.363h-79.584l-.706.803-7.68 8.757-3.438 3.923h96.751a2.67 2.67 0 0 0 2.399-1.516 2.67 2.67 0 0 0-.334-2.818l-6.699-8.275-.709-.877z"/><path fill="#fff" d="m883.819 467.581-46.308-26.843-46.485 26.843a.3.3 0 0 0-.109.405l2.492 4.319a.3.3 0 0 0 .405.109l43.609-25.182 43.608 25.182a.296.296 0 0 0 .405-.109l2.493-4.319a.3.3 0 0 0-.107-.405z"/><path fill="#30bca7" d="m837.511 440.736 46.309 26.842a.296.296 0 0 1 .106.405l-2.493 4.319a.297.297 0 0 1-.405.11l-43.608-25.183-43.609 25.183a.296.296 0 0 1-.404-.11l-2.493-4.319a.296.296 0 0 1 .109-.405l46.485-26.842m.006-2.73-1.184.682-46.485 26.843a2.66 2.66 0 0 0-.972 3.631l2.493 4.319a2.657 2.657 0 0 0 3.633.972l42.424-24.5 42.427 24.5a2.65 2.65 0 0 0 3.63-.972l2.493-4.322a2.664 2.664 0 0 0-.969-3.631l-46.308-26.843-1.182-.685z"/><path fill="#fff" d="M829.652 475.535h-19.199v13.885h19.199z"/><path fill="#30bca7" d="M829.652 475.535v13.886h-19.199v-13.886zm2.363-2.363H808.09v18.612h23.925z"/><path fill="#30bca7" d="M821.234 474.98h-2.363v15.168h2.363z"/><path fill="#fff" d="M829.652 521.484h-19.199v13.886h19.199z"/><path fill="#30bca7" d="M829.652 521.485v13.885h-19.199v-13.885zm2.363-2.364H808.09v18.612h23.925z"/><path fill="#30bca7" d="M821.234 520.93h-2.363v15.167h2.363z"/><path fill="#fff" d="M864.052 475.535h-19.199v13.885h19.199z"/><path fill="#30bca7" d="M864.051 475.535v13.886h-19.199v-13.886zm2.363-2.363h-23.925v18.612h23.925z"/><path fill="#30bca7" d="M855.633 474.98h-2.362v15.168h2.362z"/><path fill="#fff" d="M864.584 521.094h-18.313v39.292h18.313z"/><path fill="#30bca7" d="M864.585 521.094v39.292h-18.313v-39.292zm2.363-2.364h-23.039v44.02h23.039z"/><path fill="#30bca7" d="M850.407 536.67a1.182 1.182 0 1 0-2.363 0v4.47a1.182 1.182 0 1 0 2.363 0z"/><path fill="#fff" d="M1036.79 541.496h-7.08v19.439h7.08z"/><path fill="#30bca7" d="M1036.79 541.492v19.439h-7.08v-19.439zm0-2.363h-7.08a2.365 2.365 0 0 0-2.37 2.363v19.439a2.366 2.366 0 0 0 2.37 2.363h7.08c1.31 0 2.37-1.058 2.37-2.363v-19.439a2.365 2.365 0 0 0-2.37-2.363"/><path fill="#fff" d="M1034.73 485.41h-2.66v54.017h2.66z"/><path fill="#30bca7" d="M1034.73 485.41v54.017h-2.66V485.41zm0-2.363h-2.66a2.357 2.357 0 0 0-2.36 2.363v54.017a2.36 2.36 0 0 0 2.36 2.364h2.66c1.3 0 2.36-1.058 2.36-2.364V485.41a2.363 2.363 0 0 0-2.36-2.363"/><path fill="#fff" d="M1037.6 443.839a4.48 4.48 0 0 0-4.48-4.476 4.47 4.47 0 0 0-4.47 4.476v34.694c0 2.471 2 4.475 4.47 4.475a4.48 4.48 0 0 0 4.48-4.475z"/><path fill="#30bca7" d="M1033.12 439.363a4.48 4.48 0 0 1 4.48 4.476v34.694a4.48 4.48 0 0 1-4.48 4.475 4.47 4.47 0 0 1-4.47-4.475v-34.694c0-2.473 2-4.476 4.47-4.476m0-2.363c-3.77 0-6.84 3.066-6.84 6.839v34.694c0 3.769 3.07 6.839 6.84 6.839s6.84-3.067 6.84-6.839v-34.694c0-3.77-3.07-6.839-6.84-6.839"/><path fill="#fff" d="M925.003 538.25c-.618-.31-.665-1.187-.071-1.542 1.574-.936 2.546-2.218 2.546-3.633 0-1.835-1.637-3.448-4.106-4.372a.89.89 0 0 1-.552-1.093 7.7 7.7 0 0 0 .319-2.207c0-3.338-2.047-6.044-4.572-6.044s-4.572 2.706-4.572 6.044c0 .78.113 1.524.319 2.207a.89.89 0 0 1-.552 1.093c-2.469.921-4.105 2.534-4.105 4.372 0 1.415.972 2.697 2.546 3.633.593.352.543 1.232-.071 1.542-1.946.978-3.169 2.393-3.169 3.97 0 2.954 4.3 5.347 9.604 5.347 5.305 0 9.605-2.393 9.605-5.347 0-1.574-1.223-2.989-3.169-3.97"/><path fill="#30bca7" d="M918.567 519.363c2.525 0 4.571 2.706 4.571 6.044 0 .78-.112 1.524-.318 2.207a.89.89 0 0 0 .552 1.093c2.469.921 4.105 2.534 4.105 4.371 0 1.415-.972 2.697-2.546 3.634-.593.351-.543 1.232.071 1.542 1.946.978 3.169 2.393 3.169 3.97 0 2.954-4.3 5.347-9.604 5.347-5.305 0-9.605-2.393-9.605-5.347 0-1.575 1.223-2.989 3.169-3.97.618-.31.665-1.188.071-1.542-1.574-.937-2.546-2.219-2.546-3.634 0-1.834 1.637-3.447 4.106-4.371a.89.89 0 0 0 .552-1.093 7.7 7.7 0 0 1-.319-2.207c0-3.338 2.047-6.044 4.572-6.044m0-2.363c-1.95 0-3.816.987-5.116 2.709-1.172 1.548-1.816 3.574-1.816 5.698q0 .809.124 1.595c-2.817 1.391-4.462 3.601-4.462 6.076 0 1.551.67 3.034 1.887 4.263-1.663 1.341-2.584 3.049-2.584 4.88 0 2.289 1.467 4.422 4.028 5.846 2.159 1.202 4.979 1.864 7.942 1.864s5.782-.662 7.941-1.864c2.561-1.424 4.029-3.554 4.029-5.846 0-1.831-.922-3.539-2.585-4.88 1.217-1.229 1.888-2.712 1.888-4.263 0-2.475-1.645-4.685-4.463-6.076q.124-.784.124-1.595c0-2.127-.644-4.15-1.816-5.698-1.303-1.722-3.166-2.709-5.115-2.709z"/><path fill="#30bca7" d="M918.467 563.151a1.18 1.18 0 0 1-1.182-1.182v-13.018a1.18 1.18 0 1 1 2.363 0v13.018c0 .653-.529 1.182-1.181 1.182"/><path fill="#fff" d="M778.789 506.093c6.861-7.167 2.363-18.302-6.776-17.675 0-11.965-8.365-11.229-8.365-11.229s-8.365-.736-8.365 11.229c-9.139-.627-13.637 10.505-6.776 17.675-3.63 2.674-4.253 14.618 4.508 15.262-.721 5.601 1.657 12.198 10.633 12.198s11.357-6.597 10.633-12.198c8.761-.647 8.138-12.588 4.508-15.262"/><path fill="#30bca7" d="M763.649 534.737c-4.015 0-7.122-1.217-9.231-3.616-1.92-2.184-2.874-5.324-2.685-8.745-3.175-.632-5.496-2.813-6.45-6.127-1.037-3.596-.299-7.912 1.597-10.216-3.021-3.74-3.742-8.647-1.798-12.795 1.698-3.631 5.098-5.859 9.047-6.015.192-4.012 1.364-7.028 3.494-8.981 2.49-2.281 5.432-2.263 6.026-2.237.593-.026 3.535-.044 6.025 2.237 2.13 1.95 3.302 4.969 3.494 8.978 3.952.154 7.349 2.384 9.047 6.015 1.941 4.148 1.22 9.055-1.798 12.795 1.893 2.304 2.631 6.617 1.598 10.216-.954 3.315-3.276 5.495-6.451 6.127.189 3.424-.765 6.561-2.685 8.745-2.109 2.399-5.213 3.616-9.23 3.616zm-9.092-45.163c-3.24 0-5.952 1.711-7.334 4.662-1.681 3.593-.842 7.924 2.139 11.038l.93.972-1.084.797c-1.571 1.158-2.635 5.144-1.654 8.547.561 1.947 1.979 4.322 5.547 4.585l1.243.092-.159 1.237c-.411 3.197.319 6.134 2.008 8.054 1.643 1.867 4.15 2.812 7.456 2.812s5.812-.945 7.455-2.812c1.686-1.92 2.419-4.854 2.008-8.054l-.159-1.237 1.243-.092c3.568-.263 4.986-2.638 5.547-4.585.981-3.406-.083-7.392-1.654-8.547l-1.084-.797.931-.972c2.98-3.114 3.819-7.448 2.138-11.038-1.474-3.146-4.454-4.877-7.981-4.641l-1.261.086v-1.265c0-3.899-.916-6.729-2.726-8.408-1.944-1.802-4.263-1.651-4.363-1.642l-.097.006-.104-.009c-.088-.006-2.41-.16-4.354 1.645-1.807 1.679-2.726 4.509-2.726 8.408v1.265l-1.261-.086a10 10 0 0 0-.647-.023z"/><path fill="#30bca7" d="M763.805 563.46a1.18 1.18 0 0 1-1.182-1.182v-53.003a1.182 1.182 0 0 1 2.363 0v53.003c0 .653-.529 1.182-1.181 1.182"/><path fill="#30bca7" d="m758.805 513.449-2.086 1.11 5.888 11.081 2.087-1.109z"/><path fill="#30bca7" d="m768.486 513.465-5.888 11.082 2.086 1.109 5.889-11.082z"/><path fill="#fff" d="M810.814 553.655a3.7 3.7 0 0 0 .318-2.077 3.734 3.734 0 0 0-3.204-3.184 3.73 3.73 0 0 0-2.664.679.3.3 0 0 1-.361 0 3.7 3.7 0 0 0-2.182-.709c-1.326 0-2.49.694-3.146 1.74a.29.29 0 0 1-.499 0 3.713 3.713 0 0 0-6.081-.301.587.587 0 0 1-.925 0 3.7 3.7 0 0 0-2.935-1.439 3.7 3.7 0 0 0-2.744 1.211.883.883 0 0 1-1.309 0 3.7 3.7 0 0 0-2.744-1.211 3.7 3.7 0 0 0-2.743 1.211.883.883 0 0 1-1.309 0 3.7 3.7 0 0 0-2.744-1.211 3.7 3.7 0 0 0-2.743 1.211.883.883 0 0 1-1.309 0 3.7 3.7 0 0 0-2.744-1.211 3.7 3.7 0 0 0-2.744 1.211.88.88 0 0 1-1.308 0 3.7 3.7 0 0 0-2.744-1.211c-1.087 0-2.05.461-2.729 1.197-.354.384-.966.407-1.314.02a3.71 3.71 0 0 0-3.32-1.175 3.72 3.72 0 0 0-3.104 3.101 3.7 3.7 0 0 0 1.35 3.466v.136a3.72 3.72 0 0 0-3.577 4.165c.062.529.239 1.022.508 1.462h62.399a3.76 3.76 0 0 0 1.604-2.765 3.72 3.72 0 0 0-2.776-3.908.293.293 0 0 1-.192-.411z"/><path fill="#30bca7" d="M755.168 548.363c1.09 0 2.071.47 2.75 1.217a.85.85 0 0 0 .635.278.94.94 0 0 0 .682-.298 3.712 3.712 0 0 1 5.473.015.884.884 0 0 0 1.306 0 3.7 3.7 0 0 1 2.744-1.212 3.7 3.7 0 0 1 2.743 1.212.884.884 0 0 0 1.306 0 3.7 3.7 0 0 1 2.744-1.212c1.087 0 2.064.467 2.744 1.212a.883.883 0 0 0 1.305 0 3.7 3.7 0 0 1 2.744-1.212c1.087 0 2.064.467 2.744 1.212a.883.883 0 0 0 1.305 0 3.7 3.7 0 0 1 2.744-1.212c1.193 0 2.254.565 2.936 1.439a.582.582 0 0 0 .921 0 3.71 3.71 0 0 1 2.936-1.439 3.71 3.71 0 0 1 3.146 1.74.292.292 0 0 0 .502 0 3.71 3.71 0 0 1 5.328-1.031.31.31 0 0 0 .36 0 3.7 3.7 0 0 1 2.661-.679c1.648.207 2.983 1.536 3.205 3.184.1.751-.027 1.46-.319 2.077a.293.293 0 0 0 .192.411 3.72 3.72 0 0 1 2.776 3.908 3.76 3.76 0 0 1-1.603 2.765h-62.403a3.7 3.7 0 0 1-.508-1.462 3.72 3.72 0 0 1 3.577-4.165v-.136a3.7 3.7 0 0 1-1.35-3.466 3.72 3.72 0 0 1 3.674-3.143M807.446 546c-.821 0-1.622.162-2.363.476a6.05 6.05 0 0 0-2.363-.476c-1.234 0-2.41.369-3.396 1.034a6.06 6.06 0 0 0-3.397-1.034 6.04 6.04 0 0 0-3.396 1.034 6.03 6.03 0 0 0-3.397-1.034 6.05 6.05 0 0 0-3.397 1.04 6.1 6.1 0 0 0-3.396-1.04 6.1 6.1 0 0 0-3.397 1.04 6.1 6.1 0 0 0-3.396-1.04 6.1 6.1 0 0 0-3.397 1.04 6.1 6.1 0 0 0-3.396-1.04 6.1 6.1 0 0 0-3.397 1.04 6.1 6.1 0 0 0-3.396-1.04 6.1 6.1 0 0 0-3.397 1.04 6.09 6.09 0 0 0-4.315-.972c-2.605.387-4.699 2.478-5.092 5.087a6.1 6.1 0 0 0 .213 2.765 6 6 0 0 0-1.019.939 6.12 6.12 0 0 0-1.43 4.695c.101.853.381 1.666.833 2.41l.691 1.137h64.467l.605-.419a6.16 6.16 0 0 0 2.617-4.517 6.08 6.08 0 0 0-2.634-5.527 6 6 0 0 0-.03-1.374 6.065 6.065 0 0 0-6.028-5.261z"/><path fill="#fff" d="M300.677 503.516h-82.7v56.129h82.7z"/><path fill="#30bca7" d="M300.676 503.516v56.129h-82.7v-56.129zm2.363-2.364h-87.426v60.857h87.426z"/><path fill="#fff" d="M300.677 551.605h-82.7v8.358h82.7z"/><path fill="#30bca7" d="M300.676 551.606v8.357h-82.7v-8.357zm2.363-2.364h-87.426v13.084h87.426z"/><path fill="#fff" d="M259.916 515.527H225.95v19.542h33.966z"/><path fill="#30bca7" d="M259.917 515.527v19.542h-33.966v-19.542zm2.363-2.363h-38.692v24.269h38.692z"/><path fill="#30bca7" d="M244.116 514.742h-2.363v21.347h2.363z"/><path fill="#fff" d="M292.701 512.379h-21.265v47.267h21.265z"/><path fill="#30bca7" d="M292.701 512.379v47.267h-21.266v-47.267zm2.363-2.363h-25.992v51.993h25.992z"/><path fill="#30bca7" d="M277.342 529.533a1.181 1.181 0 0 0-2.363 0v9.395a1.182 1.182 0 0 0 2.363 0z"/><path fill="#fff" d="M306.288 501.156h-93.924l7.68-19.793h78.565z"/><path fill="#30bca7" d="m298.608 481.363 7.68 19.793h-93.924l7.679-19.793zm0-2.363h-78.565c-.975 0-1.849.6-2.203 1.51l-7.68 19.793a2.36 2.36 0 0 0 2.204 3.217h93.924a2.36 2.36 0 0 0 1.949-1.028c.44-.644.535-1.463.254-2.189l-7.679-19.793a2.36 2.36 0 0 0-2.204-1.51"/><path fill="#30bca7" d="M304.516 493.473h-90.291v2.363h90.291zM301.612 485.793h-84.599v2.363h84.599z"/><path fill="#fff" d="M328.402 537.254c-.617-.31-.664-1.188-.071-1.542 1.574-.936 2.546-2.218 2.546-3.633 0-1.835-1.636-3.448-4.105-4.372a.89.89 0 0 1-.552-1.093 7.8 7.8 0 0 0 .318-2.207c0-3.338-2.046-6.044-4.571-6.044s-4.572 2.706-4.572 6.044c0 .78.112 1.524.319 2.207a.89.89 0 0 1-.552 1.093c-2.469.921-4.106 2.534-4.106 4.372 0 1.415.972 2.697 2.546 3.633.594.351.544 1.232-.071 1.542-1.946.978-3.169 2.393-3.169 3.97 0 2.954 4.3 5.347 9.605 5.347 5.304 0 9.604-2.393 9.604-5.347 0-1.574-1.223-2.989-3.169-3.97"/><path fill="#30bca7" d="M321.967 518.367c2.525 0 4.572 2.706 4.572 6.044 0 .78-.112 1.524-.319 2.207a.89.89 0 0 0 .552 1.092c2.469.922 4.105 2.535 4.105 4.372 0 1.415-.971 2.697-2.545 3.634-.594.351-.544 1.232.07 1.542 1.947.977 3.169 2.392 3.169 3.97 0 2.954-4.3 5.347-9.604 5.347s-9.604-2.393-9.604-5.347c0-1.575 1.222-2.99 3.169-3.97.617-.31.664-1.188.071-1.542-1.575-.937-2.546-2.219-2.546-3.634 0-1.834 1.636-3.447 4.105-4.372a.89.89 0 0 0 .552-1.092 7.7 7.7 0 0 1-.319-2.207c0-3.338 2.047-6.044 4.572-6.044m0-2.363c-1.949 0-3.816.987-5.115 2.709-1.173 1.548-1.817 3.574-1.817 5.698q0 .809.125 1.595c-2.818 1.391-4.463 3.601-4.463 6.076 0 1.551.67 3.034 1.887 4.263-1.663 1.341-2.584 3.048-2.584 4.88 0 2.289 1.468 4.422 4.028 5.846 2.159 1.202 4.98 1.864 7.942 1.864s5.783-.662 7.942-1.864c2.56-1.424 4.028-3.554 4.028-5.846 0-1.832-.921-3.539-2.584-4.88 1.217-1.229 1.887-2.712 1.887-4.263 0-2.475-1.645-4.685-4.463-6.076q.125-.785.125-1.595c0-2.127-.644-4.15-1.817-5.698-1.302-1.722-3.166-2.709-5.115-2.709z"/><path fill="#30bca7" d="M321.866 562.151a1.18 1.18 0 0 1-1.181-1.182v-13.018a1.18 1.18 0 1 1 2.362 0v13.018a1.18 1.18 0 0 1-1.181 1.182"/><path fill="#fff" d="M61.789 505.093c6.861-7.167 2.362-18.302-6.776-17.675 0-11.965-8.365-11.229-8.365-11.229s-8.365-.736-8.365 11.229c-9.139-.627-13.637 10.505-6.776 17.675-3.63 2.674-4.253 14.618 4.508 15.262-.721 5.601 1.657 12.198 10.633 12.198s11.357-6.597 10.633-12.198c8.76-.647 8.138-12.588 4.508-15.262"/><path fill="#30bca7" d="M46.649 533.737c-4.014 0-7.122-1.217-9.23-3.616-1.92-2.184-2.875-5.324-2.686-8.745-3.175-.632-5.496-2.813-6.45-6.127-1.037-3.596-.299-7.912 1.598-10.216-3.022-3.74-3.743-8.647-1.8-12.795 1.699-3.631 5.099-5.859 9.048-6.015.192-4.012 1.364-7.028 3.494-8.981 2.49-2.281 5.432-2.263 6.026-2.237.593-.026 3.535-.044 6.025 2.237 2.13 1.95 3.302 4.969 3.494 8.978 3.952.154 7.349 2.384 9.047 6.015 1.941 4.148 1.22 9.055-1.798 12.795 1.893 2.304 2.631 6.617 1.598 10.216-.954 3.315-3.276 5.495-6.451 6.127.189 3.424-.765 6.561-2.685 8.745-2.11 2.399-5.213 3.616-9.23 3.616zm-9.092-45.163c-3.24 0-5.952 1.711-7.334 4.662-1.68 3.593-.842 7.924 2.139 11.038l.93.972-1.084.797c-1.571 1.158-2.635 5.144-1.654 8.547.561 1.947 1.979 4.322 5.547 4.585l1.243.092-.16 1.237c-.41 3.197.32 6.134 2.01 8.054 1.642 1.867 4.15 2.812 7.454 2.812 3.306 0 5.813-.945 7.456-2.812 1.686-1.92 2.419-4.854 2.008-8.054l-.16-1.237 1.244-.092c3.568-.263 4.986-2.638 5.547-4.585.98-3.406-.083-7.392-1.654-8.547l-1.084-.797.93-.972c2.98-3.114 3.82-7.448 2.139-11.038-1.474-3.146-4.454-4.877-7.98-4.641l-1.262.086v-1.265c0-3.899-.916-6.729-2.726-8.408-1.944-1.802-4.263-1.651-4.363-1.642l-.097.006-.104-.009c-.088-.006-2.41-.16-4.354 1.645-1.807 1.679-2.726 4.509-2.726 8.408v1.265l-1.261-.086a10 10 0 0 0-.647-.023z"/><path fill="#30bca7" d="M46.805 562.46a1.18 1.18 0 0 1-1.182-1.182v-53.003a1.181 1.181 0 0 1 2.363 0v53.003c0 .653-.529 1.182-1.181 1.182"/><path fill="#30bca7" d="m41.805 512.449-2.086 1.11 5.888 11.081 2.087-1.109z"/><path fill="#30bca7" d="M51.487 512.461 45.6 523.543l2.086 1.109 5.889-11.082z"/><path fill="#fff" d="M724.729 261.037c.428 2.179-.314 3.701.914 4.06 1.161.33 2.063-.543 3.028-.978 4.202-1.899 8.2.934 7.646 5.377 4.859-1.3 5.129 4.826 2.476 5.877h-41.051c-2.922 0-4.191-2.658-4.396-3.216-2.236-6.131 5.826-11.003 10.311-6.47.688.205 1.233-.125 1.512-.742-.261-4.229.835-8.041 4.648-10.264s13.174-2.495 14.909 6.356z"/><path fill="#30bca7" d="M715.309 253.337c3.965 0 8.291 1.922 9.422 7.7.428 2.179-.313 3.701.915 4.06a2 2 0 0 0 .516.073c.92 0 1.694-.683 2.511-1.052.909-.408 1.806-.598 2.653-.598 3.068 0 5.43 2.494 4.997 5.976a5 5 0 0 1 1.263-.181c3.619 0 3.613 5.106 1.213 6.058h-41.051c-2.922 0-4.191-2.658-4.396-3.216-1.624-4.454 2.186-8.246 6.113-8.246 1.478 0 2.972.538 4.197 1.776q.207.061.396.061c.501 0 .894-.309 1.119-.803-.26-4.23.836-8.042 4.649-10.264 1.368-.798 3.376-1.344 5.486-1.344m-.003-2.337c-2.43 0-4.859.608-6.673 1.662-2.254 1.315-3.883 3.169-4.839 5.518-.504 1.238-.821 2.62-.944 4.13a8.1 8.1 0 0 0-3.391-.736c-2.872 0-5.691 1.47-7.353 3.836-1.553 2.211-1.905 4.962-.964 7.545.645 1.767 2.758 4.755 6.6 4.755h41.5l.416-.166c2.253-.894 3.561-3.605 3.039-6.307-.434-2.255-2.016-3.815-4.144-4.177a7.3 7.3 0 0 0-1.697-3.441c-1.372-1.548-3.391-2.436-5.536-2.436-1.214 0-2.433.271-3.62.809a9 9 0 0 0-.486.242 11 11 0 0 0-.185-1.644c-.633-3.231-2.224-5.816-4.601-7.481-1.97-1.379-4.431-2.109-7.119-2.109z"/><path fill="#fff" d="M718.085 365.166h24.251c5.342 0 9.214-.388 9.214-.99 0-.862-11.301-2.93-11.77-8.792-1.409-17.558-21.293-13.982-20.063-3.102-6.11-1.221-13.278 9.107-1.632 12.884"/><path fill="#30bca7" d="M742.337 366.334h-24.439l-.175-.059c-7.869-2.552-7.201-7.623-6.808-9.119.908-3.458 4.243-6.043 7.584-6.142.097-2.769 1.433-5.246 3.795-6.946 3.224-2.319 7.676-2.728 11.342-1.04 2.456 1.13 6.67 4.227 7.315 12.259.278 3.482 5.849 5.594 8.841 6.727 2.014.762 2.931 1.11 2.931 2.158 0 1.499-2.025 1.712-3.652 1.884-1.711.181-4.041.275-6.734.275zm-24.064-2.337h24.064c2.382 0 4.24-.079 5.609-.184-3.587-1.396-8.971-3.832-9.331-8.336-.408-5.077-2.526-8.742-5.961-10.326-2.907-1.34-6.436-1.019-8.985.815-2.075 1.493-3.066 3.689-2.781 6.184l.178 1.592-1.576-.316c-2.524-.505-5.589 1.598-6.304 4.326-.698 2.652 1.158 4.922 5.09 6.245z"/><path fill="#fff" d="M643.588 297.179c-.065 1.221.551 1.563.829 1.113 4.244-6.82 14.507-3.029 11.547 5.667-.334.979.076 1.417.583 1.066 4.772-3.327 9.297-.108 7.758 4.796-.252.804-.938 1.382-2.523 1.382h-50.719c-.941 0-2.14-.061-2.77-.87-7.889-10.128 4.276-19.092 11.137-14.725.381.242.718-.392.865-1.034 3.634-16.045 24.213-14.673 23.293 2.605"/><path fill="#30bca7" d="M632.665 283.337c5.864 0 11.412 4.688 10.922 13.842-.046.88.258 1.303.54 1.303.108 0 .214-.064.29-.19 1.509-2.424 3.775-3.508 5.94-3.508 3.928 0 7.515 3.567 5.607 9.175-.255.754-.073 1.186.255 1.186a.6.6 0 0 0 .328-.12c1.354-.943 2.69-1.361 3.872-1.361 2.98 0 4.985 2.647 3.886 6.158-.252.803-.938 1.381-2.524 1.381h-50.719c-.94 0-2.139-.061-2.769-.87-6.483-8.322.574-15.858 7.104-15.858 1.418 0 2.808.353 4.033 1.133a.3.3 0 0 0 .167.053c.31 0 .574-.541.697-1.087 1.709-7.542 7.166-11.237 12.371-11.237m.003-2.337c-3.236 0-6.433 1.186-9.004 3.339-2.438 2.042-4.237 4.872-5.263 8.246a10.2 10.2 0 0 0-3.001-.444c-4.528 0-8.912 2.734-10.914 6.803-1.975 4.019-1.26 8.693 1.958 12.823 1.38 1.773 3.651 1.773 4.621 1.773h50.716c3.321 0 4.408-1.893 4.763-3.02.762-2.431.448-4.846-.865-6.625-1.204-1.633-3.121-2.568-5.258-2.568q-.791 0-1.597.17c.106-2.074-.422-3.99-1.562-5.579-1.562-2.171-4.141-3.468-6.902-3.468-1.623 0-3.165.43-4.528 1.23-.492-4.285-2.277-7.057-3.862-8.725-2.424-2.55-5.727-3.952-9.299-3.952z"/><path fill="#fff" d="M881.198 322.179c-.064 1.221.551 1.563.83 1.113 4.243-6.82 14.507-3.029 11.547 5.667-.334.979.076 1.417.583 1.066 4.771-3.327 9.296-.108 7.757 4.796-.252.804-.937 1.382-2.523 1.382h-50.719c-.941 0-2.139-.061-2.769-.87-7.89-10.128 4.275-19.092 11.136-14.725.381.242.718-.392.865-1.034 3.634-16.045 24.213-14.673 23.293 2.605"/><path fill="#30bca7" d="M870.276 308.337c5.864 0 11.412 4.688 10.923 13.842-.047.88.258 1.303.539 1.303.108 0 .214-.064.29-.19 1.509-2.424 3.775-3.508 5.941-3.508 3.927 0 7.514 3.567 5.606 9.175-.255.754-.073 1.186.255 1.186a.6.6 0 0 0 .328-.12c1.354-.943 2.691-1.361 3.872-1.361 2.98 0 4.985 2.647 3.886 6.158-.252.803-.938 1.381-2.523 1.381h-50.719c-.941 0-2.14-.061-2.77-.87-6.483-8.322.575-15.858 7.104-15.858 1.419 0 2.808.353 4.033 1.133a.3.3 0 0 0 .167.053c.311 0 .574-.541.697-1.087 1.709-7.542 7.166-11.237 12.371-11.237m.003-2.337c-3.236 0-6.433 1.186-9.003 3.339-2.439 2.042-4.238 4.872-5.264 8.246a10.2 10.2 0 0 0-3.001-.444c-4.528 0-8.912 2.734-10.914 6.803-1.975 4.019-1.26 8.693 1.958 12.823 1.38 1.773 3.652 1.773 4.622 1.773h50.716c3.32 0 4.407-1.893 4.762-3.02.762-2.431.448-4.846-.864-6.625-1.205-1.633-3.122-2.568-5.258-2.568q-.793 0-1.597.17c.105-2.074-.422-3.99-1.562-5.579-1.563-2.171-4.142-3.468-6.902-3.468-1.624 0-3.166.43-4.528 1.23-.493-4.285-2.277-7.057-3.863-8.725-2.424-2.55-5.727-3.952-9.299-3.952z"/><path fill="#fff" d="M429.367 272.033c.432 2.179-.316 3.701.922 4.06 1.17.33 2.079-.543 3.051-.978 4.236-1.899 8.264.934 7.706 5.377 4.897-1.3 5.169 4.826 2.496 5.878H402.17c-2.945 0-4.223-2.659-4.43-3.217-2.254-6.131 5.872-11.003 10.391-6.47.694.205 1.243-.125 1.524-.742-.263-4.229.842-8.041 4.684-10.264s13.277-2.495 15.026 6.356z"/><path fill="#30bca7" d="M419.875 264.333c3.996 0 8.356 1.922 9.496 7.7.431 2.179-.316 3.701.922 4.06q.269.074.519.073c.928 0 1.708-.683 2.532-1.051.915-.409 1.819-.599 2.673-.599 3.092 0 5.473 2.494 5.036 5.976a5 5 0 0 1 1.273-.181c3.647 0 3.642 5.106 1.223 6.058h-41.372c-2.945 0-4.224-2.658-4.431-3.216-1.636-4.454 2.204-8.246 6.162-8.246 1.488 0 2.995.538 4.229 1.776q.208.061.399.061c.505 0 .901-.309 1.128-.803-.263-4.229.842-8.041 4.685-10.264 1.379-.798 3.402-1.344 5.529-1.344m-.003-2.337c-2.449 0-4.897.608-6.726 1.662-2.271 1.315-3.913 3.17-4.876 5.518-.508 1.239-.827 2.62-.951 4.13a8.25 8.25 0 0 0-3.417-.736c-2.895 0-5.736 1.47-7.411 3.836-1.566 2.211-1.92 4.963-.972 7.545.65 1.767 2.779 4.755 6.652 4.755h41.823l.42-.166c2.271-.894 3.589-3.605 3.063-6.307-.437-2.255-2.032-3.815-4.177-4.177a7.3 7.3 0 0 0-1.71-3.441c-1.382-1.548-3.417-2.436-5.579-2.436-1.223 0-2.452.272-3.648.809a9 9 0 0 0-.49.242 11 11 0 0 0-.186-1.644c-.638-3.231-2.242-5.816-4.638-7.481-1.985-1.379-4.466-2.109-7.174-2.109z"/><path fill="#fff" d="M228.186 264.96c1.084 2.135 2.286 4.349 1.684 6.192-.343 1.049.936.739 1.568 0 4.126-4.825 10.595-.765 10.941 3.579.091 1.133-.343 2.851.954 3.438.469.213 1.001.123 1.482.286 2.292.768 2.96 4.02.801 5.305h-46.447c-1.82 0-3.867-1.63-4.342-2.895-2.36-6.295 4.519-13.694 13.079-8.445.401.246.599-.473 1.187-3.277 2.531-12.085 16.169-9.938 19.093-4.18z"/><path fill="#30bca7" d="M219.204 260.337c3.851 0 7.602 1.91 8.982 4.624 1.084 2.135 2.286 4.35 1.683 6.193-.156.479.027.675.331.675.361 0 .895-.275 1.238-.675 1.326-1.551 2.897-2.185 4.427-2.185 3.229 0 6.28 2.816 6.516 5.763.092 1.134-.342 2.851.954 3.438.47.214 1.002.123 1.483.287 2.292.768 2.96 4.022.801 5.304h-46.448c-1.819 0-3.866-1.63-4.342-2.894-1.798-4.794 1.764-10.23 7.346-10.23 1.749 0 3.693.531 5.734 1.785a.26.26 0 0 0 .135.043c.319 0 .532-.853 1.052-3.324 1.341-6.391 5.786-8.801 10.11-8.801m-.002-2.34c-2.868 0-5.506.865-7.627 2.498-2.443 1.881-4.055 4.63-4.797 8.167-.029.146-.068.324-.109.52-1.498-.59-3.004-.888-4.496-.888-3.393 0-6.442 1.563-8.359 4.288-1.884 2.679-2.333 6.076-1.202 9.091.783 2.091 3.669 4.419 6.557 4.419h47.103l.562-.333c1.716-1.019 2.646-2.9 2.427-4.907-.23-2.13-1.677-3.941-3.686-4.613a5 5 0 0 0-.836-.19c0-.143.003-.289.006-.411a10 10 0 0 0-.014-1.093c-.337-4.218-4.481-7.916-8.871-7.916a7.74 7.74 0 0 0-3.884 1.034c-.384-1.204-.977-2.369-1.536-3.464l-.147-.29c-1.767-3.482-6.33-5.912-11.094-5.912z"/><path fill="#fff" d="M376.186 223.96c1.084 2.135 2.286 4.349 1.684 6.192-.343 1.049.936.739 1.568 0 4.126-4.825 10.595-.765 10.941 3.579.091 1.133-.343 2.851.954 3.438.469.213 1.001.123 1.482.286 2.292.768 2.96 4.02.801 5.305h-46.447c-1.82 0-3.867-1.63-4.342-2.895-2.36-6.295 4.519-13.694 13.079-8.445.401.246.599-.473 1.187-3.277 2.531-12.085 16.169-9.938 19.093-4.18z"/><path fill="#30bca7" d="M367.203 219.337c3.851 0 7.602 1.91 8.982 4.624 1.084 2.135 2.286 4.35 1.683 6.193-.156.479.027.675.331.675.361 0 .895-.275 1.238-.675 1.326-1.551 2.897-2.185 4.427-2.185 3.229 0 6.28 2.816 6.516 5.763.092 1.134-.342 2.851.954 3.438.47.214 1.002.123 1.483.287 2.292.768 2.96 4.022.801 5.304H347.17c-1.819 0-3.866-1.63-4.341-2.894-1.799-4.794 1.763-10.23 7.345-10.23 1.749 0 3.693.531 5.734 1.785a.26.26 0 0 0 .135.043c.319 0 .532-.853 1.052-3.324 1.341-6.391 5.786-8.801 10.111-8.801m-.003-2.34c-2.868 0-5.506.865-7.627 2.498-2.443 1.881-4.055 4.63-4.797 8.167-.029.146-.068.324-.109.52-1.498-.59-3.004-.888-4.496-.888-3.393 0-6.442 1.563-8.359 4.288-1.884 2.679-2.333 6.076-1.202 9.091.783 2.091 3.669 4.419 6.557 4.419h47.103l.562-.333c1.716-1.019 2.646-2.9 2.428-4.907-.231-2.13-1.678-3.941-3.687-4.613a5 5 0 0 0-.836-.19c0-.143.003-.289.006-.411a10 10 0 0 0-.014-1.093c-.337-4.218-4.481-7.916-8.87-7.916a7.74 7.74 0 0 0-3.885 1.034c-.384-1.204-.977-2.369-1.536-3.464l-.147-.29c-1.767-3.482-6.33-5.912-11.094-5.912z"/><path fill="#fff" d="M350.514 333.179c-.065 1.221.555 1.563.835 1.113 4.277-6.82 14.621-3.029 11.638 5.667-.337.979.076 1.417.587 1.066 4.809-3.327 9.369-.108 7.819 4.796-.254.804-.946 1.382-2.543 1.382h-51.116c-.948 0-2.156-.061-2.791-.87-7.951-10.128 4.309-19.092 11.224-14.725.384.242.724-.392.871-1.034 3.663-16.045 24.403-14.673 23.476 2.605"/><path fill="#30bca7" d="M339.505 319.337c5.91 0 11.501 4.688 11.008 13.842-.047.88.26 1.303.543 1.303.11 0 .216-.064.293-.19 1.521-2.424 3.804-3.508 5.987-3.508 3.958 0 7.573 3.567 5.65 9.175-.257.754-.074 1.186.257 1.186a.6.6 0 0 0 .331-.12c1.364-.943 2.711-1.361 3.901-1.361 3.004 0 5.025 2.647 3.917 6.158-.254.803-.945 1.381-2.543 1.381h-51.115c-.948 0-2.156-.061-2.792-.87-6.533-8.322.579-15.858 7.16-15.858 1.43 0 2.83.353 4.064 1.133a.32.32 0 0 0 .169.053c.313 0 .578-.541.703-1.087 1.721-7.542 7.221-11.237 12.467-11.237m.003-2.337c-3.261 0-6.484 1.186-9.074 3.339-2.457 2.042-4.271 4.872-5.305 8.246a10.4 10.4 0 0 0-3.024-.444c-4.563 0-8.982 2.734-10.999 6.803-1.991 4.019-1.27 8.693 1.973 12.823 1.391 1.773 3.68 1.773 4.658 1.773h51.112c3.346 0 4.442-1.893 4.799-3.02.768-2.431.452-4.846-.871-6.625-1.214-1.633-3.145-2.568-5.299-2.568q-.798 0-1.609.17c.106-2.074-.426-3.99-1.575-5.579-1.574-2.171-4.173-3.468-6.955-3.468-1.637 0-3.19.43-4.564 1.23-.496-4.285-2.295-7.057-3.893-8.725-2.442-2.55-5.771-3.952-9.371-3.952z"/><g clip-path="url(#b)"><path fill="#fff" d="M191.193 461.262h-86.041v98.559h86.041z"/><path fill="#30bca7" d="M191.193 461.262v98.56h-86.04v-98.56zm2.531-2.543h-91.102v103.646h91.102z"/><path fill="#fff" d="M196.571 459.035h-96.479l5.061-10.492h86.357z"/><path fill="#30bca7" d="m191.511 448.543 5.061 10.492h-96.48l5.061-10.492zm1.584-2.543h-89.526l-.693 1.434-5.061 10.492-1.762 3.653H200.61l-1.762-3.653-5.061-10.492z"/><path fill="#fff" d="M178.857 473.039h-21.51v16.297h21.51z"/><path fill="#30bca7" d="M178.857 473.04v16.297h-21.51V473.04zm2.531-2.544h-26.572v21.384h26.572z"/><path fill="#30bca7" d="M169.368 472.387h-2.531v17.804h2.531z"/><path fill="#fff" d="M138.05 524.984h-20.877v13.97h20.877z"/><path fill="#30bca7" d="M138.051 524.985v13.97h-20.878v-13.97zm2.53-2.544h-25.938v19.057h25.938z"/><path fill="#30bca7" d="M128.877 524.426h-2.53v15.261h2.53z"/><path fill="#fff" d="M134.163 472.387h-16.766v16.532h16.766z"/><path fill="#30bca7" d="M134.163 472.387v16.533h-16.765v-16.533zm2.531-2.543h-21.827v21.619h21.827z"/><path fill="#fff" d="M174.112 527.391h-21.51v32.429h21.51z"/><path fill="#30bca7" d="M174.112 527.391v32.429h-21.51v-32.429zm2.531-2.543h-26.572v37.516h26.572z"/><path fill="#30bca7" d="M157.031 540.545a1.27 1.27 0 0 0-1.266-1.272c-.699 0-1.265.57-1.265 1.272v3.097c0 .702.566 1.272 1.265 1.272a1.27 1.27 0 0 0 1.266-1.272z"/><path fill="#fff" d="M194.673 502.594h-93v8.902h93z"/><path fill="#30bca7" d="M194.673 502.594v8.902h-93v-8.902zm2.531-2.543H99.143v13.989h98.061z"/><path fill="#fff" d="M102.654 541.39c-1.993 0-3.732 1.25-3.732 1.25-.333-5.92-8.298-7.755-10.537-.083-6.805-.833-10.205 6.671-5.644 11.424-2.821 2.085-2.571 5.837-2.571 5.837h22.484v-18.431z"/><path fill="#30bca7" d="M93.883 537.476c2.502 0 4.862 1.997 5.039 5.164 0 0 1.743-1.25 3.732-1.25v18.431H80.17s-.25-3.752 2.572-5.837c-4.328-4.509-1.493-11.491 4.612-11.491q.5.001 1.028.064c1.04-3.57 3.324-5.081 5.497-5.081m.004-2.543c-1.753 0-3.417.623-4.805 1.799-.997.846-1.807 1.93-2.424 3.24-3.507.242-6.462 2.296-7.806 5.478-1.158 2.741-.915 5.767.582 8.327-1.547 2.165-1.883 4.75-1.785 6.209a2.537 2.537 0 0 0 2.525 2.375h22.484a2.537 2.537 0 0 0 2.531-2.543v-18.431a2.537 2.537 0 0 0-2.531-2.544c-.743 0-1.448.115-2.091.287-1.271-2.531-3.767-4.2-6.684-4.2z"/></g></g><defs><clipPath id="a"><path fill="#fff" d="M0 0h1080v560H0z"/></clipPath><clipPath id="b"><path fill="#fff" d="M77 446h124v117H77z"/></clipPath></defs></svg>