<svg width="1080" height="560" viewBox="0 0 1080 560" fill="none" xmlns="http://www.w3.org/2000/svg">
<g clip-path="url(#clip0_2733_19003)">
<path d="M1008.14 418.227H928.394V560.266H1008.14V418.227Z" fill="white"/>
<path d="M1008.14 418.227V560.267H928.394V418.227H1008.14ZM1008.14 415.863H928.394C927.089 415.863 926.031 416.921 926.031 418.227V560.267C926.031 561.572 927.089 562.63 928.394 562.63H1008.14C1009.45 562.63 1010.51 561.572 1010.51 560.267V418.227C1010.51 416.921 1009.45 415.863 1008.14 415.863Z" fill="#30BCA7"/>
<path d="M1012.28 409.363H924.258C924.095 409.363 923.963 409.496 923.963 409.659V415.272C923.963 415.435 924.095 415.567 924.258 415.567H1012.28C1012.44 415.567 1012.57 415.435 1012.57 415.272V409.659C1012.57 409.496 1012.44 409.363 1012.28 409.363Z" fill="white"/>
<path d="M1012.28 409.363C1012.44 409.363 1012.57 409.496 1012.57 409.659V415.272C1012.57 415.434 1012.44 415.567 1012.28 415.567H924.258C924.095 415.567 923.963 415.434 923.963 415.272V409.659C923.963 409.496 924.095 409.363 924.258 409.363H1012.28ZM1012.28 407H924.258C922.793 407 921.6 408.194 921.6 409.659V415.272C921.6 416.737 922.793 417.931 924.258 417.931H1012.28C1013.74 417.931 1014.93 416.737 1014.93 415.272V409.659C1014.93 408.194 1013.74 407 1012.28 407Z" fill="#30BCA7"/>
<path d="M961.533 428.902H938.447V441.201H961.533V428.902Z" fill="white"/>
<path d="M961.533 428.902V441.201H938.448V428.902H961.533ZM963.896 426.539H936.085V443.564H963.896V426.539Z" fill="#30BCA7"/>
<path d="M951.172 428.41H948.809V441.846H951.172V428.41Z" fill="#30BCA7"/>
<path d="M998.453 428.902H975.367V441.201H998.453V428.902Z" fill="white"/>
<path d="M998.452 428.902V441.201H975.367V428.902H998.452ZM1000.82 426.539H973.004V443.564H1000.82V426.539Z" fill="#30BCA7"/>
<path d="M988.091 428.41H985.729V441.846H988.091V428.41Z" fill="#30BCA7"/>
<path d="M961.533 456.672H938.447V468.97H961.533V456.672Z" fill="white"/>
<path d="M961.533 456.672V468.97H938.448V456.672H961.533ZM963.896 454.309H936.085V471.334H963.896V454.309Z" fill="#30BCA7"/>
<path d="M951.172 456.18H948.809V469.616H951.172V456.18Z" fill="#30BCA7"/>
<path d="M998.453 456.672H975.367V468.97H998.453V456.672Z" fill="white"/>
<path d="M998.452 456.672V468.97H975.367V456.672H998.452ZM1000.82 454.309H973.004V471.334H1000.82V454.309Z" fill="#30BCA7"/>
<path d="M988.091 456.18H985.729V469.616H988.091V456.18Z" fill="#30BCA7"/>
<path d="M961.533 484.441H938.447V496.74H961.533V484.441Z" fill="white"/>
<path d="M961.533 484.442V496.74H938.448V484.442H961.533ZM963.896 482.078H936.085V499.103H963.896V482.078Z" fill="#30BCA7"/>
<path d="M951.172 483.945H948.809V497.381H951.172V483.945Z" fill="#30BCA7"/>
<path d="M998.453 484.441H975.367V496.74H998.453V484.441Z" fill="white"/>
<path d="M998.452 484.442V496.74H975.367V484.442H998.452ZM1000.82 482.078H973.004V499.103H1000.82V482.078Z" fill="#30BCA7"/>
<path d="M988.091 483.945H985.729V497.381H988.091V483.945Z" fill="#30BCA7"/>
<path d="M987.023 560.32H950.397V520.438H968.17H987.023V560.32Z" fill="white"/>
<path d="M987.022 520.438V560.32H950.397V520.438H987.022ZM989.385 518.074H948.034V562.683H989.385V518.074Z" fill="#30BCA7"/>
<path d="M969.891 519.719H967.528V561.099H969.891V519.719Z" fill="#30BCA7"/>
<path d="M992.782 511.578H944.638V518.077H992.782V511.578Z" fill="white"/>
<path d="M992.783 511.578V518.078H944.638V511.578H992.783ZM995.146 509.215H942.275V520.441H995.146V509.215Z" fill="#30BCA7"/>
<path d="M876.707 512.434H798.139V560.382H876.707V512.434Z" fill="white"/>
<path d="M876.708 512.434V560.382H798.139V512.434H876.708ZM879.071 510.07H795.776V562.746H879.071V510.07Z" fill="#30BCA7"/>
<path d="M875.445 498.608H799.399V471.928L837.328 449.906L875.445 471.928V498.608Z" fill="white"/>
<path d="M837.328 449.909L875.442 471.93V498.61H799.399V471.93L837.328 449.909ZM837.325 447.176L836.14 447.864L798.212 469.886L797.036 470.568V500.971H877.808V470.565L876.627 469.883L838.512 447.861L837.328 447.176H837.325Z" fill="#30BCA7"/>
<path d="M882.881 509.807H791.346L799.025 501.051H876.412L883.111 509.326C883.268 509.518 883.129 509.807 882.881 509.807Z" fill="white"/>
<path d="M876.412 501.05L883.111 509.325C883.267 509.517 883.128 509.807 882.88 509.807H791.345L799.025 501.05H876.412ZM877.537 498.687H797.953L797.247 499.49L789.567 508.247L786.129 512.17H882.88C883.899 512.17 884.842 511.576 885.279 510.654C885.719 509.736 885.586 508.628 884.945 507.836L878.246 499.561L877.537 498.684V498.687Z" fill="#30BCA7"/>
<path d="M883.819 467.581L837.511 440.738L791.026 467.581C790.884 467.664 790.837 467.844 790.917 467.986L793.409 472.305C793.492 472.447 793.672 472.494 793.814 472.414L837.423 447.232L881.031 472.414C881.173 472.497 881.353 472.447 881.436 472.305L883.929 467.986C884.011 467.844 883.961 467.664 883.822 467.581H883.819Z" fill="white"/>
<path d="M837.511 440.736L883.82 467.578C883.961 467.661 884.009 467.841 883.926 467.983L881.433 472.302C881.377 472.397 881.279 472.45 881.176 472.45C881.126 472.45 881.076 472.438 881.028 472.412L837.42 447.229L793.811 472.412C793.764 472.438 793.714 472.45 793.664 472.45C793.56 472.45 793.463 472.397 793.407 472.302L790.914 467.983C790.831 467.841 790.881 467.661 791.023 467.578L837.508 440.736M837.514 438.006L836.33 438.688L789.845 465.531C788.575 466.264 788.137 467.895 788.873 469.162L791.366 473.481C791.838 474.302 792.722 474.811 793.67 474.811C794.136 474.811 794.594 474.687 794.999 474.453L837.423 449.953L879.85 474.453C880.254 474.687 880.712 474.811 881.179 474.811C882.127 474.811 883.007 474.302 883.48 473.481L885.973 469.159C886.705 467.892 886.271 466.264 885.004 465.528L838.696 438.685L837.514 438V438.006Z" fill="#30BCA7"/>
<path d="M829.652 475.535H810.453V489.42H829.652V475.535Z" fill="white"/>
<path d="M829.652 475.535V489.421H810.453V475.535H829.652ZM832.015 473.172H808.09V491.784H832.015V473.172Z" fill="#30BCA7"/>
<path d="M821.234 474.98H818.871V490.148H821.234V474.98Z" fill="#30BCA7"/>
<path d="M829.652 521.484H810.453V535.37H829.652V521.484Z" fill="white"/>
<path d="M829.652 521.485V535.37H810.453V521.485H829.652ZM832.015 519.121H808.09V537.733H832.015V519.121Z" fill="#30BCA7"/>
<path d="M821.234 520.93H818.871V536.097H821.234V520.93Z" fill="#30BCA7"/>
<path d="M864.052 475.535H844.853V489.42H864.052V475.535Z" fill="white"/>
<path d="M864.051 475.535V489.421H844.852V475.535H864.051ZM866.414 473.172H842.489V491.784H866.414V473.172Z" fill="#30BCA7"/>
<path d="M855.633 474.98H853.271V490.148H855.633V474.98Z" fill="#30BCA7"/>
<path d="M864.584 521.094H846.271V560.386H864.584V521.094Z" fill="white"/>
<path d="M864.585 521.094V560.386H846.272V521.094H864.585ZM866.948 518.73H843.909V562.75H866.948V518.73Z" fill="#30BCA7"/>
<path d="M850.407 536.67C850.407 536.017 849.878 535.488 849.225 535.488C848.573 535.488 848.044 536.017 848.044 536.67V541.14C848.044 541.793 848.573 542.322 849.225 542.322C849.878 542.322 850.407 541.793 850.407 541.14V536.67Z" fill="#30BCA7"/>
<path d="M1036.79 541.496H1029.71V560.935H1036.79V541.496Z" fill="white"/>
<path d="M1036.79 541.492V560.931H1029.71V541.492H1036.79ZM1036.79 539.129H1029.71C1028.4 539.129 1027.34 540.186 1027.34 541.492V560.931C1027.34 562.236 1028.4 563.294 1029.71 563.294H1036.79C1038.1 563.294 1039.16 562.236 1039.16 560.931V541.492C1039.16 540.186 1038.1 539.129 1036.79 539.129Z" fill="#30BCA7"/>
<path d="M1034.73 485.41H1032.07V539.427H1034.73V485.41Z" fill="white"/>
<path d="M1034.73 485.41V539.427H1032.07V485.41H1034.73ZM1034.73 483.047H1032.07C1030.76 483.047 1029.71 484.104 1029.71 485.41V539.427C1029.71 540.733 1030.76 541.791 1032.07 541.791H1034.73C1036.03 541.791 1037.09 540.733 1037.09 539.427V485.41C1037.09 484.104 1036.03 483.047 1034.73 483.047Z" fill="#30BCA7"/>
<path d="M1037.6 443.839C1037.6 441.367 1035.59 439.363 1033.12 439.363C1030.65 439.363 1028.65 441.367 1028.65 443.839V478.533C1028.65 481.004 1030.65 483.008 1033.12 483.008C1035.59 483.008 1037.6 481.004 1037.6 478.533V443.839Z" fill="white"/>
<path d="M1033.12 439.363C1035.59 439.363 1037.6 441.366 1037.6 443.839V478.533C1037.6 481.005 1035.59 483.008 1033.12 483.008C1030.65 483.008 1028.65 481.005 1028.65 478.533V443.839C1028.65 441.366 1030.65 439.363 1033.12 439.363ZM1033.12 437C1029.35 437 1026.28 440.066 1026.28 443.839V478.533C1026.28 482.302 1029.35 485.372 1033.12 485.372C1036.89 485.372 1039.96 482.305 1039.96 478.533V443.839C1039.96 440.069 1036.89 437 1033.12 437Z" fill="#30BCA7"/>
<path d="M925.003 538.25C924.385 537.94 924.338 537.063 924.932 536.708C926.506 535.772 927.478 534.49 927.478 533.075C927.478 531.24 925.841 529.627 923.372 528.703C922.926 528.537 922.684 528.065 922.82 527.61C923.024 526.927 923.139 526.183 923.139 525.403C923.139 522.065 921.092 519.359 918.567 519.359C916.042 519.359 913.995 522.065 913.995 525.403C913.995 526.183 914.108 526.927 914.314 527.61C914.45 528.065 914.208 528.537 913.762 528.703C911.293 529.624 909.657 531.237 909.657 533.075C909.657 534.49 910.629 535.772 912.203 536.708C912.796 537.06 912.746 537.94 912.132 538.25C910.186 539.228 908.963 540.643 908.963 542.22C908.963 545.174 913.263 547.567 918.567 547.567C923.872 547.567 928.172 545.174 928.172 542.22C928.172 540.646 926.949 539.231 925.003 538.25Z" fill="white"/>
<path d="M918.567 519.363C921.092 519.363 923.138 522.069 923.138 525.407C923.138 526.187 923.026 526.931 922.82 527.614C922.684 528.069 922.926 528.541 923.372 528.707C925.841 529.628 927.477 531.241 927.477 533.078C927.477 534.493 926.505 535.775 924.931 536.712C924.338 537.063 924.388 537.944 925.002 538.254C926.948 539.232 928.171 540.647 928.171 542.224C928.171 545.178 923.871 547.571 918.567 547.571C913.262 547.571 908.962 545.178 908.962 542.224C908.962 540.649 910.185 539.235 912.131 538.254C912.749 537.944 912.796 537.066 912.202 536.712C910.628 535.775 909.656 534.493 909.656 533.078C909.656 531.244 911.293 529.631 913.762 528.707C914.207 528.541 914.45 528.069 914.314 527.614C914.11 526.931 913.995 526.187 913.995 525.407C913.995 522.069 916.042 519.363 918.567 519.363ZM918.567 517C916.617 517 914.751 517.987 913.451 519.709C912.279 521.257 911.635 523.283 911.635 525.407C911.635 525.945 911.676 526.479 911.759 527.002C908.942 528.393 907.297 530.603 907.297 533.078C907.297 534.629 907.967 536.112 909.184 537.341C907.521 538.682 906.6 540.39 906.6 542.221C906.6 544.51 908.067 546.643 910.628 548.067C912.787 549.269 915.607 549.931 918.57 549.931C921.532 549.931 924.352 549.269 926.511 548.067C929.072 546.643 930.54 544.513 930.54 542.221C930.54 540.39 929.618 538.682 927.955 537.341C929.172 536.112 929.843 534.629 929.843 533.078C929.843 530.603 928.198 528.393 925.38 527.002C925.463 526.479 925.504 525.948 925.504 525.407C925.504 523.28 924.86 521.257 923.688 519.709C922.385 517.987 920.522 517 918.573 517H918.567Z" fill="#30BCA7"/>
<path d="M918.467 563.151C917.814 563.151 917.285 562.622 917.285 561.969V548.951C917.285 548.298 917.814 547.77 918.467 547.77C919.119 547.77 919.648 548.298 919.648 548.951V561.969C919.648 562.622 919.119 563.151 918.467 563.151Z" fill="#30BCA7"/>
<path d="M778.789 506.093C785.65 498.926 781.152 487.791 772.013 488.418C772.013 476.453 763.648 477.189 763.648 477.189C763.648 477.189 755.283 476.453 755.283 488.418C746.144 487.791 741.646 498.923 748.507 506.093C744.877 508.767 744.254 520.711 753.015 521.355C752.294 526.956 754.672 533.553 763.648 533.553C772.624 533.553 775.005 526.956 774.281 521.355C783.042 520.708 782.419 508.767 778.789 506.093Z" fill="white"/>
<path d="M763.649 534.737C759.634 534.737 756.527 533.52 754.418 531.121C752.498 528.937 751.544 525.797 751.733 522.376C748.558 521.744 746.237 519.563 745.283 516.249C744.246 512.653 744.984 508.337 746.88 506.033C743.859 502.293 743.138 497.386 745.082 493.238C746.78 489.607 750.18 487.379 754.129 487.223C754.321 483.211 755.493 480.195 757.623 478.242C760.113 475.961 763.055 475.979 763.649 476.005C764.242 475.979 767.184 475.961 769.674 478.242C771.804 480.192 772.976 483.211 773.168 487.22C777.12 487.374 780.517 489.604 782.215 493.235C784.156 497.383 783.435 502.29 780.417 506.03C782.31 508.334 783.048 512.647 782.015 516.246C781.061 519.561 778.739 521.741 775.564 522.373C775.753 525.797 774.799 528.934 772.879 531.118C770.77 533.517 767.666 534.734 763.649 534.734V534.737ZM754.557 489.574C751.317 489.574 748.605 491.285 747.223 494.236C745.542 497.829 746.381 502.16 749.362 505.274L750.292 506.246L749.208 507.043C747.637 508.201 746.573 512.187 747.554 515.59C748.115 517.537 749.533 519.912 753.101 520.175L754.344 520.267L754.185 521.504C753.774 524.701 754.504 527.638 756.193 529.558C757.836 531.425 760.343 532.37 763.649 532.37C766.954 532.37 769.461 531.425 771.104 529.558C772.79 527.638 773.523 524.704 773.112 521.504L772.953 520.267L774.196 520.175C777.764 519.912 779.182 517.537 779.743 515.59C780.724 512.184 779.66 508.198 778.089 507.043L777.005 506.246L777.936 505.274C780.916 502.16 781.755 497.826 780.074 494.236C778.6 491.09 775.62 489.359 772.093 489.595L770.832 489.681V488.416C770.832 484.517 769.916 481.687 768.106 480.008C766.162 478.206 763.843 478.357 763.743 478.366L763.646 478.372L763.542 478.363C763.454 478.357 761.132 478.203 759.188 480.008C757.381 481.687 756.462 484.517 756.462 488.416V489.681L755.201 489.595C754.982 489.58 754.767 489.572 754.554 489.572L754.557 489.574Z" fill="#30BCA7"/>
<path d="M763.805 563.46C763.152 563.46 762.623 562.931 762.623 562.278V509.275C762.623 508.623 763.152 508.094 763.805 508.094C764.457 508.094 764.986 508.623 764.986 509.275V562.278C764.986 562.931 764.457 563.46 763.805 563.46Z" fill="#30BCA7"/>
<path d="M758.805 513.449L756.719 514.559L762.607 525.64L764.694 524.531L758.805 513.449Z" fill="#30BCA7"/>
<path d="M768.486 513.465L762.598 524.547L764.684 525.656L770.573 514.574L768.486 513.465Z" fill="#30BCA7"/>
<path d="M810.814 553.655C811.103 553.038 811.233 552.329 811.132 551.578C810.911 549.93 809.576 548.601 807.928 548.394C806.93 548.27 805.996 548.542 805.264 549.073C805.155 549.153 805.013 549.153 804.903 549.073C804.289 548.627 803.536 548.364 802.721 548.364C801.395 548.364 800.231 549.058 799.575 550.104C799.457 550.293 799.194 550.293 799.076 550.104C798.418 549.058 797.257 548.364 795.931 548.364C794.737 548.364 793.677 548.928 792.995 549.803C792.762 550.104 792.304 550.104 792.07 549.803C791.391 548.928 790.331 548.364 789.135 548.364C788.048 548.364 787.07 548.831 786.391 549.575C786.039 549.962 785.437 549.962 785.082 549.575C784.403 548.831 783.425 548.364 782.338 548.364C781.252 548.364 780.274 548.831 779.595 549.575C779.243 549.962 778.641 549.962 778.286 549.575C777.607 548.831 776.629 548.364 775.542 548.364C774.456 548.364 773.478 548.831 772.799 549.575C772.447 549.962 771.845 549.962 771.49 549.575C770.811 548.831 769.833 548.364 768.746 548.364C767.659 548.364 766.682 548.831 766.002 549.575C765.651 549.962 765.048 549.962 764.694 549.575C764.015 548.831 763.037 548.364 761.95 548.364C760.863 548.364 759.9 548.825 759.221 549.561C758.867 549.945 758.255 549.968 757.907 549.581C757.109 548.704 755.904 548.211 754.587 548.406C753.001 548.642 751.722 549.921 751.483 551.507C751.27 552.911 751.849 554.184 752.833 554.973V555.109C750.685 555.176 748.996 557.058 749.256 559.274C749.318 559.803 749.495 560.296 749.764 560.736H812.163C813.058 560.116 813.675 559.103 813.767 557.971C813.918 556.104 812.689 554.5 810.991 554.063C810.811 554.016 810.719 553.821 810.799 553.652L810.814 553.655Z" fill="white"/>
<path d="M755.168 548.363C756.258 548.363 757.239 548.833 757.918 549.58C758.089 549.767 758.32 549.858 758.553 549.858C758.801 549.858 759.052 549.755 759.235 549.56C759.915 548.824 760.883 548.363 761.964 548.363C763.045 548.363 764.029 548.83 764.708 549.575C764.886 549.767 765.125 549.864 765.361 549.864C765.597 549.864 765.84 549.767 766.014 549.575C766.693 548.83 767.671 548.363 768.758 548.363C769.845 548.363 770.822 548.83 771.501 549.575C771.679 549.767 771.918 549.864 772.154 549.864C772.39 549.864 772.633 549.767 772.807 549.575C773.486 548.83 774.464 548.363 775.551 548.363C776.638 548.363 777.615 548.83 778.295 549.575C778.472 549.767 778.711 549.864 778.947 549.864C779.184 549.864 779.426 549.767 779.6 549.575C780.279 548.83 781.257 548.363 782.344 548.363C783.431 548.363 784.408 548.83 785.088 549.575C785.265 549.767 785.504 549.864 785.74 549.864C785.977 549.864 786.219 549.767 786.393 549.575C787.072 548.83 788.05 548.363 789.137 548.363C790.33 548.363 791.391 548.928 792.073 549.802C792.191 549.953 792.362 550.029 792.534 550.029C792.705 550.029 792.879 549.953 792.994 549.802C793.674 548.928 794.734 548.363 795.93 548.363C797.256 548.363 798.42 549.058 799.076 550.103C799.135 550.198 799.229 550.245 799.327 550.245C799.424 550.245 799.519 550.198 799.578 550.103C800.236 549.058 801.397 548.363 802.723 548.363C803.538 548.363 804.295 548.626 804.906 549.072C804.959 549.111 805.024 549.131 805.086 549.131C805.148 549.131 805.213 549.111 805.266 549.072C805.881 548.626 806.634 548.363 807.449 548.363C807.605 548.363 807.768 548.372 807.927 548.393C809.575 548.6 810.91 549.929 811.132 551.577C811.232 552.328 811.105 553.037 810.813 553.654C810.733 553.823 810.825 554.018 811.005 554.065C812.703 554.502 813.932 556.106 813.781 557.973C813.69 559.105 813.072 560.118 812.178 560.738H749.775C749.509 560.298 749.332 559.805 749.267 559.276C749.007 557.06 750.697 555.179 752.844 555.111V554.975C751.86 554.183 751.282 552.913 751.494 551.509C751.733 549.923 753.012 548.644 754.598 548.408C754.79 548.378 754.982 548.366 755.168 548.366M807.446 546C806.625 546 805.824 546.162 805.083 546.476C804.342 546.162 803.541 546 802.72 546C801.486 546 800.31 546.369 799.324 547.034C798.337 546.369 797.165 546 795.927 546C794.69 546 793.52 546.366 792.531 547.034C791.541 546.363 790.369 546 789.134 546C787.899 546 786.733 546.369 785.737 547.04C784.742 546.369 783.558 546 782.341 546C781.124 546 779.94 546.369 778.944 547.04C777.949 546.369 776.765 546 775.548 546C774.331 546 773.147 546.369 772.151 547.04C771.156 546.369 769.972 546 768.755 546C767.538 546 766.353 546.369 765.358 547.04C764.363 546.369 763.178 546 761.962 546C760.745 546 759.56 546.369 758.565 547.04C757.57 546.369 756.385 546 755.168 546C754.864 546 754.554 546.024 754.25 546.068C751.645 546.455 749.551 548.546 749.158 551.155C749.013 552.106 749.093 553.049 749.371 553.92C748.998 554.192 748.659 554.505 748.352 554.859C747.244 556.145 746.724 557.855 746.922 559.554C747.023 560.407 747.303 561.22 747.755 561.964L748.446 563.101H812.913L813.518 562.682C815.01 561.651 815.988 559.961 816.135 558.165C816.318 555.923 815.267 553.84 813.501 552.638C813.542 552.183 813.533 551.722 813.471 551.264C813.105 548.535 810.946 546.39 808.217 546.05C807.96 546.018 807.7 546.003 807.443 546.003L807.446 546Z" fill="#30BCA7"/>
<path d="M300.677 503.516H217.977V559.645H300.677V503.516Z" fill="white"/>
<path d="M300.676 503.516V559.645H217.976V503.516H300.676ZM303.039 501.152H215.613V562.009H303.039V501.152Z" fill="#30BCA7"/>
<path d="M300.677 551.605H217.977V559.963H300.677V551.605Z" fill="white"/>
<path d="M300.676 551.606V559.963H217.976V551.606H300.676ZM303.039 549.242H215.613V562.326H303.039V549.242Z" fill="#30BCA7"/>
<path d="M259.916 515.527H225.95V535.069H259.916V515.527Z" fill="white"/>
<path d="M259.917 515.527V535.069H225.951V515.527H259.917ZM262.28 513.164H223.588V537.433H262.28V513.164Z" fill="#30BCA7"/>
<path d="M244.116 514.742H241.753V536.089H244.116V514.742Z" fill="#30BCA7"/>
<path d="M292.701 512.379H271.436V559.646H292.701V512.379Z" fill="white"/>
<path d="M292.701 512.379V559.646H271.435V512.379H292.701ZM295.064 510.016H269.072V562.009H295.064V510.016Z" fill="#30BCA7"/>
<path d="M277.342 529.533C277.342 528.881 276.813 528.352 276.161 528.352C275.508 528.352 274.979 528.881 274.979 529.533V538.928C274.979 539.58 275.508 540.109 276.161 540.109C276.813 540.109 277.342 539.58 277.342 538.928V529.533Z" fill="#30BCA7"/>
<path d="M306.288 501.156H212.364L220.044 481.363H298.609L306.288 501.156Z" fill="white"/>
<path d="M298.608 481.363L306.288 501.156H212.364L220.043 481.363H298.608ZM298.608 479H220.043C219.068 479 218.194 479.6 217.84 480.51L210.16 500.303C209.877 501.029 209.974 501.848 210.414 502.492C210.854 503.136 211.584 503.52 212.364 503.52H306.288C307.067 503.52 307.797 503.136 308.237 502.492C308.677 501.848 308.772 501.029 308.491 500.303L300.812 480.51C300.46 479.6 299.583 479 298.608 479Z" fill="#30BCA7"/>
<path d="M304.516 493.473H214.225V495.836H304.516V493.473Z" fill="#30BCA7"/>
<path d="M301.612 485.793H217.013V488.156H301.612V485.793Z" fill="#30BCA7"/>
<path d="M328.402 537.254C327.785 536.944 327.738 536.066 328.331 535.712C329.905 534.776 330.877 533.494 330.877 532.079C330.877 530.244 329.241 528.631 326.772 527.707C326.326 527.541 326.084 527.069 326.22 526.614C326.423 525.931 326.538 525.187 326.538 524.407C326.538 521.069 324.492 518.363 321.967 518.363C319.442 518.363 317.395 521.069 317.395 524.407C317.395 525.187 317.507 525.931 317.714 526.614C317.85 527.069 317.607 527.541 317.162 527.707C314.693 528.628 313.056 530.241 313.056 532.079C313.056 533.494 314.028 534.776 315.602 535.712C316.196 536.063 316.146 536.944 315.531 537.254C313.585 538.232 312.362 539.647 312.362 541.224C312.362 544.178 316.662 546.571 321.967 546.571C327.271 546.571 331.571 544.178 331.571 541.224C331.571 539.65 330.348 538.235 328.402 537.254Z" fill="white"/>
<path d="M321.967 518.367C324.492 518.367 326.539 521.073 326.539 524.411C326.539 525.191 326.427 525.935 326.22 526.618C326.084 527.072 326.326 527.545 326.772 527.71C329.241 528.632 330.877 530.245 330.877 532.082C330.877 533.497 329.906 534.779 328.332 535.716C327.738 536.067 327.788 536.948 328.402 537.258C330.349 538.235 331.571 539.65 331.571 541.228C331.571 544.182 327.271 546.575 321.967 546.575C316.663 546.575 312.363 544.182 312.363 541.228C312.363 539.653 313.585 538.238 315.532 537.258C316.149 536.948 316.196 536.07 315.603 535.716C314.028 534.779 313.057 533.497 313.057 532.082C313.057 530.248 314.693 528.635 317.162 527.71C317.608 527.545 317.85 527.072 317.714 526.618C317.51 525.935 317.395 525.191 317.395 524.411C317.395 521.073 319.442 518.367 321.967 518.367ZM321.967 516.004C320.018 516.004 318.151 516.991 316.852 518.713C315.679 520.261 315.035 522.287 315.035 524.411C315.035 524.949 315.077 525.483 315.16 526.006C312.342 527.397 310.697 529.607 310.697 532.082C310.697 533.633 311.367 535.116 312.584 536.345C310.921 537.686 310 539.393 310 541.225C310 543.514 311.468 545.647 314.028 547.071C316.187 548.273 319.008 548.935 321.97 548.935C324.932 548.935 327.753 548.273 329.912 547.071C332.472 545.647 333.94 543.517 333.94 541.225C333.94 539.393 333.019 537.686 331.356 536.345C332.573 535.116 333.243 533.633 333.243 532.082C333.243 529.607 331.598 527.397 328.78 526.006C328.863 525.483 328.905 524.951 328.905 524.411C328.905 522.284 328.261 520.261 327.088 518.713C325.786 516.991 323.922 516.004 321.973 516.004H321.967Z" fill="#30BCA7"/>
<path d="M321.866 562.151C321.213 562.151 320.685 561.622 320.685 560.969V547.951C320.685 547.298 321.213 546.77 321.866 546.77C322.519 546.77 323.047 547.298 323.047 547.951V560.969C323.047 561.622 322.519 562.151 321.866 562.151Z" fill="#30BCA7"/>
<path d="M61.7886 505.093C68.65 497.926 64.1515 486.791 55.0128 487.418C55.0128 475.453 46.648 476.189 46.648 476.189C46.648 476.189 38.2831 475.453 38.2831 487.418C29.1444 486.791 24.6459 497.923 31.5074 505.093C27.8773 507.767 27.254 519.711 36.0147 520.355C35.294 525.956 37.6717 532.553 46.648 532.553C55.6242 532.553 58.0049 525.956 57.2812 520.355C66.0419 519.708 65.4186 507.767 61.7886 505.093Z" fill="white"/>
<path d="M46.6485 533.737C42.6345 533.737 39.5272 532.52 37.4183 530.121C35.4984 527.937 34.5443 524.797 34.7334 521.376C31.5581 520.744 29.2366 518.563 28.2825 515.249C27.2458 511.653 27.9842 507.337 29.8805 505.033C26.8588 501.293 26.1381 496.386 28.0817 492.238C29.78 488.607 33.1797 486.379 37.1288 486.223C37.3208 482.211 38.4934 479.195 40.623 477.242C43.113 474.961 46.0548 474.979 46.6485 475.005C47.2422 474.979 50.1841 474.961 52.6741 477.242C54.8037 479.192 55.9763 482.211 56.1683 486.22C60.1203 486.374 63.517 488.604 65.2154 492.235C67.156 496.383 66.4353 501.29 63.4166 505.03C65.3099 507.334 66.0484 511.647 65.0146 515.246C64.0605 518.561 61.7389 520.741 58.5637 521.373C58.7527 524.797 57.7987 527.934 55.8788 530.118C53.7699 532.517 50.6656 533.734 46.6485 533.734V533.737ZM37.5571 488.574C34.3169 488.574 31.6054 490.285 30.2231 493.236C28.5424 496.829 29.3813 501.16 32.3616 504.274L33.292 505.246L32.208 506.043C30.6366 507.201 29.5733 511.187 30.5539 514.59C31.1151 516.537 32.5329 518.912 36.1009 519.175L37.3444 519.267L37.1849 520.504C36.7744 523.701 37.5039 526.638 39.1934 528.558C40.8357 530.425 43.3434 531.37 46.6485 531.37C49.9537 531.37 52.4614 530.425 54.1036 528.558C55.7902 526.638 56.5227 523.704 56.1122 520.504L55.9527 519.267L57.1962 519.175C60.7642 518.912 62.182 516.537 62.7432 514.59C63.7238 511.184 62.6605 507.198 61.0891 506.043L60.0051 505.246L60.9355 504.274C63.9158 501.16 64.7546 496.826 63.074 493.236C61.6001 490.09 58.6198 488.359 55.0931 488.595L53.8319 488.681V487.416C53.8319 483.517 52.9163 480.687 51.1056 479.008C49.1621 477.206 46.8435 477.357 46.7431 477.366L46.6456 477.372L46.5422 477.363C46.4536 477.357 44.132 477.203 42.1885 479.008C40.3808 480.687 39.4622 483.517 39.4622 487.416V488.681L38.201 488.595C37.9824 488.58 37.7668 488.572 37.5541 488.572L37.5571 488.574Z" fill="#30BCA7"/>
<path d="M46.8045 562.46C46.1518 562.46 45.623 561.931 45.623 561.278V508.275C45.623 507.623 46.1518 507.094 46.8045 507.094C47.4573 507.094 47.986 507.623 47.986 508.275V561.278C47.986 561.931 47.4573 562.46 46.8045 562.46Z" fill="#30BCA7"/>
<path d="M41.8053 512.449L39.7188 513.559L45.6074 524.64L47.694 523.531L41.8053 512.449Z" fill="#30BCA7"/>
<path d="M51.4873 512.461L45.5986 523.543L47.6852 524.652L53.5738 513.57L51.4873 512.461Z" fill="#30BCA7"/>
<path d="M724.729 261.037C725.157 263.216 724.415 264.738 725.643 265.097C726.804 265.427 727.706 264.554 728.671 264.119C732.873 262.22 736.871 265.053 736.317 269.496C741.176 268.196 741.446 274.322 738.793 275.373H697.742C694.82 275.373 693.551 272.715 693.346 272.157C691.11 266.026 699.172 261.154 703.657 265.687C704.345 265.892 704.89 265.562 705.169 264.945C704.908 260.716 706.004 256.904 709.817 254.681C713.63 252.458 722.991 252.186 724.726 261.037H724.729Z" fill="white"/>
<path d="M715.309 253.337C719.274 253.337 723.6 255.259 724.731 261.037C725.159 263.216 724.418 264.738 725.646 265.097C725.825 265.147 725.995 265.17 726.162 265.17C727.082 265.17 727.856 264.487 728.673 264.118C729.582 263.71 730.479 263.52 731.326 263.52C734.394 263.52 736.756 266.014 736.323 269.496C736.786 269.373 737.205 269.315 737.586 269.315C741.205 269.315 741.199 274.421 738.799 275.373H697.748C694.826 275.373 693.557 272.715 693.352 272.157C691.728 267.703 695.538 263.911 699.465 263.911C700.943 263.911 702.437 264.449 703.662 265.687C703.8 265.728 703.932 265.748 704.058 265.748C704.559 265.748 704.952 265.439 705.177 264.945C704.917 260.715 706.013 256.903 709.826 254.681C711.194 253.883 713.202 253.337 715.312 253.337M715.309 251C712.879 251 710.45 251.608 708.636 252.662C706.382 253.977 704.753 255.831 703.797 258.18C703.293 259.418 702.976 260.8 702.853 262.31C701.798 261.828 700.649 261.574 699.462 261.574C696.59 261.574 693.771 263.044 692.109 265.41C690.556 267.621 690.204 270.372 691.145 272.955C691.79 274.722 693.903 277.71 697.745 277.71H739.245L739.661 277.544C741.914 276.65 743.222 273.939 742.7 271.237C742.266 268.982 740.684 267.422 738.556 267.06C738.298 265.769 737.723 264.595 736.859 263.619C735.487 262.071 733.468 261.183 731.323 261.183C730.109 261.183 728.89 261.454 727.703 261.992C727.53 262.071 727.369 262.153 727.217 262.234C727.196 261.747 727.149 261.192 727.032 260.59C726.399 257.359 724.808 254.774 722.431 253.109C720.461 251.73 718 251 715.312 251H715.309Z" fill="#30BCA7"/>
<path d="M718.085 365.166C718.085 365.166 736.648 365.166 742.336 365.166C747.678 365.166 751.55 364.778 751.55 364.176C751.55 363.314 740.249 361.246 739.78 355.384C738.371 337.826 718.487 341.402 719.717 352.282C713.607 351.061 706.439 361.389 718.085 365.166Z" fill="white"/>
<path d="M742.337 366.334H717.898L717.723 366.275C709.854 363.723 710.522 358.652 710.915 357.156C711.823 353.698 715.158 351.113 718.499 351.014C718.596 348.245 719.932 345.768 722.294 344.068C725.518 341.749 729.97 341.34 733.636 343.028C736.092 344.158 740.306 347.255 740.951 355.287C741.229 358.769 746.8 360.881 749.792 362.014C751.806 362.776 752.723 363.124 752.723 364.172C752.723 365.671 750.698 365.884 749.071 366.056C747.36 366.237 745.03 366.331 742.337 366.331V366.334ZM718.273 363.997H742.337C744.719 363.997 746.577 363.918 747.946 363.813C744.359 362.417 738.975 359.981 738.615 355.477C738.207 350.4 736.089 346.735 732.654 345.151C729.747 343.811 726.218 344.132 723.669 345.966C721.594 347.459 720.603 349.655 720.888 352.15L721.066 353.742L719.49 353.426C716.966 352.921 713.901 355.024 713.186 357.752C712.488 360.404 714.344 362.674 718.276 363.997H718.273Z" fill="#30BCA7"/>
<path d="M643.588 297.179C643.523 298.4 644.139 298.742 644.417 298.292C648.661 291.472 658.924 295.263 655.964 303.959C655.63 304.938 656.04 305.376 656.547 305.025C661.319 301.698 665.844 304.917 664.305 309.821C664.053 310.625 663.367 311.203 661.782 311.203H611.063C610.122 311.203 608.923 311.142 608.293 310.333C600.404 300.205 612.569 291.241 619.43 295.608C619.811 295.85 620.148 295.216 620.295 294.574C623.929 278.529 644.508 279.901 643.588 297.179Z" fill="white"/>
<path d="M632.665 283.337C638.529 283.337 644.077 288.025 643.587 297.179C643.541 298.059 643.845 298.482 644.127 298.482C644.235 298.482 644.341 298.418 644.417 298.292C645.926 295.868 648.192 294.784 650.357 294.784C654.285 294.784 657.872 298.351 655.964 303.959C655.709 304.713 655.891 305.145 656.219 305.145C656.318 305.145 656.43 305.107 656.547 305.025C657.901 304.082 659.237 303.664 660.419 303.664C663.399 303.664 665.404 306.311 664.305 309.822C664.053 310.625 663.367 311.203 661.781 311.203H611.062C610.122 311.203 608.923 311.142 608.293 310.333C601.81 302.011 608.867 294.475 615.397 294.475C616.815 294.475 618.205 294.828 619.43 295.608C619.485 295.643 619.544 295.661 619.597 295.661C619.907 295.661 620.171 295.12 620.294 294.574C622.003 287.032 627.46 283.337 632.665 283.337ZM632.668 281C629.432 281 626.235 282.186 623.664 284.339C621.226 286.381 619.427 289.211 618.401 292.585C617.448 292.293 616.437 292.141 615.4 292.141C610.872 292.141 606.488 294.875 604.486 298.944C602.511 302.963 603.226 307.637 606.444 311.767C607.824 313.54 610.095 313.54 611.065 313.54H661.781C665.102 313.54 666.189 311.647 666.544 310.52C667.306 308.089 666.992 305.674 665.679 303.895C664.475 302.262 662.558 301.327 660.421 301.327C659.894 301.327 659.361 301.383 658.824 301.497C658.93 299.423 658.402 297.507 657.262 295.918C655.7 293.747 653.121 292.45 650.36 292.45C648.737 292.45 647.195 292.88 645.832 293.68C645.34 289.395 643.555 286.623 641.97 284.955C639.546 282.405 636.243 281.003 632.671 281.003L632.668 281Z" fill="#30BCA7"/>
<path d="M881.198 322.179C881.134 323.4 881.749 323.742 882.028 323.292C886.271 316.472 896.535 320.263 893.575 328.959C893.241 329.938 893.651 330.376 894.158 330.025C898.929 326.698 903.454 329.917 901.915 334.821C901.663 335.625 900.978 336.203 899.392 336.203H848.673C847.732 336.203 846.534 336.142 845.904 335.333C838.014 325.205 850.179 316.241 857.04 320.608C857.421 320.85 857.758 320.216 857.905 319.574C861.539 303.529 882.118 304.901 881.198 322.179Z" fill="white"/>
<path d="M870.276 308.337C876.14 308.337 881.688 313.025 881.199 322.179C881.152 323.059 881.457 323.482 881.738 323.482C881.846 323.482 881.952 323.418 882.028 323.292C883.537 320.868 885.803 319.784 887.969 319.784C891.896 319.784 895.483 323.351 893.575 328.959C893.32 329.713 893.502 330.145 893.83 330.145C893.93 330.145 894.041 330.107 894.158 330.025C895.512 329.082 896.849 328.664 898.03 328.664C901.01 328.664 903.015 331.311 901.916 334.822C901.664 335.625 900.978 336.203 899.393 336.203H848.674C847.733 336.203 846.534 336.142 845.904 335.333C839.421 327.011 846.479 319.475 853.008 319.475C854.427 319.475 855.816 319.828 857.041 320.608C857.097 320.643 857.155 320.661 857.208 320.661C857.519 320.661 857.782 320.12 857.905 319.574C859.614 312.032 865.071 308.337 870.276 308.337ZM870.279 306C867.043 306 863.846 307.186 861.276 309.339C858.837 311.381 857.038 314.211 856.012 317.585C855.06 317.293 854.049 317.141 853.011 317.141C848.483 317.141 844.099 319.875 842.097 323.944C840.122 327.963 840.837 332.637 844.055 336.767C845.435 338.54 847.707 338.54 848.677 338.54H899.393C902.713 338.54 903.8 336.647 904.155 335.52C904.917 333.089 904.603 330.674 903.291 328.895C902.086 327.262 900.169 326.327 898.033 326.327C897.505 326.327 896.972 326.383 896.436 326.497C896.541 324.423 896.014 322.507 894.874 320.918C893.311 318.747 890.732 317.45 887.972 317.45C886.348 317.45 884.806 317.88 883.444 318.68C882.951 314.395 881.167 311.623 879.581 309.955C877.157 307.405 873.854 306.003 870.282 306.003L870.279 306Z" fill="#30BCA7"/>
<path d="M429.367 272.033C429.799 274.212 429.051 275.734 430.289 276.093C431.459 276.423 432.368 275.55 433.34 275.115C437.576 273.216 441.604 276.049 441.046 280.492C445.943 279.192 446.215 285.318 443.542 286.37H402.17C399.225 286.37 397.947 283.711 397.74 283.153C395.486 277.022 403.612 272.15 408.131 276.683C408.825 276.888 409.374 276.558 409.655 275.941C409.392 271.712 410.497 267.9 414.339 265.677C418.182 263.454 427.616 263.182 429.365 272.033H429.367Z" fill="white"/>
<path d="M419.875 264.333C423.871 264.333 428.231 266.255 429.371 272.033C429.802 274.212 429.055 275.734 430.293 276.093C430.473 276.143 430.644 276.166 430.812 276.166C431.74 276.166 432.52 275.483 433.344 275.115C434.259 274.706 435.163 274.516 436.017 274.516C439.109 274.516 441.49 277.01 441.053 280.492C441.519 280.37 441.942 280.311 442.326 280.311C445.973 280.311 445.968 285.417 443.549 286.369H402.177C399.232 286.369 397.953 283.711 397.746 283.153C396.11 278.699 399.95 274.907 403.908 274.907C405.396 274.907 406.903 275.445 408.137 276.683C408.276 276.724 408.409 276.744 408.536 276.744C409.041 276.744 409.437 276.435 409.664 275.941C409.401 271.712 410.506 267.9 414.349 265.677C415.728 264.879 417.751 264.333 419.878 264.333M419.875 261.996C417.426 261.996 414.978 262.604 413.149 263.658C410.878 264.973 409.236 266.828 408.273 269.176C407.765 270.415 407.446 271.796 407.322 273.306C406.259 272.824 405.101 272.57 403.905 272.57C401.01 272.57 398.169 274.04 396.494 276.406C394.928 278.617 394.574 281.369 395.522 283.951C396.172 285.718 398.301 288.706 402.174 288.706H443.997L444.417 288.54C446.688 287.646 448.006 284.935 447.48 282.233C447.043 279.978 445.448 278.418 443.303 278.056C443.043 276.765 442.464 275.591 441.593 274.615C440.211 273.067 438.176 272.179 436.014 272.179C434.791 272.179 433.562 272.451 432.366 272.988C432.192 273.067 432.029 273.149 431.876 273.23C431.855 272.743 431.808 272.188 431.69 271.586C431.052 268.355 429.448 265.77 427.052 264.105C425.067 262.726 422.586 261.996 419.878 261.996H419.875Z" fill="#30BCA7"/>
<path d="M228.186 264.96C229.27 267.095 230.472 269.309 229.87 271.152C229.527 272.201 230.806 271.891 231.438 271.152C235.564 266.327 242.033 270.387 242.379 274.731C242.47 275.864 242.036 277.582 243.333 278.169C243.802 278.382 244.334 278.292 244.815 278.455C247.107 279.223 247.775 282.475 245.616 283.76H199.169C197.349 283.76 195.302 282.13 194.827 280.865C192.467 274.57 199.346 267.171 207.906 272.42C208.307 272.666 208.505 271.947 209.093 269.143C211.624 257.058 225.262 259.205 228.186 264.963V264.96Z" fill="white"/>
<path d="M219.204 260.337C223.055 260.337 226.806 262.247 228.186 264.961C229.27 267.096 230.472 269.311 229.869 271.154C229.713 271.633 229.896 271.829 230.2 271.829C230.561 271.829 231.095 271.554 231.438 271.154C232.764 269.603 234.335 268.969 235.865 268.969C239.094 268.969 242.145 271.785 242.381 274.732C242.473 275.866 242.039 277.583 243.335 278.17C243.805 278.384 244.337 278.293 244.818 278.457C247.11 279.225 247.778 282.479 245.619 283.761H199.171C197.352 283.761 195.305 282.131 194.829 280.867C193.031 276.073 196.593 270.637 202.175 270.637C203.924 270.637 205.868 271.168 207.909 272.422C207.956 272.451 208 272.465 208.044 272.465C208.363 272.465 208.576 271.612 209.096 269.141C210.437 262.75 214.882 260.34 219.206 260.34M219.204 258C216.336 258 213.698 258.865 211.577 260.498C209.134 262.379 207.522 265.128 206.78 268.665C206.751 268.811 206.712 268.989 206.671 269.185C205.173 268.595 203.667 268.297 202.175 268.297C198.782 268.297 195.733 269.86 193.816 272.585C191.932 275.264 191.483 278.661 192.614 281.676C193.397 283.767 196.283 286.095 199.171 286.095H246.274L246.836 285.762C248.552 284.743 249.482 282.862 249.263 280.855C249.033 278.725 247.586 276.914 245.577 276.242C245.27 276.14 244.987 276.088 244.741 276.052C244.741 275.909 244.744 275.763 244.747 275.641C244.756 275.29 244.765 274.928 244.733 274.548C244.396 270.33 240.252 266.632 235.862 266.632C234.79 266.632 233.399 266.848 231.978 267.666C231.594 266.462 231.001 265.297 230.442 264.202L230.295 263.912C228.528 260.43 223.965 258 219.201 258H219.204Z" fill="#30BCA7"/>
<path d="M376.186 223.96C377.27 226.095 378.472 228.309 377.87 230.152C377.527 231.201 378.806 230.891 379.438 230.152C383.564 225.327 390.033 229.387 390.379 233.731C390.47 234.864 390.036 236.582 391.333 237.169C391.802 237.382 392.334 237.292 392.815 237.455C395.107 238.223 395.775 241.475 393.616 242.76H347.169C345.349 242.76 343.302 241.13 342.827 239.865C340.467 233.57 347.346 226.171 355.906 231.42C356.307 231.666 356.505 230.947 357.093 228.143C359.624 216.058 373.262 218.205 376.186 223.963V223.96Z" fill="white"/>
<path d="M367.203 219.337C371.054 219.337 374.805 221.247 376.185 223.961C377.269 226.096 378.471 228.311 377.868 230.154C377.712 230.633 377.895 230.829 378.199 230.829C378.56 230.829 379.094 230.554 379.437 230.154C380.763 228.603 382.334 227.969 383.864 227.969C387.093 227.969 390.144 230.785 390.38 233.732C390.472 234.866 390.038 236.583 391.334 237.17C391.804 237.384 392.336 237.293 392.817 237.457C395.109 238.225 395.777 241.479 393.618 242.761H347.17C345.351 242.761 343.304 241.131 342.829 239.867C341.03 235.073 344.592 229.637 350.174 229.637C351.923 229.637 353.867 230.168 355.908 231.422C355.955 231.451 355.999 231.465 356.043 231.465C356.362 231.465 356.575 230.612 357.095 228.141C358.436 221.75 362.881 219.34 367.206 219.34M367.203 217C364.335 217 361.697 217.865 359.576 219.498C357.133 221.379 355.521 224.128 354.779 227.665C354.75 227.811 354.711 227.989 354.67 228.185C353.172 227.595 351.666 227.297 350.174 227.297C346.781 227.297 343.732 228.86 341.815 231.585C339.931 234.264 339.482 237.661 340.613 240.676C341.396 242.767 344.282 245.095 347.17 245.095H394.273L394.835 244.762C396.551 243.743 397.481 241.862 397.263 239.855C397.032 237.725 395.585 235.914 393.576 235.242C393.269 235.14 392.986 235.088 392.74 235.052C392.74 234.909 392.743 234.763 392.746 234.641C392.755 234.29 392.764 233.928 392.732 233.548C392.395 229.33 388.251 225.632 383.862 225.632C382.789 225.632 381.398 225.848 379.977 226.666C379.593 225.462 379 224.297 378.441 223.202L378.294 222.912C376.527 219.43 371.964 217 367.2 217H367.203Z" fill="#30BCA7"/>
<path d="M350.514 333.179C350.449 334.4 351.069 334.742 351.349 334.292C355.626 327.472 365.97 331.263 362.987 339.959C362.65 340.938 363.063 341.376 363.574 341.025C368.383 337.698 372.943 340.917 371.393 345.821C371.139 346.625 370.447 347.203 368.85 347.203H317.734C316.786 347.203 315.578 347.142 314.943 346.333C306.992 336.205 319.252 327.241 326.167 331.608C326.551 331.85 326.891 331.216 327.038 330.574C330.701 314.529 351.441 315.901 350.514 333.179Z" fill="white"/>
<path d="M339.505 319.337C345.415 319.337 351.006 324.025 350.513 333.179C350.466 334.059 350.773 334.482 351.056 334.482C351.166 334.482 351.272 334.418 351.349 334.292C352.87 331.868 355.153 330.784 357.336 330.784C361.294 330.784 364.909 334.351 362.986 339.959C362.729 340.713 362.912 341.145 363.243 341.145C363.343 341.145 363.456 341.107 363.574 341.025C364.938 340.082 366.285 339.664 367.475 339.664C370.479 339.664 372.5 342.311 371.392 345.822C371.138 346.625 370.447 347.203 368.849 347.203H317.734C316.786 347.203 315.578 347.142 314.942 346.333C308.409 338.011 315.521 330.475 322.102 330.475C323.532 330.475 324.932 330.828 326.166 331.608C326.222 331.643 326.281 331.661 326.335 331.661C326.648 331.661 326.913 331.12 327.038 330.574C328.759 323.032 334.259 319.337 339.505 319.337ZM339.508 317C336.247 317 333.024 318.186 330.434 320.339C327.977 322.381 326.163 325.211 325.129 328.585C324.17 328.293 323.151 328.141 322.105 328.141C317.542 328.141 313.123 330.875 311.106 334.944C309.115 338.963 309.836 343.637 313.079 347.767C314.47 349.54 316.759 349.54 317.737 349.54H368.849C372.195 349.54 373.291 347.647 373.648 346.52C374.416 344.089 374.1 341.674 372.777 339.895C371.563 338.262 369.632 337.327 367.478 337.327C366.947 337.327 366.409 337.383 365.869 337.497C365.975 335.423 365.443 333.507 364.294 331.918C362.72 329.747 360.121 328.45 357.339 328.45C355.702 328.45 354.149 328.88 352.775 329.68C352.279 325.395 350.48 322.623 348.882 320.955C346.44 318.405 343.111 317.003 339.511 317.003L339.508 317Z" fill="#30BCA7"/>
<g clip-path="url(#clip1_2733_19003)">
<path d="M191.193 461.262H105.152V559.821H191.193V461.262Z" fill="white"/>
<path d="M191.193 461.262V559.822H105.153V461.262H191.193ZM193.724 458.719H102.622V562.365H193.724V458.719Z" fill="#30BCA7"/>
<path d="M196.571 459.035H100.092L105.153 448.543H191.51L196.571 459.035Z" fill="white"/>
<path d="M191.511 448.543L196.572 459.035H100.092L105.153 448.543H191.511ZM193.095 446H103.569L102.876 447.434L97.8147 457.926L96.0527 461.579H200.611L198.849 457.926L193.788 447.434L193.095 446Z" fill="#30BCA7"/>
<path d="M178.857 473.039H157.347V489.336H178.857V473.039Z" fill="white"/>
<path d="M178.857 473.04V489.337H157.347V473.04H178.857ZM181.388 470.496H154.816V491.88H181.388V470.496Z" fill="#30BCA7"/>
<path d="M169.368 472.387H166.837V490.191H169.368V472.387Z" fill="#30BCA7"/>
<path d="M138.05 524.984H117.173V538.954H138.05V524.984Z" fill="white"/>
<path d="M138.051 524.985V538.955H117.173V524.985H138.051ZM140.581 522.441H114.643V541.498H140.581V522.441Z" fill="#30BCA7"/>
<path d="M128.877 524.426H126.347V539.687H128.877V524.426Z" fill="#30BCA7"/>
<path d="M134.163 472.387H117.397V488.919H134.163V472.387Z" fill="white"/>
<path d="M134.163 472.387V488.92H117.398V472.387H134.163ZM136.694 469.844H114.867V491.463H136.694V469.844Z" fill="#30BCA7"/>
<path d="M174.112 527.391H152.602V559.82H174.112V527.391Z" fill="white"/>
<path d="M174.112 527.391V559.82H152.602V527.391H174.112ZM176.643 524.848H150.071V562.364H176.643V524.848Z" fill="#30BCA7"/>
<path d="M157.031 540.545C157.031 539.843 156.464 539.273 155.765 539.273C155.066 539.273 154.5 539.843 154.5 540.545V543.642C154.5 544.344 155.066 544.914 155.765 544.914C156.464 544.914 157.031 544.344 157.031 543.642V540.545Z" fill="#30BCA7"/>
<path d="M194.673 502.594H101.673V511.496H194.673V502.594Z" fill="white"/>
<path d="M194.673 502.594V511.496H101.673V502.594H194.673ZM197.204 500.051H99.1426V514.04H197.204V500.051Z" fill="#30BCA7"/>
<path d="M102.654 541.39C100.661 541.39 98.9216 542.64 98.9216 542.64C98.5894 536.72 90.6243 534.885 88.3847 542.557C81.5805 541.724 78.18 549.228 82.7415 553.981C79.9198 556.066 80.1697 559.818 80.1697 559.818H102.654V541.387V541.39Z" fill="white"/>
<path d="M93.8826 537.476C96.3847 537.476 98.7445 539.473 98.9217 542.64C98.9217 542.64 100.665 541.39 102.654 541.39V559.821H80.1698C80.1698 559.821 79.9199 556.069 82.7416 553.984C78.4142 549.475 81.2485 542.493 87.3536 542.493C87.6857 542.493 88.0305 542.516 88.3817 542.557C89.4224 538.987 91.7062 537.476 93.8794 537.476M93.8826 534.933C92.1301 534.933 90.4663 535.556 89.0776 536.732C88.0811 537.578 87.2714 538.662 86.6545 539.972C83.1465 540.214 80.192 542.268 78.8476 545.45C77.6898 548.191 77.9334 551.217 79.4296 553.777C77.8828 555.942 77.5475 558.527 77.6455 559.986C77.7341 561.321 78.8381 562.361 80.1698 562.361H102.654C104.052 562.361 105.185 561.223 105.185 559.818V541.387C105.185 539.982 104.052 538.843 102.654 538.843C101.911 538.843 101.206 538.958 100.563 539.13C99.2918 536.599 96.7959 534.93 93.8794 534.93L93.8826 534.933Z" fill="#30BCA7"/>
</g>
</g>
<defs>
<clipPath id="clip0_2733_19003">
<rect width="1080" height="560" fill="white"/>
</clipPath>
<clipPath id="clip1_2733_19003">
<rect width="124" height="117" fill="white" transform="translate(77 446)"/>
</clipPath>
</defs>
</svg>
