<?xml version="1.0" encoding="UTF-8"?><svg id="_レイヤー_1" xmlns="http://www.w3.org/2000/svg" xmlns:xlink="http://www.w3.org/1999/xlink" viewBox="0 0 85.04 85.04"><defs><linearGradient id="_名称未設定グラデーション_12" x1="-560.11" y1="1180.06" x2="-531.19" y2="1180.06" gradientTransform="translate(233.18 -1251.92) rotate(-15.66)" gradientUnits="userSpaceOnUse"><stop offset="0" stop-color="#80c8b3"/><stop offset="1" stop-color="#80c8b3"/></linearGradient><linearGradient id="_名称未設定グラデーション_12-2" x1="-555.76" y1="1199.53" x2="-550.63" y2="1199.53" xlink:href="#_名称未設定グラデーション_12"/></defs><path d="M46.16,64.01c2.69,0,4.87-2.1,4.87-4.68s-2.18-4.68-4.87-4.68-4.87,2.1-4.87,4.68,2.18,4.68,4.87,4.68h0Z" fill="#d1e8df"/><path d="M46.16,65.11c-3.29,0-5.97-2.59-5.97-5.78s2.68-5.78,5.97-5.78,5.97,2.59,5.97,5.78-2.68,5.78-5.97,5.78ZM46.16,55.75c-2.08,0-3.77,1.61-3.77,3.58s1.69,3.58,3.77,3.58,3.77-1.61,3.77-3.58-1.69-3.58-3.77-3.58Z" fill="#231815"/><path d="M65.59,61.8c3.41,0,6.18-2.66,6.18-5.95s-2.77-5.95-6.18-5.95-6.18,2.66-6.18,5.95,2.77,5.95,6.18,5.95h0Z" fill="#d1e8df"/><path d="M65.59,62.9c-4.02,0-7.28-3.16-7.28-7.05s3.27-7.05,7.28-7.05,7.28,3.16,7.28,7.05-3.27,7.05-7.28,7.05ZM65.59,51.01c-2.8,0-5.08,2.17-5.08,4.85s2.28,4.85,5.08,4.85,5.08-2.17,5.08-4.85-2.28-4.85-5.08-4.85Z" fill="#231815"/><path d="M55,78.32v-3.9c0-4.08-3.34-7.41-7.41-7.41h-2.86c-4.08,0-7.41,3.34-7.41,7.41v3.9" fill="#d1e8df"/><path d="M56.1,78.32h-2.2v-3.9c0-3.48-2.83-6.31-6.31-6.31h-2.86c-3.48,0-6.31,2.83-6.31,6.31v3.9h-2.2v-3.9c0-4.69,3.82-8.51,8.51-8.51h2.86c4.69,0,8.51,3.82,8.51,8.51v3.9Z" fill="#231815"/><path d="M76.17,78.32v-4.67c0-4.88-3.99-8.87-8.87-8.87h-3.42c-4.88,0-8.87,3.99-8.87,8.87v4.67" fill="#d1e8df"/><path d="M77.27,78.32h-2.2v-4.67c0-4.29-3.49-7.77-7.77-7.77h-3.42c-4.29,0-7.77,3.49-7.77,7.77v4.67h-2.2v-4.67c0-5.5,4.47-9.97,9.97-9.97h3.42c5.5,0,9.97,4.47,9.97,9.97v4.67Z" fill="#231815"/><path d="M37.23,8c.24.22.59.91.71,1.24,3.32,11.81,6.76,23.57,10.17,35.35.48,1.88-1.01,3.33-2.87,3.08l-18.2-3.66,4.63,14.09c.39,1.4.34,3.05-1.19,3.69-1.31.55-3.76,1.04-5.23,1.42-.75.19-1.04.49-1.98.35-1.71-.26-1.78-1.85-2.1-3.13-1.22-4.8-2.45-9.61-3.57-14.44-1.9.57-4.04,1.47-5.22-.75-1.34-5.1-3.12-10.12-4.37-15.24-.45-1.87-.65-3.16,1.43-3.95,3.29-1.24,7.13-1.82,10.49-2.92l13.76-14.61c.9-.95,2.43-1.57,3.53-.53ZM45.07,44.59l-9.58-33.7-13.26,14.06c-1.1.99-2.98,1.32-4.42,1.75-2.4.72-4.83,1.35-7.22,2.08l4.28,14.99c3.71-.98,7.35-2.26,11.1-3.04l19.09,3.86ZM24.05,44.23l-3.83,1.07,3.86,15.49,4.93-1.45-4.96-15.11Z" fill="#221714"/><path d="M45.07,44.59l-19.09-3.86c-3.76.79-7.4,2.06-11.1,3.04l-4.28-14.99c2.4-.72,4.83-1.35,7.22-2.08,1.44-.43,3.32-.77,4.42-1.75l13.26-14.06,9.58,33.7ZM21.79,38.52c.99.82,2.57-.12,2.24-1.42-.93-2.31-1.26-5.55-2.28-7.74-.66-1.42-2.72-.71-2.61.73.84,2.42,1.28,5.25,2.2,7.61.09.23.27.68.45.83Z" fill="url(#_名称未設定グラデーション_12)"/><polygon points="24.05 44.23 29.01 59.34 24.09 60.8 20.22 45.3 24.05 44.23" fill="url(#_名称未設定グラデーション_12-2)"/><path d="M21.79,38.52c-.18-.15-.36-.6-.45-.83-.92-2.36-1.36-5.19-2.2-7.61-.11-1.44,1.94-2.14,2.61-.73,1.02,2.19,1.35,5.43,2.28,7.74.33,1.3-1.25,2.24-2.24,1.42Z" fill="#221714"/><path d="M54.47,39.91c-.32,0-.63-.14-.85-.4-.39-.47-.32-1.16.15-1.55,2.84-2.34,4.59-5.67,4.95-9.37.36-3.7-.74-7.3-3.07-10.14-2.1-2.55-5.05-4.27-8.31-4.83-.6-.1-1-.67-.89-1.27s.67-1,1.27-.89c3.77.66,7.19,2.65,9.63,5.6,5.63,6.83,4.66,16.97-2.17,22.61-.21.17-.45.25-.7.25Z" fill="#02634e"/><path d="M50.61,35.22c-.32,0-.63-.14-.85-.4-.39-.47-.32-1.16.15-1.55,1.59-1.31,2.58-3.18,2.78-5.26.2-2.08-.41-4.1-1.73-5.7-1.18-1.43-2.84-2.4-4.67-2.72-.6-.1-1-.67-.89-1.27.1-.6.67-1,1.27-.89,2.35.41,4.47,1.65,5.99,3.48,1.69,2.04,2.48,4.64,2.22,7.31s-1.52,5.06-3.57,6.75c-.21.17-.45.25-.7.25Z" fill="#02634e"/></svg>