<?xml version="1.0" encoding="UTF-8"?><svg id="_レイヤー_1" xmlns="http://www.w3.org/2000/svg" xmlns:xlink="http://www.w3.org/1999/xlink" viewBox="0 0 85.04 85.04"><defs><linearGradient id="_新規グラデーションスウォッチ_2" x1="16.55" y1="29.33" x2="52.05" y2="29.33" gradientUnits="userSpaceOnUse"><stop offset="0" stop-color="#6cc3b7"/><stop offset="1" stop-color="#6cc3b7"/></linearGradient><linearGradient id="_新規グラデーションスウォッチ_2-2" y1="33.11" y2="33.11" xlink:href="#_新規グラデーションスウォッチ_2"/><linearGradient id="_新規グラデーションスウォッチ_2-3" y1="36.88" y2="36.88" xlink:href="#_新規グラデーションスウォッチ_2"/><linearGradient id="_新規グラデーションスウォッチ_2-4" y1="40.66" y2="40.66" xlink:href="#_新規グラデーションスウォッチ_2"/><linearGradient id="_新規グラデーションスウォッチ_2-5" y1="44.44" y2="44.44" xlink:href="#_新規グラデーションスウォッチ_2"/><linearGradient id="_名称未設定グラデーション_12" x1="31.86" y1="62.73" x2="58.58" y2="62.73" gradientUnits="userSpaceOnUse"><stop offset="0" stop-color="#80c8b3"/><stop offset="1" stop-color="#80c8b3"/></linearGradient><linearGradient id="_名称未設定グラデーション_12-2" x1="40.7" y1="61.16" x2="42.66" y2="61.16" xlink:href="#_名称未設定グラデーション_12"/></defs><polygon points="69.57 58.98 18.78 62.81 18.78 24.3 69.57 20.48 69.57 58.98" fill="#7dc1ad"/><path d="M69.57,20.48v38.5l-50.79,3.82V24.3l50.79-3.82M69.57,18.28c-.05,0-.11,0-.17,0l-50.79,3.82c-1.15.09-2.04,1.04-2.04,2.19v38.5c0,.61.26,1.2.7,1.61.41.38.94.59,1.5.59.05,0,.11,0,.17,0l50.79-3.82c1.15-.09,2.04-1.04,2.04-2.19V20.48c0-.61-.26-1.2-.7-1.61-.41-.38-.94-.59-1.5-.59h0Z" fill="#231815"/><polygon points="64.91 54.72 14.12 58.54 14.12 20.04 64.91 16.21 64.91 54.72" fill="#d1e8df"/><path d="M64.91,16.21v38.5l-50.79,3.82V20.04l50.79-3.82M64.91,14.01c-.05,0-.11,0-.17,0l-50.79,3.82c-1.15.09-2.04,1.04-2.04,2.19v38.5c0,.61.26,1.2.7,1.61.41.38.94.59,1.5.59.05,0,.11,0,.17,0l50.79-3.82c1.15-.09,2.04-1.04,2.04-2.19V16.21c0-.61-.26-1.2-.7-1.61-.41-.38-.94-.59-1.5-.59h0Z" fill="#231815"/><polygon points="60.05 49.86 9.26 53.68 9.26 15.18 60.05 11.36 60.05 49.86" fill="#fff"/><path d="M60.05,11.36v38.5l-50.79,3.82V15.18l50.79-3.82M60.05,9.16c-.05,0-.11,0-.17,0l-50.79,3.82c-1.15.09-2.04,1.04-2.04,2.19v38.5c0,.61.26,1.2.7,1.61.41.38.94.59,1.5.59.05,0,.11,0,.17,0l50.79-3.82c1.15-.09,2.04-1.04,2.04-2.19V11.36c0-.61-.26-1.2-.7-1.61-.41-.38-.94-.59-1.5-.59h0Z"/><polygon points="16.68 31.22 16.55 30.41 51.92 27.45 52.05 28.26 16.68 31.22" fill="url(#_新規グラデーションスウォッチ_2)"/><polygon points="16.68 35 16.55 34.19 51.92 31.22 52.05 32.03 16.68 35" fill="url(#_新規グラデーションスウォッチ_2-2)"/><polygon points="16.68 38.77 16.55 37.96 51.92 35 52.05 35.81 16.68 38.77" fill="url(#_新規グラデーションスウォッチ_2-3)"/><polygon points="16.68 42.54 16.55 41.74 51.92 38.77 52.05 39.58 16.68 42.54" fill="url(#_新規グラデーションスウォッチ_2-4)"/><polygon points="16.68 46.32 16.55 45.51 51.92 42.55 52.05 43.36 16.68 46.32" fill="url(#_新規グラデーションスウォッチ_2-5)"/><path d="M16.5,21.5c-.13.01-.22-.1-.23-.24-.01-.15.06-.27.18-.28l4.11-.35c.23-.02.43.04.55.18.07.09.12.19.13.31.01.13-.01.28-.09.44-.37.85-1.12,1.67-1.91,2.29.29.28.56.55.78.83.04.05.06.1.06.15,0,.1-.04.2-.11.26-.05.03-.09.06-.15.06-.08,0-.18-.03-.25-.12-.64-.78-1.47-1.6-2.29-2.21-.06-.05-.1-.11-.11-.17,0-.07.03-.14.09-.19.05-.05.1-.08.16-.08.07,0,.14.02.2.06.42.3.84.66,1.25,1.04.72-.54,1.4-1.29,1.71-2.02.03-.07.04-.13.04-.17,0-.1-.08-.14-.24-.13l-3.89.33Z" fill="#231815"/><path d="M19.81,25.29c-.12,0-.24-.06-.33-.17-.68-.81-1.5-1.61-2.27-2.19-.12-.09-.15-.19-.15-.26,0-.11.04-.22.13-.29.06-.06.14-.1.23-.11.09,0,.19.02.28.08.39.29.8.62,1.18.98.71-.55,1.31-1.27,1.59-1.9.03-.06.03-.1.03-.11,0,0-.02-.02-.1-.01l-3.9.33c-.19.02-.34-.13-.36-.35-.02-.22.11-.4.3-.41l4.11-.35c.28-.02.51.06.66.22.09.11.15.24.16.38.01.16-.02.32-.09.5-.34.76-1,1.57-1.84,2.25.25.25.49.48.69.74.05.07.08.14.09.22.01.13-.05.27-.15.36-.08.06-.15.09-.22.09-.01,0-.02,0-.03,0ZM17.45,22.51h0s-.05,0-.08.04c-.04.03-.06.07-.05.09,0,.03.03.06.06.08.78.59,1.62,1.4,2.31,2.23.05.06.11.07.14.08.03,0,.05-.01.08-.04.03-.03.07-.09.06-.15,0-.03,0-.05-.03-.09-.21-.26-.46-.51-.73-.77l-.15-.15.11-.09c.86-.67,1.54-1.48,1.88-2.24.06-.14.08-.26.07-.38,0-.09-.04-.17-.1-.24-.09-.11-.25-.15-.45-.14l-4.11.35c-.05,0-.08.08-.07.14,0,.04.04.12.09.12l3.89-.33c.1,0,.18,0,.24.04.08.04.12.11.13.2,0,.08-.02.17-.05.24-.31.71-.96,1.48-1.75,2.06l-.08.06-.08-.07c-.4-.38-.82-.73-1.23-1.03-.04-.02-.08-.04-.11-.04Z" fill="#231815"/><path d="M27.63,23.55c.15-.01.24.12.25.25.01.15-.06.29-.19.3l-4.57.38c-.13.01-.23-.12-.24-.26-.01-.13.06-.28.2-.29l4.56-.38ZM26.85,20.24c.14-.01.24.12.25.25.01.15-.06.28-.2.29l-3.56.3c-.14.01-.23-.11-.25-.25-.01-.13.06-.28.2-.29l3.56-.3Z" fill="#231815"/><path d="M23.09,24.61c-.09,0-.18-.04-.24-.11-.06-.07-.1-.16-.11-.26-.02-.19.1-.41.32-.43l4.56-.38c.23-.02.37.18.38.37.02.23-.11.42-.31.43l-4.57.38s-.02,0-.03,0ZM27.64,23.67l-4.56.38c-.06,0-.09.09-.09.16,0,.05.02.09.05.12.03.03.05.03.06.03l4.57-.38c.07,0,.09-.1.08-.16,0-.06-.04-.14-.11-.14ZM23.32,21.21c-.09,0-.18-.04-.24-.11-.06-.07-.1-.16-.11-.26,0-.11.03-.23.09-.31.06-.07.13-.11.22-.11l3.56-.3s.02,0,.03,0c.2,0,.34.18.35.37.02.23-.11.41-.31.43l-3.56.3s-.02,0-.03,0ZM26.86,20.37l-3.56.3s-.03,0-.05.03c-.03.03-.04.08-.04.13,0,.04.02.09.04.11.03.03.05.03.07.03l3.56-.3c.06,0,.09-.08.08-.16,0-.06-.05-.15-.11-.14h0Z" fill="#231815"/><path d="M32.85,19.49c.29-.02.47.03.6.17.1.1.15.25.16.43,0,.05,0,.11,0,.17-.11,1.86-1.26,3.35-3.23,4.01-.04.02-.07.02-.11.03-.11,0-.2-.04-.24-.15,0-.03-.02-.07-.02-.1-.01-.12.05-.22.17-.27,1.71-.61,2.8-1.85,2.86-3.5,0-.03,0-.06,0-.09-.01-.16-.1-.19-.28-.18l-3.53.29c-.14.01-.23-.09-.24-.24-.01-.15.06-.26.2-.27l3.66-.3Z" fill="#231815"/><path d="M30.25,24.42c-.15,0-.27-.08-.34-.23-.02-.05-.03-.1-.03-.13-.01-.18.08-.33.25-.4,1.71-.61,2.72-1.84,2.78-3.38,0-.03,0-.05,0-.08,0-.06,0-.07-.15-.06l-3.53.29c-.11,0-.2-.03-.27-.1-.06-.06-.1-.15-.11-.26-.02-.22.11-.39.31-.41l3.67-.3c.32-.03.54.04.7.21.11.11.18.28.2.5,0,.06,0,.11,0,.17-.11,1.96-1.32,3.47-3.32,4.14-.04.02-.09.03-.14.03-.01,0-.02,0-.04,0ZM32.84,19.89c.13,0,.31.04.33.3,0,.04,0,.08,0,.12-.06,1.64-1.14,2.96-2.95,3.6-.06.02-.1.08-.09.14,0,.02,0,.05.02.07.02.04.05.06.11.06.02,0,.05,0,.07-.02,1.91-.64,3.05-2.07,3.16-3.91,0-.06,0-.11,0-.15-.01-.16-.06-.28-.13-.35-.07-.08-.19-.16-.5-.13l-3.66.3c-.09,0-.08.12-.08.14,0,.05.02.08.04.11.01.01.03.03.07.02l3.53-.29s.05,0,.08,0Z" fill="#231815"/><path d="M39.54,22.9c.13-.01.22.1.23.22s-.06.24-.19.25l-3.77.31c-.13.01-.21-.09-.22-.21-.01-.12.05-.24.18-.25l1.59-.13-.2-2.36-1.3.11c-.12.01-.21-.09-.22-.21s.06-.24.18-.25l3.16-.26c.13-.01.22.1.23.22s-.06.23-.19.24l-1.37.11.2,2.36,1.68-.14Z" fill="#231815"/><path d="M35.79,23.81c-.17,0-.31-.14-.33-.33-.02-.21.11-.37.29-.39l1.47-.12-.18-2.11-1.18.1c-.08,0-.17-.02-.23-.07-.07-.06-.12-.15-.12-.25-.02-.2.11-.37.29-.39l3.16-.26c.09,0,.17.02.23.07.07.06.12.16.13.26.02.2-.11.36-.3.38l-1.24.1.18,2.11,1.56-.13c.09-.01.17.02.23.07.07.06.12.16.13.26.02.2-.11.37-.3.38l-3.77.31s-.02,0-.03,0ZM37.28,20.58l.22,2.61-1.72.14c-.06,0-.07.09-.07.12,0,.01,0,.1.08.1l3.77-.31c.06,0,.08-.08.07-.11,0-.04-.02-.07-.04-.09-.01-.01-.03-.02-.05-.01h0l-1.81.15-.22-2.61,1.49-.12c.08,0,.07-.1.07-.11,0-.04-.02-.07-.04-.09-.01-.01-.03-.01-.05-.01l-3.16.26s-.07.06-.07.12c0,.03.02.06.04.08.01.01.03.01.05.01l1.43-.12Z" fill="#231815"/><path d="M41.66,19.26c-.15.01-.23-.08-.25-.25-.01-.15.06-.25.2-.26l3.08-.29c.26-.02.44.05.56.2.06.08.09.18.1.3,0,.1,0,.23-.04.36-.16.56-.45,1.1-.83,1.66.72.47,1.25.82,1.81,1.37.06.06.1.13.1.21s-.02.14-.06.2c-.05.07-.13.1-.2.11-.08,0-.16-.02-.23-.08-.5-.51-1.01-.92-1.73-1.39-.61.79-1.51,1.46-2.42,1.89-.05.02-.09.04-.14.04-.1,0-.19-.03-.24-.13-.01-.03-.02-.06-.03-.1,0-.11.05-.22.16-.28.71-.34,1.44-.84,2.04-1.49.58-.63,1.03-1.38,1.21-2.08.01-.06.02-.1.02-.14,0-.09-.08-.13-.23-.12l-2.89.28Z" fill="#231815"/><path d="M41.59,23.44c-.15,0-.27-.08-.32-.21-.02-.04-.03-.09-.04-.14-.01-.17.08-.33.23-.4.53-.26,1.32-.72,2-1.46.58-.63,1.01-1.37,1.18-2.03,0-.02.02-.07.02-.09,0,0-.03,0-.09,0l-2.89.28c-.11.01-.2-.02-.27-.1-.06-.06-.1-.16-.11-.27,0-.11.02-.21.08-.28.06-.07.14-.11.24-.12l3.08-.29c.29-.03.51.05.67.24.08.12.12.23.13.37,0,.11,0,.25-.04.4-.14.49-.39,1-.78,1.59.71.46,1.2.8,1.72,1.31.08.09.13.18.14.28,0,.1-.02.2-.09.29-.07.09-.18.15-.29.16-.12,0-.23-.03-.32-.11-.48-.49-.97-.88-1.61-1.32-.58.72-1.45,1.39-2.4,1.84-.07.03-.13.05-.19.05-.01,0-.02,0-.04,0ZM44.6,18.86c.25,0,.3.14.31.23,0,.06,0,.12-.02.18-.18.7-.63,1.48-1.24,2.14-.71.77-1.52,1.25-2.08,1.52-.07.03-.09.1-.09.15,0,.02,0,.04.01.06.02.04.04.07.11.06.03,0,.06-.01.1-.03.95-.45,1.82-1.12,2.38-1.85l.07-.09.1.06c.71.47,1.23.89,1.75,1.41.04.04.09.04.13.04.05,0,.09-.03.12-.06.03-.04.04-.08.04-.11,0-.04-.03-.09-.07-.13-.53-.52-1.03-.86-1.79-1.35l-.11-.07.07-.11c.42-.61.68-1.13.82-1.62.03-.12.04-.23.03-.31,0-.09-.03-.16-.08-.24-.06-.07-.17-.17-.45-.14l-3.08.29s-.05.01-.07.03c-.02.02-.03.05-.02.1,0,.05.02.09.04.11.01.01.03.03.07.02l2.89-.28s.04,0,.06,0Z" fill="#231815"/><path d="M49.06,22.66c.01.16-.1.24-.25.25-.16.01-.27-.04-.29-.21l-.39-4.71c-.01-.16.08-.24.25-.25.15-.01.27.04.29.21l.13,1.56c.93.17,2.1.48,3.05.84.12.04.18.13.18.24,0,.04,0,.09-.01.14-.03.11-.12.19-.23.2-.04,0-.09,0-.13-.02-.83-.34-1.91-.67-2.82-.85l.22,2.6Z" fill="#231815"/><path d="M48.77,23.04c-.09,0-.17-.02-.23-.06-.06-.04-.13-.12-.14-.26l-.39-4.71c-.01-.15.05-.24.1-.28.06-.06.15-.09.27-.1.24-.02.4.11.42.33l.12,1.46c.96.18,2.09.49,2.97.83.16.06.25.18.27.35,0,.06,0,.12-.02.18-.04.16-.18.27-.34.29-.06,0-.11,0-.18-.03-.81-.33-1.8-.63-2.64-.81l.2,2.44c.02.22-.12.37-.36.39-.02,0-.04,0-.05,0ZM48.43,17.87s-.02,0-.03,0c-.14.01-.14.07-.13.12l.39,4.71c0,.05.01.1.15.09.14-.01.14-.08.13-.12l-.23-2.77.16.03c.88.18,1.97.51,2.84.86.02,0,.05.01.07.01.05,0,.1-.05.12-.1,0-.03.01-.06,0-.09,0-.07-.04-.11-.1-.13-.9-.34-2.06-.66-3.02-.83l-.09-.02-.14-1.65s0-.1-.12-.1Z" fill="#231815"/><path d="M60.16,63.03c3.64.92,7.38.51,10.76-1.08,2.26.26,4.88,1.36,7.09,1.57.79.07,1.18-.4.97-1.17l-2.96-4.67c5.4-7.17,3.37-17.58-4.43-22.05-9.96-5.71-22.18,1.32-22.44,12.66-10.84-2.87-20.94,6.67-18.53,17.7.46,2.13,1.42,4.08,2.69,5.83l-3.04,5.03c.02.66.41.87,1.03.82,2.16-.15,4.87-1.33,7.09-1.57,1.33.54,2.66,1.07,4.07,1.33,9.13,1.69,17.51-5.17,17.7-14.4Z" fill="#fff"/><path d="M60.16,63.03c-.19,9.23-8.57,16.1-17.7,14.4-1.42-.26-2.75-.79-4.07-1.33-2.22.24-4.94,1.42-7.09,1.57-.62.04-1.01-.16-1.03-.82l3.04-5.03c-1.27-1.75-2.23-3.7-2.69-5.83-2.41-11.03,7.69-20.57,18.53-17.7.27-11.34,12.48-18.37,22.44-12.66,7.8,4.47,9.82,14.88,4.43,22.05l2.96,4.67c.22.77-.18,1.24-.97,1.17-2.21-.21-4.83-1.3-7.09-1.57-3.38,1.6-7.12,2-10.76,1.08ZM76.58,61.56l-2.28-3.57-.08-.41c.4-.93,1.13-1.68,1.63-2.6,3.49-6.46,1.12-14.6-5.29-18.11-9.08-4.96-19.98,1.73-19.83,11.94,5.13,2.13,8.81,6.88,9.39,12.46,3.5,1.26,7.33.6,10.62-.99l5.85,1.28ZM32.73,75.71l5.85-1.28c7.61,4.08,17.14.33,19.49-8.03,2.86-10.18-6.6-19.49-16.73-16.44-8.38,2.52-12.1,12.38-7.46,19.85.27.44,1.23,1.53,1.23,1.92,0,.72-2.03,3.16-2.37,3.98Z"/><path d="M64.11,33.6c2.49,0,5.05.63,7.48,2.03,7.8,4.47,9.82,14.88,4.43,22.05l2.96,4.67c.2.72-.13,1.18-.81,1.18-.05,0-.1,0-.16,0-2.21-.21-4.83-1.3-7.09-1.57-2.19,1.03-4.52,1.57-6.88,1.57-1.29,0-2.59-.16-3.88-.48-.17,8.28-6.93,14.66-14.92,14.66-.91,0-1.84-.08-2.78-.26-1.42-.26-2.75-.79-4.07-1.33-2.22.24-4.94,1.42-7.09,1.57-.05,0-.1,0-.15,0-.53,0-.86-.22-.88-.83l3.04-5.03c-1.27-1.75-2.23-3.7-2.69-5.83-2.11-9.68,5.41-18.21,14.61-18.21,1.28,0,2.6.17,3.92.52.2-8.57,7.24-14.69,14.96-14.69M64,61.93c2.31,0,4.63-.64,6.72-1.65l5.85,1.28-2.28-3.56-.08-.41c.4-.93,1.13-1.68,1.63-2.6,3.49-6.46,1.12-14.6-5.29-18.11-2.1-1.15-4.3-1.67-6.44-1.67-7.09,0-13.5,5.77-13.39,13.62,5.13,2.13,8.81,6.88,9.39,12.46,1.27.46,2.58.66,3.9.66M32.73,75.71l5.85-1.28c2.1,1.13,4.35,1.66,6.55,1.66,5.77,0,11.23-3.64,12.93-9.69,2.48-8.84-4.33-17.03-12.8-17.03-1.28,0-2.6.19-3.93.59-8.38,2.52-12.1,12.38-7.46,19.85.27.44,1.23,1.53,1.23,1.92,0,.72-2.03,3.16-2.37,3.98M64.11,32.9c-8.29,0-15,6.31-15.62,14.51-1.08-.23-2.18-.34-3.27-.34-4.75,0-9.2,2.15-12.22,5.89-2.97,3.69-4.09,8.49-3.07,13.17.43,1.96,1.28,3.88,2.54,5.71l-2.8,4.64c-.07.12-.1.25-.1.38.03.94.62,1.51,1.58,1.51.06,0,.13,0,.2,0,1.19-.08,2.53-.46,3.81-.82,1.07-.3,2.17-.61,3.13-.73,1.38.56,2.65,1.05,4.04,1.3.96.18,1.94.27,2.91.27,8.15,0,14.97-6.43,15.58-14.5,1.06.21,2.14.32,3.22.32,2.4,0,4.76-.52,7-1.55,1,.14,2.1.44,3.18.73,1.25.34,2.55.7,3.74.81.08,0,.15.01.22.01.54,0,1-.2,1.28-.58.29-.39.37-.92.2-1.49-.02-.07-.05-.13-.08-.19l-2.71-4.27c2.51-3.56,3.44-8.01,2.55-12.3-.9-4.39-3.63-8.17-7.48-10.38-2.45-1.41-5.09-2.12-7.83-2.12h0ZM51.42,48.35c.06-3.27,1.34-6.32,3.62-8.63,2.4-2.43,5.7-3.83,9.07-3.83,2.12,0,4.18.53,6.1,1.59,6.08,3.32,8.33,11.02,5.01,17.16-.2.36-.44.7-.69,1.06-.35.49-.71,1-.97,1.6-.06.13-.07.28-.04.42l.08.41c.02.08.05.16.1.24l1.37,2.14-4.2-.92s-.1-.02-.15-.02c-.11,0-.21.02-.31.07-2.13,1.03-4.35,1.58-6.42,1.58-1.13,0-2.23-.16-3.25-.48-.72-5.43-4.25-10.11-9.33-12.39h0ZM34.21,74.67s.06-.09.1-.14c1.01-1.47,1.49-2.22,1.49-2.8,0-.48-.37-1-.97-1.8-.15-.2-.28-.37-.36-.49-2.1-3.38-2.49-7.46-1.08-11.19,1.4-3.71,4.37-6.48,8.15-7.62,1.23-.37,2.49-.56,3.73-.56,3.9,0,7.66,1.89,10.05,5.05,2.4,3.17,3.16,7.21,2.07,11.08-1.54,5.49-6.47,9.18-12.26,9.18-2.15,0-4.3-.54-6.22-1.57-.1-.05-.22-.08-.33-.08-.05,0-.1,0-.15.02l-4.22.93h0Z"/><path d="M32.73,75.71c.33-.82,2.36-3.26,2.37-3.98,0-.4-.96-1.49-1.23-1.92-4.63-7.47-.92-17.33,7.46-19.85,10.14-3.05,19.59,6.26,16.73,16.44-2.35,8.36-11.88,12.11-19.49,8.03l-5.85,1.28ZM37.75,67.46h1.67l.85-3.15,2.8.05.78,3.1h1.67l-2.23-8.63c-.18-.52-.26-.76-.86-.81s-1.95-.16-2.24.43l-2.44,9.02ZM52.69,58.02h-5.5v1.57h1.97v6.29h-1.97v1.57h5.5v-1.57h-1.97v-6.29h1.97v-1.57Z" fill="url(#_名称未設定グラデーション_12)"/><path d="M76.58,61.56l-5.85-1.28c-3.28,1.59-7.11,2.25-10.62.99-.58-5.57-4.26-10.33-9.39-12.46-.15-10.21,10.75-16.91,19.83-11.94,6.42,3.51,8.78,11.65,5.29,18.11-.5.92-1.23,1.68-1.63,2.6l.08.41,2.28,3.57ZM70.38,43.08h-12.58v1.57h12.58v-1.57ZM70.38,47.8h-12.58v1.57h12.58v-1.57ZM70.38,52.51h-9.44v1.57h9.44v-1.57Z" fill="#fff"/><path d="M37.75,67.46l2.44-9.02c.29-.59,1.64-.49,2.24-.43s.68.3.86.81l2.23,8.63h-1.67l-.78-3.1-2.8-.05-.85,3.15h-1.67ZM40.7,62.74h1.97l-.79-3.14h-.33s-.85,3.14-.85,3.14Z" fill="#040000"/><polygon points="52.69 58.02 52.69 59.59 50.72 59.59 50.72 65.88 52.69 65.88 52.69 67.46 47.18 67.46 47.18 65.88 49.15 65.88 49.15 59.59 47.18 59.59 47.18 58.02 52.69 58.02" fill="#040000"/><rect x="57.8" y="43.08" width="12.58" height="1.57"/><rect x="57.8" y="47.8" width="12.58" height="1.57"/><rect x="60.95" y="52.51" width="9.44" height="1.57"/><polygon points="40.7 62.74 41.54 59.59 41.87 59.6 42.66 62.74 40.7 62.74" fill="url(#_名称未設定グラデーション_12-2)"/><path d="M60.86,62.74h-2.2c0-7.39-6.04-13.4-13.46-13.4v-2.2c8.64,0,15.66,7,15.66,15.6Z"/></svg>