<?xml version="1.0" encoding="UTF-8"?><svg id="_レイヤー_1" xmlns="http://www.w3.org/2000/svg" viewBox="0 0 85.04 85.04"><polygon points="21.44 80.92 6.82 76.13 6.12 29.24 21.44 30.82 21.44 80.92" fill="#ee7962"/><polygon points="21.44 30.82 6.12 29.24 21.44 12.97 45.88 15.71 21.44 30.82" fill="#ee7962"/><polygon points="45.67 68.37 21.44 80.92 21.73 31.21 46.17 16.1 45.67 68.37" fill="#ee7962"/><path d="M21.44,31.92c-.37,0-.73-.19-.94-.52-.32-.52-.16-1.19.36-1.51l24.44-15.12c.52-.32,1.19-.16,1.51.36.32.52.16,1.19-.36,1.51l-24.44,15.12c-.18.11-.38.17-.58.17Z" fill="#231815"/><path d="M45.67,69.47h0c-.61,0-1.1-.5-1.09-1.1l.22-52.66c0-.61.49-1.09,1.1-1.09h0c.61,0,1.1.5,1.09,1.1l-.22,52.66c0,.61-.49,1.09-1.1,1.09Z" fill="#231815"/><polygon points="65.57 6.74 68.59 16.99 76.75 20.79 68.59 24.58 65.57 34.83 62.55 24.58 54.38 20.79 62.55 16.99 65.57 6.74" fill="#fff45c"/><path d="M65.57,35.93h0c-.49,0-.92-.32-1.06-.79l-2.88-9.77-7.71-3.58c-.39-.18-.64-.57-.64-1s.25-.82.64-1l7.71-3.58,2.88-9.77c.14-.47.57-.79,1.06-.79s.92.32,1.05.79l2.88,9.77,7.71,3.58c.39.18.64.57.64,1s-.25.82-.64,1l-7.71,3.58-2.88,9.77c-.14.47-.57.79-1.05.79ZM56.99,20.79l6.02,2.79c.29.13.5.38.59.69l1.96,6.67,1.97-6.67c.09-.3.3-.55.59-.69l6.02-2.8-6.02-2.8c-.29-.13-.5-.38-.59-.69l-1.97-6.67-1.96,6.67c-.09.3-.31.55-.59.69l-6.02,2.79Z" fill="#231815"/><polygon points="43.65 45.92 24.25 59.44 24.25 35.8 43.65 23.27 43.65 45.92" fill="#dcdddd"/><path d="M24.25,60.54c-.17,0-.35-.04-.51-.12-.36-.19-.59-.57-.59-.98v-23.64c0-.37.19-.72.5-.92l19.4-12.53c.34-.22.77-.23,1.12-.04.35.19.57.56.57.97v22.66c0,.36-.18.7-.47.9l-19.4,13.52c-.19.13-.41.2-.63.2ZM25.35,36.4v20.94l17.2-11.99v-20.06l-17.2,11.11ZM43.65,45.92h0,0Z" fill="#231815"/><polygon points="39.28 31.69 25.86 40.63 25.86 36.76 38.99 28.22 39.28 31.69" fill="#9fa0a0"/><path d="M25.86,41.73c-.18,0-.36-.04-.52-.13-.36-.19-.58-.56-.58-.97v-3.87c0-.37.19-.72.5-.92l13.13-8.54c.32-.21.73-.24,1.08-.07.35.17.58.51.61.89l.3,3.47c.03.4-.15.79-.49,1.01l-13.43,8.94c-.18.12-.4.18-.61.18ZM26.96,37.36v1.22l11.18-7.44-.09-1-11.09,7.22Z" fill="#231815"/><path d="M21.44,31.92c-.38,0-.71-.19-.91-.48-1.11-.45-6.21-1.03-13.69-1.03-.61,0-1.1-.49-1.1-1.1s.49-1.1,1.1-1.1c15.7,0,15.7,1.76,15.7,2.6,0,.61-.49,1.1-1.1,1.1Z" fill="#231815"/><path d="M45.66,16.81c-.1,0-.21-.02-.32-.05-7.38-2.22-15.15-3.13-23.08-2.72-.39.02-.67.03-.82.03-.61,0-1.1-.5-1.09-1.11,0-.61.5-1.09,1.1-1.09,0,0,.01,0,.02,0,.13,0,.36-.01.69-.03,8.19-.42,16.2.52,23.83,2.81.58.17.91.79.74,1.37-.14.48-.58.78-1.05.78Z" fill="#231815"/><path d="M6.43,36.47c-.28,0-.5-.22-.5-.5s.22-.5.5-.5c6.97,0,11.46-.45,12.2-.78.09-.14.25-.24.43-.24.28,0,.5.22.5.5,0,1.52-9.88,1.52-13.13,1.52Z" fill="#231815"/><path d="M21.44,82.02c-.61,0-1.1-.49-1.1-1.1V31.69c0-.61.49-1.1,1.1-1.1s1.1.49,1.1,1.1v49.23c0,.61-.49,1.1-1.1,1.1Z" fill="#231815"/><path d="M25.64,48.22s-.02,0-.02,0c-.21-.01-.36-.19-.35-.4l.43-7.32c.01-.21.21-.38.4-.35.21.01.36.19.35.4l-.43,7.32c-.01.2-.18.35-.37.35Z" fill="#231815"/><path d="M41.44,40.52c-.23,0-.44-.16-.49-.39l-1.71-7.94c-.06-.27.11-.54.38-.59.27-.05.54.12.59.38l1.71,7.94c.06.27-.11.54-.38.59-.04,0-.07.01-.11.01Z" fill="#231815"/><polygon points="36.14 42.84 46.52 36.78 59.5 56.42 49.11 62.48 36.14 42.84" fill="#dfcdaf"/><path d="M46.52,36.78l12.97,19.64-10.38,6.06-12.97-19.64,10.38-6.06M46.52,34.58c-.38,0-.76.1-1.11.3l-10.38,6.06c-.52.3-.9.81-1.03,1.4-.14.59-.03,1.21.31,1.71l12.97,19.64c.42.64,1.12.99,1.84.99.38,0,.76-.1,1.11-.3l10.38-6.06c.52-.3.9-.81,1.03-1.4.14-.59.03-1.21-.31-1.71l-12.97-19.64c-.42-.64-1.12-.99-1.84-.99h0Z" fill="#231815"/><path d="M60.89,47.74c1.23-.33,3.83,1.75,4.27,2.69.67,1.46.43,1.08-.52,1.74-.59-.12-2.9-1.54-4.73-2.34-3.27-1.42-5.46-4.2-4.2-4.39.17-1.01,5.19,2.3,5.19,2.3Z" fill="#f9d5ce"/><path d="M56,45.25c1.11,0,4.89,2.49,4.89,2.49.09-.02.18-.03.28-.03,1.31,0,3.58,1.86,3.98,2.73.67,1.46.43,1.08-.52,1.74-.59-.12-2.9-1.54-4.73-2.34-3.27-1.42-5.46-4.2-4.2-4.39.02-.13.13-.19.3-.19M56,43.05h0c-.63,0-1.21.21-1.64.58-.65.39-1.09,1.05-1.19,1.84-.35,2.64,3.41,5.31,5.86,6.38.82.36,1.78.87,2.62,1.32,1.34.71,1.95,1.03,2.54,1.15.15.03.3.05.45.05.44,0,.88-.13,1.25-.39.13-.09.23-.14.32-.19,2.34-1.27,1.4-3.3.95-4.28-.69-1.5-3.41-3.77-5.64-3.99-3.87-2.47-5.1-2.47-5.51-2.47h0Z" fill="#231815"/><path d="M56.87,42.46c-3.43-1.13-5.28-1.74-4.34-.44.79,1.09,1.84,2.99,3.27,3.23,1.38.23,2.32.93,4.91,1.63,5.95,4.39,5.23,6.45,5.23,7.99-.01,2.62-1.36,3.94-3.12,3.36-1.73-.56-4.36-2.63-4.97-3.16,0,0-3.25-2.58-4.44-.94.03.21,2.14,4.19,4.31,5.93,3.01,2.42,4.38,4.32,5.05,5.1,2.61,2.99,6.66,5.31,6.25,4.3,3.24-2.59,1.94-1.8,4.49-3.56-.13-1.72-.41-2.78-.79-5.37-.25-2.17-3.39-10.75-4.76-12.23-2.5-2.69-4.55-3.76-5.85-4.26-.53-.11-1.47-.75-5.23-1.58Z" fill="#f9d5ce"/><path d="M52.66,41.28c.66,0,2.15.49,4.22,1.17,3.76.84,4.7,1.48,5.23,1.58,1.3.5,3.35,1.57,5.85,4.26,1.37,1.48,4.51,10.05,4.76,12.23.38,2.59.66,3.65.79,5.37-2.55,1.76-1.25.97-4.49,3.56.07.16.02.24-.13.24-.74,0-3.94-2.04-6.12-4.54-.68-.78-2.05-2.68-5.05-5.1-2.17-1.74-4.28-5.72-4.31-5.93.29-.39.69-.54,1.15-.54,1.42,0,3.29,1.48,3.29,1.48.61.53,3.24,2.6,4.97,3.16.27.09.54.13.79.13,1.36,0,2.32-1.28,2.33-3.5,0-1.54.73-3.61-5.23-7.99-2.59-.7-3.53-1.4-4.91-1.63-1.43-.24-2.48-2.14-3.27-3.23-.38-.52-.31-.74.13-.74M52.66,39.08c-1.02,0-1.88.5-2.31,1.33-.32.63-.51,1.64.4,2.9.11.16.23.33.36.52.88,1.29,2.2,3.24,4.33,3.59.45.08.88.25,1.53.51.7.28,1.55.62,2.76.97,4.13,3.11,4.07,4.46,4.03,5.44,0,.18-.02.36-.02.53,0,.71-.14,1.11-.24,1.28,0,0,0,0,0,0-1.13-.37-3.37-1.99-4.2-2.72-.03-.02-.06-.05-.08-.07-.58-.46-2.63-1.96-4.66-1.96-1.21,0-2.24.51-2.92,1.45-.33.45-.47,1.01-.41,1.56.13,1.11,2.83,5.55,5.12,7.38,2.34,1.88,3.6,3.41,4.35,4.32.17.2.31.37.43.51,1.93,2.21,5.82,5.29,7.78,5.29.8,0,1.53-.38,1.96-1.03.03-.05.06-.09.09-.14,1.02-.82,1.5-1.24,1.83-1.54.47-.41.61-.54,1.98-1.49.64-.44,1-1.2.94-1.97-.09-1.18-.24-2.07-.43-3.2-.11-.64-.23-1.37-.37-2.3-.18-1.5-1.19-4.52-2.08-6.86-1.31-3.45-2.4-5.66-3.24-6.57-2.16-2.33-4.41-3.95-6.68-4.82-.1-.04-.19-.07-.29-.09-.08-.03-.17-.07-.28-.11-.72-.29-2.06-.83-4.86-1.45-2.63-.87-3.84-1.25-4.8-1.25h0Z" fill="#231815"/><rect x="71.02" y="62.06" width="3.46" height="13.32" transform="translate(79.7 -31.11) rotate(50.61)" fill="#7dc1ad"/><path d="M76.79,63.16l2.19,2.67-10.29,8.45-2.19-2.67,10.29-8.45M76.79,60.96c-.49,0-.99.16-1.39.5l-10.29,8.45c-.94.77-1.08,2.16-.3,3.1l2.19,2.67c.37.45.9.74,1.49.79.07,0,.14.01.22.01.51,0,1-.18,1.4-.5l10.29-8.45c.45-.37.74-.9.79-1.49.06-.58-.12-1.16-.49-1.61l-2.19-2.67c-.44-.53-1.07-.8-1.7-.8h0Z" fill="#231815"/><polygon points="38.81 57.5 30.3 62.58 30.3 60.87 38.81 55.72 38.81 57.5" fill="#fff"/><polygon points="38.81 60.69 30.3 65.64 30.3 63.93 38.81 58.9 38.81 60.69" fill="#fff"/><polygon points="33.87 67.6 33.87 63.56 35.05 62.87 35.05 66.93 33.87 67.6" fill="#fff"/></svg>