<?xml version="1.0" encoding="UTF-8"?><svg id="_レイヤー_1" xmlns="http://www.w3.org/2000/svg" viewBox="0 0 85.04 85.04"><path d="M9.11,41.45c0-8.86,3.25-16.48,9.75-22.84,6.47-6.36,14.25-9.54,23.33-9.54s16.67,3.21,23.08,9.62c6.44,6.42,9.67,14.12,9.67,23.12s-3.24,16.73-9.71,23.04c-6.5,6.34-14.34,9.5-23.53,9.5-8.13,0-15.43-2.81-21.9-8.44-7.12-6.23-10.68-14.38-10.68-24.47ZM18.69,41.58c0,6.96,2.34,12.68,7.01,17.17,4.65,4.49,10.02,6.73,16.11,6.73,6.61,0,12.18-2.28,16.72-6.85,4.54-4.62,6.81-10.25,6.81-16.88s-2.24-12.34-6.73-16.88c-4.46-4.57-9.98-6.85-16.56-6.85s-12.09,2.28-16.6,6.85c-4.51,4.51-6.77,10.09-6.77,16.72Z" fill="#d1e8df"/><path d="M41.69,75.46c-8.36,0-15.98-2.93-22.62-8.71-7.34-6.42-11.06-14.93-11.06-25.3,0-9.13,3.39-17.08,10.08-23.62,6.65-6.54,14.76-9.86,24.1-9.86s17.26,3.35,23.86,9.95c6.63,6.6,9.99,14.64,9.99,23.9s-3.38,17.34-10.04,23.83c-6.68,6.51-14.86,9.81-24.3,9.81ZM42.18,10.17c-8.74,0-16.33,3.1-22.56,9.23-6.25,6.12-9.42,13.54-9.42,22.05,0,9.71,3.47,17.66,10.31,23.64,6.23,5.42,13.36,8.17,21.18,8.17,8.85,0,16.51-3.09,22.76-9.19,6.22-6.06,9.37-13.55,9.37-22.25s-3.14-16.17-9.34-22.34c-6.17-6.17-13.68-9.3-22.31-9.3ZM41.82,66.57c-6.36,0-12.03-2.37-16.87-7.04-4.88-4.68-7.35-10.72-7.35-17.96s2.39-12.79,7.09-17.5c4.7-4.76,10.55-7.17,17.38-7.17s12.69,2.42,17.34,7.18c4.67,4.73,7.04,10.67,7.04,17.65s-2.4,12.84-7.13,17.65c-4.74,4.77-10.63,7.18-17.5,7.18ZM42.06,19.1c-6.22,0-11.54,2.2-15.82,6.52-4.28,4.28-6.45,9.65-6.45,15.95,0,6.62,2.25,12.13,6.68,16.38,4.42,4.26,9.58,6.42,15.35,6.42,6.27,0,11.63-2.2,15.94-6.53,4.31-4.38,6.49-9.8,6.49-16.11s-2.16-11.8-6.41-16.11c-4.23-4.33-9.53-6.52-15.77-6.52Z" fill="#231815"/><path d="M12.28,41.48c0-8.01,2.94-14.89,8.81-20.64,5.85-5.75,12.87-8.62,21.08-8.62s15.06,2.9,20.86,8.7c5.82,5.8,8.73,12.76,8.73,20.9s-2.92,15.12-8.77,20.82c-5.87,5.73-12.96,8.59-21.27,8.59-7.35,0-13.94-2.54-19.79-7.63-6.44-5.63-9.66-13-9.66-22.11ZM20.94,41.59c0,6.29,2.11,11.46,6.34,15.52,4.2,4.05,9.05,6.08,14.56,6.08,5.97,0,11.01-2.06,15.11-6.19,4.1-4.18,6.15-9.26,6.15-15.26s-2.03-11.15-6.08-15.26c-4.03-4.13-9.02-6.19-14.96-6.19s-10.92,2.06-15,6.19c-4.08,4.08-6.12,9.12-6.12,15.11Z" fill="#d1e8df"/><circle cx="42.08" cy="41.73" r="22.16" fill="#fff"/><path d="M42.08,64.99c-12.83,0-23.26-10.43-23.26-23.26s10.43-23.26,23.26-23.26,23.26,10.43,23.26,23.26-10.43,23.26-23.26,23.26ZM42.08,20.67c-11.61,0-21.06,9.45-21.06,21.06s9.45,21.06,21.06,21.06,21.06-9.45,21.06-21.06-9.45-21.06-21.06-21.06Z" fill="#231815"/><rect x="59.37" y="49" width="9.61" height="28.38" rx="4.14" ry="4.14" transform="translate(-25.88 63.89) rotate(-45)" fill="#d1e8df"/><path d="M70.82,76c-1.34,0-2.68-.51-3.71-1.53l-14.21-14.21c-.99-.99-1.53-2.3-1.53-3.71s.54-2.72,1.53-3.71l.94-.94c.99-.99,2.3-1.53,3.71-1.53s2.72.54,3.71,1.53l14.21,14.21c.99.99,1.53,2.3,1.53,3.71s-.54,2.72-1.53,3.71l-.94.94c-1.02,1.02-2.36,1.53-3.71,1.53ZM57.54,52.58c-.82,0-1.58.31-2.15.89l-.94.94c-.57.57-.89,1.34-.89,2.15s.31,1.58.89,2.15l14.21,14.21c1.19,1.19,3.12,1.19,4.3,0l.94-.94c.57-.57.89-1.34.89-2.15s-.31-1.58-.89-2.15l-14.21-14.21c-.57-.57-1.34-.89-2.15-.89Z" fill="#231815"/><path d="M49.94,43.53c-.33-.8-.83-1.55-1.48-2.2-.34-.34-.72-.66-1.14-.96.47-.49.86-1,1.17-1.51.55-.91.83-1.99.83-3.22,0-.94-.19-1.83-.56-2.65-.37-.82-.93-1.55-1.66-2.17-.72-.61-1.56-1.07-2.52-1.39-.94-.31-1.98-.47-3.1-.47-1.27,0-2.45.19-3.49.55-1.06.37-1.68.66-2.37,1.12-.59.39-.61.45-1.11.96-1.75,1.93.25,5.46,3.41,3.73.38-.23.36-.22,1.11-.68.18-.11.51-.3.77-.45s.73-.22,1.23-.22c.66,0,1.16.18,1.52.56.38.4.56.84.56,1.39,0,1-.39,1.42-.67,1.66-.52.42-1.13.62-1.86.62h-.64c-.98,0-1.76.23-2.32.69-.61.5-.93,1.19-.93,1.99,0,1,.43,1.61.8,1.94.5.46,1.18.7,2.01.7.14,0,.45-.02.94-.07.4-.04.69-.06.88-.06.92,0,1.6.24,2.08.74.49.51.73,1.22.73,2.19,0,.64-.14,1.18-.44,1.65-.3.48-.66.83-1.11,1.07-.46.24-.92.36-1.41.36-.84,0-1.46-.29-1.88-.72-.62-.64-.99-1.37-1.3-1.73-2.83-3.18-5.97-.6-5.08,2.37,0,.05-.01.1,0,.14.04.08.08.16.12.23,0,.01,0,.02.01.03h0c.37.72.87,1.43,1.51,2.11.73.77,1.66,1.41,2.77,1.91,1.12.51,2.4.77,3.79.77s2.62-.22,3.75-.66c1.14-.44,2.14-1.06,2.98-1.84.84-.79,1.49-1.7,1.93-2.72.44-1.01.66-2.08.66-3.16,0-.92-.17-1.8-.5-2.61Z" fill="#7dc1ad"/><path d="M41.13,55.62c-1.55,0-2.98-.29-4.25-.86-1.24-.56-2.29-1.29-3.12-2.16-.67-.71-1.22-1.47-1.64-2.27-.03-.04-.06-.09-.08-.14,0-.02-.02-.04-.03-.06-.04-.08-.08-.14-.1-.2-.08-.17-.11-.34-.11-.47-.48-1.88.23-3.75,1.78-4.62,1.29-.72,3.34-.73,5.22,1.39.15.18.3.4.47.65.22.33.47.71.79,1.04.41.43,1.22.56,1.99.15.28-.15.5-.36.7-.68.18-.29.27-.64.27-1.07,0-.67-.14-1.13-.42-1.43-.17-.17-.48-.4-1.28-.4-.17,0-.43.02-.78.05-.54.05-.89.07-1.05.07-1.12,0-2.05-.33-2.76-.99-.53-.48-1.15-1.35-1.15-2.75,0-1.13.48-2.14,1.34-2.85.76-.62,1.77-.94,3.01-.94h.64c.48,0,.84-.12,1.17-.38.09-.07.27-.22.27-.8,0-.27-.07-.44-.25-.63-.06-.06-.21-.22-.73-.22-.42,0-.65.06-.7.08-.23.13-.54.31-.72.42l-1.12.69c-2.28,1.24-4.08.39-4.94-.7-1.11-1.41-1.05-3.39.14-4.71l.18-.18c.4-.42.54-.56,1.13-.95.75-.5,1.46-.84,2.62-1.24,1.16-.41,2.46-.61,3.86-.61,1.24,0,2.4.18,3.44.52,1.09.36,2.06.9,2.88,1.59.85.73,1.51,1.59,1.95,2.56.44.97.66,2.01.66,3.1,0,1.44-.33,2.71-.99,3.79-.16.27-.34.53-.54.79.12.11.24.22.35.33.75.76,1.33,1.62,1.72,2.56,0,0,0,0,0,0,.39.94.58,1.96.58,3.03,0,1.24-.25,2.45-.74,3.6-.5,1.15-1.23,2.19-2.19,3.09-.94.88-2.06,1.57-3.33,2.06-1.26.48-2.65.73-4.14.73ZM34.01,49.2s.01.03.02.04c.33.65.77,1.27,1.33,1.85.63.67,1.45,1.23,2.43,1.67.98.44,2.1.67,3.34.67s2.35-.2,3.35-.58c1.01-.39,1.89-.93,2.62-1.62.73-.69,1.29-1.48,1.67-2.35.38-.88.57-1.79.57-2.73,0-.78-.14-1.52-.42-2.19h0c-.28-.67-.7-1.29-1.25-1.85-.29-.3-.63-.58-1-.84-.26-.19-.43-.47-.46-.79-.03-.32.08-.63.3-.86.42-.44.76-.88,1.03-1.32.45-.73.67-1.62.67-2.65,0-.78-.16-1.52-.46-2.19-.31-.68-.77-1.28-1.37-1.79-.61-.51-1.33-.91-2.15-1.19-.82-.27-1.75-.41-2.75-.41-1.15,0-2.2.17-3.13.49-.99.35-1.53.6-2.12,1-.42.28-.44.3-.77.64l-.16.17c-.51.56-.4,1.36-.02,1.84.46.58,1.23.64,2.12.16l1.07-.65c.19-.12.53-.32.8-.47.43-.24,1.02-.36,1.77-.36.97,0,1.75.3,2.32.9.57.6.86,1.32.86,2.15,0,1.08-.36,1.93-1.08,2.51-.72.58-1.57.87-2.56.87h-.64c-.72,0-1.26.15-1.62.44-.36.29-.53.67-.53,1.14s.15.86.44,1.13c.3.27.71.41,1.27.41.12,0,.41-.02.84-.06.44-.04.77-.06.98-.06,1.22,0,2.18.36,2.87,1.08.69.71,1.03,1.71,1.03,2.95,0,.85-.2,1.59-.6,2.24-.41.65-.91,1.13-1.53,1.46-.62.33-1.25.49-1.92.49-1.07,0-2-.36-2.67-1.05-.47-.48-.8-.99-1.05-1.37-.11-.17-.2-.32-.3-.42-.85-.96-1.79-1.3-2.49-.91-.58.33-1.01,1.2-.7,2.25.02.05.03.1.03.16l.02.03Z" fill="#231815"/></svg>