<?xml version="1.0" encoding="UTF-8"?><svg id="_レイヤー_1" xmlns="http://www.w3.org/2000/svg" xmlns:xlink="http://www.w3.org/1999/xlink" viewBox="0 0 85.04 85.04"><defs><clipPath id="clippath"><polygon points="51.8 32.36 35.3 28.34 33.52 45.63 50.07 46.19 51.8 32.36" fill="none"/></clipPath></defs><path d="M49.78,19.36c.16-1.26,3.08-2.88,4.11-2.92,1.6-.07,1.92.24,2.16,1.37-.34.5-3.29,1.87-4.72,3.25-2.56,2.48-5.04,5.68-4.73,4.44-.87-.54,3.17-6.15,3.17-6.15Z" fill="#f9d5ce"/><path d="M54.27,16.42c1.28,0,1.56.35,1.79,1.38-.34.5-3.29,1.87-4.72,3.25-2.17,2.1-4.28,4.72-4.69,4.72-.07,0-.09-.09-.05-.27-.87-.54,3.17-6.15,3.17-6.15.16-1.26,3.08-2.88,4.11-2.92.14,0,.26,0,.38,0M54.27,14.22c-.15,0-.3,0-.47.01-1.48.06-5.14,1.74-6.03,4.15-3.83,5.38-3.56,6.72-3.43,7.37.02.09.04.18.07.27.07.48.27.84.46,1.09.43.55,1.08.86,1.78.86,1.2,0,1.83-.68,3.69-2.7.77-.84,1.65-1.79,2.53-2.64.63-.61,1.87-1.35,2.77-1.89,1.17-.7,1.82-1.09,2.24-1.71.34-.5.46-1.11.33-1.7-.46-2.12-1.71-3.11-3.93-3.11h0Z" fill="#231815"/><path d="M43.37,21.06c-5.43,6.5.41,5.42,1.98,2.56.67-1.22,1.94-2.3,3.57-4.43,6.32-3.83,7.96-2.38,9.38-1.79,2.42,1.01,3.12,2.75,1.92,4.17-1.18,1.39-4.09,3.04-4.82,3.4,0,0-3.62,2.02-2.56,3.75.2.06,4.69-.39,7.13-1.73,3.38-1.86,5.66-2.4,6.64-2.73,3.75-1.27,7.44-4.14,6.35-4.15-1.17-3.98-.92-2.48-1.58-5.5-1.64-.54-2.73-.68-5.27-1.31-2.1-.6-11.23-.95-13.12-.25-3.44,1.29-5.21,2.78-6.17,3.79-.3.45-1.25,1.08-3.45,4.23Z" fill="#f9d5ce"/><path d="M57.67,12.65c3.27,0,7.16.27,8.44.64,2.54.63,3.62.78,5.27,1.31.66,3.03.42,1.52,1.58,5.5,1.09,0-2.6,2.87-6.35,4.15-.98.33-3.26.88-6.64,2.73-2.3,1.27-6.43,1.73-7.05,1.73-.04,0-.06,0-.07,0-1.06-1.72,2.56-3.75,2.56-3.75.72-.36,3.64-2.01,4.82-3.4,1.2-1.41.5-3.16-1.92-4.17-.68-.28-1.42-.77-2.69-.77-1.38,0-3.4.57-6.69,2.56-1.63,2.13-2.9,3.2-3.57,4.43-.72,1.31-2.34,2.25-3.36,2.25-1.2,0-1.55-1.3,1.38-4.81,2.2-3.16,3.16-3.79,3.45-4.23.96-1.01,2.73-2.5,6.17-3.79.74-.27,2.58-.39,4.68-.39M57.67,10.45c-4.03,0-5.06.38-5.44.53-2.98,1.11-5.33,2.57-7,4.34-.07.07-.14.15-.19.24-.05.06-.12.13-.21.22-.54.56-1.55,1.6-3.2,3.95-2.45,2.95-3.2,5.01-2.43,6.67.49,1.05,1.54,1.68,2.8,1.68,1.92,0,4.24-1.49,5.29-3.39.26-.48.76-1.04,1.39-1.75.49-.55,1.09-1.23,1.74-2.06,2.83-1.67,4.39-2.03,5.2-2.03.54,0,.87.15,1.36.38.17.08.33.15.49.22.65.27.97.55,1.1.71,0,0,0,0,0,0-.77.9-3.12,2.36-4.12,2.85-.03.02-.06.03-.1.05-.74.41-3.2,1.93-3.76,4.08-.25.94-.1,1.92.4,2.74.29.47.75.82,1.29.97.27.08.51.09.66.09.91,0,5.42-.52,8.11-2.01,2.63-1.45,4.52-2.03,5.65-2.38.25-.08.46-.14.64-.2,2.24-.76,4.13-1.89,5.05-2.5,2.01-1.32,3.21-2.44,2.95-3.99-.06-.4-.22-.75-.46-1.05-.37-1.25-.58-1.85-.72-2.27-.2-.59-.26-.77-.62-2.4-.17-.76-.73-1.38-1.47-1.62-1.13-.37-2.01-.57-3.12-.82-.63-.14-1.35-.3-2.27-.53-1.68-.46-5.88-.71-9-.71h0Z" fill="#231815"/><polygon points="69.71 61.46 56.1 77.92 8.23 76.26 8.23 53.72 28.03 37.54 69.71 38.4 69.71 61.46" fill="#d1e8df"/><path d="M52.54,45.72l-.71.84c-.69.81-2.35,1.45-3.68,1.39l-18.85-.8c-1.24-.05-1.47-.74-.54-1.51l.96-.8c.89-.74,2.56-1.29,3.74-1.25l17.95.65c1.26.05,1.78.7,1.12,1.48Z" fill="#9fa0a0"/><path d="M48.32,49.07c-.07,0-.14,0-.21,0l-18.85-.8c-1.47-.06-1.94-.8-2.08-1.24-.15-.43-.23-1.3.88-2.22l.96-.8c1.09-.91,3.02-1.56,4.49-1.5l17.95.65c1.56.06,2.13.81,2.32,1.25.29.65.14,1.39-.4,2.04l-.71.84c-.86,1.03-2.74,1.79-4.35,1.79ZM29.95,46.09l18.25.78c1.05.01,2.37-.5,2.79-1l.43-.51s-.03,0-.04,0l-17.95-.65c-.93-.04-2.32.43-3,1l-.47.39ZM29.26,46.71h0,0Z" fill="#231815"/><polygon points="18.54 6.78 21.56 17.03 29.73 20.83 21.56 24.62 18.54 34.87 15.52 24.62 7.36 20.83 15.52 17.03 18.54 6.78" fill="#fff45c"/><path d="M18.54,35.97h0c-.49,0-.92-.32-1.06-.79l-2.88-9.77-7.71-3.58c-.39-.18-.64-.57-.64-1s.25-.82.64-1l7.71-3.58,2.88-9.77c.14-.47.57-.79,1.06-.79s.92.32,1.06.79l2.88,9.77,7.71,3.58c.39.18.64.57.64,1s-.25.82-.64,1l-7.71,3.58-2.88,9.77c-.14.47-.57.79-1.06.79ZM9.97,20.83l6.02,2.79c.29.13.5.38.59.69l1.96,6.67,1.97-6.67c.09-.3.3-.55.59-.69l6.02-2.8-6.02-2.8c-.29-.13-.5-.38-.59-.69l-1.97-6.67-1.96,6.67c-.09.3-.3.55-.59.69l-6.02,2.79Z" fill="#231815"/><path d="M69.71,39.5h-.02l-41.68-.85c-.61-.01-1.09-.51-1.08-1.12s.51-1.1,1.12-1.08l41.68.85c.61.01,1.09.51,1.08,1.12-.01.6-.5,1.08-1.1,1.08Z" fill="#231815"/><path d="M56.26,56.5h-.04l-48.02-1.68c-.61-.02-1.08-.53-1.06-1.14.02-.61.5-1.06,1.14-1.06l48.02,1.68c.61.02,1.08.53,1.06,1.14-.02.59-.51,1.06-1.1,1.06Z" fill="#231815"/><path d="M56.26,56.5c-.24,0-.48-.08-.68-.24-.48-.38-.56-1.07-.18-1.54l13.45-17c.38-.48,1.07-.56,1.54-.18s.56,1.07.18,1.54l-13.45,17c-.22.27-.54.42-.86.42Z" fill="#231815"/><path d="M8.23,54.82c-.32,0-.63-.14-.85-.4-.38-.47-.31-1.16.16-1.55l19.79-16.18c.47-.39,1.16-.31,1.55.16.38.47.31,1.16-.16,1.55l-19.79,16.18c-.2.17-.45.25-.7.25Z" fill="#231815"/><path d="M56.1,79.02c-.61,0-1.1-.49-1.1-1.1v-22.53c0-.61.49-1.1,1.1-1.1s1.1.49,1.1,1.1v22.53c0,.61-.49,1.1-1.1,1.1Z" fill="#231815"/><path d="M8.23,77.36c-.61,0-1.1-.49-1.1-1.1v-22.54c0-.61.49-1.1,1.1-1.1s1.1.49,1.1,1.1v22.54c0,.61-.49,1.1-1.1,1.1Z" fill="#231815"/><path d="M69.71,62.58c-.61,0-1.1-.49-1.1-1.1v-22.94c0-.61.49-1.1,1.1-1.1s1.1.49,1.1,1.1v22.94c0,.61-.49,1.1-1.1,1.1Z" fill="#231815"/><rect x="71.96" y="9.72" width="3.46" height="13.32" transform="translate(-1.57 22.28) rotate(-17.02)" fill="#7dc1ad"/><path d="M73.4,9.51l3.9,12.74-3.31,1.01-3.9-12.74,3.31-1.01M73.4,7.3c-.21,0-.43.03-.64.1l-3.31,1.01c-.56.17-1.03.56-1.3,1.07-.27.52-.33,1.12-.16,1.68l3.9,12.74c.17.56.56,1.03,1.07,1.3.32.17.68.26,1.03.26.22,0,.43-.03.64-.1l3.31-1.01c1.16-.36,1.82-1.59,1.46-2.75l-3.9-12.74c-.29-.95-1.16-1.56-2.1-1.56h0Z" fill="#231815"/><g clip-path="url(#clippath)"><polygon points="38.24 72.95 30.18 69.19 38.71 33.49 46.78 37.26 38.24 72.95" fill="#fff"/><path d="M38.71,33.49l8.07,3.76-8.53,35.69-8.07-3.76,8.53-35.69M38.71,31.29c-.33,0-.65.07-.96.22-.6.29-1.03.83-1.18,1.47l-8.53,35.69c-.24,1.02.26,2.06,1.21,2.51l8.07,3.76c.29.14.61.21.93.21s.65-.07.96-.22c.6-.29,1.03-.83,1.18-1.47l8.53-35.69c.24-1.02-.26-2.06-1.21-2.51l-8.07-3.76c-.29-.14-.61-.21-.93-.21h0Z" fill="#231815"/><polygon points="42.3 71.24 32.73 68.81 37.02 35.97 46.59 38.41 42.3 71.24" fill="#fff"/><path d="M37.02,35.97l9.57,2.44-4.28,32.84-9.57-2.44,4.28-32.84M37.02,33.77c-.44,0-.87.13-1.23.38-.52.35-.87.91-.95,1.54l-4.28,32.84c-.14,1.1.56,2.14,1.64,2.42l9.57,2.44c.18.05.36.07.54.07.44,0,.87-.13,1.23-.38.52-.35.87-.91.95-1.54l4.28-32.84c.14-1.1-.56-2.14-1.64-2.42l-9.57-2.44c-.18-.05-.36-.07-.54-.07h0Z" fill="#231815"/></g></svg>