<?xml version="1.0" encoding="UTF-8"?><svg id="_レイヤー_1" xmlns="http://www.w3.org/2000/svg" viewBox="0 0 85.04 85.04"><path d="M24.4,50.76c0,3.61-2.95,6.57-6.57,6.57s-6.57-2.95-6.57-6.57,2.95-6.57,6.57-6.57h6.57v6.57Z" fill="#d12757"/><path d="M27.71,50.76c0-3.61,2.95-6.57,6.57-6.57s6.57,2.95,6.57,6.57v16.44c0,3.61-2.95,6.57-6.57,6.57s-6.57-2.95-6.57-6.57v-16.44Z" fill="#d12757"/><path d="M34.27,24.4c-3.61,0-6.57-2.95-6.57-6.57s2.95-6.57,6.57-6.57,6.57,2.95,6.57,6.57v6.57h-6.57Z" fill="#40bae1"/><path d="M34.27,27.71c3.61,0,6.57,2.95,6.57,6.57s-2.95,6.57-6.57,6.57h-16.44c-3.61,0-6.57-2.95-6.57-6.57s2.95-6.57,6.57-6.57h16.44Z" fill="#40bae1"/><path d="M60.64,34.27c0-3.61,2.95-6.57,6.57-6.57s6.57,2.95,6.57,6.57-2.95,6.57-6.57,6.57h-6.57v-6.57Z" fill="#31ae79"/><path d="M57.33,34.27c0,3.61-2.95,6.57-6.57,6.57s-6.57-2.95-6.57-6.57v-16.44c0-3.61,2.95-6.57,6.57-6.57s6.57,2.95,6.57,6.57v16.44Z" fill="#31ae79"/><path d="M50.77,60.64c3.61,0,6.57,2.95,6.57,6.57s-2.95,6.57-6.57,6.57-6.57-2.95-6.57-6.57v-6.57h6.57Z" fill="#e3ae34"/><path d="M50.77,57.33c-3.61,0-6.57-2.95-6.57-6.57s2.95-6.57,6.57-6.57h16.44c3.61,0,6.57,2.95,6.57,6.57s-2.95,6.57-6.57,6.57h-16.44Z" fill="#e3ae34"/></svg>