<?xml version="1.0" encoding="UTF-8"?>
<svg id="_レイヤー_1" data-name="レイヤー 1" xmlns="http://www.w3.org/2000/svg" xmlns:xlink="http://www.w3.org/1999/xlink" viewBox="0 0 85.04 85.04">
  <defs>
    <style>
      .cls-1 {
        fill: #fff45c;
      }

      .cls-2 {
        fill: #c85349;
      }

      .cls-3 {
        fill: url(#_新規グラデーションスウォッチ_2);
      }

      .cls-4 {
        fill: #231815;
      }

      .cls-5 {
        fill: #fff;
      }

      .cls-6 {
        fill: #3ca584;
      }

      .cls-7 {
        fill: #ee7962;
      }
    </style>
    <linearGradient id="_新規グラデーションスウォッチ_2" data-name="新規グラデーションスウォッチ 2" x1="43.94" y1="28.83" x2="78.99" y2="28.83" gradientUnits="userSpaceOnUse">
      <stop offset="0" stop-color="#6cc3b7"/>
      <stop offset="1" stop-color="#6cc3b7"/>
    </linearGradient>
  </defs>
  <ellipse class="cls-2" cx="30.35" cy="51.23" rx="22.78" ry="26.91" transform="translate(-26.01 32.01) rotate(-40.53)"/>
  <ellipse class="cls-7" cx="32.48" cy="49.4" rx="20.97" ry="26.91" transform="translate(-24.31 32.96) rotate(-40.53)"/>
  <ellipse class="cls-5" cx="33.67" cy="48.25" rx="16.27" ry="20.57" transform="translate(-23.27 33.45) rotate(-40.53)"/>
  <ellipse class="cls-7" cx="33.62" cy="48.17" rx="12.15" ry="15.36" transform="translate(-21.64 28.24) rotate(-35.25)"/>
  <ellipse class="cls-5" cx="34" cy="47.91" rx="8.53" ry="10.78" transform="translate(-21.42 28.41) rotate(-35.25)"/>
  <ellipse class="cls-7" cx="34.58" cy="47.5" rx="5.31" ry="6.71" transform="translate(-21.07 28.67) rotate(-35.25)"/>
  <path class="cls-4" d="M37.17,47.38c-.16,0-.32-.07-.43-.2-.2-.24-.18-.59.06-.8l4.92-4.23c.24-.2.59-.17.8.06.2.24.18.59-.06.8l-4.92,4.23c-.11.09-.24.14-.37.14Z"/>
  <g>
    <path class="cls-1" d="M48.73,43.06s-1.62,1.45-3.61.76c0,0-2.4.61-3.5-.9-1.21-1.67.48-3.57.48-3.57-.48-1.99,1.24-2.68,1.24-2.68"/>
    <path class="cls-4" d="M46.22,44.77c-.36,0-.74-.05-1.14-.16-.72.13-2.91.38-4.08-1.24-1.11-1.53-.4-3.28.28-4.22-.26-1.84,1.02-2.89,1.78-3.19.39-.16.84.03,1,.43.16.39-.03.84-.43,1-.18.08-1.08.54-.78,1.79.06.24,0,.5-.17.69-.05.06-1.26,1.47-.43,2.61.78,1.07,2.68.61,2.7.61.15-.04.3-.03.44.02,1.53.52,2.8-.56,2.86-.61.32-.28.8-.25,1.08.07.28.32.25.8-.06,1.08-.06.06-1.3,1.14-3.02,1.14Z"/>
  </g>
  <g>
    <line class="cls-5" x1="44.95" y1="39.42" x2="42.92" y2="41.76"/>
    <path class="cls-4" d="M42.92,42.3c-.12,0-.25-.04-.35-.13-.22-.19-.25-.53-.05-.75l2.03-2.34c.19-.22.53-.25.75-.05.22.19.25.53.05.75l-2.03,2.34c-.1.12-.25.18-.4.18Z"/>
  </g>
  <path class="cls-4" d="M34.42,77.03c-1.34,0-2.71-.11-4.1-.34-6.79-1.1-13.17-4.81-17.98-10.44s-7.48-12.51-7.51-19.39c-.03-6.93,2.61-13.03,7.44-17.16.38-.32.79-.64,1.29-1.01l.19-.19c.21-.22.43-.43.66-.63,9.18-7.85,24.75-4.74,34.72,6.93,4.8,5.62,7.61,12.37,7.91,19.01.3,6.73-1.99,12.54-6.47,16.37-.35.3-.74.6-1.2.93l-.21.21c-.24.24-.47.47-.73.69-3.85,3.3-8.73,5.02-14.01,5.02ZM26.75,25.38c-4.16,0-8.06,1.26-11.15,3.9-.19.17-.37.34-.54.52l-.25.26s-.07.06-.11.09c-.49.35-.88.65-1.23.96-4.42,3.77-6.83,9.37-6.8,15.75.03,6.44,2.54,12.91,7.07,18.2s10.52,8.78,16.88,9.82c6.3,1.02,12.2-.49,16.62-4.27.22-.19.42-.39.62-.59l.27-.27s.07-.07.11-.09c.45-.32.81-.59,1.13-.87,4.04-3.45,6.11-8.74,5.83-14.88-.28-6.23-2.94-12.59-7.47-17.9h0c-5.89-6.89-13.82-10.63-20.98-10.63Z"/>
  <g>
    <path class="cls-6" d="M68.89,24.82s5.14-5.93,5.62-6.76-1.44-1.44-3.57,0-3.85,2.9-3.85,2.9"/>
    <path class="cls-4" d="M68.89,25.74c-.21,0-.43-.07-.6-.22-.38-.33-.43-.91-.09-1.3,1.75-2.02,4.19-4.89,5.14-6.1-.44.02-1.11.18-1.88.71-2.06,1.39-3.75,2.83-3.77,2.84-.39.33-.97.28-1.3-.11-.33-.39-.28-.97.11-1.3.07-.06,1.78-1.51,3.93-2.96,1.94-1.32,3.84-1.23,4.64-.48.49.46.58,1.13.24,1.71-.5.85-4.85,5.89-5.72,6.9-.18.21-.44.32-.7.32Z"/>
  </g>
  <g>
    <path class="cls-3" d="M68.29,24.02s-.17-7.12-.37-8.49-3.16-2.47-4.94,0-3.98,4.33-4.88,11.33c0,0-10.99,3.98-12.29,4.88s-3.16,4.05-.55,7.83,4.94,4.74,7.28,3.57,11.19-10.78,11.19-10.78c0,0,7.28.69,11.19.21s4.81-2.95,3.5-4.33-6.93-2.68-6.93-2.68"/>
    <path class="cls-4" d="M50.67,44.53c-2.08,0-4.12-1.47-6.17-4.45-1.56-2.26-1.61-4.25-1.37-5.52.33-1.79,1.37-3.05,2.16-3.59,1.24-.85,9.32-3.83,11.98-4.79.83-5.83,2.62-8.13,4.19-10.17.26-.34.52-.67.77-1.02,1.07-1.49,2.69-2.14,4.32-1.74,1.22.3,2.14,1.16,2.28,2.14.21,1.42.38,8.31.39,8.61.01.51-.39.93-.9.94-.5.01-.93-.39-.94-.9-.05-1.96-.2-7.3-.36-8.38-.02-.15-.31-.49-.9-.63-.42-.1-1.5-.21-2.39,1.03-.26.36-.54.72-.81,1.07-1.56,2.01-3.17,4.09-3.9,9.84-.04.34-.27.63-.6.75-4.21,1.53-11.21,4.17-12.09,4.77-.4.28-1.15,1.09-1.39,2.41-.25,1.33.13,2.76,1.08,4.14,2.88,4.17,4.78,3.93,6.11,3.27,1.6-.8,7.41-6.77,10.93-10.58.2-.21.48-.32.76-.29.07,0,7.23.67,11,.21,1.99-.25,2.95-1.04,3.19-1.7.14-.39.05-.77-.24-1.08-.77-.81-4.25-1.9-6.47-2.42-.49-.11-.8-.61-.69-1.1.11-.5.61-.8,1.1-.69.98.23,5.97,1.44,7.39,2.94.78.82,1.01,1.93.64,2.97-.55,1.55-2.27,2.61-4.7,2.91-3.45.42-9.26-.02-10.94-.16-1.76,1.9-8.91,9.53-11.15,10.65-.77.38-1.52.58-2.28.58Z"/>
  </g>
  <path class="cls-4" d="M61.26,32.18c-.27,0-.44,0-.47-.01-.51-.03-.89-.47-.86-.97.03-.51.46-.91.97-.86.05,0,4.71.24,8.32-2.49,1.17-.88,1.37-1.42,1.35-1.56-.01-.08-.21-.22-.35-.28l-2.16-.67c-.48-.15-.75-.67-.6-1.15.15-.49.67-.75,1.15-.6l2.2.69c.16.06,1.39.51,1.59,1.73.17,1.06-.51,2.14-2.06,3.32-3.49,2.63-7.67,2.87-9.06,2.87Z"/>
  <path class="cls-4" d="M62.42,29.59c-.22,0-.43-.09-.58-.27-.28-.32-.24-.81.08-1.08,0,0,1.66-1.43,3.76-3.15.33-.27.81-.22,1.08.11.27.33.22.81-.11,1.08-2.08,1.71-3.74,3.12-3.74,3.13-.14.12-.32.18-.5.18Z"/>
  <path class="cls-4" d="M37.54,74.9c-16.6-.71-25.02-15.81-25.37-16.46-.24-.45-.08-1,.37-1.25.45-.25,1.01-.08,1.25.37.08.15,8.29,14.83,23.78,15.5,6.04-.11,10.62-3.36,10.66-3.4.41-.29.99-.21,1.28.21.3.41.21.98-.2,1.28-.2.15-5.07,3.63-11.77,3.75Z"/>
</svg>