<?xml version="1.0" encoding="UTF-8"?><svg id="_レイヤー_1" xmlns="http://www.w3.org/2000/svg" viewBox="0 0 85.04 85.04"><path d="M22.39,51.68c0,4.02-3.28,7.3-7.3,7.3s-7.3-3.28-7.3-7.3,3.28-7.3,7.3-7.3h7.3v7.3Z" fill="#d12757"/><path d="M26.06,51.68c0-4.02,3.28-7.3,7.3-7.3s7.3,3.28,7.3,7.3v18.27c0,4.02-3.28,7.3-7.3,7.3s-7.3-3.28-7.3-7.3v-18.27Z" fill="#d12757"/><path d="M33.36,22.38c-4.02,0-7.3-3.28-7.3-7.3s3.28-7.3,7.3-7.3,7.3,3.28,7.3,7.3v7.3h-7.3Z" fill="#40bae1"/><path d="M33.36,26.06c4.02,0,7.3,3.28,7.3,7.3s-3.28,7.3-7.3,7.3H15.09c-4.02,0-7.3-3.28-7.3-7.3s3.28-7.3,7.3-7.3h18.27Z" fill="#40bae1"/><path d="M62.65,33.36c0-4.02,3.28-7.3,7.3-7.3s7.3,3.28,7.3,7.3-3.28,7.3-7.3,7.3h-7.3v-7.3Z" fill="#31ae79"/><path d="M58.98,33.36c0,4.02-3.28,7.3-7.3,7.3s-7.3-3.28-7.3-7.3V15.09c0-4.02,3.28-7.3,7.3-7.3s7.3,3.28,7.3,7.3v18.27Z" fill="#31ae79"/><path d="M51.68,62.65c4.02,0,7.3,3.28,7.3,7.3s-3.28,7.3-7.3,7.3-7.3-3.28-7.3-7.3v-7.3h7.3Z" fill="#e3ae34"/><path d="M51.68,58.97c-4.02,0-7.3-3.28-7.3-7.3s3.28-7.3,7.3-7.3h18.27c4.02,0,7.3,3.28,7.3,7.3s-3.28,7.3-7.3,7.3h-18.27Z" fill="#e3ae34"/></svg>