<?xml version="1.0" encoding="UTF-8"?><svg id="_レイヤー_1" xmlns="http://www.w3.org/2000/svg" viewBox="0 0 85.04 85.04"><path d="M43.1,80.96c-6.96-.83-9.82-10.02-4.5-14.76.45-.4,2.11-1.31,2.22-1.68v-8.56s-8.77-4.64-8.77-4.64l-20.49-.04c-2.22-.45-3.79-2.43-3.84-4.7.14-12.96-.25-25.98.2-38.91.46-1.83,2.21-3.26,4.07-3.42,20.77.14,41.59-.25,62.32.2,1.96.71,3.23,2.42,3.27,4.52v37.76c-.12,2.24-1.73,4.21-3.98,4.56l-25.76.02c-.28.08-.37.58-.15.74l7.37,3.86c.61.1,1.69-.76,2.36-1.03,6.17-2.46,12.65,2.67,11.6,9.2-1.27,7.86-11.89,9.75-15.79,2.78-.96-1.71-.82-3.15-1.36-4.93l-4.27-2.25v4.27c0,.96,1.65,1.59,2.32,2.18,5.34,4.7,2.58,13.99-4.42,14.83-.55.07-1.84.07-2.4,0ZM9.97,8.98c-.1.89.08,1.94,0,2.85l.22.22h64.91l.22-.22v-2.85c0-.05-.24-.94-.29-1.06-.34-.84-1.29-1.38-2.18-1.42l-61.18.15c-1.03.3-1.6,1.32-1.71,2.33ZM40.85,14.3H9.97v26.97h30.88v-8.16c0-.23.33-1.08.48-1.32.84-1.37,2.92-1.47,4-.3.79.85,2.27,4.56,2.27,5.67v4.12h27.73V14.3h-32.08v13.26c0,.34-.84,1-1.26.97s-1.13-.72-1.13-1.12v-13.11ZM43.25,33.03v31.38c0,.08-.35,1.08-.42,1.23-.53,1.07-1.52,1.32-2.35,2-3.86,3.14-2.81,9.32,1.95,10.77,5.72,1.75,10.38-4.82,6.79-9.63-1.28-1.71-3.47-1.9-3.84-4.26l-.04-26.63c-.23-1.24-.49-2.48-1.02-3.62-.12-.26-.7-1.61-1.07-1.25ZM40.85,43.66H9.97v2.92c0,.44.37,1.38.68,1.71.16.17,1.07.76,1.19.76h29.01v-5.39ZM75.33,43.66h-27.73v5.39h25.86c.12,0,1.03-.59,1.19-.76.32-.34.68-1.28.68-1.71v-2.92ZM40.85,51.3h-3.75c1.11.88,2.49,1.43,3.75,2.1v-2.1ZM47.59,54.6v2.32c1.42,1.08,3.33,1.7,4.84,2.65,2.88,1.81,1.45,3.71,2.8,6.19,2.32,4.27,8.87,4.08,10.95-.3,2.35-4.96-2.21-10.24-7.43-8.62-1.49.46-2.22,1.58-4.03,1.34-.7-.09-1.82-.77-2.49-1.11-1.57-.78-3.05-1.76-4.64-2.48Z"/><path d="M40.85,14.3v13.11c0,.4.69,1.09,1.13,1.12s1.26-.64,1.26-.97v-13.26h32.08v26.97h-27.73v-4.12c0-1.11-1.49-4.82-2.27-5.67-1.08-1.16-3.16-1.07-4,.3-.15.24-.48,1.1-.48,1.32v8.16H9.97V14.3h30.88ZM21.77,21.38c-1.08.18-1.99,1.1-2.17,2.17-.24,1.44-.22,6.85-.04,8.36.12.98,1.08,2.1,2.06,2.28s1.41,0,2.24-.39c1.43-.69,5.27-2.84,6.42-3.77,1.77-1.43,1.38-3.49-.39-4.71-1.37-.94-4.89-3.1-6.33-3.71-.63-.27-1.09-.35-1.79-.24ZM55.5,21.38c-1.02.17-2,1.16-2.17,2.17-.25,1.46-.21,6.66-.04,8.2.19,1.67,1.59,2.68,3.23,2.47.49-.06.94-.36,1.37-.58,1.52-.77,4.87-2.62,6.12-3.62,1.84-1.47,1.39-3.45-.39-4.71-1.33-.94-4.9-3.11-6.33-3.71-.63-.27-1.09-.36-1.79-.24Z" fill="#fff"/><path d="M9.97,8.98c.12-1.01.69-2.03,1.71-2.33l61.18-.15c.89.04,1.84.58,2.18,1.42.05.12.29,1,.29,1.06v2.85l-.22.22H10.19l-.22-.22c.08-.91-.1-1.96,0-2.85ZM18.62,10.06c.38-.46.37-1.16-.04-1.6-.49-.52-3.34-.59-3.63.4-.61,2.03,3.16,1.81,3.67,1.2ZM22.97,8.19c-.86.25-.98,1.83.04,2.15.41.13,2.02.13,2.45.03.97-.22,1.13-1.83.11-2.15-.37-.12-2.24-.14-2.6-.04ZM30.31,8.19c-.82.24-.98,1.71-.07,2.1.42.18,1.95.18,2.43.1,1.27-.2,1.32-2.07-.14-2.24-.41-.05-1.89-.06-2.22.03ZM37.81,8.19c-1.01.23-1.17,1.7-.22,2.1.69.29,2.94.31,3.3-.52.78-1.78-2.01-1.82-3.08-1.58ZM45.15,8.19c-1.01.23-1.17,1.7-.22,2.1.69.29,2.94.31,3.3-.52.78-1.78-2.01-1.82-3.08-1.58ZM52.5,8.19c-.96.21-1.13,1.71-.22,2.1.69.29,2.93.31,3.3-.52.79-1.8-1.98-1.82-3.08-1.58ZM59.84,8.19c-1.01.22-1.05,1.72-.22,2.1.65.3,2.94.29,3.3-.53.79-1.8-1.98-1.82-3.08-1.58ZM66.68,10.06c.53.63,4.27.79,3.67-1.2-.3-.99-3.15-.92-3.64-.4-.41.43-.42,1.14-.04,1.6Z" fill="#7dc1ad"/><path d="M40.85,43.66v5.39H11.84c-.12,0-1.03-.59-1.19-.76-.32-.34-.68-1.28-.68-1.71v-2.92h30.88ZM15.26,47.21c.32.26,2.57.29,3,.16.92-.27.81-1.85-.19-2.15-.42-.13-1.87-.13-2.3-.04-.88.2-1.17,1.49-.51,2.02ZM23.12,45.19c-1.02.23-1.17,1.75-.25,2.14.31.13,2.24.14,2.62.07.92-.17,1.08-1.58.13-2.07-.46-.24-1.98-.25-2.5-.14ZM33.31,45.5c-.42-.43-2.27-.44-2.85-.31-1.14.25-1.05,1.92-.15,2.18.3.09,2.34.09,2.64,0,.73-.21.88-1.36.36-1.87Z" fill="#7dc1ad"/><path d="M43.25,33.03c.37-.37.96.99,1.07,1.25.53,1.14.8,2.39,1.02,3.62l.04,26.63c.37,2.36,2.56,2.54,3.84,4.26,3.59,4.81-1.07,11.38-6.79,9.63-4.76-1.45-5.81-7.64-1.95-10.77.83-.67,1.82-.92,2.35-2,.07-.15.42-1.15.42-1.23v-31.38ZM44.37,68.62c-6.09-.08-4.62,9.45,1.12,7.63,4.15-1.32,3.26-7.57-1.12-7.63Z" fill="#7dc1ad"/><path d="M75.33,43.66v2.92c0,.44-.37,1.38-.68,1.71-.16.17-1.07.76-1.19.76h-25.86v-5.39h27.73ZM51.98,45.5c-.51.52-.36,1.66.36,1.87.3.09,2.34.09,2.64,0,.9-.26.98-1.93-.15-2.18-.58-.13-2.42-.12-2.85.31ZM59.99,45.19c-1.03.23-1.32,1.73-.4,2.14.28.13,2.26.14,2.62.07.99-.19,1.14-1.72.19-2.13-.41-.17-1.95-.18-2.4-.08ZM70.04,47.21c.66-.53.36-1.82-.51-2.02-.43-.1-1.88-.09-2.3.04-1,.3-1.11,1.88-.19,2.15.43.12,2.68.1,3-.16Z" fill="#7dc1ad"/><path d="M47.59,54.6c1.6.72,3.08,1.7,4.64,2.48.67.33,1.79,1.01,2.49,1.11,1.81.24,2.53-.88,4.03-1.34,5.22-1.61,9.78,3.66,7.43,8.62-2.07,4.38-8.63,4.58-10.95.3-1.34-2.48.08-4.38-2.8-6.19-1.51-.95-3.42-1.57-4.84-2.65v-2.32ZM60.15,58.83c-4.98.6-4.41,8.52,1.3,7.74,4.56-.63,3.88-8.37-1.3-7.74Z" fill="#7dc1ad"/><path d="M40.85,51.3v2.1c-1.25-.66-2.64-1.22-3.75-2.1h3.75Z" fill="#7dc1ad"/><path d="M55.5,21.38c.7-.12,1.16-.03,1.79.24,1.44.6,5,2.77,6.33,3.71,1.78,1.25,2.22,3.24.39,4.71-1.25,1-4.6,2.85-6.12,3.62-.43.22-.88.52-1.37.58-1.63.2-3.04-.81-3.23-2.47-.17-1.54-.21-6.75.04-8.2.17-1.01,1.15-2,2.17-2.17ZM62.69,28.19c.37-.5.03-.69-.36-.98l-6.15-3.6-.56.28-.08,7.42c.03.59.47.84.96.5l6.2-3.62Z"/><path d="M21.77,21.38c.7-.12,1.16-.03,1.79.24,1.45.61,4.97,2.77,6.33,3.71,1.76,1.21,2.15,3.27.39,4.71-1.15.93-4.99,3.08-6.42,3.77-.83.4-1.26.57-2.24.39s-1.94-1.3-2.06-2.28c-.18-1.5-.2-6.92.04-8.36.18-1.08,1.1-1.99,2.17-2.17ZM28.96,28.19c.36-.48.04-.7-.36-.99-1.85-1.3-4.27-2.31-6.2-3.56l-.52.24-.08,7.42c0,.5.4.84.86.55l6.3-3.67Z"/><path d="M45.15,8.19c1.07-.24,3.85-.2,3.08,1.58-.36.83-2.61.82-3.3.52-.95-.41-.79-1.88.22-2.1Z" fill="#fff"/><path d="M37.81,8.19c1.07-.24,3.85-.2,3.08,1.58-.36.83-2.61.82-3.3.52-.95-.41-.79-1.88.22-2.1Z" fill="#fff"/><path d="M52.5,8.19c1.1-.24,3.86-.23,3.08,1.58-.36.83-2.61.82-3.3.52-.91-.39-.74-1.89.22-2.1Z" fill="#fff"/><path d="M30.31,8.19c.34-.1,1.82-.08,2.22-.03,1.46.17,1.41,2.04.14,2.24-.48.07-2.01.07-2.43-.1-.92-.39-.75-1.86.07-2.1Z" fill="#fff"/><path d="M59.84,8.19c1.1-.24,3.86-.23,3.08,1.58-.36.82-2.65.83-3.3.53-.83-.39-.79-1.88.22-2.1Z" fill="#fff"/><path d="M22.97,8.19c.36-.1,2.23-.08,2.6.04,1.01.31.86,1.93-.11,2.15-.43.1-2.04.09-2.45-.03-1.02-.32-.9-1.9-.04-2.15Z" fill="#fff"/><path d="M18.62,10.06c-.51.61-4.28.83-3.67-1.2.3-.99,3.14-.92,3.63-.4.41.43.42,1.14.04,1.6Z" fill="#fff"/><path d="M66.68,10.06c-.38-.46-.37-1.16.04-1.6.49-.52,3.34-.59,3.64.4.6,1.99-3.14,1.83-3.67,1.2Z" fill="#fff"/><path d="M33.31,45.5c.51.52.36,1.66-.36,1.87-.3.09-2.34.09-2.64,0-.9-.26-.98-1.93.15-2.18.58-.13,2.42-.12,2.85.31Z" fill="#fff"/><path d="M15.26,47.21c-.66-.53-.36-1.82.51-2.02.43-.1,1.88-.09,2.3.04,1,.3,1.11,1.88.19,2.15-.43.12-2.68.1-3-.16Z" fill="#fff"/><path d="M23.12,45.19c.52-.12,2.04-.1,2.5.14.95.49.79,1.9-.13,2.07-.38.07-2.3.06-2.62-.07-.92-.38-.76-1.91.25-2.14Z" fill="#fff"/><path d="M44.37,68.62c4.38.06,5.28,6.31,1.12,7.63-5.74,1.82-7.21-7.71-1.12-7.63ZM43.8,70.96c-1.61.37-1.5,3.07.42,3.13,2.48.08,2.08-3.7-.42-3.13Z"/><path d="M51.98,45.5c.42-.43,2.27-.44,2.85-.31,1.14.25,1.05,1.92.15,2.18-.3.09-2.34.09-2.64,0-.73-.21-.88-1.36-.36-1.87Z" fill="#fff"/><path d="M59.99,45.19c.46-.1,2-.09,2.4.08.95.41.8,1.94-.19,2.13-.36.07-2.33.05-2.62-.07-.92-.41-.63-1.91.4-2.14Z" fill="#fff"/><path d="M70.04,47.21c-.32.26-2.57.29-3,.16-.92-.27-.81-1.85.19-2.15.42-.13,1.87-.13,2.3-.04.88.2,1.17,1.49.51,2.02Z" fill="#fff"/><path d="M60.15,58.83c5.18-.63,5.86,7.11,1.3,7.74-5.7.79-6.27-7.13-1.3-7.74ZM61.78,61.54c-1.47-1.46-4.02,1.01-2.12,2.5,1.58,1.24,3.55-1.09,2.12-2.5Z"/><path d="M62.69,28.19l-6.2,3.62c-.5.34-.94.09-.96-.5l.08-7.42.56-.28,6.15,3.6c.4.29.73.48.36.98Z" fill="#fff"/><path d="M28.96,28.19l-6.3,3.67c-.46.28-.86-.05-.86-.55l.08-7.42.52-.24c1.93,1.25,4.34,2.26,6.2,3.56.4.28.72.51.36.99Z" fill="#fff"/><path d="M43.8,70.96c2.5-.58,2.9,3.2.42,3.13-1.92-.06-2.03-2.76-.42-3.13Z" fill="#fff"/><path d="M61.78,61.54c1.43,1.41-.54,3.74-2.12,2.5-1.9-1.49.65-3.96,2.12-2.5Z" fill="#fff"/></svg>