<?xml version="1.0" encoding="UTF-8"?><svg id="_レイヤー_1" xmlns="http://www.w3.org/2000/svg" viewBox="0 0 85.04 85.04"><rect x="7.93" y="7.32" width="69.5" height="69.5" rx="15.67" ry="15.67" fill="#00a75b"/><path d="M65.84,38.8c0-10.37-10.39-18.8-23.17-18.8s-23.17,8.44-23.17,18.8c0,9.3,8.24,17.08,19.38,18.55.75.16,1.78.5,2.04,1.14.23.59.15,1.5.08,2.1,0,0-.27,1.64-.33,1.98-.1.59-.47,2.29,2.01,1.25,2.47-1.04,13.34-7.86,18.21-13.45h0c3.36-3.68,4.97-7.42,4.97-11.57Z" fill="#fff"/><path d="M58.14,44.79h-6.51c-.24,0-.44-.2-.44-.44h0v-10.1h0c0-.25.2-.45.44-.45h6.51c.24,0,.44.2.44.44v1.64c0,.24-.2.44-.44.44h-4.42v1.71h4.42c.24,0,.44.2.44.44v1.64c0,.24-.2.44-.44.44h-4.42v1.71h4.42c.24,0,.44.2.44.44v1.64c0,.24-.2.44-.44.44Z" fill="#00a75b"/><path d="M34.06,44.79c.24,0,.44-.2.44-.44v-1.64c0-.24-.2-.44-.44-.44h-4.42v-8.03c0-.24-.2-.44-.44-.44h-1.64c-.24,0-.44.2-.44.44v10.1h0c0,.25.2.45.44.45h6.51Z" fill="#00a75b"/><rect x="35.89" y="33.79" width="2.53" height="11" rx=".44" ry=".44" fill="#00a75b"/><path d="M49.16,33.79h-1.64c-.24,0-.44.2-.44.44v6.01l-4.63-6.25s-.02-.03-.04-.05c0,0,0,0,0,0,0,0-.02-.02-.03-.03,0,0,0,0,0,0,0,0-.02-.01-.02-.02,0,0,0,0-.01,0,0,0-.02-.01-.02-.02,0,0,0,0-.01,0,0,0-.02,0-.02-.01,0,0,0,0-.01,0,0,0-.02,0-.03-.01,0,0,0,0-.01,0,0,0-.02,0-.03,0,0,0-.01,0-.02,0,0,0-.02,0-.03,0,0,0-.01,0-.02,0,0,0-.02,0-.02,0,0,0-.02,0-.02,0,0,0-.01,0-.02,0h-1.63c-.24,0-.44.2-.44.44v10.11c0,.24.2.44.44.44h1.64c.24,0,.44-.2.44-.44v-6l4.63,6.26s.07.08.11.11c0,0,0,0,0,0,0,0,.02.01.03.02,0,0,0,0,.01,0,0,0,.01,0,.02.01,0,0,.01,0,.02,0,0,0,0,0,.01,0,.01,0,.02,0,.03,0,0,0,0,0,0,0,.04,0,.08.02.12.02h1.63c.24,0,.44-.2.44-.44v-10.11c0-.24-.2-.44-.44-.44Z" fill="#00a75b"/></svg>