<?xml version="1.0" encoding="UTF-8"?><svg id="_レイヤー_1" xmlns="http://www.w3.org/2000/svg" xmlns:xlink="http://www.w3.org/1999/xlink" viewBox="0 0 85.04 85.04"><defs><linearGradient id="_新規グラデーションスウォッチ_2" x1="16.21" y1="31.8" x2="51.71" y2="31.8" gradientUnits="userSpaceOnUse"><stop offset="0" stop-color="#6cc3b7"/><stop offset="1" stop-color="#6cc3b7"/></linearGradient><linearGradient id="_新規グラデーションスウォッチ_2-2" y1="35.58" y2="35.58" xlink:href="#_新規グラデーションスウォッチ_2"/><linearGradient id="_新規グラデーションスウォッチ_2-3" y1="39.35" y2="39.35" xlink:href="#_新規グラデーションスウォッチ_2"/><linearGradient id="_新規グラデーションスウォッチ_2-4" y1="43.12" y2="43.12" xlink:href="#_新規グラデーションスウォッチ_2"/><linearGradient id="_新規グラデーションスウォッチ_2-5" y1="46.9" y2="46.9" xlink:href="#_新規グラデーションスウォッチ_2"/></defs><polygon points="69.23 61.45 18.44 65.27 18.44 26.77 69.23 22.95 69.23 61.45" fill="#7dc1ad"/><path d="M69.23,22.95v38.5l-50.79,3.82V26.77l50.79-3.82M69.23,20.75c-.05,0-.11,0-.17,0l-50.79,3.82c-1.15.09-2.04,1.04-2.04,2.19v38.5c0,.61.26,1.2.7,1.61.41.38.94.59,1.5.59.05,0,.11,0,.17,0l50.79-3.82c1.15-.09,2.04-1.04,2.04-2.19V22.95c0-.61-.26-1.2-.7-1.61-.41-.38-.94-.59-1.5-.59h0Z" fill="#231815"/><polygon points="64.57 57.18 13.78 61.01 13.78 22.5 64.57 18.68 64.57 57.18" fill="#d1e8df"/><path d="M64.57,18.68v38.5l-50.79,3.82V22.5l50.79-3.82M64.57,16.48c-.05,0-.11,0-.17,0l-50.79,3.82c-1.15.09-2.04,1.04-2.04,2.19v38.5c0,.61.26,1.2.7,1.61.41.38.94.59,1.5.59.05,0,.11,0,.17,0l50.79-3.82c1.15-.09,2.04-1.04,2.04-2.19V18.68c0-.61-.26-1.2-.7-1.61-.41-.38-.94-.59-1.5-.59h0Z" fill="#231815"/><polygon points="59.71 52.33 8.92 56.15 8.92 17.65 59.71 13.82 59.71 52.33" fill="#fff"/><path d="M59.71,13.82v38.5l-50.79,3.82V17.65l50.79-3.82M59.71,11.62c-.05,0-.11,0-.17,0l-50.79,3.82c-1.15.09-2.04,1.04-2.04,2.19v38.5c0,.61.26,1.2.7,1.61.41.38.94.59,1.5.59.05,0,.11,0,.17,0l50.79-3.82c1.15-.09,2.04-1.04,2.04-2.19V13.82c0-.61-.26-1.2-.7-1.61-.41-.38-.94-.59-1.5-.59h0Z"/><polygon points="16.34 33.69 16.21 32.88 51.58 29.91 51.71 30.72 16.34 33.69" fill="url(#_新規グラデーションスウォッチ_2)"/><polygon points="16.34 37.47 16.21 36.66 51.58 33.69 51.71 34.5 16.34 37.47" fill="url(#_新規グラデーションスウォッチ_2-2)"/><polygon points="16.34 41.24 16.21 40.43 51.58 37.47 51.71 38.27 16.34 41.24" fill="url(#_新規グラデーションスウォッチ_2-3)"/><polygon points="16.34 45.01 16.21 44.2 51.58 41.24 51.71 42.05 16.34 45.01" fill="url(#_新規グラデーションスウォッチ_2-4)"/><polygon points="16.34 48.79 16.21 47.98 51.58 45.02 51.71 45.82 16.34 48.79" fill="url(#_新規グラデーションスウォッチ_2-5)"/><path d="M77.24,70.68l-7.38-7.38c1.96-3.05,2.96-6.51,2.96-10.4,0-5.47-1.96-10.16-5.88-14.06-3.9-3.9-8.58-5.85-14.04-5.85s-10.25,1.93-14.18,5.8c-3.95,3.87-5.93,8.5-5.93,13.89,0,6.13,2.17,11.09,6.5,14.88,3.93,3.42,8.37,5.13,13.32,5.13,3.49,0,6.66-.75,9.51-2.25l7.68,7.68c1.59,1.59,4.2,1.59,5.79,0l1.65-1.65c1.59-1.59,1.59-4.2,0-5.79ZM52.82,42.43c2.89,0,5.31,1,7.27,3.01,1.97,1.99,2.95,4.46,2.95,7.41s-1,5.38-2.99,7.41c-1.99,2-4.44,3.01-7.34,3.01-2.67,0-5.03-.98-7.07-2.95-2.05-1.97-3.08-4.48-3.08-7.53s.99-5.36,2.97-7.34c1.98-2,4.41-3.01,7.28-3.01Z" fill="#468ccb"/><path d="M72.69,80.41c-1.39,0-2.7-.54-3.67-1.52l-7.12-7.12c-2.81,1.34-5.93,2.01-9.29,2.01-5.19,0-9.92-1.82-14.04-5.4-4.56-3.99-6.88-9.27-6.88-15.71,0-5.67,2.11-10.61,6.26-14.67,4.13-4.06,9.16-6.12,14.95-6.12s10.72,2.08,14.81,6.17c4.11,4.1,6.2,9.09,6.2,14.84,0,3.74-.9,7.18-2.67,10.23l6.77,6.77c2.03,2.03,2.03,5.32,0,7.35l-1.65,1.65c-.98.98-2.28,1.52-3.67,1.52ZM62.32,69.09l8.26,8.26c1.13,1.13,3.11,1.13,4.24,0l1.65-1.65c1.17-1.17,1.17-3.07,0-4.24l-8.01-8.01.48-.75c1.85-2.88,2.79-6.18,2.79-9.81,0-5.22-1.82-9.56-5.55-13.28-3.67-3.67-8.13-5.53-13.26-5.53s-9.71,1.85-13.41,5.49c-3.77,3.69-5.6,7.97-5.6,13.1,0,5.86,2,10.45,6.12,14.05,3.71,3.23,7.95,4.86,12.59,4.86,3.29,0,6.32-.71,8.99-2.12l.72-.38ZM52.72,64.36c-2.95,0-5.59-1.1-7.83-3.26-2.27-2.17-3.42-4.97-3.42-8.33s1.11-5.93,3.29-8.12c2.18-2.21,4.9-3.33,8.06-3.33s5.89,1.12,8.05,3.34c2.17,2.19,3.27,4.94,3.27,8.18s-1.11,5.95-3.3,8.18c-2.2,2.21-4.93,3.34-8.12,3.34ZM52.82,43.53c-2.59,0-4.72.88-6.5,2.68-1.79,1.79-2.65,3.93-2.65,6.56,0,2.77.9,4.97,2.74,6.74,1.85,1.78,3.91,2.65,6.31,2.65,2.62,0,4.76-.88,6.56-2.68,1.79-1.83,2.67-4,2.67-6.63s-.86-4.84-2.64-6.64c-1.76-1.8-3.88-2.68-6.48-2.68Z" fill="#231815"/><circle cx="52.81" cy="52.85" r="11.15" fill="#fff"/><path d="M52.81,65.09c-6.75,0-12.25-5.49-12.25-12.25s5.49-12.25,12.25-12.25,12.25,5.49,12.25,12.25-5.49,12.25-12.25,12.25ZM52.81,42.8c-5.54,0-10.05,4.51-10.05,10.05s4.51,10.05,10.05,10.05,10.05-4.51,10.05-10.05-4.51-10.05-10.05-10.05Z" fill="#231815"/><path d="M16.17,23.97c-.13.01-.22-.1-.23-.24-.01-.15.06-.27.18-.28l4.11-.35c.23-.02.43.04.55.18.07.09.12.19.13.31.01.13-.01.28-.09.44-.37.85-1.12,1.67-1.91,2.29.29.28.56.55.78.83.04.05.06.1.06.15,0,.1-.04.2-.11.26-.05.03-.09.06-.15.06-.08,0-.18-.03-.25-.12-.64-.78-1.47-1.6-2.29-2.21-.06-.05-.1-.11-.11-.17,0-.07.03-.14.09-.19.05-.05.1-.08.16-.08.07,0,.14.02.2.06.42.3.84.66,1.25,1.04.72-.54,1.4-1.29,1.71-2.02.03-.07.04-.13.04-.17,0-.1-.08-.14-.24-.13l-3.89.33Z" fill="#231815"/><path d="M19.48,27.75c-.12,0-.24-.06-.33-.17-.68-.81-1.5-1.61-2.27-2.19-.12-.09-.15-.19-.15-.26,0-.11.04-.22.13-.29.06-.06.14-.1.23-.11.09,0,.19.02.28.08.39.29.8.62,1.18.98.71-.55,1.31-1.27,1.59-1.9.03-.06.03-.1.03-.11,0,0-.02-.02-.1-.01l-3.9.33c-.19.02-.34-.13-.36-.35-.02-.22.11-.4.3-.41l4.11-.35c.28-.02.51.06.66.22.09.11.15.24.16.38.01.16-.02.32-.09.5-.34.76-1,1.57-1.84,2.25.25.25.49.48.69.74.05.07.08.14.09.22.01.13-.05.27-.15.36-.08.06-.15.09-.22.09-.01,0-.02,0-.03,0ZM17.13,24.98h0s-.05,0-.08.04c-.04.03-.06.07-.05.09,0,.03.03.06.06.08.78.59,1.62,1.4,2.31,2.23.05.06.11.08.14.08.03,0,.05-.01.08-.04.03-.03.07-.09.06-.15,0-.03,0-.05-.03-.09-.21-.26-.46-.51-.73-.77l-.15-.15.11-.09c.86-.67,1.54-1.48,1.88-2.24.06-.14.08-.26.07-.38,0-.09-.04-.17-.1-.24-.09-.11-.25-.15-.45-.14l-4.11.35c-.05,0-.08.08-.07.14,0,.04.04.13.09.12l3.89-.33c.1,0,.18,0,.24.04.08.04.12.11.13.2,0,.08-.02.17-.05.24-.31.71-.96,1.48-1.75,2.06l-.08.06-.08-.07c-.4-.38-.82-.73-1.23-1.03-.04-.02-.08-.04-.11-.04Z" fill="#231815"/><path d="M27.29,26.02c.15-.01.24.12.25.25.01.15-.06.29-.19.3l-4.57.38c-.13.01-.23-.12-.24-.26-.01-.13.06-.28.2-.29l4.56-.38ZM26.51,22.71c.14-.01.24.12.25.25.01.15-.06.28-.2.29l-3.56.3c-.14.01-.23-.11-.25-.25-.01-.13.06-.28.2-.29l3.56-.3Z" fill="#231815"/><path d="M22.75,27.07c-.07,0-.14-.03-.2-.08-.08-.07-.13-.18-.14-.3,0-.09.01-.19.06-.27.06-.09.15-.15.25-.16l4.56-.38c.23-.02.37.18.38.37.02.23-.11.42-.31.43l-4.57.38s-.02,0-.03,0ZM27.3,26.14l-4.56.38s-.04,0-.06.04c-.02.03-.03.07-.03.11,0,.05.03.1.06.13.02.02.04.02.05.02l4.57-.38c.07,0,.09-.1.08-.16,0-.06-.04-.15-.11-.14ZM22.98,23.68c-.09,0-.18-.04-.24-.11-.06-.07-.1-.16-.11-.26,0-.11.03-.23.09-.31.06-.07.13-.11.22-.11l3.56-.3c.21-.02.36.17.38.37.02.23-.11.41-.31.43l-3.56.3s-.02,0-.03,0ZM26.52,22.83l-3.56.3s-.03,0-.05.03c-.03.03-.04.08-.04.13,0,.04.02.09.04.11.03.03.05.03.07.03l3.56-.3c.06,0,.09-.08.08-.16,0-.06-.05-.15-.11-.14h0Z" fill="#231815"/><path d="M32.53,21.95c.29-.02.47.03.6.17.1.1.15.25.16.43,0,.05,0,.11,0,.17-.11,1.86-1.26,3.35-3.23,4.01-.04.02-.07.02-.11.03-.11,0-.2-.04-.24-.15,0-.03-.02-.07-.02-.1-.01-.12.05-.22.17-.27,1.71-.61,2.8-1.85,2.86-3.5,0-.03,0-.06,0-.09-.01-.16-.1-.19-.28-.18l-3.53.29c-.14.01-.23-.09-.24-.24-.01-.15.06-.26.2-.27l3.66-.3Z" fill="#231815"/><path d="M29.93,26.89c-.15,0-.27-.08-.34-.23-.02-.05-.03-.1-.03-.13-.01-.18.08-.33.25-.4,1.71-.61,2.72-1.84,2.78-3.38,0-.03,0-.05,0-.08,0-.06,0-.07-.15-.06l-3.53.29c-.11.01-.2-.03-.27-.1-.06-.06-.1-.15-.11-.26-.02-.22.11-.39.31-.41l3.67-.3c.32-.03.54.04.7.21.11.11.18.28.2.5,0,.06,0,.11,0,.17-.11,1.96-1.32,3.47-3.32,4.14-.04.02-.09.03-.14.03-.01,0-.02,0-.04,0ZM32.51,22.35c.13,0,.31.04.33.3,0,.04,0,.08,0,.12-.06,1.64-1.14,2.96-2.95,3.6-.06.02-.1.08-.09.14,0,.02,0,.05.02.07.02.04.05.07.11.06.02,0,.05,0,.07-.02,1.91-.64,3.05-2.07,3.16-3.91,0-.06,0-.11,0-.15-.01-.16-.06-.28-.13-.35-.07-.08-.19-.16-.5-.13l-3.66.3c-.09,0-.08.12-.08.14,0,.05.02.08.04.11.01.01.03.03.07.02l3.53-.29s.05,0,.08,0Z" fill="#231815"/><path d="M39.21,25.37c.13-.01.22.1.23.22s-.06.24-.19.25l-3.77.31c-.13.01-.21-.09-.22-.21-.01-.12.05-.24.18-.25l1.59-.13-.2-2.36-1.3.11c-.12.01-.21-.09-.22-.21s.06-.24.18-.25l3.16-.26c.13-.01.22.1.23.22.01.12-.06.23-.19.24l-1.37.11.2,2.36,1.68-.14Z" fill="#231815"/><path d="M35.47,26.27c-.17,0-.31-.14-.33-.33-.02-.21.11-.37.29-.39l1.47-.12-.18-2.11-1.18.1c-.08,0-.17-.02-.23-.07-.07-.06-.12-.15-.12-.25-.02-.2.11-.37.29-.39l3.16-.26c.19-.02.34.13.36.33.02.2-.11.36-.3.38l-1.24.1.18,2.11,1.56-.13c.09,0,.17.02.23.07.07.06.12.16.13.26.02.2-.11.37-.3.38l-3.77.31s-.02,0-.03,0ZM36.96,23.05l.22,2.61-1.72.14c-.06,0-.07.09-.07.12,0,.01,0,.1.08.1l3.77-.31c.06,0,.08-.08.07-.11,0-.04-.02-.07-.04-.09-.01-.01-.03-.02-.05-.01h0l-1.81.15-.22-2.61,1.49-.12c.08,0,.07-.1.07-.11,0-.01-.02-.1-.09-.1l-3.16.26s-.07.06-.07.12c0,.03.02.06.04.08.01.01.03.01.05.01l1.43-.12Z" fill="#231815"/><path d="M41.33,21.73c-.15.01-.23-.08-.25-.25-.01-.15.06-.25.2-.26l3.08-.29c.26-.02.44.05.56.2.06.08.09.18.1.3,0,.1,0,.23-.04.36-.16.56-.45,1.1-.83,1.66.72.47,1.25.82,1.81,1.37.06.06.1.13.1.21s-.02.14-.06.2c-.05.07-.13.1-.2.11-.08,0-.16-.02-.23-.08-.5-.51-1.01-.92-1.73-1.39-.61.79-1.51,1.46-2.42,1.89-.05.02-.09.04-.14.04-.1,0-.19-.03-.24-.13-.01-.03-.02-.06-.03-.1,0-.11.05-.22.16-.28.71-.34,1.44-.84,2.04-1.49.58-.63,1.03-1.38,1.21-2.08.01-.06.02-.1.02-.14,0-.09-.08-.13-.23-.12l-2.89.28Z" fill="#231815"/><path d="M41.26,25.91c-.15,0-.27-.08-.32-.21-.02-.04-.03-.09-.04-.14-.01-.17.08-.33.23-.4.53-.26,1.32-.72,2-1.46.58-.63,1.01-1.37,1.18-2.03,0-.02.02-.07.02-.09,0,0-.03,0-.09,0l-2.89.28c-.21.01-.36-.13-.38-.36,0-.11.02-.21.08-.28.06-.07.14-.11.24-.12l3.08-.29c.29-.03.51.05.67.24.08.12.12.23.13.37,0,.11,0,.25-.04.4-.14.49-.39,1-.78,1.59.71.46,1.2.8,1.72,1.31.08.09.13.18.14.28,0,.1-.02.2-.09.29-.07.09-.18.15-.29.16-.12.01-.23-.03-.32-.11-.48-.49-.97-.88-1.61-1.32-.58.72-1.45,1.39-2.4,1.84-.07.03-.13.05-.19.05-.01,0-.02,0-.04,0ZM44.27,21.32c.25,0,.3.14.31.23,0,.06,0,.12-.02.18-.18.7-.63,1.48-1.24,2.14-.71.77-1.52,1.25-2.08,1.52-.07.03-.09.1-.09.15,0,.02,0,.04.01.06.02.04.04.07.11.06.03,0,.06-.01.1-.03.95-.45,1.82-1.12,2.38-1.85l.07-.09.1.06c.71.47,1.23.89,1.75,1.41.04.04.09.05.13.04.05,0,.09-.03.12-.06.03-.04.04-.08.04-.11,0-.04-.03-.09-.07-.13-.53-.52-1.03-.86-1.79-1.35l-.11-.07.07-.11c.42-.61.68-1.13.82-1.62.03-.12.04-.23.03-.31,0-.09-.03-.16-.08-.24-.06-.07-.17-.17-.45-.14l-3.08.29s-.05.01-.07.03c-.02.02-.03.05-.02.1.01.14.08.14.11.13l2.89-.28s.04,0,.06,0Z" fill="#231815"/><path d="M48.74,25.13c.01.16-.1.24-.25.25-.16.01-.27-.04-.29-.21l-.39-4.71c-.01-.16.08-.24.25-.25.15-.01.27.04.29.21l.13,1.56c.94.17,2.1.48,3.05.84.12.04.18.13.18.24,0,.04,0,.09-.01.14-.03.11-.12.19-.23.2-.04,0-.09,0-.13-.02-.83-.34-1.91-.67-2.82-.85l.22,2.6Z" fill="#231815"/><path d="M48.45,25.51c-.09,0-.17-.02-.23-.06-.06-.04-.13-.12-.14-.26l-.39-4.71c-.01-.15.05-.24.1-.28.06-.06.15-.09.27-.1.24-.02.4.11.42.33l.12,1.46c.96.18,2.09.49,2.97.83.16.06.25.18.27.35,0,.06,0,.12-.02.18-.04.16-.18.27-.34.29-.05,0-.11,0-.18-.03-.81-.33-1.8-.63-2.64-.81l.2,2.44c.02.22-.12.37-.36.39-.02,0-.04,0-.05,0ZM48.1,20.34s-.02,0-.03,0c-.14.01-.14.07-.13.12l.39,4.71c0,.05.01.1.15.09.14-.01.14-.08.13-.12l-.23-2.77.16.03c.88.18,1.97.51,2.84.86.02,0,.05.01.07.01.05,0,.1-.05.12-.1,0-.03.01-.06,0-.09,0-.07-.04-.11-.1-.13-.9-.34-2.06-.66-3.02-.83l-.09-.02-.14-1.65s0-.1-.12-.1Z" fill="#231815"/></svg>