<?xml version="1.0" encoding="UTF-8"?><svg id="_レイヤー_1" xmlns="http://www.w3.org/2000/svg" xmlns:xlink="http://www.w3.org/1999/xlink" viewBox="0 0 85.04 85.04"><defs><linearGradient id="_名称未設定グラデーション_12" x1="6.6" y1="51.41" x2="49.15" y2="51.41" gradientUnits="userSpaceOnUse"><stop offset="0" stop-color="#80c8b3"/><stop offset="1" stop-color="#80c8b3"/></linearGradient><linearGradient id="_名称未設定グラデーション_12-2" x1="20.67" y1="48.92" x2="23.8" y2="48.92" xlink:href="#_名称未設定グラデーション_12"/></defs><path d="M51.66,51.9c5.8,1.46,11.74.82,17.13-1.72,3.6.42,7.77,2.16,11.29,2.49,1.25.12,1.88-.63,1.54-1.86l-4.71-7.44c8.59-11.42,5.37-27.99-7.05-35.1-15.86-9.09-35.3,2.11-35.73,20.15C16.87,23.85.8,39.04,4.63,56.6c.74,3.39,2.27,6.49,4.28,9.28l-4.84,8.01c.03,1.05.65,1.38,1.63,1.31,3.43-.24,7.76-2.11,11.29-2.49,2.11.86,4.23,1.7,6.49,2.12,14.53,2.7,27.87-8.24,28.17-22.93Z" fill="#fff"/><path d="M51.66,51.9c-.3,14.69-13.64,25.62-28.17,22.93-2.26-.42-4.37-1.26-6.49-2.12-3.54.38-7.86,2.25-11.29,2.49-.98.07-1.6-.26-1.63-1.31l4.84-8.01c-2.02-2.79-3.54-5.9-4.28-9.28-3.83-17.55,12.24-32.75,29.5-28.17.43-18.05,19.87-29.24,35.73-20.15,12.41,7.11,15.64,23.68,7.05,35.1l4.71,7.44c.34,1.22-.28,1.98-1.54,1.86-3.52-.33-7.69-2.08-11.29-2.49-5.39,2.54-11.33,3.19-17.13,1.72ZM77.79,49.55l-3.63-5.68-.13-.66c.63-1.48,1.81-2.68,2.6-4.15,5.55-10.28,1.79-23.24-8.43-28.82-14.45-7.9-31.8,2.76-31.57,19.01,8.17,3.39,14.02,10.96,14.95,19.83,5.58,2.01,11.68.96,16.9-1.57l9.32,2.04ZM8,72.08l9.31-2.04c12.11,6.49,27.28.53,31.02-12.79,4.55-16.2-10.5-31.02-26.64-26.17-13.34,4.01-19.25,19.71-11.88,31.6.43.69,1.95,2.43,1.95,3.06,0,1.15-3.24,5.04-3.77,6.34Z"/><path d="M8,72.08c.53-1.3,3.76-5.19,3.77-6.34,0-.64-1.52-2.37-1.95-3.06-7.38-11.9-1.46-27.59,11.88-31.6,16.14-4.85,31.19,9.97,26.64,26.17-3.74,13.32-18.91,19.28-31.02,12.79l-9.31,2.04ZM15.98,58.94h2.66l1.35-5.02,4.45.08,1.24,4.94h2.66l-3.55-13.74c-.28-.83-.42-1.21-1.36-1.3s-3.1-.25-3.56.68l-3.88,14.35ZM39.76,43.92h-8.76v2.5h3.13v10.02h-3.13v2.5h8.76v-2.5h-3.13v-10.02h3.13v-2.5Z" fill="url(#_名称未設定グラデーション_12)"/><path d="M77.79,49.55l-9.32-2.04c-5.23,2.54-11.32,3.58-16.9,1.57-.92-8.87-6.77-16.44-14.95-19.83-.23-16.25,17.11-26.91,31.57-19.01,10.21,5.58,13.98,18.55,8.43,28.82-.79,1.47-1.96,2.67-2.6,4.15l.13.66,3.63,5.68ZM67.93,20.13h-20.03v2.5h20.03v-2.5ZM67.93,27.64h-20.03v2.5h20.03v-2.5ZM67.93,35.15h-15.02v2.5h15.02v-2.5Z" fill="#fff"/><path d="M15.98,58.94l3.88-14.35c.47-.94,2.6-.77,3.56-.68s1.08.47,1.36,1.3l3.55,13.74h-2.66l-1.24-4.94-4.45-.08-1.35,5.02h-2.66ZM20.67,51.43h3.13l-1.26-5h-.52s-1.35,5-1.35,5Z" fill="#040000"/><polygon points="39.76 43.92 39.76 46.42 36.63 46.42 36.63 56.44 39.76 56.44 39.76 58.94 31 58.94 31 56.44 34.13 56.44 34.13 46.42 31 46.42 31 43.92 39.76 43.92" fill="#040000"/><rect x="47.9" y="20.13" width="20.03" height="2.5"/><rect x="47.9" y="27.64" width="20.03" height="2.5"/><rect x="52.91" y="35.15" width="15.02" height="2.5"/><polygon points="20.67 51.43 22.02 46.41 22.54 46.43 23.8 51.43 20.67 51.43" fill="url(#_名称未設定グラデーション_12-2)"/><line x1="8" y1="72.08" x2="8.42" y2="74.76" fill="none"/></svg>