<?xml version="1.0" encoding="UTF-8"?><svg id="_レイヤー_1" xmlns="http://www.w3.org/2000/svg" xmlns:xlink="http://www.w3.org/1999/xlink" viewBox="0 0 85.04 85.04"><defs><clipPath id="clippath"><path d="M70.17,62.52H14.7c-1.1,0-2-.89-2-2V12.53c0-1.1.89-2,2-2h55.47c1.1,0,2,.89,2,2v47.99c0,1.1-.89,2-2,2Z" fill="none"/></clipPath><linearGradient id="_新規グラデーションスウォッチ_2" x1="14.73" y1="66.72" x2="31.95" y2="66.72" gradientUnits="userSpaceOnUse"><stop offset="0" stop-color="#6cc3b7"/><stop offset="1" stop-color="#6cc3b7"/></linearGradient><linearGradient id="_新規グラデーションスウォッチ_2-2" x1="15.42" y1="63.59" x2="27.46" y2="63.59" xlink:href="#_新規グラデーションスウォッチ_2"/><linearGradient id="_新規グラデーションスウォッチ_2-3" x1="15.42" y1="68.96" x2="27.46" y2="68.96" xlink:href="#_新規グラデーションスウォッチ_2"/></defs><path d="M70.67,77.96H14.51c-3.13,0-5.66-2.53-5.66-5.66V12.73c0-3.13,2.53-5.66,5.66-5.66h56.17c3.13,0,5.66,2.53,5.66,5.66v59.57c0,3.13-2.53,5.66-5.66,5.66Z" fill="#fff"/><path d="M70.17,62.52H14.7c-1.1,0-2-.89-2-2V12.53c0-1.1.89-2,2-2h55.47c1.1,0,2,.89,2,2v47.99c0,1.1-.89,2-2,2Z" fill="#bde1d2"/><path d="M70.55,78.47H14.33c-2.61,0-4.73-2.12-4.73-4.73v-8.63h65.68v8.63c0,2.61-2.12,4.73-4.73,4.73Z" fill="#81c8b0"/><g clip-path="url(#clippath)"><path d="M40.03,33.97l8.07-11.98,17.25,1.14,2.47,10.43,2.02,1.86-2.02,5.49-3.88,6.61-4.93,5.27.86,4.57,10.88,4.1-.12,1.88-44.17,2.61s4.47-5.61,9.21-7.17,8.33-1.57,8.33-1.57l2.04-3.12-.83-1.73s-6-3.72-6.02-8.95c-2.82-1.46-7.9-5.26-4.76-9.59,3.14-4.32,5.6.15,5.6.15Z" fill="#fff"/><path d="M40.8,16.57s-4.27.21-5.42,4.27c-1.15,4.06-2.17,9.17-1.24,11.57,1.55.83,2.51-1.88,4.48,0,1.97,1.88,2.7,3.44,2.7,3.44,0,0,3.32-5.94,5.15-7.45,1.83-1.51,3.6-2.65,3.6-2.65l-1.62,2.94s1.09.27,4.16-.76c3.07-1.03,4.65-.42,4.65-.42l4.67-2.43,4.19,6.28.9,5.01,2.81-6.26s-.72-6.27-1.07-6.99-.95-2.15-.95-2.15c0,0,2.68-2.74,2.68-3.68s-3.96.31-3.96.31c0,0-5.34-3.98-8.77-4.13s-9.68-1.6-14.05,1.42c-4.38,3.02-2.92,1.67-2.92,1.67Z" fill="#3e9e73"/><path d="M52.25,55.08c-3,0-5.74-.75-7.55-1.98-2.78-1.89-5.41-5.78-6.38-9.47-.13-.48.16-.97.64-1.1.48-.13.97.16,1.1.64.87,3.3,3.2,6.77,5.65,8.44,3.05,2.07,9.18,2.54,14.15-.26,6.25-3.52,6.33-16.38,6.33-16.51,0-.5.4-.9.9-.9h0c.5,0,.9.4.9.9,0,.57-.08,14.03-7.25,18.07-2.69,1.52-5.7,2.17-8.49,2.17Z" fill="#221714"/><path d="M34.43,34.72c-.41,0-.78-.28-.88-.7-1.68-7.46-.03-11.92,1.66-14.34,1.88-2.7,4.19-3.57,4.29-3.6.47-.17.98.07,1.15.54.17.47-.07.98-.53,1.15h0c-.32.12-7.7,3.05-4.81,15.86.11.48-.2.97-.68,1.08-.07.02-.13.02-.2.02Z" fill="#221714"/><path d="M39.28,43.68c-2.55,0-4.91-1.53-6.13-4.03-1.15-2.36-.91-4.83.64-6.45,1.29-1.36,2.65-1.92,4.03-1.67,1.48.26,2.63,1.41,3.39,2.47,2.11-4.73,8.62-9.85,8.94-10.1.34-.27.83-.25,1.16.04.32.29.39.78.16,1.15l-1.28,2.05s-.04.06-.06.09c-.28.35-.55.78-.68,1.09,1.5-.15,5.74-2.35,8.11-3.72.42-.25.96-.11,1.22.3.26.41.14.95-.26,1.22l-1.08.72c1.52-.57,4.27-2.65,5.27-3.45.39-.31.95-.25,1.27.14.31.39.25.95-.14,1.27-.42.34-4.18,3.34-6.22,3.88-.99.26-1.76.16-2.27-.32-.12-.11-.21-.23-.29-.36-1.98,1-4.3,2.04-5.56,2.11-1.08.06-1.55-.4-1.76-.8-.11-.22-.16-.46-.16-.71-2.42,2.4-4.94,5.44-5.18,7.75-.04.41-.35.73-.76.79-.4.06-.8-.16-.96-.53-.36-.83-1.63-3.05-3.15-3.31-.76-.13-1.57.25-2.41,1.14-1.21,1.27-.96,3.12-.32,4.42.75,1.54,2.5,3.25,4.96,3,.49-.04.93.31.98.81.05.49-.31.93-.81.98-.21.02-.41.03-.62.03Z" fill="#221714"/><path d="M67.09,36.37c-.08,0-.17-.01-.25-.04-.3-.09-.53-.32-.61-.62-.99-3.48-3.11-8.61-4.73-9.13-.47-.15-.74-.66-.58-1.13.15-.47.66-.74,1.13-.58,2.49.79,4.49,5.93,5.43,8.76,1.13-1.77,1.72-4.45,1.45-6.96-.23-2.17-1.06-3.81-2.27-4.5-.3-.17-.48-.5-.45-.85s.25-.65.57-.77c.92-.36,1.89-1.61,2.39-2.54-2.74.99-5.67-1.18-5.81-1.28-.02-.02-3.08-2.2-9.19-3.03-8.06-1.09-11.88,2.77-12.04,2.93-.34.36-.91.37-1.27.03s-.37-.91-.03-1.27c.18-.19,4.56-4.69,13.58-3.48,6.61.89,9.88,3.27,10.02,3.37.03.02,2.64,1.93,4.52.84.27-.16,1.1-.64,1.81-.18.24.15.62.53.54,1.31-.11,1.08-1.25,3.04-2.65,4.21,1.11,1.13,1.82,2.86,2.05,5.01.34,3.17-.46,7.38-3.01,9.66-.17.15-.38.23-.6.23Z" fill="#221714"/><path d="M53.28,44.04c-.41,0-.78-.28-.87-.69-.12-.48.18-.97.67-1.08.46-.11.77-.28.83-.46.2-.54-.78-1.84-1.09-2.27-.11-.15-.21-.28-.28-.38-.28-.41-.16-.97.25-1.25.41-.28.97-.16,1.25.25.05.08.13.18.22.3.65.87,1.87,2.5,1.35,3.96-.29.79-.99,1.33-2.1,1.59-.07.02-.14.03-.21.03Z" fill="#221714"/><path d="M52.82,50.52c-2.76,0-5.06-2.5-5.17-2.62-.33-.37-.31-.94.06-1.27.37-.33.94-.31,1.27.06.02.03,2.46,2.65,4.67,1.9,2.42-.82,3.24-1.99,3.25-2,.28-.41.83-.52,1.24-.25.41.27.53.81.27,1.23-.11.17-1.15,1.7-4.18,2.72-.48.16-.95.23-1.41.23Z" fill="#221714"/><path d="M49.8,32.45c-.1,0-.19-.02-.29-.05l-.34-.12c-.86-.31-2.04-.74-3.72-.25-.48.14-.98-.14-1.12-.61-.14-.48.14-.98.61-1.12,2.24-.65,3.87-.06,4.84.29l.3.11c.47.16.72.67.56,1.14-.13.38-.48.61-.85.61Z" fill="#221714"/><path d="M61.08,32.15c-.23,0-.46-.09-.64-.26-.2-.19-.95-.56-3.73.23l-.49-1.73c1.76-.5,4.24-1.02,5.49.23.35.35.35.92,0,1.27-.18.18-.41.26-.64.26ZM56.47,31.25h.01-.01Z" fill="#221714"/><ellipse cx="47.57" cy="36.03" rx="1.35" ry="2.16" fill="#221714"/><ellipse cx="58.39" cy="36.03" rx="1.35" ry="2.16" fill="#221714"/><path d="M39.17,38.82c-.36,0-.65-.29-.65-.65,0-.46-.81-1.82-2.03-2.83-.28-.23-.32-.64-.09-.92.23-.28.64-.31.92-.09,1.23,1.02,2.5,2.73,2.5,3.83,0,.36-.29.65-.65.65Z" fill="#221714"/><path d="M66.59,43.04c-.36,0-.69-.21-.84-.57-.19-.46.04-.99.5-1.17.08-.03,2.05-.9,2.67-4.02.23-1.14.06-1.85-.13-1.99-.1-.07-.49-.09-1.28.34-.44.24-.98.08-1.22-.36-.24-.44-.08-.98.36-1.22,1.33-.72,2.41-.79,3.21-.21.89.66,1.19,2,.83,3.79-.82,4.11-3.64,5.29-3.76,5.33-.11.04-.22.06-.33.06Z" fill="#221714"/><path d="M28.72,64.49c-.25,0-.49-.1-.67-.3-.33-.37-.3-.94.07-1.27.19-.17,4.61-4.14,7.26-5,1.31-.43,2.65-.62,3.94-.81,2.06-.3,3.83-.56,4.91-1.64,1.22-1.22.87-2.33.85-2.38-.16-.46.09-.98.55-1.14.46-.16.97.06,1.14.52.03.09.8,2.21-1.27,4.27-1.5,1.5-3.64,1.81-5.92,2.15-1.22.18-2.48.36-3.65.74-1.9.62-5.41,3.55-6.61,4.63-.17.16-.39.23-.6.23Z" fill="#221714"/><path d="M72.17,63.84c-.27,0-.54-.12-.71-.35-.02-.02-1.74-2.22-3.78-2.84-5.8-1.14-9.01-2.35-9.45-3.59-.16-.62-.77-3.32,0-4.72.24-.44.79-.59,1.22-.35.44.24.59.79.35,1.22-.3.55-.12,2.18.12,3.19.67.66,4.73,1.81,8.2,2.5,2.69.81,4.69,3.37,4.78,3.48.3.39.23.96-.16,1.26-.16.13-.36.19-.55.19ZM59.94,56.54h.01-.01Z" fill="#221714"/><path d="M51.06,59.87c-.05,0-.11,0-.16,0-5.9-.03-7.48-1.91-7.64-2.12-.3-.4-.22-.96.18-1.26.39-.29.94-.22,1.24.16.06.07,1.39,1.4,6.22,1.43,5.31.04,8.52-1.5,8.55-1.52.45-.22.99-.03,1.2.41.22.45.04.98-.41,1.2-.14.07-3.52,1.71-9.19,1.71Z" fill="#221714"/></g><path d="M71.45,8.29c1.99,0,3.62,1.62,3.62,3.62v61.22c0,1.99-1.62,3.62-3.62,3.62H13.73c-1.99,0-3.62-1.62-3.62-3.62V11.91c0-1.99,1.62-3.62,3.62-3.62h57.72M71.45,6.09H13.73c-3.21,0-5.82,2.6-5.82,5.82v61.22c0,3.21,2.6,5.82,5.82,5.82h57.72c3.21,0,5.82-2.6,5.82-5.82V11.91c0-3.21-2.6-5.82-5.82-5.82h0Z" fill="#221714"/><polygon points="31.95 72.65 14.73 73.96 14.73 60.79 31.95 59.48 31.95 72.65" fill="url(#_新規グラデーションスウォッチ_2)"/><path d="M31.95,59.48v13.17l-17.22,1.31v-13.17l17.22-1.31M31.95,58.29s-.06,0-.09,0l-17.22,1.31c-.62.05-1.1.56-1.1,1.18v13.17c0,.33.14.65.38.87.22.2.51.32.81.32.03,0,.06,0,.09,0l17.22-1.31c.62-.05,1.1-.56,1.1-1.18v-13.17c0-.33-.14-.65-.38-.87-.22-.2-.51-.32-.81-.32h0Z" fill="#231815"/><polygon points="29.93 70.67 12.71 71.98 12.71 58.81 29.93 57.5 29.93 70.67" fill="#fff"/><path d="M29.93,57.5v13.17l-17.22,1.31v-13.17l17.22-1.31M29.93,56.31s-.06,0-.09,0l-17.22,1.31c-.62.05-1.1.56-1.1,1.18v13.17c0,.33.14.65.38.87.22.2.51.32.81.32.03,0,.06,0,.09,0l17.22-1.31c.62-.05,1.1-.56,1.1-1.18v-13.17c0-.33-.14-.65-.38-.87-.22-.2-.51-.32-.81-.32h0Z" fill="#231815"/><path d="M21.01,60.95c.57-.04.9-.07,1.22-.12,0,0,.03,0,.04,0,.09,0,.09,0,.08.27,0,.14-.02.17-.07.17,0,0,0,0-.01,0-.21,0-.32.01-1.22.08-.33.02-.5.04-.78.07-.02,0-.05,0-.09,0-.1,0-.12.01-.18.03-.02,0-.03,0-.03,0-.03,0-.06-.01-.06-.04-.01-.07-.02-.19-.02-.32,0-.05.04-.09.09-.09.22,0,.46,0,1.04-.05Z"/><polygon points="15.47 64.23 15.42 63.95 27.41 62.94 27.46 63.22 15.47 64.23" fill="url(#_新規グラデーションスウォッチ_2-2)"/><polygon points="15.47 69.6 15.42 69.33 27.41 68.31 27.46 68.59 15.47 69.6" fill="url(#_新規グラデーションスウォッチ_2-3)"/><path d="M16.98,61.32c.57-.04.9-.07,1.22-.12,0,0,.03,0,.04,0,.09,0,.09,0,.08.27,0,.14-.02.17-.07.17,0,0,0,0-.01,0-.21,0-.32.01-1.22.08-.33.02-.5.04-.78.07-.02,0-.05,0-.09,0-.1,0-.12.01-.18.03-.02,0-.03,0-.03,0-.03,0-.06-.01-.06-.04-.01-.07-.02-.19-.02-.32,0-.05.04-.09.09-.09.22,0,.46,0,1.04-.05Z"/><path d="M25.18,60.63c.57-.04.9-.07,1.22-.12,0,0,.03,0,.04,0,.09,0,.09,0,.08.27,0,.14-.02.17-.07.17,0,0,0,0-.01,0-.21,0-.32.01-1.22.08-.33.02-.5.04-.78.07-.02,0-.05,0-.09,0-.1,0-.12.01-.18.03-.02,0-.03,0-.03,0-.03,0-.06-.01-.06-.04-.01-.07-.02-.19-.02-.32,0-.05.04-.09.09-.09.22,0,.46,0,1.04-.05Z"/><path d="M21.07,66.38c.57-.04.9-.07,1.22-.12,0,0,.03,0,.04,0,.09,0,.09,0,.08.27,0,.14-.02.17-.07.17,0,0,0,0-.01,0-.21,0-.32.01-1.22.08-.33.02-.5.04-.78.07-.02,0-.05,0-.09,0-.1,0-.12.01-.18.03-.02,0-.03,0-.03,0-.03,0-.06-.01-.06-.04-.01-.07-.02-.19-.02-.32,0-.05.04-.09.09-.09.22,0,.46,0,1.04-.05Z"/><path d="M17.03,66.76c.57-.04.9-.07,1.22-.12,0,0,.03,0,.04,0,.09,0,.09,0,.08.27,0,.14-.02.17-.07.17,0,0,0,0-.01,0-.21,0-.32.01-1.22.08-.33.02-.5.04-.78.07-.02,0-.05,0-.09,0-.1,0-.12.01-.18.03-.02,0-.03,0-.03,0-.03,0-.06-.01-.06-.04-.01-.07-.02-.19-.02-.32,0-.05.04-.09.09-.09.22,0,.46,0,1.04-.05Z"/><path d="M25.23,66.06c.57-.04.9-.07,1.22-.12,0,0,.03,0,.04,0,.09,0,.09,0,.08.27,0,.14-.02.17-.07.17,0,0,0,0-.01,0-.21,0-.32.01-1.22.08-.33.02-.5.04-.78.07-.02,0-.05,0-.09,0-.1,0-.12.01-.18.03-.02,0-.03,0-.03,0-.03,0-.06-.01-.06-.04-.01-.07-.02-.19-.02-.32,0-.05.04-.09.09-.09.22,0,.46,0,1.04-.05Z"/><circle cx="26.26" cy="23.13" r="4.8" fill="#fff"/><circle cx="26.26" cy="34.41" r="4.8" fill="#fff"/><circle cx="26.26" cy="45.7" r="4.8" fill="#fff"/><circle cx="16.76" cy="47.51" r="2.41" fill="#fff"/><circle cx="16.76" cy="41.94" r="2.41" fill="#fff"/><circle cx="16.76" cy="36.37" r="2.41" fill="#fff"/><circle cx="16.76" cy="30.8" r="2.41" fill="#fff"/><path d="M69.34,69.61h-31.67c-.36,0-.65-.29-.65-.65s.29-.65.65-.65h31.67c.36,0,.65.29.65.65s-.29.65-.65.65Z" fill="#fff"/><path d="M69.34,73.59h-31.67c-.36,0-.65-.29-.65-.65s.29-.65.65-.65h31.67c.36,0,.65.29.65.65s-.29.65-.65.65Z" fill="#fff"/></svg>