<?xml version="1.0" encoding="UTF-8"?><svg id="_レイヤー_1" xmlns="http://www.w3.org/2000/svg" xmlns:xlink="http://www.w3.org/1999/xlink" viewBox="0 0 85.04 85.04"><defs><linearGradient id="_新規グラデーションスウォッチ_2" x1="8.89" y1="40.42" x2="51.67" y2="40.42" gradientTransform="translate(-10.14 70.7) rotate(-90)" gradientUnits="userSpaceOnUse"><stop offset="0" stop-color="#6cc3b7"/><stop offset="1" stop-color="#6cc3b7"/></linearGradient><linearGradient id="_新規グラデーションスウォッチ_2-2" x1="17.83" y1="20.76" x2="25.3" y2="20.76" gradientTransform="matrix(1,0,0,1,0,0)" xlink:href="#_新規グラデーションスウォッチ_2"/><linearGradient id="_新規グラデーションスウォッチ_2-3" x1="18.19" y1="19.49" x2="23.41" y2="19.49" gradientTransform="matrix(1,0,0,1,0,0)" xlink:href="#_新規グラデーションスウォッチ_2"/><linearGradient id="_新規グラデーションスウォッチ_2-4" x1="18.19" y1="21.8" x2="23.41" y2="21.8" gradientTransform="matrix(1,0,0,1,0,0)" xlink:href="#_新規グラデーションスウォッチ_2"/></defs><rect x="-2.12" y="19.03" width="64.8" height="42.78" transform="translate(70.7 10.14) rotate(90)" fill="url(#_新規グラデーションスウォッチ_2)"/><path d="M51.67,8.01v64.8H8.89V8.01h42.78M51.67,5.81H8.89c-1.21,0-2.2.98-2.2,2.2v64.8c0,1.22.99,2.2,2.2,2.2h42.78c1.21,0,2.2-.98,2.2-2.2V8.01c0-1.22-.99-2.2-2.2-2.2h0Z" fill="#231815"/><rect x="3.39" y="23.83" width="53.71" height="33.2" transform="translate(70.67 10.18) rotate(90)" fill="#fff"/><path d="M46.84,13.58v53.71H13.65V13.58h33.2M46.84,11.38H13.65c-1.21,0-2.2.98-2.2,2.2v53.71c0,1.22.99,2.2,2.2,2.2h33.2c1.21,0,2.2-.98,2.2-2.2V13.58c0-1.22-.99-2.2-2.2-2.2h0Z" fill="#231815"/><rect x="13.86" y="22.81" width="32.75" height="40.45" fill="#d1e8df"/><rect x="13.86" y="22.22" width="32.75" height=".57" fill="#9fa0a0"/><polygon points="25.3 23.31 17.83 23.87 17.83 18.21 25.3 17.64 25.3 23.31" fill="url(#_新規グラデーションスウォッチ_2-2)"/><path d="M25.3,17.64v5.66l-7.47.56v-5.66l7.47-.56M25.3,17.14s-.02,0-.04,0l-7.47.56c-.26.02-.46.24-.46.5v5.66c0,.14.06.27.16.37.09.09.21.13.34.13.01,0,.02,0,.04,0l7.47-.56c.26-.02.46-.24.46-.5v-5.66c0-.14-.06-.27-.16-.37-.09-.09-.21-.13-.34-.13h0Z" fill="#231815"/><polygon points="24.45 22.45 16.98 23.02 16.98 17.35 24.45 16.79 24.45 22.45" fill="#fff"/><path d="M24.45,16.79v5.66l-7.47.56v-5.66l7.47-.56M24.45,16.29s-.02,0-.04,0l-7.47.56c-.26.02-.46.24-.46.5v5.66c0,.14.06.27.16.37.09.09.21.13.34.13.01,0,.02,0,.04,0l7.47-.56c.26-.02.46-.24.46-.5v-5.66c0-.14-.06-.27-.16-.37-.09-.09-.21-.13-.34-.13h0Z" fill="#231815"/><path d="M20.61,18.37c.25-.02.39-.03.53-.05,0,0,.01,0,.02,0,.04,0,.04,0,.04.12,0,.06,0,.07-.03.07,0,0,0,0,0,0-.09,0-.14,0-.53.03-.14.01-.22.02-.34.03,0,0-.02,0-.04,0-.04,0-.05,0-.08.01,0,0-.01,0-.01,0-.01,0-.02,0-.03-.02,0-.03,0-.08,0-.14,0-.02.02-.04.04-.04.1,0,.2,0,.45-.02Z"/><polygon points="18.21 19.77 18.19 19.65 23.39 19.22 23.41 19.34 18.21 19.77" fill="url(#_新規グラデーションスウォッチ_2-3)"/><polygon points="18.21 22.08 18.19 21.96 23.39 21.53 23.41 21.64 18.21 22.08" fill="url(#_新規グラデーションスウォッチ_2-4)"/><path d="M18.86,18.52c.25-.02.39-.03.53-.05,0,0,.01,0,.02,0,.04,0,.04,0,.04.12,0,.06,0,.07-.03.07,0,0,0,0,0,0-.09,0-.14,0-.53.03-.14.01-.22.02-.34.03,0,0-.02,0-.04,0-.04,0-.05,0-.08.01,0,0-.01,0-.01,0-.01,0-.02,0-.03-.02,0-.03,0-.08,0-.14,0-.02.02-.04.04-.04.1,0,.2,0,.45-.02Z"/><path d="M22.42,18.22c.25-.02.39-.03.53-.05,0,0,.01,0,.02,0,.04,0,.04,0,.04.12,0,.06,0,.07-.03.07,0,0,0,0,0,0-.09,0-.14,0-.53.03-.14.01-.22.02-.34.03,0,0-.02,0-.04,0-.04,0-.05,0-.08.01,0,0-.01,0-.01,0-.01,0-.02,0-.03-.02,0-.03,0-.08,0-.14,0-.02.02-.04.04-.04.1,0,.2,0,.45-.02Z"/><path d="M20.64,20.72c.25-.02.39-.03.53-.05,0,0,.01,0,.02,0,.04,0,.04,0,.04.12,0,.06,0,.07-.03.07,0,0,0,0,0,0-.09,0-.14,0-.53.03-.14.01-.22.02-.34.03,0,0-.02,0-.04,0-.04,0-.05,0-.08.01,0,0-.01,0-.01,0-.01,0-.02,0-.03-.02,0-.03,0-.08,0-.14,0-.02.02-.04.04-.04.1,0,.2,0,.45-.02Z"/><path d="M18.89,20.86c.25-.02.39-.03.53-.05,0,0,.01,0,.02,0,.04,0,.04,0,.04.12,0,.06,0,.07-.03.07,0,0,0,0,0,0-.09,0-.14,0-.53.03-.14.01-.22.02-.34.03,0,0-.02,0-.04,0-.04,0-.05,0-.08.01,0,0-.01,0-.01,0-.01,0-.02,0-.03-.02,0-.03,0-.08,0-.14,0-.02.02-.04.04-.04.1,0,.2,0,.45-.02Z"/><path d="M22.44,20.56c.25-.02.39-.03.53-.05,0,0,.01,0,.02,0,.04,0,.04,0,.04.12,0,.06,0,.07-.03.07,0,0,0,0,0,0-.09,0-.14,0-.53.03-.14.01-.22.02-.34.03,0,0-.02,0-.04,0-.04,0-.05,0-.08.01,0,0-.01,0-.01,0-.01,0-.02,0-.03-.02,0-.03,0-.08,0-.14,0-.02.02-.04.04-.04.1,0,.2,0,.45-.02Z"/><rect x="13.86" y="63.2" width="32.75" height=".57" fill="#9fa0a0"/><rect x="17.09" y="44.39" width="22.01" height="2.8" fill="#fff"/><rect x="17.09" y="49.79" width="10.36" height="2.92" fill="#fff"/><rect x="16.02" y="55.85" width="22.14" height="5.18" rx="2.59" ry="2.59" fill="#4f9586"/><path d="M77.24,71.21l-7.38-7.38c1.96-3.05,2.96-6.51,2.96-10.4,0-5.47-1.96-10.16-5.88-14.06-3.9-3.9-8.58-5.85-14.04-5.85s-10.25,1.93-14.18,5.8c-3.95,3.87-5.93,8.5-5.93,13.89,0,6.13,2.17,11.09,6.5,14.88,3.93,3.42,8.37,5.13,13.32,5.13,3.49,0,6.66-.75,9.51-2.25l7.68,7.68c1.59,1.59,4.2,1.59,5.79,0l1.65-1.65c1.59-1.59,1.59-4.2,0-5.79ZM52.82,42.96c2.89,0,5.31,1,7.27,3.01,1.97,1.99,2.95,4.46,2.95,7.41s-1,5.38-2.99,7.41c-1.99,2-4.44,3.01-7.34,3.01-2.67,0-5.03-.98-7.07-2.95-2.05-1.97-3.08-4.48-3.08-7.53s.99-5.36,2.97-7.34c1.98-2,4.41-3.01,7.28-3.01Z" fill="#468ccb"/><path d="M72.69,80.94c-1.39,0-2.7-.54-3.67-1.52l-7.12-7.12c-2.81,1.34-5.93,2.01-9.29,2.01-5.19,0-9.92-1.82-14.04-5.4-4.56-3.99-6.88-9.27-6.88-15.71,0-5.67,2.11-10.61,6.26-14.67,4.13-4.06,9.16-6.12,14.95-6.12s10.72,2.08,14.81,6.17c4.11,4.1,6.2,9.09,6.2,14.84,0,3.74-.9,7.18-2.67,10.23l6.77,6.77c2.03,2.03,2.03,5.32,0,7.35l-1.65,1.65c-.98.98-2.28,1.52-3.67,1.52ZM62.32,69.61l8.26,8.25c1.13,1.13,3.11,1.13,4.24,0l1.65-1.65c1.17-1.17,1.17-3.07,0-4.24l-8.01-8.01.48-.75c1.85-2.88,2.79-6.18,2.79-9.81,0-5.14-1.87-9.61-5.55-13.28-3.72-3.72-8.06-5.53-13.26-5.53s-9.71,1.85-13.41,5.49c-3.77,3.69-5.6,7.97-5.6,13.1,0,5.86,2,10.45,6.12,14.05,3.71,3.23,7.95,4.86,12.59,4.86,3.29,0,6.32-.71,8.99-2.12l.72-.38ZM52.72,64.89c-2.96,0-5.59-1.1-7.83-3.26-2.27-2.17-3.42-4.97-3.42-8.33s1.11-5.93,3.29-8.12c2.18-2.21,4.9-3.33,8.06-3.33s5.89,1.12,8.05,3.34c2.17,2.19,3.27,4.95,3.27,8.18s-1.11,5.95-3.3,8.18c-2.2,2.21-4.93,3.34-8.12,3.34ZM52.82,44.06c-2.59,0-4.72.88-6.5,2.68-1.79,1.79-2.65,3.93-2.65,6.56,0,2.77.9,4.97,2.74,6.74,1.85,1.78,3.91,2.65,6.31,2.65,2.62,0,4.76-.88,6.56-2.68,1.79-1.83,2.67-4,2.67-6.63s-.86-4.84-2.64-6.64c-1.76-1.8-3.88-2.68-6.48-2.68Z" fill="#231815"/><circle cx="52.81" cy="53.37" r="11.15" fill="#fff"/><path d="M52.81,65.62c-6.75,0-12.25-5.49-12.25-12.25s5.49-12.25,12.25-12.25,12.25,5.49,12.25,12.25-5.49,12.25-12.25,12.25ZM52.81,43.33c-5.54,0-10.05,4.51-10.05,10.05s4.51,10.05,10.05,10.05,10.05-4.51,10.05-10.05-4.51-10.05-10.05-10.05Z" fill="#231815"/><rect x="41.64" y="16.3" width="2.65" height=".31" fill="#9fa0a0"/><rect x="41.64" y="17.23" width="2.65" height=".31" fill="#9fa0a0"/><rect x="41.64" y="18.15" width="2.65" height=".31" fill="#9fa0a0"/></svg>