<?xml version="1.0" encoding="UTF-8"?><svg id="_レイヤー_1" xmlns="http://www.w3.org/2000/svg" viewBox="0 0 85.04 85.04"><path d="M9.13,41.93c0-8.86,3.25-16.48,9.75-22.84,6.47-6.36,14.25-9.54,23.33-9.54s16.67,3.21,23.08,9.62c6.44,6.42,9.67,14.12,9.67,23.12s-3.24,16.73-9.71,23.04c-6.5,6.34-14.34,9.5-23.53,9.5-8.13,0-15.43-2.81-21.9-8.44-7.12-6.23-10.68-14.38-10.68-24.47ZM18.71,42.06c0,6.96,2.34,12.68,7.01,17.17,4.65,4.49,10.02,6.73,16.11,6.73,6.61,0,12.18-2.28,16.72-6.85,4.54-4.62,6.81-10.25,6.81-16.88s-2.24-12.34-6.73-16.88c-4.46-4.57-9.98-6.85-16.56-6.85s-12.09,2.28-16.6,6.85c-4.51,4.51-6.77,10.09-6.77,16.72Z" fill="#7dc1ad"/><path d="M41.71,75.95c-8.36,0-15.98-2.93-22.62-8.71-7.34-6.42-11.06-14.93-11.06-25.3,0-9.13,3.39-17.08,10.08-23.62,6.65-6.54,14.76-9.86,24.1-9.86s17.26,3.35,23.86,9.95c6.63,6.6,9.99,14.64,9.99,23.9s-3.38,17.34-10.04,23.83c-6.68,6.51-14.85,9.81-24.3,9.81ZM42.2,10.65c-8.74,0-16.33,3.1-22.56,9.23-6.25,6.12-9.42,13.54-9.42,22.05,0,9.71,3.47,17.66,10.31,23.64,6.23,5.42,13.36,8.17,21.18,8.17,8.85,0,16.51-3.09,22.76-9.19,6.22-6.06,9.37-13.55,9.37-22.25s-3.14-16.17-9.34-22.34c-6.17-6.17-13.68-9.3-22.31-9.3ZM41.84,67.06c-6.36,0-12.03-2.37-16.87-7.04-4.88-4.68-7.35-10.72-7.35-17.96s2.39-12.79,7.09-17.5c4.7-4.76,10.55-7.17,17.38-7.17s12.69,2.42,17.34,7.18c4.67,4.73,7.04,10.67,7.04,17.65s-2.4,12.84-7.13,17.65c-4.74,4.77-10.63,7.18-17.51,7.18ZM42.08,19.59c-6.22,0-11.54,2.19-15.82,6.52-4.28,4.28-6.45,9.65-6.45,15.95,0,6.62,2.25,12.13,6.68,16.38,4.42,4.26,9.58,6.42,15.35,6.42,6.27,0,11.63-2.2,15.94-6.53,4.31-4.38,6.49-9.8,6.49-16.11s-2.16-11.8-6.41-16.11c-4.23-4.33-9.53-6.52-15.77-6.52Z" fill="#231815"/><path d="M12.3,41.96c0-8.01,2.94-14.89,8.81-20.64,5.85-5.75,12.87-8.62,21.08-8.62s15.06,2.9,20.86,8.7c5.82,5.8,8.73,12.76,8.73,20.9s-2.92,15.12-8.77,20.82c-5.87,5.73-12.96,8.59-21.27,8.59-7.35,0-13.94-2.54-19.79-7.63-6.44-5.63-9.66-13-9.66-22.11ZM20.96,42.07c0,6.29,2.11,11.46,6.34,15.52,4.2,4.05,9.05,6.08,14.56,6.08,5.97,0,11.01-2.06,15.11-6.19,4.1-4.18,6.15-9.26,6.15-15.26s-2.03-11.15-6.08-15.26c-4.03-4.13-9.02-6.19-14.96-6.19s-10.92,2.06-15,6.19c-4.08,4.08-6.12,9.12-6.12,15.11Z" fill="#7dc1ad"/><path d="M42.04,65.46c-12.83,0-23.26-10.44-23.26-23.26s10.43-23.26,23.26-23.26,23.26,10.43,23.26,23.26-10.43,23.26-23.26,23.26ZM42.04,21.14c-11.61,0-21.06,9.45-21.06,21.06s9.45,21.06,21.06,21.06,21.06-9.45,21.06-21.06-9.45-21.06-21.06-21.06Z" fill="#040000"/><path d="M74.7,67.37l-20.86-20.86,3.68-3.68c1.03-1.03.77-2.57-.47-2.78l-17.04-2.88c-1.24-.21-2.52,1.07-2.31,2.31l2.88,17.04c.21,1.24,1.75,1.5,2.78.47l3.68-3.68,20.86,20.86c1.61,1.61,4.25,1.61,5.86,0l.94-.94c1.61-1.61,1.61-4.25,0-5.86Z" fill="#468ccb"/><path d="M70.84,76.48c-1.4,0-2.72-.54-3.71-1.53l-20.08-20.08-2.9,2.9c-.84.84-1.99,1.16-3.01.83-.87-.28-1.48-.99-1.63-1.9l-2.88-17.04c-.16-.93.19-1.93.92-2.66.73-.73,1.73-1.08,2.66-.92l17.04,2.88c.91.15,1.62.77,1.9,1.63.32,1.02,0,2.17-.83,3.01l-2.9,2.9,20.08,20.08c2.04,2.04,2.04,5.37,0,7.41l-.94.94c-.99.99-2.3,1.53-3.71,1.53ZM47.05,51.76l21.64,21.64c1.14,1.14,3.16,1.14,4.3,0l.94-.94c1.19-1.19,1.19-3.12,0-4.3l-21.64-21.64,4.46-4.46c.28-.28.35-.61.29-.79-.02-.07-.06-.11-.17-.13l-17.04-2.88c-.22-.04-.51.08-.74.31-.22.22-.34.51-.31.74l2.88,17.04c.02.12.06.15.13.17.18.06.5-.01.79-.29l4.46-4.46Z" fill="#231815"/></svg>