<?xml version="1.0" encoding="UTF-8"?><svg id="_レイヤー_1" xmlns="http://www.w3.org/2000/svg" viewBox="0 0 85.04 85.04"><path d="M36.14,25.37c.26-.35.58-.67,1.04-.71.47-.04.91.16,1.17.52,2.04,2.87,13.16,10.24,15.59,11.44,1.01.49,2.02.99,2.8,1.23,3.43,1.07,6.42,1.22,6.87,1.4.29-7.22-4.14-14.28-7.27-16.6-2.83-2.09-7.5-5.18-14.38-5.18-4.72,0-9.43,2.3-12.57,4.48-1.41.98-2.54,2.07-3.16,2.68-2.39,2.34-6.32,7.79-5.87,15.22.46-.16,12.15-9.44,15.8-14.49Z" fill="#8f6f3e"/><path d="M41.96,17.48c6.87,0,11.55,3.09,14.38,5.18,3.13,2.32,7.56,9.38,7.27,16.6-.44-.18-3.43-.33-6.87-1.4-.78-.24-1.79-.74-2.8-1.23-2.42-1.2-13.55-8.57-15.59-11.44-.23-.33-.63-.52-1.06-.52-.04,0-.07,0-.11,0-.46.04-.79.35-1.04.71-3.65,5.05-15.33,14.33-15.79,14.49-.45-7.43,3.49-12.89,5.87-15.22.62-.61,1.75-1.7,3.16-2.68,3.15-2.18,7.85-4.48,12.57-4.48M41.96,15.28c-6.13,0-11.71,3.41-13.83,4.87-1.59,1.1-2.85,2.33-3.45,2.92-1.67,1.64-7.08,7.69-6.53,16.93.04.69.4,1.31.97,1.7.37.25.79.37,1.23.37.24,0,.48-.04.71-.12,1.31-.45,12.22-9.49,16.3-14.54,3.52,3.7,13.45,10.13,15.61,11.19l.22.1c1.04.5,2.02.98,2.9,1.25,2.54.79,4.88,1.12,6.13,1.29.26.04.59.08.73.11.22.07.44.1.66.1.42,0,.83-.12,1.19-.35.6-.39.98-1.05,1.01-1.77.33-8.23-4.68-15.88-8.16-18.45-3.53-2.61-8.51-5.61-15.68-5.61h0Z" fill="#040000"/><path d="M46.57,50.92c.27-.12.98-.43,1.32-1.11.34-.67-.01-1.45-.78-1.75-.69-.26-1.48-.05-1.89.48-.01,0-.03.01-.04.02-2.18.97-4.98.86-6.96-.28-.71-.4-1.65-.24-2.12.37-.47.61-.27,1.43.43,1.84,1.6.92,3.5,1.38,5.42,1.38,1.58,0,3.18-.32,4.62-.96Z" fill="#040000"/><path d="M50.94,41.48s0-.02,0-.04c-.01-1.06-.5-1.92-1.17-2.07-.63-.13-1.24.42-1.47,1.34-.15.61-.11,1.32.1,1.9.22.59.57.96.95.99.19.01.47.04.77-.16.49-.32.82-1.11.82-1.96Z" fill="#040000"/><path d="M35.33,41.48s0-.02,0-.04c-.01-1.06-.5-1.92-1.17-2.07-.63-.13-1.24.42-1.47,1.34-.15.61-.11,1.32.1,1.9.22.59.57.96.95.99.19.01.47.04.77-.16.49-.32.82-1.11.82-1.96Z" fill="#040000"/><path d="M9.1,39.91c0-8.86,3.25-16.48,9.75-22.84,6.47-6.36,14.25-9.54,23.33-9.54s16.67,3.21,23.08,9.62c6.44,6.42,9.67,14.12,9.67,23.12s-3.24,16.73-9.71,23.04c-6.5,6.34-14.34,9.5-23.53,9.5-8.13,0-15.43-2.81-21.9-8.44-7.12-6.23-10.68-14.38-10.68-24.47ZM18.68,40.03c0,6.96,2.34,12.68,7.01,17.17,4.65,4.49,10.02,6.73,16.11,6.73,6.61,0,12.18-2.28,16.72-6.85,4.54-4.62,6.81-10.25,6.81-16.88s-2.24-12.34-6.73-16.88c-4.46-4.57-9.98-6.85-16.56-6.85s-12.09,2.28-16.6,6.85c-4.51,4.51-6.77,10.09-6.77,16.72Z" fill="#7dc1ad"/><path d="M41.68,73.92c-8.36,0-15.98-2.93-22.62-8.71-7.34-6.42-11.06-14.93-11.06-25.3,0-9.13,3.39-17.08,10.08-23.62,6.65-6.54,14.76-9.86,24.1-9.86s17.26,3.35,23.86,9.95c6.63,6.6,9.99,14.64,9.99,23.9s-3.38,17.34-10.04,23.83c-6.68,6.51-14.86,9.81-24.3,9.81ZM42.17,8.63c-8.74,0-16.33,3.1-22.56,9.23-6.25,6.12-9.42,13.54-9.42,22.05,0,9.71,3.47,17.66,10.31,23.64,6.23,5.42,13.36,8.17,21.18,8.17,8.85,0,16.51-3.09,22.76-9.19,6.22-6.06,9.37-13.55,9.37-22.25s-3.14-16.17-9.34-22.34c-6.18-6.17-13.68-9.3-22.31-9.3ZM41.81,65.03c-6.36,0-12.03-2.37-16.87-7.04-4.88-4.68-7.35-10.72-7.35-17.96s2.39-12.79,7.09-17.5c4.7-4.76,10.55-7.17,17.38-7.17s12.69,2.42,17.34,7.18c4.67,4.73,7.04,10.67,7.04,17.65s-2.4,12.84-7.13,17.65c-4.74,4.77-10.63,7.18-17.5,7.18ZM42.05,17.56c-6.22,0-11.54,2.2-15.82,6.52-4.28,4.28-6.45,9.65-6.45,15.95,0,6.62,2.25,12.13,6.68,16.38,4.42,4.26,9.58,6.42,15.35,6.42,6.27,0,11.63-2.2,15.94-6.53,4.31-4.38,6.49-9.8,6.49-16.11s-2.16-11.8-6.41-16.11c-4.23-4.33-9.53-6.52-15.77-6.52Z" fill="#231815"/><path d="M12.27,39.94c0-8.01,2.94-14.89,8.81-20.64,5.85-5.75,12.87-8.62,21.08-8.62s15.06,2.9,20.86,8.7c5.82,5.8,8.73,12.76,8.73,20.9s-2.92,15.12-8.77,20.82c-5.87,5.73-12.96,8.59-21.27,8.59-7.35,0-13.94-2.54-19.79-7.63-6.44-5.63-9.66-13-9.66-22.11ZM20.93,40.05c0,6.29,2.11,11.46,6.34,15.52,4.2,4.05,9.05,6.08,14.56,6.08,5.97,0,11.01-2.06,15.11-6.19,4.1-4.18,6.15-9.26,6.15-15.26s-2.03-11.15-6.08-15.26c-4.03-4.13-9.02-6.19-14.96-6.19s-10.92,2.06-15,6.19c-4.08,4.08-6.12,9.12-6.12,15.11Z" fill="#7dc1ad"/><path d="M42.01,63.44c-12.83,0-23.26-10.43-23.26-23.26s10.43-23.26,23.26-23.26,23.26,10.43,23.26,23.26-10.43,23.26-23.26,23.26ZM42.01,19.11c-11.61,0-21.06,9.45-21.06,21.06s9.45,21.06,21.06,21.06,21.06-9.45,21.06-21.06-9.45-21.06-21.06-21.06Z" fill="#040000"/><rect x="59.37" y="47.45" width="9.61" height="28.38" rx="4.14" ry="4.14" transform="translate(-24.79 63.43) rotate(-45)" fill="#8f6f3e"/><path d="M70.81,74.46c-1.34,0-2.68-.51-3.71-1.53l-14.21-14.21c-.99-.99-1.53-2.3-1.53-3.71s.54-2.72,1.53-3.71l.94-.94c.99-.99,2.3-1.53,3.71-1.53s2.72.54,3.71,1.53l14.21,14.21c.99.99,1.53,2.3,1.53,3.71s-.54,2.72-1.53,3.71l-.94.94c-1.02,1.02-2.36,1.53-3.71,1.53ZM57.54,51.03c-.82,0-1.58.31-2.15.89l-.94.94c-.57.57-.89,1.34-.89,2.15s.31,1.58.89,2.15l14.21,14.21c1.19,1.19,3.12,1.19,4.3,0l.94-.94c.57-.57.89-1.34.89-2.15s-.31-1.58-.89-2.15l-14.21-14.21c-.57-.57-1.34-.89-2.15-.89Z" fill="#040000"/></svg>