<?xml version="1.0" encoding="UTF-8"?><svg id="_レイヤー_1" xmlns="http://www.w3.org/2000/svg" viewBox="0 0 85.04 85.04"><path d="M27.3,27.67c5.86,0,13.88-.3,19.65-.14,7.72.2,10.64,3.57,10.74,11.88.1,4.71,0,18.17,0,18.17h-8.36c0-11.78.04-13.73,0-17.44-.1-3.27-1.02-4.82-3.54-5.12-2.66-.3-10.11-.04-10.11-.04v22.62h-8.36v-29.92Z" fill="#070001"/><path d="M42.52,78.38c-19.78,0-35.87-16.09-35.87-35.87S22.74,6.65,42.52,6.65s35.87,16.09,35.87,35.87-16.09,35.87-35.87,35.87ZM42.52,8.65c-18.67,0-33.87,15.19-33.87,33.87s15.19,33.87,33.87,33.87,33.87-15.19,33.87-33.87S61.19,8.65,42.52,8.65Z" fill="#ebebeb"/></svg>