<?xml version="1.0" encoding="UTF-8"?><svg id="_レイヤー_1" xmlns="http://www.w3.org/2000/svg" viewBox="0 0 85.04 85.04"><path d="M9.11,41.65c0-8.86,3.25-16.48,9.75-22.84,6.47-6.36,14.25-9.54,23.33-9.54s16.67,3.21,23.08,9.62c6.44,6.42,9.67,14.12,9.67,23.12s-3.24,16.73-9.71,23.04c-6.5,6.34-14.34,9.5-23.53,9.5-8.13,0-15.43-2.81-21.9-8.44-7.12-6.23-10.68-14.38-10.68-24.47ZM18.69,41.77c0,6.96,2.34,12.68,7.01,17.17,4.65,4.49,10.02,6.73,16.11,6.73,6.61,0,12.18-2.28,16.72-6.85,4.54-4.62,6.81-10.25,6.81-16.88s-2.24-12.34-6.73-16.88c-4.46-4.57-9.98-6.85-16.56-6.85s-12.09,2.28-16.6,6.85c-4.51,4.51-6.77,10.09-6.77,16.72Z" fill="#d1e8df"/><path d="M41.69,75.66c-8.36,0-15.98-2.93-22.62-8.71-7.34-6.42-11.06-14.93-11.06-25.3,0-9.13,3.39-17.08,10.08-23.62,6.65-6.54,14.76-9.86,24.1-9.86s17.26,3.35,23.86,9.95c6.63,6.6,9.99,14.64,9.99,23.9s-3.38,17.34-10.04,23.83c-6.68,6.51-14.86,9.81-24.3,9.81ZM42.18,10.37c-8.74,0-16.33,3.1-22.56,9.23-6.25,6.12-9.42,13.54-9.42,22.05,0,9.71,3.47,17.66,10.31,23.64,6.23,5.42,13.36,8.17,21.18,8.17,8.85,0,16.51-3.09,22.76-9.19,6.22-6.06,9.37-13.55,9.37-22.25s-3.14-16.17-9.34-22.34c-6.17-6.17-13.68-9.3-22.31-9.3ZM41.82,66.77c-6.36,0-12.03-2.37-16.87-7.04-4.88-4.68-7.35-10.72-7.35-17.96s2.39-12.79,7.09-17.5c4.7-4.76,10.55-7.17,17.38-7.17s12.69,2.42,17.34,7.18c4.67,4.73,7.04,10.67,7.04,17.65s-2.4,12.84-7.13,17.65c-4.74,4.77-10.63,7.18-17.5,7.18ZM42.06,19.3c-6.22,0-11.54,2.19-15.82,6.52-4.28,4.28-6.45,9.65-6.45,15.95,0,6.62,2.25,12.13,6.68,16.38,4.42,4.26,9.58,6.42,15.35,6.42,6.27,0,11.63-2.2,15.94-6.53,4.31-4.38,6.49-9.8,6.49-16.11s-2.16-11.8-6.41-16.11c-4.23-4.33-9.53-6.52-15.77-6.52Z" fill="#231815"/><path d="M12.28,41.68c0-8.01,2.94-14.89,8.81-20.64,5.85-5.75,12.87-8.62,21.08-8.62s15.06,2.9,20.86,8.7c5.82,5.8,8.73,12.76,8.73,20.9s-2.92,15.12-8.77,20.82c-5.87,5.73-12.96,8.59-21.27,8.59-7.35,0-13.94-2.54-19.79-7.63-6.44-5.63-9.66-13-9.66-22.11ZM20.94,41.79c0,6.29,2.11,11.46,6.34,15.52,4.2,4.05,9.05,6.08,14.56,6.08,5.97,0,11.01-2.06,15.11-6.19,4.1-4.18,6.15-9.26,6.15-15.26s-2.03-11.15-6.08-15.26c-4.03-4.13-9.02-6.19-14.96-6.19s-10.92,2.06-15,6.19c-4.08,4.08-6.12,9.12-6.12,15.11Z" fill="#d1e8df"/><circle cx="42.02" cy="41.92" r="22.16" fill="#fff"/><path d="M42.02,65.18c-12.83,0-23.26-10.43-23.26-23.26s10.43-23.26,23.26-23.26,23.26,10.43,23.26,23.26-10.43,23.26-23.26,23.26ZM42.02,20.86c-11.61,0-21.06,9.45-21.06,21.06s9.45,21.06,21.06,21.06,21.06-9.45,21.06-21.06-9.45-21.06-21.06-21.06Z" fill="#231815"/><rect x="59.37" y="49.19" width="9.61" height="28.38" rx="4.14" ry="4.14" transform="translate(-26.02 63.95) rotate(-45)" fill="#d1e8df"/><path d="M70.82,76.2c-1.34,0-2.68-.51-3.71-1.53l-14.21-14.21c-2.04-2.04-2.04-5.37,0-7.41l.94-.94c.99-.99,2.3-1.53,3.71-1.53s2.72.54,3.71,1.53l14.21,14.21c.99.99,1.53,2.3,1.53,3.71s-.54,2.72-1.53,3.71l-.94.94c-1.02,1.02-2.36,1.53-3.71,1.53ZM57.54,52.77c-.82,0-1.58.31-2.15.89l-.94.94c-1.19,1.19-1.19,3.12,0,4.3l14.21,14.21c1.19,1.19,3.12,1.19,4.3,0l.94-.94c.57-.57.89-1.34.89-2.15s-.31-1.58-.89-2.15l-14.21-14.21c-.57-.57-1.34-.89-2.15-.89Z" fill="#231815"/><path d="M45.91,30.45c-.52-.67-1.26-1.03-2.12-1.03-.79,0-1.35.2-1.73.6-.15.15-.42.48-1.23,1.61-.54.75-1.16,1.43-1.86,2.04-.69.6-1.63,1.18-2.8,1.73-.92.43-1.56.78-1.95,1.08-.41.31-.9.9-.9,1.98,0,.72.27,1.38.79,1.91.53.54,1.18.83,1.89.83s1.78-.26,4.36-2.08v12.28c0,1.09.28,1.95.84,2.57.57.64,1.36.97,2.28.97,1.18,0,3.15-.54,3.15-4.15v-17.95c0-.98-.24-1.78-.71-2.39Z" fill="#7dc1ad"/><path d="M43.48,56.04c-1.24,0-2.31-.46-3.09-1.33-.74-.83-1.12-1.94-1.12-3.3v-10.26c-1.69.99-2.59,1.15-3.26,1.15-1.01,0-1.94-.4-2.68-1.16-.72-.74-1.1-1.67-1.1-2.68,0-1.19.48-2.21,1.34-2.86.46-.34,1.14-.72,2.14-1.19,1.08-.51,1.94-1.04,2.55-1.56.63-.55,1.2-1.17,1.69-1.85.84-1.17,1.14-1.52,1.32-1.72.59-.62,1.44-.94,2.53-.94,1.2,0,2.26.52,2.99,1.45h0c.63.81.95,1.84.95,3.06v17.95c0,4.87-3.25,5.25-4.25,5.25ZM41.46,37v14.4c0,.81.19,1.42.55,1.83.36.4.86.61,1.46.61.51,0,2.05,0,2.05-3.05v-17.95c0-.73-.16-1.3-.48-1.71h0c-.32-.41-.73-.6-1.25-.6-.46,0-.77.08-.93.25-.18.19-.56.69-1.14,1.5-.59.82-1.27,1.57-2.03,2.23-.76.66-1.79,1.3-3.05,1.9-.84.39-1.43.72-1.75.96-.31.23-.46.59-.46,1.1,0,.43.16.82.48,1.14.32.33.69.5,1.1.5.7,0,1.95-.63,3.73-1.88l1.73-1.22Z" fill="#231815"/></svg>