<?xml version="1.0" encoding="UTF-8"?><svg id="_レイヤー_1" xmlns="http://www.w3.org/2000/svg" xmlns:xlink="http://www.w3.org/1999/xlink" viewBox="0 0 85.04 85.04"><defs><linearGradient id="_新規グラデーションスウォッチ_2" x1="16.53" y1="29.27" x2="52.03" y2="29.27" gradientUnits="userSpaceOnUse"><stop offset="0" stop-color="#6cc3b7"/><stop offset="1" stop-color="#6cc3b7"/></linearGradient><linearGradient id="_新規グラデーションスウォッチ_2-2" y1="33.05" y2="33.05" xlink:href="#_新規グラデーションスウォッチ_2"/><linearGradient id="_新規グラデーションスウォッチ_2-3" y1="36.83" y2="36.83" xlink:href="#_新規グラデーションスウォッチ_2"/><linearGradient id="_新規グラデーションスウォッチ_2-4" y1="40.6" y2="40.6" xlink:href="#_新規グラデーションスウォッチ_2"/><linearGradient id="_新規グラデーションスウォッチ_2-5" y1="44.38" y2="44.38" xlink:href="#_新規グラデーションスウォッチ_2"/></defs><polygon points="69.55 58.92 18.76 62.75 18.76 24.24 69.55 20.42 69.55 58.92" fill="#7dc1ad"/><path d="M69.55,20.42v38.5l-50.79,3.82V24.24l50.79-3.82M69.55,18.22c-.05,0-.11,0-.17,0l-50.79,3.82c-1.15.09-2.04,1.04-2.04,2.19v38.5c0,.61.26,1.2.7,1.61.41.38.94.59,1.5.59.05,0,.11,0,.17,0l50.79-3.82c1.15-.09,2.04-1.04,2.04-2.19V20.42c0-.61-.26-1.2-.7-1.61-.41-.38-.94-.59-1.5-.59h0Z" fill="#231815"/><polygon points="64.89 54.66 14.1 58.48 14.1 19.98 64.89 16.15 64.89 54.66" fill="#d1e8df"/><path d="M64.89,16.15v38.5l-50.79,3.82V19.98l50.79-3.82M64.89,13.95c-.05,0-.11,0-.17,0l-50.79,3.82c-1.15.09-2.04,1.04-2.04,2.19v38.5c0,.61.26,1.2.7,1.61.41.38.94.59,1.5.59.05,0,.11,0,.17,0l50.79-3.82c1.15-.09,2.04-1.04,2.04-2.19V16.15c0-.61-.26-1.2-.7-1.61-.41-.38-.94-.59-1.5-.59h0Z" fill="#231815"/><polygon points="60.03 49.8 9.24 53.62 9.24 15.12 60.03 11.3 60.03 49.8" fill="#fff"/><path d="M60.03,11.3v38.5l-50.79,3.82V15.12l50.79-3.82M60.03,9.1c-.05,0-.11,0-.17,0l-50.79,3.82c-1.15.09-2.04,1.04-2.04,2.19v38.5c0,.61.26,1.2.7,1.61.41.38.94.59,1.5.59.05,0,.11,0,.17,0l50.79-3.82c1.15-.09,2.04-1.04,2.04-2.19V11.3c0-.61-.26-1.2-.7-1.61-.41-.38-.94-.59-1.5-.59h0Z"/><polygon points="16.66 31.16 16.53 30.35 51.89 27.39 52.03 28.2 16.66 31.16" fill="url(#_新規グラデーションスウォッチ_2)"/><polygon points="16.66 34.94 16.53 34.13 51.89 31.17 52.03 31.97 16.66 34.94" fill="url(#_新規グラデーションスウォッチ_2-2)"/><polygon points="16.66 38.71 16.53 37.9 51.89 34.94 52.03 35.75 16.66 38.71" fill="url(#_新規グラデーションスウォッチ_2-3)"/><polygon points="16.66 42.49 16.53 41.68 51.89 38.71 52.03 39.52 16.66 42.49" fill="url(#_新規グラデーションスウォッチ_2-4)"/><polygon points="16.66 46.26 16.53 45.46 51.89 42.49 52.03 43.3 16.66 46.26" fill="url(#_新規グラデーションスウォッチ_2-5)"/><path d="M16.49,21.44c-.13.01-.22-.1-.23-.24-.01-.15.06-.27.18-.28l4.11-.35c.23-.02.43.04.55.18.07.09.12.19.13.31.01.13-.01.28-.09.44-.37.85-1.12,1.67-1.91,2.29.29.28.56.55.78.83.04.05.06.1.06.15,0,.1-.04.2-.11.26-.05.03-.09.06-.15.06-.08,0-.18-.03-.25-.12-.64-.78-1.47-1.6-2.29-2.21-.06-.05-.1-.11-.11-.17,0-.07.03-.14.09-.19.05-.05.1-.08.16-.08.07,0,.14.02.2.06.42.3.84.66,1.25,1.04.72-.54,1.4-1.29,1.71-2.02.03-.07.04-.13.04-.17,0-.1-.08-.14-.24-.13l-3.89.33Z" fill="#231815"/><path d="M19.8,25.23c-.12,0-.24-.06-.33-.17-.68-.81-1.5-1.61-2.27-2.19-.12-.09-.15-.19-.15-.26,0-.11.04-.22.13-.29.06-.06.14-.1.23-.11.09,0,.19.02.28.08.39.29.8.62,1.18.98.71-.55,1.31-1.27,1.59-1.9.03-.06.03-.1.03-.11,0,0-.02-.02-.1-.01l-3.9.33c-.2.02-.34-.13-.36-.35-.02-.22.11-.4.3-.41l4.11-.35c.28-.02.51.06.66.22.09.11.15.24.16.38.01.16-.02.32-.09.5-.34.76-1,1.57-1.84,2.25.25.25.49.48.69.74.05.07.08.14.09.22.01.13-.05.27-.15.36-.08.06-.15.09-.22.09-.01,0-.02,0-.03,0ZM17.44,22.45h0s-.05,0-.08.04c-.04.03-.06.07-.05.09,0,.03.03.06.06.08.78.59,1.62,1.4,2.31,2.23.05.06.1.07.14.08.03,0,.05-.01.08-.04.03-.03.07-.09.06-.15,0-.03,0-.05-.03-.09-.21-.26-.46-.51-.73-.77l-.15-.15.11-.09c.86-.67,1.54-1.48,1.88-2.24.06-.14.08-.26.07-.38,0-.09-.04-.17-.1-.24-.09-.11-.25-.15-.45-.14l-4.11.35c-.05,0-.08.08-.07.14,0,.04.03.12.09.12l3.89-.33c.1-.01.18,0,.24.04.08.04.12.11.13.2,0,.08-.02.17-.05.24-.31.71-.96,1.48-1.75,2.06l-.08.06-.08-.07c-.4-.38-.82-.73-1.23-1.03-.04-.02-.08-.04-.11-.04Z" fill="#231815"/><path d="M27.61,23.49c.15-.01.24.12.25.25.01.15-.06.29-.19.3l-4.57.38c-.13.01-.23-.12-.24-.26-.01-.13.06-.28.2-.29l4.56-.38ZM26.83,20.18c.14-.01.24.12.25.25.01.15-.06.28-.2.29l-3.56.3c-.14.01-.23-.11-.25-.25-.01-.13.06-.28.2-.29l3.56-.3Z" fill="#231815"/><path d="M23.07,24.55c-.07,0-.14-.03-.2-.08-.08-.07-.13-.18-.14-.3,0-.09.01-.19.06-.27.06-.09.15-.15.25-.16l4.56-.38c.23-.02.37.18.38.37.02.23-.11.42-.31.43l-4.57.38s-.02,0-.03,0ZM27.62,23.62l-4.56.38s-.04,0-.06.04c-.02.03-.03.07-.03.11,0,.05.03.1.06.13.02.02.04.02.05.02l4.57-.38c.07,0,.09-.1.08-.16,0-.06-.04-.14-.11-.14ZM23.3,21.15c-.09,0-.18-.04-.24-.11-.06-.07-.1-.16-.11-.26,0-.11.03-.23.09-.31.06-.07.13-.11.22-.11l3.56-.3c.21-.03.36.17.38.37.02.23-.11.41-.31.43l-3.56.3s-.02,0-.03,0ZM26.84,20.31l-3.56.3s-.03,0-.05.03c-.03.03-.04.08-.04.13,0,.04.02.09.04.11.03.03.05.03.07.03l3.56-.3c.06,0,.09-.08.08-.16,0-.06-.05-.15-.11-.14h0Z" fill="#231815"/><path d="M32.85,19.43c.29-.02.47.03.6.17.1.1.15.25.16.43,0,.05,0,.11,0,.17-.11,1.86-1.26,3.35-3.23,4.01-.04.02-.07.02-.11.03-.11,0-.2-.04-.24-.15,0-.03-.02-.07-.02-.1-.01-.12.05-.22.17-.27,1.71-.61,2.8-1.85,2.86-3.5,0-.03,0-.06,0-.09-.01-.16-.1-.19-.28-.18l-3.53.29c-.14.01-.23-.09-.24-.24-.01-.15.06-.26.2-.27l3.66-.3Z" fill="#231815"/><path d="M30.24,24.36c-.15,0-.27-.08-.34-.23-.02-.05-.03-.1-.03-.13-.01-.18.08-.33.25-.4,1.71-.61,2.72-1.84,2.78-3.38,0-.03,0-.05,0-.08,0-.06,0-.07-.15-.06l-3.53.29c-.1.01-.2-.03-.27-.1-.06-.06-.1-.15-.11-.26-.02-.22.11-.39.31-.41l3.67-.3c.32-.03.54.04.7.21.11.11.18.28.2.5,0,.06,0,.11,0,.17-.11,1.96-1.32,3.47-3.32,4.14-.04.02-.09.03-.14.03-.01,0-.02,0-.04,0ZM32.83,19.83c.13,0,.31.04.33.3,0,.04,0,.08,0,.12-.06,1.64-1.14,2.96-2.95,3.6-.06.02-.1.08-.09.14,0,.02,0,.05.02.07.02.04.05.07.11.06.02,0,.05,0,.07-.02,1.91-.64,3.05-2.07,3.16-3.91,0-.06,0-.11,0-.15-.01-.16-.06-.28-.13-.35-.07-.08-.19-.16-.5-.13l-3.66.3c-.09,0-.08.12-.08.14,0,.05.02.08.04.11.01.01.03.03.07.02l3.53-.29s.05,0,.08,0Z" fill="#231815"/><path d="M39.53,22.84c.13-.01.22.1.23.22s-.06.24-.19.25l-3.77.31c-.13.01-.21-.09-.22-.21-.01-.12.05-.24.18-.25l1.59-.13-.2-2.36-1.3.11c-.12.01-.21-.09-.22-.21s.06-.24.18-.25l3.16-.26c.13-.01.22.1.23.22.01.12-.06.23-.19.24l-1.37.11.2,2.36,1.68-.14Z" fill="#231815"/><path d="M35.78,23.75c-.17,0-.31-.14-.33-.33-.02-.21.11-.37.29-.39l1.47-.12-.18-2.11-1.18.1c-.08,0-.17-.02-.23-.07-.07-.06-.12-.15-.12-.25-.02-.2.11-.37.29-.39l3.16-.26c.19-.02.34.13.36.33.02.2-.11.36-.3.38l-1.24.1.18,2.11,1.56-.13c.09,0,.17.02.23.07.07.06.12.16.13.26.02.2-.11.37-.3.38l-3.77.31s-.02,0-.03,0ZM37.27,20.52l.22,2.61-1.72.14c-.06,0-.07.09-.07.12,0,.01,0,.1.08.1l3.77-.31c.06,0,.08-.08.07-.11,0-.04-.02-.07-.04-.09-.01-.01-.03-.02-.05-.01h0l-1.81.15-.22-2.61,1.49-.12c.08,0,.07-.1.07-.11,0-.01-.01-.1-.09-.1l-3.16.26s-.07.06-.07.12c0,.03.02.06.04.08.01.01.03.01.05.01l1.43-.12Z" fill="#231815"/><path d="M41.64,19.2c-.15.01-.23-.08-.25-.25-.01-.15.06-.25.2-.26l3.08-.29c.26-.02.44.05.56.2.06.08.09.18.1.3,0,.1,0,.23-.04.36-.16.56-.45,1.1-.83,1.66.72.47,1.25.82,1.81,1.37.06.06.1.13.1.21s-.02.14-.06.2c-.05.07-.13.1-.2.11-.08,0-.16-.02-.23-.08-.5-.51-1.01-.92-1.73-1.39-.61.79-1.51,1.46-2.42,1.89-.05.02-.09.04-.14.04-.1,0-.19-.03-.24-.13-.01-.03-.02-.06-.03-.1,0-.11.05-.22.16-.28.71-.34,1.44-.84,2.04-1.49.58-.63,1.03-1.38,1.21-2.08.01-.06.02-.1.02-.14,0-.09-.08-.13-.23-.12l-2.89.28Z" fill="#231815"/><path d="M41.57,23.38c-.15,0-.27-.08-.32-.21-.02-.04-.03-.09-.04-.14-.01-.17.08-.33.23-.4.53-.26,1.32-.72,2-1.46.58-.63,1.01-1.37,1.18-2.03,0-.02.02-.07.02-.09,0,0-.03,0-.09,0l-2.89.28c-.22.01-.36-.13-.38-.36,0-.11.02-.21.08-.28.06-.07.14-.11.24-.12l3.08-.29c.29-.03.51.05.67.24.08.12.12.23.13.37,0,.11,0,.25-.04.4-.14.49-.39,1-.78,1.59.71.46,1.2.8,1.72,1.31.08.09.13.18.14.28,0,.1-.02.2-.09.29-.07.09-.18.15-.29.16-.12,0-.23-.03-.32-.11-.48-.49-.97-.88-1.61-1.32-.58.72-1.45,1.39-2.4,1.84-.07.03-.13.05-.19.05-.01,0-.02,0-.04,0ZM44.58,18.8c.25,0,.3.14.31.23,0,.06,0,.12-.02.18-.18.7-.63,1.48-1.24,2.14-.71.77-1.52,1.25-2.08,1.52-.07.03-.09.1-.09.15,0,.02,0,.04.01.06.02.04.04.07.11.06.03,0,.06-.01.1-.03.95-.45,1.82-1.12,2.38-1.85l.07-.09.1.06c.71.47,1.23.89,1.75,1.41.04.04.09.04.13.04.05,0,.09-.03.12-.06.03-.04.04-.08.04-.11,0-.04-.03-.09-.07-.13-.53-.52-1.03-.86-1.79-1.35l-.11-.07.07-.11c.42-.61.68-1.13.82-1.62.03-.12.04-.23.03-.31,0-.09-.03-.16-.08-.24-.06-.07-.17-.17-.45-.14l-3.08.29s-.05.01-.07.03c-.02.02-.03.05-.02.1.01.14.08.14.11.13l2.89-.28s.04,0,.06,0Z" fill="#231815"/><path d="M49.06,22.6c.01.16-.1.24-.25.25-.16.01-.27-.04-.29-.21l-.39-4.71c-.01-.16.08-.24.25-.25.15-.01.27.04.29.21l.13,1.56c.94.17,2.1.48,3.05.84.12.04.18.13.18.24,0,.04,0,.09-.01.14-.03.11-.12.19-.23.2-.04,0-.09,0-.13-.02-.83-.34-1.91-.67-2.82-.85l.22,2.6Z" fill="#231815"/><path d="M48.76,22.98c-.09,0-.17-.02-.23-.06-.06-.04-.13-.12-.14-.26l-.39-4.71c-.01-.15.05-.24.1-.28.06-.06.15-.09.27-.1.24-.03.4.11.42.33l.12,1.46c.96.18,2.09.49,2.97.83.16.06.25.18.27.35,0,.06,0,.12-.02.18-.04.16-.18.27-.34.29-.05,0-.11,0-.18-.03-.81-.33-1.8-.63-2.64-.81l.2,2.44c.02.22-.12.37-.36.39-.02,0-.04,0-.05,0ZM48.42,17.81s-.02,0-.03,0c-.14.01-.14.07-.13.12l.39,4.71c0,.05.01.1.15.09.14-.01.14-.08.13-.12l-.23-2.77.16.03c.88.18,1.97.51,2.84.86.02,0,.05.01.07.01.05,0,.1-.05.12-.1,0-.03.01-.06,0-.09,0-.07-.04-.11-.1-.13-.9-.34-2.06-.66-3.02-.83l-.09-.02-.14-1.65s0-.1-.12-.1Z" fill="#231815"/><path d="M65.76,44.01c.91.89,1.33,1.63,1.91,2.62.32.54.74,1.6.83,2.13-1.22.11-1.3.12-2.34.18s-1.28.03-2.3.04c-.54-1.59-1.34-3.77-1.65-4.96-.33-.77-1.23-2.8-1.5-3.58.65-.36,1.25-.09,2.36.9,1,.82,1.6,1.55,2.27,2.24l.41.43Z" fill="#f9d5ce"/><path d="M61.27,40.29c.48,0,1.01.34,1.81,1.05,1,.82,1.6,1.55,2.27,2.24l.41.43c.91.89,1.33,1.63,1.91,2.62.32.54.74,1.6.83,2.13-1.22.11-1.3.12-2.34.18-.62.03-.97.04-1.39.04-.1,0-.19,0-.3,0-.18,0-.37,0-.61,0-.54-1.59-1.34-3.77-1.65-4.96-.33-.77-1.23-2.8-1.5-3.58.18-.1.36-.15.55-.15M61.27,38.09h0c-.56,0-1.1.15-1.62.43-.93.52-1.36,1.63-1.01,2.63.21.61.66,1.67,1.2,2.9.11.26.22.5.3.69.26.96.74,2.32,1.2,3.63.16.46.32.91.46,1.32.3.89,1.14,1.49,2.08,1.49h.02c.23,0,.42,0,.59,0h.16s.14,0,.14,0c.43,0,.82,0,1.51-.04,1-.05,1.18-.07,2.17-.16l.24-.02c.61-.06,1.16-.36,1.54-.84.37-.48.53-1.09.44-1.69-.14-.88-.68-2.19-1.1-2.91l-.08-.14c-.57-.96-1.11-1.87-2.16-2.91l-.39-.41c-.14-.15-.28-.3-.42-.45-.53-.57-1.13-1.22-2-1.94-.87-.77-1.9-1.58-3.24-1.58h0Z" fill="#231815"/><rect x="43.98" y="34.36" width="18.08" height="31.11" transform="translate(-15.2 24.46) rotate(-22.81)" fill="#efefef"/><path d="M55.33,32.07l12.06,28.68-16.67,7.01-12.06-28.68,16.67-7.01M55.33,29.87c-.29,0-.58.06-.85.17l-16.67,7.01c-1.12.47-1.65,1.76-1.18,2.88l12.06,28.68c.23.54.66.96,1.2,1.18.27.11.55.16.83.16s.58-.06.85-.17l16.67-7.01c1.12-.47,1.65-1.76,1.18-2.88l-12.06-28.68c-.23-.54-.66-.96-1.2-1.18-.27-.11-.55-.16-.83-.16h0Z" fill="#231815"/><path d="M48.8,57.08c-.2,0-.38-.11-.46-.31-.11-.25.01-.55.27-.65l4.73-1.99c.26-.11.55.01.65.27.11.25-.01.55-.27.65l-4.73,1.99c-.06.03-.13.04-.19.04Z" fill="#9fa0a0"/><path d="M49.5,58.76c-.2,0-.38-.11-.46-.31-.11-.25.01-.55.27-.65l11.97-5.03c.25-.11.55.01.65.27.11.25-.01.55-.27.65l-11.97,5.03c-.06.03-.13.04-.19.04Z" fill="#9fa0a0"/><rect x="56.06" y="53.05" width="2.17" height="12.8" rx=".89" ry=".89" transform="translate(24.49 135.18) rotate(-112.81)" fill="#fff"/><path d="M62.15,56.25c.35,0,.68.21.83.55l.15.36c.19.45-.02.98-.48,1.17l-10.16,4.27c-.11.05-.23.07-.34.07-.35,0-.68-.21-.83-.55l-.15-.36c-.19-.45.02-.98.48-1.17l10.16-4.27c.11-.05.23-.07.34-.07M62.15,55.25h0c-.25,0-.5.05-.73.15l-10.16,4.27c-.46.2-.83.56-1.02,1.03-.19.47-.19.98,0,1.45l.15.36c.3.7.98,1.16,1.75,1.16.25,0,.5-.05.73-.15l10.16-4.27c.47-.2.83-.56,1.02-1.03.19-.47.19-.98,0-1.45l-.15-.36c-.3-.7-.98-1.16-1.75-1.16h0Z" fill="#9fa0a0"/><path d="M71.38,54.04c-.13-.21-.25-.42-.35-.63,0,0,0-.01,0-.01-.25-.57-.57-1.16-.93-1.48-.36-.48-.95-.61-1.05-.69l-.14-.05c-.75-.14-.78-.14-1.46-.15-1.47-.02-2.28.06-2.98.08l-1.96.2c-.59.47-1.21,1.09-.47,2.45,1.52,1.51,4.2,1.64,5.35,2.3,1.33,2.16,1.07,1.78,1.89,3.25.57,1.14,1.12,1.87.74,2.26-.77.78-1.4,1.33-3.06,2-2,.81-6.16,2.61-6.17,2.62,0,0-3.41,1.28-4.87,1.91-.34.25,3.25,3.31,3.68,3.84.27.33.93.62,1.12.86.41.5.8,1,1.13,1.53,2.95-1.02,9.16-2.75,11.49-3.26-.16-.45-.32-.97-.48-1.56-.23-.8.8-8.09.88-10.17-.03-1.98-1.4-3.69-2.35-5.3h0Z" fill="#f9d5ce"/><path d="M66.96,51.01c.15,0,.31,0,.48,0,.68.02.71.02,1.46.15l.14.05c.1.08.69.2,1.05.69.36.32.68.91.93,1.48,0,0,0,0,0,.01.11.21.23.42.35.64h0c.96,1.61,2.33,3.32,2.35,5.3-.07,2.08-1.11,9.37-.88,10.17.16.59.32,1.1.48,1.56-2.33.51-8.54,2.24-11.49,3.26-.33-.53-.73-1.04-1.13-1.53-.19-.23-.85-.52-1.12-.86-.44-.54-4.03-3.59-3.68-3.84,1.46-.63,4.87-1.91,4.87-1.91,0-.02,4.17-1.81,6.17-2.62,1.66-.67,2.29-1.22,3.06-2,.39-.39-.17-1.13-.74-2.26-.81-1.46-.56-1.09-1.89-3.25-1.15-.66-3.83-.79-5.35-2.3-.74-1.35-.13-1.98.47-2.45l1.96-.2c.62-.02,1.33-.08,2.5-.08M66.96,48.81c-.85,0-1.48.03-1.98.06-.21.01-.4.02-.59.03-.05,0-.11,0-.16.01l-1.96.2c-.42.04-.82.21-1.15.47-2.34,1.88-1.65,4.08-1.02,5.22.1.19.23.36.38.51,1.38,1.38,3.25,1.89,4.62,2.27.24.07.54.15.78.22.63,1.03.73,1.22,1.01,1.73.11.2.24.44.43.79.08.16.16.31.24.46-.34.24-.77.46-1.45.74-3.48,1.41-5.24,2.13-6.18,2.62-.48.18-3.5,1.32-4.9,1.92-.15.07-.3.15-.43.25-.54.4-.88,1.02-.92,1.69-.08,1.34.83,2.18,3.24,4.41.37.34.87.81.99.94.34.42.8.71,1.13.93.03.02.06.04.09.06.3.36.59.75.84,1.14.41.66,1.12,1.04,1.87,1.04.24,0,.48-.04.72-.12,2.86-.99,8.95-2.69,11.24-3.19.62-.13,1.15-.53,1.46-1.08.31-.55.36-1.21.15-1.81-.14-.39-.27-.8-.39-1.24-.01-.74.28-3.35.47-5.1.21-1.87.4-3.63.44-4.57,0-.04,0-.07,0-.11-.03-2.23-1.19-4.05-2.12-5.52-.19-.3-.37-.59-.54-.87-.09-.15-.17-.29-.25-.43-.41-.92-.82-1.58-1.3-2.06-.6-.71-1.33-1.02-1.67-1.16-.07-.04-.15-.07-.23-.1l-.14-.05c-.12-.05-.25-.08-.37-.1-.87-.16-1.02-.17-1.81-.19-.2,0-.37,0-.53,0h0Z" fill="#231815"/><path d="M74.71,72.5c.18.4.37.85.5,1.15,0,0,0,.01.02.04-4.51,1.4-10.35,2.74-13.76,3.89-.02-.04-.02-.06-.02-.06-.23-.52-.43-1.33-.67-1.94,1.63-.84,11.79-3.67,13.52-3.92.07.1.24.44.41.83Z" fill="#d1e8df"/><path d="M74.3,71.67c.07.1.24.44.41.83.18.4.37.85.5,1.15,0,0,0,.01.02.04-4.51,1.4-10.35,2.74-13.76,3.89-.02-.04-.02-.06-.02-.06-.23-.52-.44-1.33-.67-1.94,1.63-.84,11.79-3.67,13.52-3.92M74.3,69.47c-.1,0-.21,0-.32.02-1.74.25-12.24,3.13-14.21,4.14-1,.51-1.45,1.7-1.05,2.75.09.24.18.51.26.78.13.42.27.86.44,1.24.35.85,1.17,1.38,2.05,1.38.23,0,.46-.04.69-.11,1.73-.58,4.16-1.23,6.73-1.92,2.36-.63,4.81-1.28,6.98-1.96.6-.19,1.09-.62,1.35-1.18.26-.57.27-1.22.02-1.79-.14-.33-.34-.81-.53-1.23-.34-.74-.49-1.01-.63-1.21-.42-.58-1.08-.92-1.79-.92h0Z" fill="#231815"/><path d="M52.71,42.22c-.09,0-.19-.02-.28-.06-.38-.16-.57-.59-.41-.98l.81-1.99-1.99-.81c-.38-.16-.57-.59-.41-.98.16-.38.6-.57.98-.41l2.68,1.09c.38.16.57.59.41.98l-1.09,2.68c-.12.29-.4.47-.69.47Z" fill="#3e9e73"/><path d="M46.68,45.85c-.29,0-.57-.17-.69-.46-.39-.93-.39-1.97,0-2.93.37-.91,1.04-1.63,1.84-1.97l5.69-2.39c.38-.16.82.02.98.4.16.38-.02.82-.4.98l-5.69,2.39c-.43.18-.82.61-1.03,1.14-.24.59-.24,1.23,0,1.79.16.38-.02.82-.4.98-.09.04-.19.06-.29.06Z" fill="#3e9e73"/><path d="M51.2,51.34c-.09,0-.19-.02-.28-.06l-2.68-1.09c-.38-.16-.57-.59-.41-.98l1.09-2.68c.16-.38.59-.57.98-.41.38.16.57.59.41.98l-.81,1.99,1.99.81c.38.16.57.59.41.98-.12.29-.4.47-.69.47Z" fill="#3e9e73"/><path d="M48.52,50.24c-.29,0-.57-.17-.69-.46-.16-.38.02-.82.4-.98l5.69-2.39c.89-.38,1.54-1.74,1.04-2.94-.16-.38.02-.82.4-.98.38-.16.82.02.98.4.87,2.07-.27,4.24-1.84,4.9l-5.69,2.39c-.09.04-.19.06-.29.06Z" fill="#3e9e73"/></svg>