<?xml version="1.0" encoding="UTF-8"?><svg id="_レイヤー_1" xmlns="http://www.w3.org/2000/svg" xmlns:xlink="http://www.w3.org/1999/xlink" viewBox="0 0 85.04 85.04"><defs><linearGradient id="_名称未設定グラデーション_12" x1="-616.83" y1="1172.26" x2="-587.91" y2="1172.26" gradientTransform="translate(289.9 -1259.73) rotate(-15.66)" gradientUnits="userSpaceOnUse"><stop offset="0" stop-color="#80c8b3"/><stop offset="1" stop-color="#80c8b3"/></linearGradient><linearGradient id="_名称未設定グラデーション_12-2" x1="-612.48" y1="1191.73" x2="-607.35" y2="1191.73" xlink:href="#_名称未設定グラデーション_12"/></defs><path d="M61.15,74.63c.17.06.36.06.53,0,5.89-2,10.3-7.08,11.75-9.56,1.48-2.52,4.52-9.31-1.11-13.06-4.77-3.18-9.6.76-10.68,1.75-.13.12-.32.12-.45,0-1.09-.99-5.91-4.94-10.69-1.75-5.62,3.75-2.58,10.54-1.1,13.06,1.45,2.48,5.86,7.56,11.75,9.56h0Z" fill="#ec6d88"/><path d="M61.41,75.77c-.21,0-.42-.03-.62-.1h0c-5.92-2.01-10.63-7.11-12.35-10.05-2.76-4.72-3.83-11.01,1.44-14.53,4.02-2.69,8.49-1.1,11.52,1.41,3.03-2.51,7.5-4.09,11.52-1.41,5.28,3.52,4.21,9.81,1.45,14.53-1.72,2.94-6.43,8.04-12.35,10.05-.2.07-.41.1-.62.1ZM61.32,73.59s0,0,0,0c0,0,0,0,0,0ZM61.5,73.59s0,0,0,0c0,0,0,0,0,0ZM54.44,51.88c-1.07,0-2.21.29-3.33,1.04-5.04,3.36-1.86,9.72-.77,11.59,1.07,1.83,5.13,6.99,11.07,9.05,5.94-2.06,10-7.22,11.07-9.05,1.09-1.87,4.27-8.23-.77-11.59-4.03-2.69-8.16.58-9.33,1.65-.55.5-1.38.5-1.94,0-.84-.77-3.23-2.68-6-2.68ZM60.9,52.94s0,0,0,0c0,0,0,0,0,0ZM61.92,52.94s0,0,0,0c0,0,0,0,0,0Z" fill="#231815"/><path d="M37.23,8c.24.22.59.91.71,1.24,3.32,11.81,6.76,23.57,10.17,35.35.48,1.88-1.01,3.33-2.87,3.08l-18.2-3.66,4.63,14.09c.39,1.4.34,3.05-1.19,3.69-1.31.55-3.76,1.04-5.23,1.42-.75.19-1.04.49-1.98.35-1.71-.26-1.78-1.85-2.1-3.13-1.22-4.8-2.45-9.61-3.57-14.44-1.9.57-4.04,1.47-5.22-.75-1.34-5.1-3.12-10.12-4.37-15.24-.45-1.87-.65-3.16,1.43-3.95,3.29-1.24,7.13-1.82,10.49-2.92l13.76-14.61c.9-.95,2.43-1.57,3.53-.53ZM45.07,44.59l-9.58-33.7-13.26,14.06c-1.1.99-2.98,1.32-4.42,1.75-2.4.72-4.83,1.35-7.22,2.08l4.28,14.99c3.71-.98,7.35-2.26,11.1-3.04l19.09,3.86ZM24.05,44.23l-3.83,1.07,3.86,15.49,4.93-1.45-4.96-15.11Z" fill="#221714"/><path d="M45.07,44.59l-19.09-3.86c-3.76.79-7.4,2.06-11.1,3.04l-4.28-14.99c2.4-.72,4.83-1.35,7.22-2.08,1.44-.43,3.32-.77,4.42-1.75l13.26-14.06,9.58,33.7ZM21.79,38.52c.99.82,2.57-.12,2.24-1.42-.93-2.31-1.26-5.55-2.28-7.74-.66-1.42-2.72-.71-2.61.73.84,2.42,1.28,5.25,2.2,7.61.09.23.27.68.45.83Z" fill="url(#_名称未設定グラデーション_12)"/><polygon points="24.05 44.23 29.01 59.34 24.09 60.79 20.22 45.3 24.05 44.23" fill="url(#_名称未設定グラデーション_12-2)"/><path d="M21.79,38.52c-.18-.15-.36-.6-.45-.83-.92-2.36-1.36-5.19-2.2-7.61-.11-1.44,1.94-2.14,2.61-.73,1.02,2.19,1.35,5.43,2.28,7.74.33,1.3-1.25,2.24-2.24,1.42Z" fill="#221714"/><path d="M54.47,39.91c-.32,0-.63-.14-.85-.4-.39-.47-.32-1.16.15-1.55,2.84-2.34,4.59-5.67,4.95-9.37.36-3.7-.74-7.3-3.07-10.14-2.1-2.55-5.05-4.27-8.31-4.83-.6-.1-1-.67-.89-1.27.1-.6.67-1,1.27-.89,3.77.66,7.19,2.65,9.63,5.6,2.71,3.29,3.98,7.46,3.57,11.75-.41,4.29-2.45,8.14-5.74,10.86-.21.17-.45.25-.7.25Z" fill="#02634e"/><path d="M50.61,35.22c-.32,0-.63-.14-.85-.4-.39-.47-.32-1.16.15-1.55,3.31-2.73,3.78-7.65,1.05-10.96-1.18-1.43-2.84-2.4-4.67-2.72-.6-.1-1-.67-.89-1.27.1-.6.67-1,1.27-.89,2.35.41,4.47,1.65,5.99,3.48,3.5,4.25,2.9,10.55-1.35,14.06-.2.17-.45.25-.7.25Z" fill="#02634e"/></svg>