<?xml version="1.0" encoding="UTF-8"?><svg id="_レイヤー_1" xmlns="http://www.w3.org/2000/svg" xmlns:xlink="http://www.w3.org/1999/xlink" viewBox="0 0 85.04 85.04"><defs><linearGradient id="_新規グラデーションスウォッチ_2" x1="13.11" y1="26.58" x2="28.6" y2="26.58" gradientUnits="userSpaceOnUse"><stop offset="0" stop-color="#6cc3b7"/><stop offset="1" stop-color="#6cc3b7"/></linearGradient><linearGradient id="_新規グラデーションスウォッチ_2-2" x1="42.78" y1="28.85" x2="74.72" y2="28.85" xlink:href="#_新規グラデーションスウォッチ_2"/><linearGradient id="_新規グラデーションスウォッチ_2-3" x1="44.07" y1="23.04" x2="66.39" y2="23.04" xlink:href="#_新規グラデーションスウォッチ_2"/><linearGradient id="_新規グラデーションスウォッチ_2-4" x1="44.07" y1="33.01" x2="66.39" y2="33.01" xlink:href="#_新規グラデーションスウォッチ_2"/><linearGradient id="_新規グラデーションスウォッチ_2-5" x1="8.44" y1="52.35" x2="33.27" y2="52.35" xlink:href="#_新規グラデーションスウォッチ_2"/></defs><path d="M61.15,77.71c.17.06.36.06.53,0,5.89-2,10.3-7.08,11.75-9.56,1.48-2.52,4.52-9.31-1.11-13.06-4.77-3.18-9.6.76-10.68,1.75-.13.12-.32.12-.45,0-1.09-.99-5.91-4.94-10.69-1.75-5.62,3.75-2.58,10.54-1.1,13.06,1.45,2.48,5.86,7.56,11.75,9.56h0Z" fill="#ec6d88"/><path d="M61.41,78.86c-.21,0-.42-.03-.62-.1h0c-5.92-2.01-10.63-7.11-12.35-10.05-2.76-4.72-3.83-11.01,1.44-14.53,4.02-2.69,8.49-1.1,11.52,1.41,3.03-2.51,7.5-4.09,11.52-1.41,5.28,3.52,4.21,9.81,1.45,14.53-1.72,2.94-6.43,8.04-12.35,10.05-.2.07-.41.1-.62.1ZM61.5,76.67h0s0,0,0,0ZM54.44,54.97c-1.07,0-2.2.29-3.33,1.04-5.04,3.36-1.86,9.72-.77,11.59,1.07,1.83,5.13,6.99,11.07,9.05,5.94-2.05,10-7.22,11.07-9.05,1.09-1.87,4.27-8.23-.77-11.59-4.03-2.69-8.16.58-9.33,1.65-.55.5-1.38.5-1.93,0-.84-.77-3.23-2.69-6.01-2.69Z" fill="#231815"/><path d="M20.85,34.02c4.28,0,7.74-3.33,7.74-7.45s-3.47-7.45-7.74-7.45-7.74,3.33-7.74,7.45,3.47,7.45,7.74,7.45h0Z" fill="url(#_新規グラデーションスウォッチ_2)"/><path d="M20.85,35.12c-4.87,0-8.84-3.83-8.84-8.55s3.97-8.55,8.84-8.55,8.84,3.83,8.84,8.55-3.97,8.55-8.84,8.55ZM20.85,20.23c-3.66,0-6.64,2.85-6.64,6.35s2.98,6.35,6.64,6.35,6.64-2.85,6.64-6.35-2.98-6.35-6.64-6.35Z" fill="#231815"/><polygon points="74.72 39.86 42.78 42.28 42.78 17.85 74.72 15.43 74.72 39.86" fill="url(#_新規グラデーションスウォッチ_2-2)"/><path d="M74.72,15.43v24.43l-31.94,2.43v-24.43l31.94-2.43M74.72,13.23c-.06,0-.11,0-.17,0l-31.94,2.43c-1.15.09-2.03,1.04-2.03,2.19v24.43c0,.61.26,1.2.7,1.61.41.38.94.59,1.5.59.06,0,.11,0,.17,0l31.94-2.43c1.15-.09,2.03-1.04,2.03-2.19V15.43c0-.61-.26-1.2-.7-1.61-.41-.38-.94-.59-1.5-.59h0Z" fill="#231815"/><polygon points="70.97 36.18 39.04 38.61 39.04 14.18 70.97 11.75 70.97 36.18" fill="#fff"/><path d="M70.97,11.75v24.43l-31.94,2.43V14.18l31.94-2.43M70.97,9.55c-.06,0-.11,0-.17,0l-31.94,2.43c-1.15.09-2.03,1.04-2.03,2.19v24.43c0,.61.26,1.2.7,1.61.41.38.94.59,1.5.59.06,0,.11,0,.17,0l31.94-2.43c1.15-.09,2.03-1.04,2.03-2.19V11.75c0-.61-.26-1.2-.7-1.61-.41-.38-.94-.59-1.5-.59h0Z" fill="#231815"/><path d="M54.44,18.15c1.06-.08,1.67-.14,2.25-.22.02,0,.05,0,.08,0,.17-.01.17,0,.15.5-.01.26-.03.31-.13.31,0,0-.02,0-.02,0-.38,0-.6.03-2.27.15-.61.05-.92.07-1.45.13-.04,0-.09,0-.17.01-.19.01-.21.02-.33.05-.03,0-.05.01-.06.01-.06,0-.1-.02-.11-.08-.02-.13-.03-.36-.03-.6,0-.09.08-.17.16-.17.41,0,.86-.02,1.93-.1Z"/><polygon points="44.15 24.24 44.07 23.73 66.31 21.85 66.39 22.36 44.15 24.24" fill="url(#_新規グラデーションスウォッチ_2-3)"/><polygon points="44.15 34.2 44.07 33.69 66.31 31.81 66.39 32.32 44.15 34.2" fill="url(#_新規グラデーションスウォッチ_2-4)"/><path d="M46.95,18.85c1.06-.08,1.67-.14,2.25-.22.02,0,.05,0,.08,0,.17-.01.17,0,.15.5-.01.26-.03.31-.13.31,0,0-.02,0-.02,0-.38,0-.6.03-2.27.15-.61.05-.92.07-1.45.13-.04,0-.09,0-.17.01-.19.01-.21.02-.33.05-.03,0-.05.01-.06.01-.06,0-.1-.02-.11-.08-.02-.13-.03-.36-.03-.6,0-.09.08-.17.16-.17.41,0,.86-.02,1.93-.1Z"/><path d="M62.16,17.56c1.06-.08,1.67-.14,2.25-.22.02,0,.05,0,.08,0,.17-.01.17,0,.15.5-.01.26-.03.31-.13.31,0,0-.02,0-.02,0-.38,0-.6.03-2.27.15-.61.05-.92.07-1.45.13-.04,0-.09,0-.17.01-.19.01-.21.02-.33.05-.03,0-.05.01-.06.01-.06,0-.1-.02-.11-.08-.02-.13-.03-.36-.03-.6,0-.09.08-.17.16-.17.41,0,.86-.02,1.93-.1Z"/><path d="M54.54,28.23c1.06-.08,1.67-.14,2.25-.22.02,0,.05,0,.08,0,.17-.01.17,0,.15.5-.01.26-.03.31-.13.31,0,0-.02,0-.02,0-.38,0-.6.03-2.27.15-.61.05-.92.07-1.45.13-.04,0-.09,0-.17.01-.19.01-.21.02-.33.05-.03,0-.05.01-.06.01-.06,0-.1-.02-.11-.08-.02-.13-.03-.36-.03-.6,0-.09.08-.17.16-.17.41,0,.86-.02,1.93-.1Z"/><path d="M47.06,28.93c1.06-.08,1.67-.14,2.25-.22.02,0,.05,0,.08,0,.17-.01.17,0,.15.5-.01.26-.03.31-.13.31,0,0-.02,0-.02,0-.38,0-.6.03-2.27.15-.61.05-.92.07-1.45.13-.04,0-.09,0-.17.01-.19.01-.21.02-.33.05-.03,0-.05.01-.06.01-.06,0-.1-.02-.11-.08-.02-.13-.03-.36-.03-.6,0-.09.08-.17.16-.17.41,0,.86-.02,1.93-.1Z"/><path d="M62.26,27.64c1.06-.08,1.67-.14,2.25-.22.02,0,.05,0,.08,0,.17-.01.17,0,.15.5-.01.26-.03.31-.13.31,0,0-.02,0-.02,0-.38,0-.6.03-2.27.15-.61.05-.92.07-1.45.13-.04,0-.09,0-.17.01-.19.01-.21.02-.33.05-.03,0-.05.01-.06.01-.06,0-.1-.02-.11-.08-.02-.13-.03-.36-.03-.6,0-.09.08-.17.16-.17.41,0,.86-.02,1.93-.1Z"/><path d="M33.27,53.19v-5.48c0-5.72-4.68-10.41-10.41-10.41h-4.01c-5.72,0-10.41,4.68-10.41,10.41v19.68" fill="url(#_新規グラデーションスウォッチ_2-5)"/><path d="M8.44,68.5c-.61,0-1.1-.49-1.1-1.1v-19.68c0-6.35,5.16-11.51,11.51-11.51h4.01c6.35,0,11.51,5.16,11.51,11.51v5.48c0,.61-.49,1.1-1.1,1.1s-1.1-.49-1.1-1.1v-5.48c0-5.13-4.18-9.31-9.31-9.31h-4.01c-5.13,0-9.31,4.18-9.31,9.31v19.68c0,.61-.49,1.1-1.1,1.1Z" fill="#231815"/></svg>