<?xml version="1.0" encoding="UTF-8"?><svg id="_レイヤー_1" xmlns="http://www.w3.org/2000/svg" viewBox="0 0 85.04 85.04"><path d="M9.15,41c0-8.86,3.25-16.48,9.75-22.84,6.47-6.36,14.25-9.54,23.33-9.54s16.67,3.21,23.08,9.62c6.44,6.42,9.67,14.12,9.67,23.12s-3.24,16.73-9.71,23.04c-6.5,6.34-14.34,9.5-23.53,9.5-8.13,0-15.43-2.81-21.9-8.44-7.12-6.23-10.68-14.38-10.68-24.47ZM18.73,41.12c0,6.96,2.34,12.68,7.01,17.17,4.65,4.49,10.02,6.73,16.11,6.73,6.61,0,12.18-2.28,16.72-6.85,4.54-4.62,6.81-10.25,6.81-16.88s-2.24-12.34-6.73-16.88c-4.46-4.57-9.98-6.85-16.56-6.85s-12.09,2.28-16.6,6.85c-4.51,4.51-6.77,10.09-6.77,16.72Z" fill="#d1e8df"/><path d="M41.73,75.01c-8.36,0-15.98-2.93-22.62-8.71-7.34-6.42-11.06-14.93-11.06-25.3,0-9.13,3.39-17.08,10.08-23.62,6.65-6.54,14.76-9.86,24.1-9.86s17.26,3.35,23.86,9.95c6.63,6.6,9.99,14.64,9.99,23.9s-3.38,17.34-10.04,23.83c-6.68,6.51-14.86,9.81-24.3,9.81ZM42.22,9.72c-8.74,0-16.33,3.1-22.56,9.23-6.25,6.12-9.42,13.54-9.42,22.05,0,9.71,3.47,17.66,10.31,23.64,6.23,5.42,13.36,8.17,21.18,8.17,8.85,0,16.51-3.09,22.76-9.19,6.22-6.06,9.37-13.55,9.37-22.25s-3.14-16.17-9.34-22.34c-6.17-6.17-13.68-9.3-22.31-9.3ZM41.86,66.12c-6.36,0-12.03-2.37-16.87-7.04-4.88-4.68-7.35-10.72-7.35-17.96s2.39-12.79,7.09-17.5c4.7-4.76,10.55-7.17,17.38-7.17s12.69,2.42,17.34,7.18c4.67,4.73,7.04,10.67,7.04,17.65s-2.4,12.84-7.13,17.65c-4.74,4.77-10.63,7.18-17.5,7.18ZM42.1,18.65c-6.22,0-11.54,2.19-15.82,6.52-4.28,4.28-6.45,9.65-6.45,15.95,0,6.62,2.25,12.13,6.68,16.37,4.42,4.26,9.58,6.42,15.35,6.42,6.27,0,11.63-2.2,15.94-6.53,4.31-4.38,6.49-9.8,6.49-16.11s-2.16-11.8-6.41-16.11c-4.23-4.33-9.53-6.52-15.77-6.52Z" fill="#231815"/><path d="M12.32,41.02c0-8.01,2.94-14.89,8.81-20.64,5.85-5.75,12.87-8.62,21.08-8.62s15.06,2.9,20.86,8.7c5.82,5.8,8.73,12.76,8.73,20.9s-2.92,15.12-8.77,20.82c-5.87,5.73-12.96,8.59-21.27,8.59-7.35,0-13.94-2.54-19.79-7.63-6.44-5.63-9.66-13-9.66-22.11ZM20.98,41.14c0,6.29,2.11,11.46,6.34,15.52,4.2,4.05,9.05,6.08,14.56,6.08,5.97,0,11.01-2.06,15.11-6.19,4.1-4.18,6.15-9.26,6.15-15.26s-2.03-11.15-6.08-15.26c-4.03-4.13-9.02-6.19-14.96-6.19s-10.92,2.06-15,6.19c-4.08,4.08-6.12,9.12-6.12,15.11Z" fill="#d1e8df"/><circle cx="42.06" cy="41.26" r="22.16" fill="#fff"/><path d="M42.06,64.53c-12.83,0-23.26-10.43-23.26-23.26s10.43-23.26,23.26-23.26,23.26,10.43,23.26,23.26-10.43,23.26-23.26,23.26ZM42.06,20.2c-11.61,0-21.06,9.45-21.06,21.06s9.45,21.06,21.06,21.06,21.06-9.45,21.06-21.06-9.45-21.06-21.06-21.06Z" fill="#231815"/><rect x="59.42" y="48.54" width="9.61" height="28.38" rx="4.14" ry="4.14" transform="translate(-25.55 63.78) rotate(-45)" fill="#d1e8df"/><path d="M70.86,75.54c-1.4,0-2.72-.54-3.71-1.53l-14.21-14.21c-2.04-2.04-2.04-5.37,0-7.41l.94-.94c.99-.99,2.3-1.53,3.71-1.53s2.72.54,3.71,1.53l14.21,14.21c2.04,2.04,2.04,5.37,0,7.41l-.94.94c-.99.99-2.3,1.53-3.71,1.53ZM57.58,52.12c-.82,0-1.58.31-2.15.89l-.94.94c-1.19,1.19-1.19,3.12,0,4.3l14.21,14.21c1.14,1.14,3.16,1.14,4.3,0l.94-.94c1.19-1.19,1.19-3.12,0-4.3l-14.21-14.21c-.57-.57-1.34-.89-2.15-.89Z" fill="#231815"/><path d="M31.67,46.28v-.2c-.28.32-.55.57-.81.77-.27.2-.56.35-.87.45s-.65.15-1.03.15c-.49,0-.95-.1-1.36-.31s-.78-.5-1.09-.89c-.31-.39-.54-.84-.69-1.36-.16-.52-.24-1.08-.24-1.69,0-1.28.31-2.28.94-3,.63-.72,1.45-1.07,2.47-1.07.59,0,1.09.1,1.49.3.41.2.8.51,1.19.94v-3.03c0-.42.08-.74.25-.95.17-.21.41-.32.72-.32s.55.1.72.3c.17.2.25.49.25.88v9.04c0,.39-.09.68-.27.88s-.41.29-.7.29-.51-.1-.69-.3c-.18-.2-.27-.49-.27-.87ZM27.63,43.27c0,.56.09,1.03.26,1.42.17.39.41.68.71.88.3.2.63.3.98.3s.69-.09.99-.28c.3-.19.54-.48.71-.86.18-.39.27-.87.27-1.45,0-.55-.09-1.02-.27-1.41-.18-.39-.42-.69-.72-.9s-.63-.31-1-.31-.71.11-1.01.32-.52.52-.69.92c-.16.4-.24.86-.24,1.39Z" fill="#231815"/><path d="M40.64,46.29c-.5.39-.98.67-1.44.87s-.98.29-1.56.29c-.53,0-.99-.1-1.39-.31s-.7-.49-.92-.85c-.22-.36-.32-.74-.32-1.16,0-.56.18-1.04.53-1.43.36-.4.84-.66,1.46-.8.13-.03.45-.1.97-.2.52-.11.96-.2,1.33-.29.37-.09.77-.19,1.2-.32-.03-.54-.13-.94-.33-1.19-.19-.25-.59-.38-1.2-.38-.52,0-.91.07-1.18.22-.26.15-.49.36-.68.65-.19.29-.32.48-.4.57-.08.09-.24.14-.5.14-.23,0-.43-.07-.6-.22-.17-.15-.25-.34-.25-.57,0-.36.13-.71.38-1.05.26-.34.65-.62,1.19-.84.54-.22,1.21-.33,2.02-.33.9,0,1.61.11,2.13.32.52.21.88.55,1.09,1.01.21.46.32,1.07.32,1.83,0,.48,0,.89,0,1.22s0,.71-.01,1.12c0,.39.06.79.19,1.21s.19.69.19.81c0,.21-.1.4-.3.57-.2.17-.42.26-.67.26-.21,0-.42-.1-.62-.3-.21-.2-.42-.48-.65-.86ZM40.51,43.33c-.3.11-.74.23-1.31.35-.57.12-.97.21-1.19.27-.22.06-.43.17-.63.34-.2.17-.3.4-.3.7s.12.57.35.79.54.33.92.33c.41,0,.78-.09,1.12-.27.34-.18.59-.41.76-.69.19-.31.28-.82.28-1.53v-.29Z" fill="#231815"/><path d="M45.95,47.7l.19-.46-2.52-6.35c-.16-.37-.23-.63-.23-.8,0-.18.05-.34.14-.49.09-.15.21-.27.37-.36s.32-.14.49-.14c.3,0,.52.09.67.28.15.19.28.46.4.81l1.73,5.05,1.65-4.69c.13-.38.25-.68.35-.89.11-.22.22-.36.33-.44.12-.07.28-.11.5-.11.16,0,.3.04.45.12.14.08.25.19.33.33s.12.29.12.44c-.02.1-.05.23-.1.41-.05.18-.1.35-.17.53l-2.67,7c-.23.62-.46,1.1-.68,1.45-.22.35-.51.62-.88.81s-.85.28-1.47.28-1.05-.06-1.35-.2c-.3-.13-.45-.37-.45-.71,0-.24.07-.42.21-.54.14-.13.35-.19.63-.19.11,0,.22.02.32.05.13.03.24.04.34.04.24,0,.42-.03.56-.11.14-.07.26-.19.36-.36.11-.17.23-.43.37-.76Z" fill="#231815"/><path d="M58.77,44.77c0,.57-.14,1.05-.41,1.45-.28.4-.68.71-1.22.92s-1.19.31-1.96.31-1.37-.11-1.89-.34c-.53-.23-.91-.51-1.16-.85-.25-.34-.38-.68-.38-1.02,0-.23.08-.42.24-.58.16-.16.36-.24.61-.24.22,0,.38.05.5.16.12.1.23.25.33.44.21.37.46.64.76.82.29.18.69.27,1.2.27.41,0,.75-.09,1.01-.27.26-.18.39-.39.39-.63,0-.36-.14-.62-.41-.79-.27-.17-.72-.32-1.35-.47-.71-.18-1.28-.36-1.72-.55-.44-.19-.8-.45-1.06-.76s-.4-.7-.4-1.16c0-.41.12-.8.37-1.16.25-.37.61-.66,1.09-.88.48-.22,1.06-.33,1.73-.33.53,0,1.01.06,1.43.17s.78.26,1.06.44c.28.19.5.39.65.62.15.23.22.45.22.66,0,.24-.08.43-.24.58-.16.15-.38.23-.67.23-.21,0-.39-.06-.54-.18-.15-.12-.32-.3-.51-.54-.16-.2-.34-.36-.55-.48s-.5-.18-.86-.18-.68.08-.92.24c-.25.16-.37.35-.37.59,0,.22.09.39.27.53.18.14.42.25.73.34.31.09.73.2,1.26.33.64.15,1.16.34,1.56.56.4.21.71.47.92.76.21.29.31.63.31,1Z" fill="#231815"/><path d="M14.67,7.63c-.7,0-1.2.17-1.52.51-.13.13-.39.44-1.18,1.55-.53.74-1.16,1.43-1.85,2.03-.68.59-1.62,1.17-2.79,1.72-.88.41-1.49.75-1.86,1.03-.36.27-.79.79-.79,1.74,0,.65.24,1.22.71,1.7.47.48,1.05.74,1.68.74s1.72-.25,4.49-2.24v12.44c0,1,.25,1.79.76,2.35.52.57,1.23.87,2.05.87,1.06,0,2.84-.5,2.84-3.82V10.73c0-.9-.22-1.64-.65-2.19-.47-.6-1.12-.91-1.89-.91Z" fill="#7dc1ad"/><path d="M14.67,7.63c.77,0,1.42.32,1.89.91.43.55.65,1.29.65,2.19v17.52c0,3.32-1.78,3.82-2.84,3.82-.83,0-1.54-.3-2.05-.87-.5-.56-.76-1.35-.76-2.35v-12.44c-2.77,1.99-3.88,2.24-4.49,2.24s-1.21-.26-1.68-.74c-.47-.48-.71-1.06-.71-1.7,0-.95.43-1.48.79-1.74.37-.28.98-.61,1.86-1.03,1.17-.55,2.1-1.13,2.79-1.72.69-.6,1.31-1.28,1.85-2.03.79-1.11,1.05-1.41,1.18-1.55.32-.34.82-.51,1.52-.51M14.67,5.43c-1.32,0-2.37.4-3.12,1.2-.21.22-.52.59-1.37,1.77-.43.61-.94,1.16-1.5,1.65-.52.46-1.31.94-2.28,1.39-1.03.48-1.74.88-2.24,1.26-1.08.81-1.67,2.05-1.67,3.51,0,1.22.46,2.34,1.33,3.24.88.91,2.03,1.41,3.25,1.41.69,0,1.43-.17,2.29-.55v8.54c0,1.56.45,2.85,1.33,3.82.93,1.03,2.24,1.6,3.69,1.6,3.72,0,5.04-3.24,5.04-6.02V10.73c0-1.4-.37-2.6-1.11-3.54-.89-1.14-2.17-1.76-3.62-1.76h0Z" fill="#231815"/><path d="M35.37,9.83h0c-.72-.73-1.56-1.29-2.51-1.67-.94-.37-2-.56-3.14-.56-1.73,0-3.26.43-4.52,1.28-1.27.85-2.24,2.09-2.9,3.71-.37.94-.64,2.07-.81,3.36-.17,1.26-.25,2.69-.25,4.26,0,1.22.08,2.38.23,3.43.15,1.07.4,2.07.74,2.98.67,1.68,1.69,3.01,3.04,3.97,1.35.97,2.9,1.45,4.6,1.45,1.48,0,2.84-.36,4.05-1.08,1.21-.72,2.2-1.74,2.96-3.06.59-1.05,1-2.23,1.22-3.51.21-1.24.32-2.73.32-4.44,0-3.17-.41-5.68-1.23-7.46-.48-1.04-1.08-1.93-1.79-2.65ZM32.7,19.63c0,1.92-.1,3.48-.31,4.64-.19,1.08-.51,1.91-.96,2.46-.39.48-.91.7-1.62.7s-1.2-.21-1.59-.68c-.44-.52-.77-1.34-.97-2.43-.21-1.17-.32-2.71-.32-4.58,0-2.72.25-4.74.74-6,.41-1.06,1.08-1.56,2.11-1.56.72,0,1.26.21,1.64.65.44.5.76,1.29.96,2.34.21,1.14.32,2.63.32,4.44Z" fill="#7dc1ad"/><path d="M29.72,7.6c1.14,0,2.2.19,3.14.56.95.38,1.79.94,2.51,1.67h0c.71.72,1.31,1.61,1.79,2.65.82,1.77,1.23,4.28,1.23,7.46,0,1.71-.11,3.2-.32,4.44-.22,1.28-.63,2.47-1.22,3.51-.76,1.32-1.75,2.34-2.96,3.06-1.21.72-2.58,1.08-4.05,1.08-1.7,0-3.25-.49-4.6-1.45-1.34-.96-2.36-2.29-3.04-3.97-.34-.91-.59-1.91-.74-2.98-.15-1.05-.23-2.21-.23-3.43,0-1.57.08-3,.25-4.26.17-1.29.44-2.42.81-3.36.66-1.61,1.63-2.85,2.9-3.71,1.27-.85,2.79-1.28,4.52-1.28M29.81,27.44c.72,0,1.23-.22,1.62-.7.45-.55.77-1.38.96-2.46.21-1.17.31-2.73.31-4.64,0-1.81-.11-3.31-.32-4.44-.2-1.05-.52-1.84-.96-2.34-.39-.44-.92-.65-1.64-.65-1.03,0-1.7.5-2.11,1.56-.49,1.26-.74,3.28-.74,6,0,1.86.11,3.4.32,4.58.2,1.09.52,1.91.97,2.43.39.46.89.68,1.59.68M29.72,5.4c-2.18,0-4.11.56-5.75,1.65-1.64,1.1-2.88,2.68-3.71,4.7-.44,1.14-.76,2.44-.96,3.9-.18,1.35-.27,2.88-.27,4.55,0,1.33.08,2.59.25,3.75.18,1.22.46,2.38.86,3.43v.03s.02.03.02.03c.83,2.08,2.11,3.74,3.8,4.94,1.73,1.24,3.71,1.86,5.88,1.86,1.88,0,3.62-.47,5.17-1.39,1.54-.91,2.8-2.21,3.75-3.85.73-1.29,1.22-2.72,1.48-4.25.23-1.36.35-2.97.35-4.81,0-3.49-.48-6.31-1.43-8.38-.59-1.27-1.34-2.37-2.22-3.27l-.15-.15h-.01c-.9-.88-1.94-1.56-3.11-2.02-1.2-.48-2.53-.72-3.95-.72h0ZM29.82,25.21c-.1-.18-.27-.56-.4-1.27-.19-1.04-.29-2.45-.29-4.18,0-3.21.37-4.64.59-5.21.03-.07.05-.12.07-.15.02,0,.03,0,.04,0,.09.15.26.51.39,1.2.19,1,.28,2.36.28,4.03,0,1.79-.09,3.22-.28,4.26-.13.73-.3,1.12-.41,1.32h0Z" fill="#231815"/><path d="M57.19,12.48h0c-.48-1.04-1.08-1.93-1.79-2.65-.72-.73-1.56-1.29-2.51-1.67-.94-.37-2-.56-3.14-.56-1.73,0-3.26.43-4.52,1.28-1.27.85-2.24,2.09-2.9,3.71-.37.94-.64,2.07-.81,3.36-.17,1.26-.25,2.69-.25,4.26,0,1.22.08,2.38.23,3.43.16,1.08.4,2.07.74,2.98.67,1.68,1.69,3.01,3.04,3.97,1.35.97,2.9,1.45,4.6,1.45,1.48,0,2.84-.36,4.05-1.08,1.21-.72,2.2-1.74,2.96-3.06.59-1.05,1-2.23,1.22-3.51.21-1.24.32-2.73.32-4.44,0-3.17-.41-5.68-1.23-7.46ZM52.74,19.63c0,1.92-.1,3.48-.31,4.64-.19,1.08-.51,1.91-.96,2.46-.39.48-.91.7-1.62.7s-1.2-.21-1.59-.68c-.44-.52-.77-1.34-.97-2.43-.21-1.17-.32-2.71-.32-4.58,0-2.72.25-4.74.74-6,.41-1.06,1.08-1.56,2.11-1.56.72,0,1.26.21,1.64.65.44.5.76,1.29.96,2.34.21,1.14.32,2.63.32,4.44Z" fill="#7dc1ad"/><path d="M49.75,7.6c1.14,0,2.2.19,3.14.56.95.38,1.8.94,2.51,1.67.71.72,1.31,1.61,1.79,2.65h0c.82,1.77,1.23,4.28,1.23,7.46,0,1.71-.11,3.2-.32,4.44-.22,1.28-.63,2.47-1.22,3.51-.76,1.32-1.75,2.34-2.96,3.06-1.21.72-2.58,1.08-4.05,1.08-1.7,0-3.25-.49-4.6-1.45-1.34-.96-2.36-2.29-3.04-3.97-.34-.91-.59-1.9-.74-2.98-.15-1.06-.23-2.21-.23-3.43,0-1.57.08-3,.25-4.26.17-1.29.44-2.42.81-3.36.66-1.61,1.63-2.85,2.9-3.71,1.27-.85,2.79-1.28,4.52-1.28M49.84,27.44c.72,0,1.23-.22,1.62-.7.45-.55.77-1.38.96-2.46.21-1.17.31-2.73.31-4.64,0-1.81-.11-3.31-.32-4.44-.2-1.05-.52-1.84-.96-2.34-.39-.44-.92-.65-1.64-.65-1.03,0-1.7.5-2.11,1.56-.49,1.26-.74,3.28-.74,6,0,1.86.11,3.4.32,4.58.2,1.09.52,1.91.97,2.43.39.46.89.68,1.59.68M49.75,5.4c-2.18,0-4.11.56-5.75,1.65-1.64,1.1-2.89,2.68-3.71,4.7-.44,1.14-.76,2.44-.96,3.9-.18,1.35-.27,2.88-.27,4.55,0,1.32.08,2.58.25,3.75.18,1.24.47,2.39.86,3.44v.02s.02.02.02.02c.83,2.07,2.11,3.74,3.8,4.94,1.73,1.24,3.71,1.86,5.88,1.86,1.88,0,3.62-.47,5.17-1.39,1.54-.91,2.8-2.21,3.75-3.85.73-1.29,1.22-2.72,1.48-4.25.23-1.35.35-2.97.35-4.81,0-3.43-.46-6.21-1.38-8.26h0s-.05-.12-.05-.12c-.59-1.27-1.33-2.37-2.22-3.27-.93-.95-2.03-1.68-3.27-2.17-1.2-.48-2.53-.72-3.95-.72h0ZM49.85,25.21c-.1-.18-.27-.56-.4-1.28-.19-1.04-.29-2.45-.29-4.18,0-3.21.37-4.64.59-5.21.03-.07.05-.12.07-.15.02,0,.03,0,.04,0,.09.15.26.51.39,1.2.19,1,.28,2.36.28,4.03,0,1.79-.09,3.22-.28,4.26-.13.73-.3,1.12-.41,1.32h0Z" fill="#231815"/><path d="M37.16,12.48h0c-.48-1.04-1.08-1.93-1.79-2.65-.72-.73-1.56-1.29-2.51-1.67-.94-.37-2-.56-3.14-.56-1.73,0-3.26.43-4.52,1.28-1.27.85-2.24,2.09-2.9,3.71-.37.94-.64,2.07-.81,3.36-.17,1.26-.25,2.69-.25,4.26,0,1.22.08,2.38.23,3.43.16,1.08.4,2.07.74,2.98.67,1.68,1.69,3.01,3.04,3.97,1.35.97,2.9,1.45,4.6,1.45,1.48,0,2.84-.36,4.05-1.08,1.21-.72,2.2-1.74,2.96-3.06.59-1.05,1-2.23,1.22-3.51.21-1.24.32-2.73.32-4.44,0-3.17-.41-5.68-1.23-7.46ZM32.7,19.63c0,1.92-.1,3.48-.31,4.64-.19,1.08-.51,1.91-.96,2.46-.39.48-.91.7-1.62.7s-1.2-.21-1.59-.68c-.44-.52-.77-1.34-.97-2.43-.21-1.17-.32-2.71-.32-4.58,0-2.72.25-4.74.74-6,.41-1.06,1.08-1.56,2.11-1.56.72,0,1.26.21,1.64.65.44.5.76,1.29.96,2.34.21,1.14.32,2.63.32,4.44Z" fill="#7dc1ad"/><ellipse cx="29.88" cy="19.82" rx="2.29" ry="6.79" fill="#231815"/><ellipse cx="49.85" cy="19.85" rx="2.29" ry="6.79" fill="#231815"/></svg>