<?xml version="1.0" encoding="UTF-8"?><svg id="_レイヤー_1" xmlns="http://www.w3.org/2000/svg" viewBox="0 0 85.04 85.04"><polygon points="69.71 61.52 56.1 77.98 8.23 76.32 8.23 53.78 28.03 37.6 69.71 38.46 69.71 61.52" fill="#dcdddd"/><path d="M52.54,45.78l-.71.84c-.69.81-2.35,1.45-3.68,1.39l-18.85-.8c-1.24-.05-1.47-.74-.54-1.51l.96-.8c.89-.74,2.56-1.29,3.74-1.25l17.95.65c1.26.05,1.78.7,1.12,1.48Z" fill="#9fa0a0"/><path d="M48.32,49.12c-.07,0-.14,0-.21,0l-18.85-.8c-1.47-.06-1.94-.8-2.08-1.24-.15-.43-.23-1.3.88-2.22l.96-.8c1.1-.91,3.01-1.54,4.49-1.5l17.95.65c1.56.06,2.13.81,2.32,1.25.29.65.14,1.39-.4,2.04l-.71.84c-.86,1.03-2.74,1.79-4.35,1.79ZM29.95,46.15l18.25.78c1.05.02,2.37-.5,2.79-1l.43-.51s-.03,0-.04,0l-17.95-.65c-.93-.04-2.32.43-3,1l-.47.39ZM29.26,46.76h0,0Z" fill="#231815"/><polygon points="18.54 6.84 21.56 17.09 29.73 20.88 21.56 24.68 18.54 34.93 15.52 24.68 7.36 20.88 15.52 17.09 18.54 6.84" fill="#fff45c"/><path d="M18.54,36.03h0c-.49,0-.92-.32-1.06-.79l-2.88-9.77-7.71-3.58c-.39-.18-.64-.57-.64-1s.25-.82.64-1l7.71-3.58,2.88-9.77c.14-.47.57-.79,1.06-.79s.92.32,1.06.79l2.88,9.77,7.71,3.58c.39.18.64.57.64,1s-.25.82-.64,1l-7.71,3.58-2.88,9.77c-.14.47-.57.79-1.06.79ZM9.97,20.88l6.02,2.79c.29.13.5.38.59.69l1.96,6.67,1.97-6.67c.09-.3.3-.55.59-.69l6.02-2.8-6.02-2.8c-.29-.13-.5-.38-.59-.69l-1.97-6.67-1.96,6.67c-.09.3-.3.55-.59.69l-6.02,2.79Z" fill="#231815"/><path d="M69.71,39.56h-.02l-41.68-.85c-.61-.01-1.09-.51-1.08-1.12s.51-1.06,1.12-1.08l41.68.85c.61.01,1.09.51,1.08,1.12-.01.6-.5,1.08-1.1,1.08Z" fill="#231815"/><path d="M56.26,56.56h-.04l-48.02-1.68c-.61-.02-1.08-.53-1.06-1.14.02-.61.5-1.04,1.14-1.06l48.02,1.68c.61.02,1.08.53,1.06,1.14-.02.59-.51,1.06-1.1,1.06Z" fill="#231815"/><path d="M56.26,56.56c-.24,0-.48-.08-.68-.24-.48-.38-.56-1.07-.18-1.54l13.45-17c.38-.48,1.07-.56,1.54-.18s.56,1.07.18,1.54l-13.45,17c-.22.27-.54.42-.86.42Z" fill="#231815"/><path d="M8.23,54.88c-.32,0-.63-.14-.85-.4-.38-.47-.31-1.16.16-1.55l19.79-16.18c.47-.38,1.16-.32,1.55.16s.31,1.16-.16,1.55l-19.79,16.18c-.2.17-.45.25-.7.25Z" fill="#231815"/><path d="M56.1,79.08c-.61,0-1.1-.49-1.1-1.1v-22.53c0-.61.49-1.1,1.1-1.1s1.1.49,1.1,1.1v22.53c0,.61-.49,1.1-1.1,1.1Z" fill="#231815"/><path d="M8.23,77.42c-.61,0-1.1-.49-1.1-1.1v-22.54c0-.61.49-1.1,1.1-1.1s1.1.49,1.1,1.1v22.54c0,.61-.49,1.1-1.1,1.1Z" fill="#231815"/><path d="M69.71,62.63c-.61,0-1.1-.49-1.1-1.1v-22.94c0-.61.49-1.1,1.1-1.1s1.1.49,1.1,1.1v22.94c0,.61-.49,1.1-1.1,1.1Z" fill="#231815"/><rect x="44.67" y="17.67" width="11.9" height="25.8" transform="translate(52.54 -28.53) rotate(60.74)" fill="#fff"/><path d="M58.96,19.07l5.82,10.38-22.5,12.61-5.82-10.38,22.5-12.61M58.96,16.87c-.36,0-.73.09-1.07.28l-22.5,12.61c-1.06.59-1.44,1.93-.84,2.99l5.82,10.38c.29.51.76.88,1.32,1.04.2.06.4.08.6.08.37,0,.74-.09,1.08-.28l22.5-12.61c.51-.29.88-.76,1.04-1.32.16-.56.09-1.16-.2-1.67l-5.82-10.38c-.4-.72-1.15-1.12-1.92-1.12h0Z" fill="#231815"/><path d="M43.81,24.98c2.5-1.42,1.74-.93,4.5-2.65,5.73-4.67,8.38-4.97,9.34-3.76,1.1,1.39,2.62,2.21,1.97,3.61-.77,1.65-3.13,3.83-3.79,4.28,0,0-3.31,2.5-2.02,4.06.21.03,4.63-.98,6.82-2.69,2.63-2.06,5.36-3.08,6.2-3.62,3.17-2.06,4.19-3.47,5.5-4.28-1.7-3.78-1.03-3.03-2.1-5.94-1.7-.3-2.8-.3-5.4-.57-2.17-.3-11.25.6-13.03,1.56-3.08,2.12-3.24,3.71-5.93,6.33-.41.48-2.54,2.34-2.05,3.68Z" fill="#f9d5ce"/><path d="M63.6,13.36c.51,0,.92.02,1.21.06,2.6.28,3.7.27,5.4.57,1.07,2.91.4,2.15,2.1,5.94-1.31.8-2.33,2.22-5.5,4.28-.83.54-3.57,1.56-6.2,3.62-2.16,1.69-6.49,2.69-6.81,2.69,0,0,0,0-.01,0-1.29-1.56,2.02-4.06,2.02-4.06.67-.46,3.02-2.64,3.79-4.28.65-1.39-.87-2.22-1.97-3.61-.3-.37-.75-.6-1.41-.6-1.47,0-3.96,1.14-7.92,4.37-2.76,1.72-2.01,1.22-4.5,2.65-.49-1.34,1.64-3.2,2.05-3.68,2.69-2.62,2.86-4.21,5.93-6.33,1.54-.83,8.55-1.62,11.82-1.62M63.6,11.16c-2.86,0-10.69.71-12.86,1.88-.07.04-.14.08-.2.12-2.11,1.45-3.09,2.75-4.03,4-.59.79-1.21,1.6-2.19,2.56-.05.05-.1.1-.14.15-.04.05-.11.12-.19.2-1.02,1.05-3.14,3.23-2.24,5.66.22.61.7,1.09,1.31,1.31.24.09.5.13.75.13.38,0,.75-.1,1.09-.29.7-.4,1.15-.65,1.48-.84.89-.5,1.07-.6,3.09-1.85.08-.05.16-.1.23-.16,4.12-3.35,5.91-3.81,6.42-3.87.3.35.59.65.86.93.14.15.32.33.46.48-.71,1.14-2.39,2.74-2.85,3.06-.03.02-.06.04-.09.06-.68.51-2.9,2.35-3.16,4.56-.11.97.16,1.91.77,2.66.35.43.86.71,1.41.78.1.01.21.02.3.02.85,0,5.64-1.19,8.16-3.16,1.68-1.31,3.46-2.19,4.64-2.77.61-.3,1.05-.51,1.4-.74,2.01-1.31,3.24-2.39,4.13-3.18.53-.47.95-.84,1.32-1.07.94-.58,1.31-1.77.86-2.78-.95-2.11-1.09-2.65-1.27-3.34-.14-.53-.31-1.2-.78-2.45-.27-.73-.91-1.27-1.68-1.4-1.17-.21-2.07-.28-3.2-.38-.64-.05-1.38-.12-2.32-.21-.38-.05-.87-.08-1.48-.08h0Z" fill="#231815"/><rect x="70.59" y="9.71" width="3.46" height="13.32" transform="translate(-.16 32) rotate(-24.93)" fill="#7dc1ad"/><path d="M71.08,9.61l5.61,12.08-3.14,1.46-5.61-12.08,3.14-1.46M71.08,7.41c-.31,0-.63.07-.93.21l-3.14,1.46c-.53.25-.94.69-1.14,1.24-.2.55-.17,1.15.07,1.68l5.61,12.08c.37.8,1.17,1.27,2,1.27.31,0,.63-.07.93-.21l3.14-1.46c.53-.25.94-.69,1.14-1.24.2-.55.17-1.15-.07-1.68l-5.61-12.08c-.37-.8-1.17-1.27-2-1.27h0Z" fill="#231815"/></svg>