<?xml version="1.0" encoding="UTF-8"?><svg id="_レイヤー_1" xmlns="http://www.w3.org/2000/svg" viewBox="0 0 85.04 85.04"><path d="M71.38,37.79l6.41-6.4c.64-.64.64-1.69,0-2.34l-.5-.5c-.64-.64-1.69-.64-2.34,0l-6.4,6.4-6.41-6.4c-.64-.64-1.69-.64-2.34,0l-.5.5c-.64.64-.64,1.69,0,2.34l6.41,6.4-6.41,6.4c-.64.64-.64,1.69,0,2.34l.5.5c.64.64,1.69.64,2.34,0l6.41-6.4,6.4,6.4c.64.64,1.69.64,2.34,0l.5-.5c.64-.64.64-1.69,0-2.34l-6.41-6.4Z" fill="#7dc1ad"/><path d="M76.12,28.07c.42,0,.85.16,1.17.48l.5.5c.64.64.64,1.69,0,2.34l-6.41,6.41,6.41,6.4c.64.64.64,1.69,0,2.34l-.5.5c-.32.32-.74.48-1.17.48s-.85-.16-1.17-.48l-6.4-6.41-6.41,6.41c-.32.32-.74.48-1.17.48s-.85-.16-1.17-.48l-.5-.5c-.64-.64-.64-1.69,0-2.34l6.41-6.4-6.41-6.41c-.64-.64-.64-1.69,0-2.34l.5-.5c.32-.32.74-.48,1.17-.48s.85.16,1.17.48l6.41,6.4,6.4-6.4c.32-.32.74-.48,1.17-.48M76.12,25.87c-1.03,0-2,.4-2.72,1.13l-4.85,4.85-4.85-4.85c-.73-.73-1.69-1.13-2.72-1.13s-2,.4-2.72,1.13l-.5.5c-1.5,1.5-1.5,3.95,0,5.45l4.85,4.85-4.85,4.85c-1.5,1.5-1.5,3.95,0,5.45l.5.5c.73.73,1.69,1.13,2.72,1.13s2-.4,2.72-1.13l4.85-4.85,4.85,4.85c.73.73,1.69,1.13,2.72,1.13s2-.4,2.72-1.13l.5-.5c1.5-1.5,1.5-3.95,0-5.45l-4.85-4.85,4.85-4.85c1.5-1.5,1.5-3.94,0-5.45l-.5-.5c-.73-.73-1.69-1.13-2.72-1.13h0Z" fill="#231815"/><path d="M26.78,37.42c-2.48-2.48-5.46-3.72-8.93-3.72s-6.52,1.23-9.03,3.69c-2.51,2.46-3.77,5.41-3.77,8.84,0,3.9,1.38,7.06,4.14,9.47,2.5,2.18,5.33,3.27,8.47,3.27,3.56,0,6.59-1.23,9.11-3.68,2.5-2.44,3.76-5.41,3.76-8.92s-1.25-6.46-3.74-8.95ZM17.73,53.62c-1.87,0-3.52-.69-4.95-2.07-1.44-1.38-2.15-3.13-2.15-5.27s.69-3.75,2.08-5.13c1.39-1.4,3.08-2.1,5.1-2.1s3.71.7,5.08,2.1c1.38,1.39,2.07,3.12,2.07,5.18s-.7,3.76-2.09,5.18c-1.39,1.4-3.11,2.1-5.13,2.1Z" fill="#7dc1ad"/><path d="M17.79,54.08c-4.27,0-7.75-3.48-7.75-7.75s3.48-7.75,7.75-7.75,7.75,3.48,7.75,7.75-3.48,7.75-7.75,7.75ZM17.79,40.78c-3.06,0-5.55,2.49-5.55,5.55s2.49,5.55,5.55,5.55,5.55-2.49,5.55-5.55-2.49-5.55-5.55-5.55Z" fill="#231815"/><path d="M17.79,59.84c-7.45,0-13.51-6.06-13.51-13.51s6.06-13.51,13.51-13.51,13.51,6.06,13.51,13.51-6.06,13.51-13.51,13.51ZM17.79,35.02c-6.24,0-11.31,5.08-11.31,11.31s5.08,11.31,11.31,11.31,11.31-5.08,11.31-11.31-5.08-11.31-11.31-11.31Z" fill="#231815"/><polygon points="65.19 76.01 23.03 76.01 29.32 71.41 58.89 71.41 65.19 76.01" fill="#dddabe"/><path d="M58.89,71.41l6.3,4.6H23.03l6.3-4.6h29.57M58.89,69.21h-29.57c-.47,0-.92.15-1.3.42l-6.3,4.6c-.77.56-1.09,1.55-.79,2.46.3.91,1.14,1.52,2.09,1.52h42.16c.95,0,1.8-.61,2.09-1.52.3-.91-.03-1.9-.79-2.46l-6.3-4.6c-.38-.28-.83-.42-1.3-.42h0Z" fill="#241903"/><path d="M56.83,54.26c0,7.05,23.44,7.05,23.44,0" fill="#dddabe"/><path d="M68.55,60.65c-6.38,0-12.82-1.98-12.82-6.39,0-.61.49-1.1,1.1-1.1s1.1.49,1.1,1.1c0,2.35,4.67,4.19,10.62,4.19h0c2.89,0,5.67-.45,7.64-1.24,1.35-.54,2.97-1.5,2.97-2.95,0-.61.49-1.1,1.1-1.1s1.1.49,1.1,1.1c0,4.41-6.43,6.39-12.81,6.39h0Z" fill="#231815"/><path d="M4.77,63.48c0,7.48,24.84,7.48,24.84,0" fill="#dddabe"/><path d="M17.19,70.19c-6.73,0-13.52-2.07-13.52-6.71,0-.61.49-1.1,1.1-1.1s1.1.49,1.1,1.1c0,2.57,4.87,4.51,11.32,4.51h0c6.45,0,11.32-1.94,11.32-4.51,0-.61.49-1.1,1.1-1.1s1.1.49,1.1,1.1c0,4.63-6.79,6.71-13.52,6.71h0Z" fill="#231815"/><path d="M17.8,30.22c-.6,0-1.1-.49-1.1-1.09l-.02-3.62c0-.61.49-1.1,1.09-1.11h0c.6,0,1.1.49,1.1,1.09l.02,3.62c0,.61-.49,1.1-1.09,1.11h0Z" fill="#231815"/><path d="M29.61,64.58H4.77c-.61,0-1.1-.49-1.1-1.1s.49-1.1,1.1-1.1h24.84c.61,0,1.1.49,1.1,1.1s-.49,1.1-1.1,1.1Z" fill="#231815"/><path d="M80.27,55.36h-23.44c-.61,0-1.1-.49-1.1-1.1s.49-1.1,1.1-1.1h23.44c.61,0,1.1.49,1.1,1.1s-.49,1.1-1.1,1.1Z" fill="#231815"/><polygon points="47.65 71.62 40.57 71.62 44.29 8.89 47.65 71.62" fill="#dddabe"/><path d="M44.29,8.89l3.36,62.73h-7.08l3.72-62.73M44.29,6.69c-1.16,0-2.13.91-2.2,2.07l-3.72,62.73c-.04.6.18,1.2.59,1.64.42.44.99.69,1.6.69h7.08c.6,0,1.18-.25,1.6-.69.42-.44.63-1.03.6-1.63l-3.36-62.73c-.06-1.17-1.02-2.08-2.19-2.08h0Z" fill="#231815"/><path d="M67.85,22.39c-.61,0-1.1-.49-1.1-1.1v-6.27c0-.61.49-1.1,1.1-1.1s1.1.49,1.1,1.1v6.27c0,.61-.49,1.1-1.1,1.1Z" fill="#231815"/><path d="M17.79,25.5l50.06-10.48c-18.85-.48-22.33-2.36-50.06,10.48Z" fill="#dddabe"/><path d="M17.78,26.6c-.47,0-.89-.3-1.04-.75-.18-.53.07-1.11.58-1.34,24.85-11.51,30.67-11.3,44.73-10.78,1.78.07,3.71.14,5.82.19.56.01,1.02.44,1.07,1s-.32,1.06-.87,1.18l-50.06,10.48c-.08.02-.15.02-.23.02ZM54.75,15.74c-7.84,0-14.1,1.08-27.09,6.57l31.04-6.5c-1.38-.04-2.69-.07-3.95-.07Z" fill="#231815"/><circle cx="44.11" cy="8.89" r="3.74" fill="#dddabe"/><path d="M44.11,5.15c2.06,0,3.74,1.67,3.74,3.74s-1.67,3.74-3.74,3.74-3.74-1.67-3.74-3.74,1.67-3.74,3.74-3.74M44.11,2.95c-3.27,0-5.94,2.66-5.94,5.94s2.66,5.94,5.94,5.94,5.94-2.66,5.94-5.94-2.66-5.94-5.94-5.94h0Z" fill="#231815"/><path d="M71.38,37.79l6.41-6.4c.64-.64.64-1.69,0-2.34l-.5-.5c-.64-.64-1.69-.64-2.34,0l-6.4,6.4-6.41-6.4c-.64-.64-1.69-.64-2.34,0l-.5.5c-.64.64-.64,1.69,0,2.34l6.41,6.4-6.41,6.4c-.64.64-.64,1.69,0,2.34l.5.5c.64.64,1.69.64,2.34,0l6.41-6.4,6.4,6.4c.64.64,1.69.64,2.34,0l.5-.5c.64-.64.64-1.69,0-2.34l-6.41-6.4Z" fill="#d1e8df"/><path d="M76.12,28.07c.42,0,.85.16,1.17.48l.5.5c.64.64.64,1.69,0,2.34l-6.41,6.41,6.41,6.4c.64.64.64,1.69,0,2.34l-.5.5c-.32.32-.74.48-1.17.48s-.85-.16-1.17-.48l-6.4-6.41-6.41,6.41c-.32.32-.74.48-1.17.48s-.85-.16-1.17-.48l-.5-.5c-.64-.64-.64-1.69,0-2.34l6.41-6.4-6.41-6.41c-.64-.64-.64-1.69,0-2.34l.5-.5c.32-.32.74-.48,1.17-.48s.85.16,1.17.48l6.41,6.4,6.4-6.4c.32-.32.74-.48,1.17-.48M76.12,25.87c-1.03,0-2,.4-2.72,1.13l-4.85,4.85-4.85-4.85c-.73-.73-1.69-1.13-2.72-1.13s-2,.4-2.72,1.13l-.5.5c-1.5,1.5-1.5,3.95,0,5.45l4.85,4.85-4.85,4.85c-1.5,1.5-1.5,3.95,0,5.45l.5.5c.73.73,1.69,1.13,2.72,1.13s2-.4,2.72-1.13l4.85-4.85,4.85,4.85c.73.73,1.69,1.13,2.72,1.13s2-.4,2.72-1.13l.5-.5c1.5-1.5,1.5-3.95,0-5.45l-4.85-4.85,4.85-4.85c1.5-1.5,1.5-3.94,0-5.45l-.5-.5c-.73-.73-1.69-1.13-2.72-1.13h0Z" fill="#231815"/><path d="M26.78,37.42c-2.48-2.48-5.46-3.72-8.93-3.72s-6.52,1.23-9.03,3.69c-2.51,2.46-3.77,5.41-3.77,8.84,0,3.9,1.38,7.06,4.14,9.47,2.5,2.18,5.33,3.27,8.47,3.27,3.56,0,6.59-1.23,9.11-3.68,2.5-2.44,3.76-5.41,3.76-8.92s-1.25-6.46-3.74-8.95ZM17.73,53.62c-1.87,0-3.52-.69-4.95-2.07-1.44-1.38-2.15-3.13-2.15-5.27s.69-3.75,2.08-5.13c1.39-1.4,3.08-2.1,5.1-2.1s3.71.7,5.08,2.1c1.38,1.39,2.07,3.12,2.07,5.18s-.7,3.76-2.09,5.18c-1.39,1.4-3.11,2.1-5.13,2.1Z" fill="#7dc1ad"/><path d="M17.79,54.08c-4.27,0-7.75-3.48-7.75-7.75s3.48-7.75,7.75-7.75,7.75,3.48,7.75,7.75-3.48,7.75-7.75,7.75ZM17.79,40.78c-3.06,0-5.55,2.49-5.55,5.55s2.49,5.55,5.55,5.55,5.55-2.49,5.55-5.55-2.49-5.55-5.55-5.55Z" fill="#231815"/><path d="M17.79,59.84c-7.45,0-13.51-6.06-13.51-13.51s6.06-13.51,13.51-13.51,13.51,6.06,13.51,13.51-6.06,13.51-13.51,13.51ZM17.79,35.02c-6.24,0-11.31,5.08-11.31,11.31s5.08,11.31,11.31,11.31,11.31-5.08,11.31-11.31-5.08-11.31-11.31-11.31Z" fill="#231815"/><polygon points="65.19 76.01 23.03 76.01 29.32 71.41 58.89 71.41 65.19 76.01" fill="#dddabe"/><path d="M58.89,71.41l6.3,4.6H23.03l6.3-4.6h29.57M58.89,69.21h-29.57c-.47,0-.92.15-1.3.42l-6.3,4.6c-.77.56-1.09,1.55-.79,2.46.3.91,1.14,1.52,2.09,1.52h42.16c.95,0,1.8-.61,2.09-1.52.3-.91-.03-1.9-.79-2.46l-6.3-4.6c-.38-.28-.83-.42-1.3-.42h0Z" fill="#241903"/><path d="M56.83,54.26c0,7.05,23.44,7.05,23.44,0" fill="#dddabe"/><path d="M68.55,60.65c-6.38,0-12.82-1.98-12.82-6.39,0-.61.49-1.1,1.1-1.1s1.1.49,1.1,1.1c0,2.35,4.67,4.19,10.62,4.19h0c2.89,0,5.67-.45,7.64-1.24,1.35-.54,2.97-1.5,2.97-2.95,0-.61.49-1.1,1.1-1.1s1.1.49,1.1,1.1c0,4.41-6.43,6.39-12.81,6.39h0Z" fill="#231815"/><path d="M4.77,63.48c0,7.48,24.84,7.48,24.84,0" fill="#dddabe"/><path d="M17.19,70.19c-6.73,0-13.52-2.07-13.52-6.71,0-.61.49-1.1,1.1-1.1s1.1.49,1.1,1.1c0,2.57,4.87,4.51,11.32,4.51h0c6.45,0,11.32-1.94,11.32-4.51,0-.61.49-1.1,1.1-1.1s1.1.49,1.1,1.1c0,4.63-6.79,6.71-13.52,6.71h0Z" fill="#231815"/><path d="M17.8,30.22c-.6,0-1.1-.49-1.1-1.09l-.02-3.62c0-.61.49-1.1,1.09-1.11h0c.6,0,1.1.49,1.1,1.09l.02,3.62c0,.61-.49,1.1-1.09,1.11h0Z" fill="#231815"/><path d="M29.61,64.58H4.77c-.61,0-1.1-.49-1.1-1.1s.49-1.1,1.1-1.1h24.84c.61,0,1.1.49,1.1,1.1s-.49,1.1-1.1,1.1Z" fill="#231815"/><path d="M80.27,55.36h-23.44c-.61,0-1.1-.49-1.1-1.1s.49-1.1,1.1-1.1h23.44c.61,0,1.1.49,1.1,1.1s-.49,1.1-1.1,1.1Z" fill="#231815"/><polygon points="47.65 71.62 40.57 71.62 44.29 8.89 47.65 71.62" fill="#dddabe"/><path d="M44.29,8.89l3.36,62.73h-7.08l3.72-62.73M44.29,6.69c-1.16,0-2.13.91-2.2,2.07l-3.72,62.73c-.04.6.18,1.2.59,1.64.42.44.99.69,1.6.69h7.08c.6,0,1.18-.25,1.6-.69.42-.44.63-1.03.6-1.63l-3.36-62.73c-.06-1.17-1.02-2.08-2.19-2.08h0Z" fill="#231815"/><path d="M67.85,22.39c-.61,0-1.1-.49-1.1-1.1v-6.27c0-.61.49-1.1,1.1-1.1s1.1.49,1.1,1.1v6.27c0,.61-.49,1.1-1.1,1.1Z" fill="#231815"/><path d="M17.79,25.5l50.06-10.48c-18.85-.48-22.33-2.36-50.06,10.48Z" fill="#dddabe"/><path d="M17.78,26.6c-.47,0-.89-.3-1.04-.75-.18-.53.07-1.11.58-1.34,24.85-11.51,30.67-11.3,44.73-10.78,1.78.07,3.71.14,5.82.19.56.01,1.02.44,1.07,1s-.32,1.06-.87,1.18l-50.06,10.48c-.08.02-.15.02-.23.02ZM54.75,15.74c-7.84,0-14.1,1.08-27.09,6.57l31.04-6.5c-1.38-.04-2.69-.07-3.95-.07Z" fill="#231815"/><circle cx="44.11" cy="8.89" r="3.74" fill="#dddabe"/><path d="M44.11,5.15c2.06,0,3.74,1.67,3.74,3.74s-1.67,3.74-3.74,3.74-3.74-1.67-3.74-3.74,1.67-3.74,3.74-3.74M44.11,2.95c-3.27,0-5.94,2.66-5.94,5.94s2.66,5.94,5.94,5.94,5.94-2.66,5.94-5.94-2.66-5.94-5.94-5.94h0Z" fill="#231815"/></svg>