<?xml version="1.0" encoding="UTF-8"?><svg id="_レイヤー_1" xmlns="http://www.w3.org/2000/svg" viewBox="0 0 85.04 84.7"><path d="M46.09,68.61c-.16.05-.32.1-.48.15-1.19.34-2.42.51-3.65.51-.32,0-.65-.02-.96-.03-.73-.03-1.41-.06-2.06.06-1.04.2-2,.85-2.59,1.74,3.97-.16,7.73-1.13,11.12-2.74-.02,0-.04,0-.05,0-.43.04-.86.18-1.33.32h0Z" fill="#d3e5a6"/><path d="M28.95,67.17c-.31-.22-.7-.38-1.12-.54-.25-.1-.5-.2-.75-.32-1.09-.52-1.77-1.3-1.93-2.2-.02-.09-.03-.19-.04-.29,0-.01,0-.03,0-.04l-1.44.69c-.58.28-1.3.62-2.13.59-.85-.03-1.69-.46-2.38-1.21-.05-.06-.11-.12-.16-.18-.13-.15-.28-.32-.37-.36-.14-.06-.48.13-.68.45-.16.25-.27.56-.4.89-.03.09-.07.18-.1.27,3.4,2.67,7.42,4.59,11.8,5.52.38-.42.61-.98.6-1.54-.01-.67-.35-1.33-.89-1.72h0Z" fill="#d3e5a6"/><path d="M13.35,57.61c.2.36.46.66.77.88l.08-1.78-1.18-.66c-.05.54.06,1.08.33,1.56h0Z" fill="#b4e0f5"/><path d="M24.04,44.53h0l-3,2.71s.05,0,.08,0c.87-.13,1.74-.72,2.57-1.74.21-.26.5-.65.47-.94,0-.01-.03-.04-.05-.06-.02.01-.04.03-.07.06h0Z" fill="#d3e5a6"/><path d="M7.92,47.29s.02-.08.03-.12c.06-.24.16-.6.48-.9.31-.29.7-.41,1.12-.35.86.12,1.45,1,1.6,1.27.22.37.52.82.89.97.17.07.39,0,.43-.05.02-.06-.03-.27-.07-.43-.06-.27-.14-.62-.1-1,.13-1.3,1.32-1.85,2.19-2.25.11-.05.23-.11.33-.16,1.65-.81,2.68-2.79,2.39-4.61-.05-.35.11-.7.41-.88.3-.18.69-.16.97.05.96.72,2.42.42,3.36-.24,1.12-.79,1.88-2.09,2.52-3.38.4-.8.29-1.03.26-1.06-.04-.05-.16-.14-.26-.21-.15-.11-.34-.24-.51-.42-.35-.38-.52-.94-.42-1.42.08-.41.35-.74.72-.91.26-.11.56-.09.81.06.12.08.52-.06.84-.17.51-.18,1.15-.4,1.83-.26,1.31.27,1.81,1.55,2.17,2.48l.03.07c.09.23.21.44.33.6.3-1.63,1.17-3.14,2.45-4.2.11-.1.23-.19.36-.28.22-.17.43-.34.6-.51-.31-.3-.52-.7-.57-1.15-.1-.78.26-1.52.92-1.89.3-.17.6-.24.84-.3.09-.02.18-.04.26-.07.21-.07.43-.26.51-.45.02-.05.04-.12.02-.16-.05-.11-.28-.25-1.04-.33l-7.2-.78c-.92-.1-2.47-.27-3.37-1.41-.45-.58-.64-1.28-.81-1.9-.19-.73-.34-1.18-.65-1.32-.19-.09-.53-.07-.82-.05l-3.91.2c-6.94,5.25-11.44,13.58-11.44,22.94,0,1.87.18,3.7.52,5.47.13.02.28.02.43-.03.27-.08.47-.26.53-.46h0Z" fill="#d3e5a6"/><path d="M45.47,16.5c.37.2.71.43,1.04.66.61.41,1.2.81,1.8.92.15-.22.33-.43.5-.61.08-.09.19-.21.27-.31-2.09-1.16-4.33-2.07-6.7-2.68-.05.01-.11.02-.16.02-1.08.01-2.44.27-3.25.66.35.04.71.06,1.05.09,1.84.15,3.75.31,5.45,1.25h0Z" fill="#fff"/><path d="M54.66,21.19c-.08,0-.15,0-.23-.02-.86-.2-3.28.3-3.64.76-.15.2-.29.41-.44.63-.47.69-1,1.48-1.83,1.99-.98.6-2.1.66-3.09.71-.74.04-1.43.07-2.01.31-.97.4-1.67,1.48-1.72,2.64-.03.76.32,1.6.89,2.14.3.29.79.62,1.41.57.58-.05,1.24-.38,1.88-.7,1.15-.57,2.57-1.29,3.94-.41.8.52,1.13,1.33,1.41,2.05.14.35.27.68.44.94.36.55,1.02.92,1.71,1.32.73.41,1.48.84,2.07,1.54.55.65.87,1.43,1.18,2.19.46,1.12.79,1.82,1.44,2.03.31.1.73.08,1.17.06.77-.03,1.73-.07,2.5.58.49.42.76,1,.79,1.68.04.9-.37,1.88-1.06,2.57-.44.44-.93.77-1.41,1.09-.46.31-.89.6-1.22.95-.93,1-1.1,2.49-1.27,4.07-.14,1.27-.28,2.58-.83,3.78-.61,1.35-1.63,2.38-2.62,3.37-.96.97-1.87,1.88-2.32,3.02-.35.88-.46,1.96-.56,3.02-.07.74-.15,1.52-.32,2.26,7.82-5.14,12.99-13.99,12.99-24.03,0-8.34-3.57-15.86-9.26-21.11h0Z" fill="#d3e5a6"/><path d="M29.23,40.69c-.02.26-.11.46-.16.57-.43.9-.96,1.47-1.63,1.75-.25.11-.53.16-.8.16-.32,0-.65-.07-.94-.22-.47-.23-.8-.63-.93-1.1-.08-.31.01-.63.24-.85l1.47-1.4c.13-.13.3-.21.48-.23.85-.12,1.49,0,1.88.37.27.25.41.59.38.96h0ZM25.04,46.58c-1.12,1.38-2.35,2.17-3.67,2.37-.16.02-.32.04-.47.04-.36,0-.68-.07-.96-.22-.65-.33-1.01-1.06-.86-1.72.11-.5.46-.81.66-.99l3.13-2.82h0c.56-.5,1.24-.65,1.87-.39.63.25,1.11.9,1.16,1.57.06.9-.43,1.63-.86,2.17h0ZM15.81,59.78c-.01.25-.13.48-.32.63-.16.13-.35.2-.55.2-.04,0-.09,0-.13,0-1.24-.19-2.35-.99-2.99-2.17-.68-1.26-.73-2.74-.13-4.05.1-.22.29-.39.52-.47.23-.08.48-.05.7.07l2.62,1.46c.29.16.46.47.45.8l-.16,3.53h0ZM55.16,53.95c.43-.96.55-2.08.68-3.26.2-1.79.4-3.65,1.73-5.07.47-.5,1-.86,1.52-1.2.43-.29.83-.56,1.15-.88.34-.34.56-.86.55-1.27-.01-.25-.11-.36-.18-.42-.24-.2-.65-.2-1.3-.17-.55.02-1.17.05-1.77-.15-1.46-.47-2.02-1.83-2.51-3.02-.27-.66-.53-1.28-.9-1.73-.39-.46-.98-.8-1.6-1.15-.8-.46-1.71-.97-2.3-1.87-.27-.41-.44-.84-.61-1.26-.22-.55-.4-1.02-.74-1.23-.51-.33-1.17-.02-2.22.5-.75.38-1.6.8-2.51.88-.99.08-1.97-.29-2.76-1.04-.93-.89-1.47-2.22-1.43-3.47.07-1.84,1.19-3.52,2.79-4.18.85-.35,1.73-.4,2.59-.44.85-.04,1.66-.08,2.26-.45.51-.31.9-.88,1.31-1.48.16-.23.32-.47.49-.7.55-.74,1.95-1.2,3.25-1.39-.67-.51-1.36-1-2.08-1.46-.16.24-.33.44-.46.58-.15.17-.31.34-.39.48-.06.11-.25.43-.62.61-.22.11-.44.14-.62.14-.1,0-.2,0-.28-.02-1.05-.14-1.91-.72-2.67-1.22-.31-.21-.61-.41-.91-.58-1.38-.76-3.02-.9-4.76-1.04-.55-.05-1.13-.09-1.69-.16-1.13-.14-1.42-.78-1.5-1.14-.06-.31-.04-.78.42-1.3.24-.27.55-.49.9-.68-.93-.09-1.87-.14-2.83-.14-5.27,0-10.22,1.43-14.48,3.92l.98-.05c.44-.02,1.04-.05,1.62.2,1.09.49,1.39,1.58,1.62,2.46.13.5.26.97.49,1.27.41.52,1.3.66,2.18.75l7.2.78c.56.06,1.87.2,2.41,1.28.25.5.26,1.07.03,1.62-.28.67-.89,1.22-1.59,1.44-.13.04-.25.07-.38.1-.16.04-.3.07-.38.12-.03.02-.06.09-.05.15,0,.04.02.15.24.21.45.12.73.58.63,1.04-.22.95-.96,1.53-1.55,2-.11.08-.21.17-.32.25-1.2,1-1.92,2.53-1.93,4.09,0,.39-.26.72-.63.83-1.34.39-2.45-.74-2.95-2.03l-.03-.07c-.23-.59-.52-1.33-.9-1.41-.21-.04-.56.08-.91.2-.17.06-.35.12-.55.18.07.07.13.14.19.23.8,1.08.11,2.43-.11,2.88-.75,1.49-1.64,3.01-3.08,4.02-1.23.86-2.71,1.16-3.98.86-.21,2.08-1.49,4.03-3.39,4.96-.12.06-.24.12-.37.17-.52.24-1.16.54-1.19.85-.01.1.03.27.07.44.08.36.18.81.03,1.31-.14.48-.48.87-.96,1.1-.3.15-.63.22-.97.22-.28,0-.56-.05-.82-.16-.85-.34-1.37-1.08-1.74-1.7-.03-.06-.07-.11-.11-.16-.26.7-.87,1.25-1.65,1.49-.18.06-.37.09-.55.11,1.44,5.57,4.52,10.49,8.69,14.21.12-.3.25-.6.43-.9.58-.92,1.74-1.6,2.84-1.12.46.2.76.54,1,.82.04.05.09.1.13.15.36.4.78.63,1.16.64.4.01.89-.22,1.31-.42l1.77-.85c.16-.08.42-.2.77-.19,1.15.04,1.32,1.26,1.39,1.72.01.08.02.15.03.22.08.46.7.81.97.93.2.1.42.18.65.27.49.2,1.01.4,1.49.75.98.7,1.6,1.89,1.62,3.11.01.66-.15,1.32-.46,1.9,1.07.15,2.15.24,3.26.28.73-1.78,2.35-3.11,4.24-3.47.84-.16,1.66-.12,2.46-.09.31.01.6.03.89.03,1.08,0,2.13-.14,3.15-.44.15-.04.3-.09.45-.14.53-.17,1.08-.34,1.68-.39.63-.06,1.21.03,1.72.24.34-.79.44-1.79.54-2.89.11-1.17.23-2.38.67-3.49.58-1.47,1.66-2.55,2.71-3.6.92-.92,1.78-1.79,2.26-2.86h0Z" fill="#b4e0f5"/><path d="M50.93,66.34c.17-.75.25-1.52.32-2.26.1-1.05.21-2.14.56-3.02.45-1.13,1.36-2.05,2.32-3.02.99-.99,2.01-2.02,2.62-3.37.54-1.21.69-2.52.83-3.78.17-1.58.34-3.07,1.27-4.07.33-.35.76-.64,1.22-.95.48-.32.97-.65,1.41-1.09.69-.69,1.09-1.67,1.06-2.57-.03-.68-.3-1.26-.79-1.68-.77-.66-1.73-.62-2.5-.58-.44.02-.85.04-1.17-.06-.65-.21-.97-.9-1.44-2.03-.31-.75-.63-1.53-1.18-2.18-.59-.7-1.34-1.13-2.07-1.54-.69-.39-1.35-.77-1.71-1.32-.17-.26-.3-.59-.44-.94-.29-.72-.61-1.54-1.41-2.05-1.37-.88-2.8-.17-3.94.41-.64.32-1.3.65-1.88.7-.63.05-1.12-.28-1.41-.57-.57-.54-.92-1.39-.89-2.14.04-1.16.75-2.24,1.72-2.64.58-.24,1.27-.27,2.01-.31.99-.05,2.11-.11,3.09-.71.83-.51,1.36-1.3,1.83-1.99.15-.22.29-.43.44-.63.36-.46,2.78-.96,3.64-.76.08.02.15.02.23.02,5.69,5.26,9.26,12.78,9.26,21.11,0,10.04-5.17,18.89-12.99,24.03h0ZM17.44,64.92c.03-.09.07-.18.1-.27.12-.33.24-.64.4-.89.2-.31.54-.51.68-.45.1.04.24.21.37.36.05.06.11.12.16.18.68.75,1.53,1.18,2.38,1.21.83.03,1.55-.32,2.13-.59l1.44-.69s0,.03,0,.04c.01.1.03.2.04.29.16.9.85,1.68,1.93,2.2.25.12.51.22.75.32.42.17.81.32,1.12.54.54.39.88,1.05.89,1.72,0,.56-.22,1.12-.6,1.54-4.38-.92-8.4-2.84-11.8-5.52h0ZM47.48,68.28c-3.4,1.61-7.16,2.58-11.12,2.74.59-.89,1.55-1.54,2.59-1.74.64-.12,1.33-.09,2.06-.06.31.01.63.03.96.03.03,0,.06,0,.09,0,1.21,0,2.4-.17,3.56-.51.16-.05.32-.1.48-.15.47-.14.91-.28,1.33-.32.02,0,.04,0,.05,0h0ZM7.35,49.52c.18-.02.37-.05.55-.11.78-.24,1.39-.79,1.65-1.49.04.05.07.1.11.16.36.61.89,1.36,1.74,1.7.26.1.54.16.82.16.33,0,.67-.07.97-.22.48-.23.82-.62.96-1.1.15-.5.05-.95-.03-1.31-.04-.17-.08-.34-.07-.44.03-.31.67-.61,1.19-.85.12-.06.25-.12.37-.17,1.89-.93,3.18-2.88,3.39-4.96,1.28.29,2.76,0,3.98-.86,1.44-1.01,2.33-2.53,3.08-4.02.22-.45.9-1.8.11-2.88-.06-.08-.13-.16-.19-.23.2-.05.38-.12.55-.18.34-.12.69-.24.91-.2.38.08.67.81.9,1.41l.03.08c.5,1.29,1.61,2.42,2.95,2.03.37-.11.62-.45.63-.83,0-1.56.73-3.09,1.93-4.09.1-.09.21-.17.32-.25.6-.47,1.34-1.05,1.55-2,.11-.46-.17-.92-.63-1.04-.23-.06-.24-.17-.24-.21,0-.06.01-.13.05-.15.08-.05.23-.08.38-.12.13-.03.26-.06.38-.1.7-.22,1.31-.77,1.59-1.44.23-.55.22-1.12-.03-1.62-.54-1.08-1.85-1.22-2.41-1.28l-7.2-.78c-.88-.09-1.77-.23-2.18-.75-.23-.3-.36-.77-.49-1.27-.24-.88-.53-1.97-1.62-2.46-.58-.26-1.18-.23-1.62-.2l-.98.05c4.25-2.49,9.2-3.92,14.48-3.92.95,0,1.9.05,2.83.14-.35.19-.66.42-.9.68-.46.52-.48.99-.42,1.3.07.37.37,1,1.5,1.14.56.07,1.13.12,1.69.16,1.74.14,3.38.28,4.76,1.04.3.17.6.37.91.58.76.51,1.61,1.09,2.67,1.22.08.01.17.02.28.02.19,0,.4-.03.62-.14.25-.12.45-.32.62-.61.08-.14.24-.31.39-.48.13-.14.3-.34.46-.58.71.46,1.41.94,2.08,1.46-1.3.19-2.7.66-3.25,1.39-.17.23-.33.47-.49.7-.41.6-.79,1.17-1.31,1.48-.6.37-1.41.41-2.26.45-.85.04-1.73.09-2.59.44-1.6.66-2.72,2.34-2.79,4.18-.05,1.25.5,2.58,1.43,3.47.79.75,1.77,1.12,2.76,1.04.91-.08,1.76-.5,2.51-.88,1.04-.52,1.71-.83,2.22-.5.33.21.52.68.74,1.23.17.42.34.85.61,1.26.59.9,1.5,1.41,2.3,1.87.62.35,1.21.69,1.6,1.15.37.44.63,1.07.9,1.73.49,1.19,1.05,2.55,2.51,3.02.61.2,1.23.17,1.77.15.65-.03,1.06-.03,1.3.17.07.06.17.17.18.42.02.41-.21.93-.55,1.27-.32.32-.72.59-1.15.88-.52.35-1.05.71-1.52,1.2-1.33,1.42-1.53,3.28-1.73,5.07-.13,1.19-.25,2.3-.68,3.26-.48,1.06-1.34,1.93-2.26,2.86-1.04,1.05-2.13,2.14-2.71,3.6-.44,1.11-.56,2.32-.67,3.49-.11,1.1-.21,2.11-.54,2.89-.5-.21-1.09-.3-1.72-.24-.61.06-1.15.23-1.68.39-.15.05-.3.09-.45.14-1.03.3-2.08.45-3.15.44-.29,0-.58-.02-.89-.03-.8-.04-1.62-.07-2.46.09-1.89.36-3.51,1.69-4.24,3.47-1.1-.03-2.19-.12-3.26-.28.3-.58.47-1.24.46-1.9-.02-1.21-.64-2.41-1.62-3.11-.48-.35-.99-.55-1.49-.75-.23-.09-.45-.18-.65-.27-.26-.13-.88-.47-.97-.93-.01-.07-.02-.15-.03-.22-.06-.46-.23-1.69-1.39-1.72-.34-.01-.61.12-.77.19l-1.77.85c-.43.2-.92.43-1.31.42-.37-.01-.79-.25-1.16-.64-.04-.05-.09-.1-.13-.15-.24-.28-.54-.62-1-.82-1.11-.48-2.27.2-2.84,1.12-.19.3-.32.6-.44.9-4.17-3.73-7.24-8.64-8.69-14.21h0ZM17.87,19.37l3.91-.2c.29-.02.63-.03.82.05.31.14.45.59.65,1.32.17.62.35,1.32.81,1.9.9,1.15,2.44,1.31,3.37,1.41l7.2.78c.77.08.99.23,1.04.33.02.04,0,.11-.02.16-.08.2-.3.39-.51.45-.09.03-.17.05-.26.07-.24.06-.54.13-.84.3-.66.37-1.02,1.11-.92,1.89.06.45.26.84.57,1.15-.17.17-.38.34-.6.51-.12.09-.24.19-.36.28-1.28,1.06-2.15,2.58-2.45,4.2-.12-.16-.24-.37-.33-.6l-.03-.07c-.36-.93-.86-2.21-2.17-2.48-.68-.14-1.32.08-1.83.26-.32.11-.71.25-.84.17-.24-.15-.55-.17-.81-.06-.37.16-.64.5-.72.91-.1.49.06,1.05.42,1.42.17.18.36.31.51.42.1.07.22.16.26.21.03.04.14.26-.26,1.06-.65,1.29-1.4,2.59-2.52,3.38-.94.66-2.4.96-3.36.24-.28-.21-.67-.23-.97-.05-.3.18-.47.53-.41.88.28,1.82-.75,3.8-2.39,4.61-.11.05-.22.11-.33.16-.87.4-2.05.96-2.19,2.25-.04.38.04.72.1,1,.03.16.08.37.07.43-.04.05-.25.12-.43.05-.36-.15-.66-.59-.89-.97-.16-.27-.74-1.14-1.6-1.27-.41-.06-.81.07-1.12.35-.31.29-.41.66-.48.89-.01.04-.02.08-.03.12-.06.2-.27.38-.53.46-.15.05-.3.05-.43.03-.34-1.77-.52-3.6-.52-5.47,0-9.36,4.49-17.68,11.44-22.94h0ZM42.22,14.49c.06,0,.11,0,.16-.02,2.36.61,4.61,1.52,6.7,2.68-.08.1-.19.22-.27.31-.16.18-.34.39-.5.61-.6-.12-1.19-.51-1.8-.92-.33-.22-.68-.46-1.04-.66-1.71-.94-3.61-1.1-5.45-1.25-.35-.03-.7-.06-1.05-.09.81-.4,2.17-.65,3.25-.66h0ZM35.18,11.82c-16.81,0-30.49,13.68-30.49,30.49,0,2.04.2,4.04.59,5.97-.01.17.02.34.1.49,1.46,6.73,5.14,12.64,10.25,16.92.08.12.18.23.32.3.03.02.07.03.1.04,5.24,4.23,11.89,6.77,19.13,6.77,16.81,0,30.49-13.68,30.49-30.49s-13.68-30.49-30.49-30.49h0Z" fill="#040000"/><path d="M14.12,58.49c-.31-.22-.58-.52-.77-.88-.26-.49-.37-1.02-.33-1.56l1.18.66-.08,1.78h0ZM15.53,55.45l-2.62-1.46c-.21-.12-.46-.14-.7-.07-.23.08-.42.25-.52.47-.6,1.32-.55,2.79.13,4.05.64,1.17,1.75,1.98,2.99,2.17.04,0,.09,0,.13,0,.2,0,.4-.07.55-.2.19-.16.31-.39.32-.63l.16-3.53c.02-.33-.16-.64-.45-.8h0Z" fill="#b4e0f5"/><path d="M25.7,42.95c.29.14.62.22.94.22.27,0,.55-.05.8-.16.67-.28,1.2-.85,1.63-1.75.05-.11.15-.31.16-.57.02-.37-.11-.71-.39-.96-.39-.36-1.03-.49-1.88-.37-.18.03-.35.11-.48.23l-1.47,1.4c-.23.22-.32.55-.24.85.13.48.46.87.93,1.1h0Z" fill="#040000"/><path d="M24.04,44.53s.06-.04.07-.06c.02.02.04.05.05.06.02.3-.26.68-.48.94-.84,1.03-1.7,1.62-2.57,1.74-.03,0-.05,0-.08,0l3-2.71h0ZM19.94,48.77c.28.15.6.22.96.22.15,0,.3-.01.47-.04,1.31-.19,2.55-.99,3.67-2.37.43-.53.93-1.26.86-2.17-.05-.67-.52-1.32-1.16-1.57-.63-.25-1.31-.11-1.87.39l-3.13,2.82c-.2.18-.55.49-.66.99-.15.66.21,1.39.86,1.72h0Z" fill="#040000"/><polygon points="67.09 3.83 69.38 11.6 75.56 14.47 69.38 17.35 67.09 25.11 64.8 17.35 58.61 14.47 64.8 11.6 67.09 3.83" fill="#fff45c"/><path d="M67.09,26.01c-.4,0-.75-.26-.86-.65l-2.17-7.38-5.82-2.7c-.32-.15-.52-.47-.52-.82s.2-.67.52-.82l5.82-2.7,2.17-7.38c.11-.38.46-.65.86-.65h0c.4,0,.75.26.86.65l2.17,7.38,5.82,2.7c.32.15.52.47.52.82s-.2.67-.52.82l-5.82,2.7-2.17,7.38c-.11.38-.46.65-.86.65ZM60.75,14.47l4.43,2.06c.24.11.41.31.48.56l1.43,4.84,1.42-4.84c.07-.25.25-.45.48-.56l4.43-2.06-4.43-2.06c-.24-.11-.41-.31-.48-.56l-1.42-4.84-1.43,4.84c-.07.25-.25.45-.48.56l-4.43,2.06Z" fill="#231815"/><polygon points="74.52 67.38 64.13 79.94 27.61 78.67 27.61 61.47 42.71 49.13 74.52 49.78 74.52 67.38" fill="#dcdddd"/><path d="M61.42,55.37l-.54.64c-.52.62-1.79,1.11-2.81,1.06l-14.38-.61c-.95-.04-1.12-.57-.42-1.15l.74-.61c.68-.56,1.95-.99,2.86-.95l13.7.49c.96.03,1.36.54.86,1.13Z" fill="#9fa0a0"/><path d="M58.21,57.98c-.06,0-.12,0-.17,0l-14.38-.61c-1.16-.05-1.53-.64-1.64-.99-.09-.28-.21-1.01.69-1.76l.73-.61c.85-.7,2.33-1.21,3.46-1.16l13.7.49c.9.03,1.56.39,1.83.99.23.52.12,1.11-.31,1.62l-.54.64c-.68.81-2.1,1.39-3.36,1.39ZM44.34,55.59l13.77.58c.78.05,1.77-.37,2.08-.74l.25-.3-13.61-.49c-.69-.03-1.74.32-2.25.75l-.24.2Z" fill="#231815"/><path d="M74.52,50.88h-.02l-31.8-.65c-.61-.01-1.09-.51-1.08-1.12.01-.61.54-1.1,1.12-1.08l31.8.65c.61.01,1.09.51,1.08,1.12-.01.6-.5,1.08-1.1,1.08Z" fill="#231815"/><path d="M64.26,63.85h-.04l-36.65-1.28c-.61-.02-1.08-.53-1.06-1.14.02-.61.5-1.08,1.14-1.06l36.64,1.28c.61.02,1.08.53,1.06,1.14-.02.59-.51,1.06-1.1,1.06Z" fill="#231815"/><path d="M64.25,63.85c-.24,0-.48-.08-.68-.24-.48-.38-.56-1.07-.18-1.54l10.26-12.97c.38-.48,1.07-.56,1.54-.18s.56,1.07.18,1.54l-10.26,12.97c-.22.27-.54.42-.86.42Z" fill="#231815"/><path d="M27.61,62.57c-.32,0-.63-.14-.85-.4-.38-.47-.31-1.16.16-1.55l15.1-12.34c.47-.38,1.16-.32,1.55.16s.31,1.16-.16,1.55l-15.1,12.34c-.2.17-.45.25-.7.25Z" fill="#231815"/><path d="M64.13,81.04c-.61,0-1.1-.49-1.1-1.1v-17.19c0-.61.49-1.1,1.1-1.1s1.1.49,1.1,1.1v17.19c0,.61-.49,1.1-1.1,1.1Z" fill="#231815"/><path d="M27.61,79.77c-.61,0-1.1-.49-1.1-1.1v-17.2c0-.61.49-1.1,1.1-1.1s1.1.49,1.1,1.1v17.2c0,.61-.49,1.1-1.1,1.1Z" fill="#231815"/><path d="M74.52,68.49c-.61,0-1.1-.49-1.1-1.1v-17.5c0-.61.49-1.1,1.1-1.1s1.1.49,1.1,1.1v17.5c0,.61-.49,1.1-1.1,1.1Z" fill="#231815"/><rect x="55.41" y="33.92" width="9.08" height="19.68" transform="translate(68.82 -29.93) rotate(60.74)" fill="#fff"/><path d="M66.32,34.99l4.44,7.92-17.17,9.62-4.44-7.92,17.17-9.62M66.32,32.79c-.37,0-.74.09-1.08.28l-17.17,9.62c-1.06.59-1.44,1.93-.84,2.99l4.44,7.92c.29.51.76.88,1.32,1.04.2.06.4.08.6.08.37,0,.74-.09,1.08-.28l17.17-9.62c1.06-.59,1.44-1.93.84-2.99l-4.44-7.92c-.29-.51-.76-.88-1.32-1.04-.2-.06-.4-.08-.6-.08h0Z" fill="#231815"/><path d="M54.75,39.5c1.91-1.09,1.33-.71,3.44-2.02,4.38-3.56,6.39-3.79,7.12-2.87.84,1.06,2,1.69,1.5,2.75-.59,1.26-2.38,2.92-2.9,3.27,0,0-2.52,1.91-1.54,3.1.16.02,3.53-.75,5.2-2.05,2.01-1.57,4.09-2.35,4.73-2.76,2.42-1.57,3.2-2.65,4.2-3.26-1.3-2.89-.79-2.31-1.61-4.53-1.3-.23-2.14-.23-4.12-.44-1.65-.23-8.59.46-9.94,1.19-2.35,1.61-2.47,2.83-4.53,4.83-.31.37-1.94,1.79-1.56,2.81Z" fill="#f9d5ce"/><path d="M69.86,30.63c.39,0,.7.01.93.05,1.98.21,2.82.21,4.12.44.82,2.22.31,1.64,1.61,4.53-1,.61-1.78,1.69-4.2,3.26-.64.41-2.72,1.19-4.73,2.76-1.65,1.29-4.95,2.05-5.2,2.05,0,0,0,0,0,0-.98-1.19,1.54-3.1,1.54-3.1.51-.35,2.31-2.01,2.9-3.27.5-1.06-.66-1.69-1.5-2.75-.23-.28-.57-.46-1.08-.46-1.13,0-3.02.87-6.05,3.33-2.11,1.31-1.53.93-3.44,2.02-.38-1.02,1.25-2.44,1.56-2.81,2.05-2,2.18-3.21,4.53-4.83,1.17-.63,6.53-1.23,9.02-1.23M69.86,28.43c-2.11,0-8.26.52-10.06,1.5-.07.04-.14.08-.2.12-1.68,1.16-2.45,2.18-3.2,3.17-.46.61-.9,1.19-1.62,1.89-.05.05-.1.1-.14.15-.02.02-.07.07-.12.13-.78.81-2.62,2.7-1.83,4.86.22.61.7,1.09,1.31,1.31.24.09.5.13.75.13.38,0,.75-.1,1.09-.29.54-.31.87-.5,1.13-.64.7-.39.87-.49,2.38-1.42.08-.05.16-.1.23-.16,2.55-2.08,3.85-2.63,4.38-2.78.17.18.33.35.48.5.02.02.03.04.05.05-.54.72-1.47,1.61-1.81,1.86-.02.01-.07.05-.08.06-.56.42-2.39,1.95-2.62,3.83-.1.88.15,1.74.71,2.42.35.43.85.71,1.4.78.1.01.2.02.3.02.71,0,4.5-.92,6.55-2.52,1.24-.97,2.57-1.62,3.45-2.05.46-.23.83-.41,1.13-.6,1.57-1.02,2.52-1.86,3.22-2.47.38-.34.69-.61.93-.76.94-.58,1.31-1.77.86-2.78-.71-1.57-.8-1.95-.94-2.47-.11-.42-.24-.94-.61-1.92-.27-.73-.91-1.27-1.68-1.4-.91-.16-1.61-.22-2.49-.3-.49-.04-1.04-.09-1.75-.16-.31-.04-.7-.06-1.19-.06h0Z" fill="#231815"/><rect x="75.19" y="27.85" width="2.64" height="10.16" transform="translate(-6.75 35.31) rotate(-24.93)" fill="#7dc1ad"/><path d="M75.56,27.77l4.28,9.22-2.39,1.11-4.28-9.22,2.39-1.11M75.56,25.56c-.31,0-.63.07-.93.21l-2.39,1.11c-.53.25-.94.69-1.14,1.24-.2.55-.17,1.15.07,1.68l4.28,9.22c.25.53.69.94,1.24,1.14.24.09.5.13.76.13.32,0,.63-.07.93-.2l2.39-1.11c1.1-.51,1.58-1.82,1.07-2.92l-4.28-9.22c-.37-.8-1.17-1.27-2-1.27h0Z" fill="#231815"/></svg>