<?xml version="1.0" encoding="UTF-8"?><svg id="_レイヤー_1" xmlns="http://www.w3.org/2000/svg" xmlns:xlink="http://www.w3.org/1999/xlink" viewBox="0 0 85.04 85.04"><defs><linearGradient id="_新規グラデーションスウォッチ_2" x1="13.45" y1="26.58" x2="28.94" y2="26.58" gradientUnits="userSpaceOnUse"><stop offset="0" stop-color="#6cc3b7"/><stop offset="1" stop-color="#6cc3b7"/></linearGradient><linearGradient id="_新規グラデーションスウォッチ_2-2" x1="43.12" y1="28.86" x2="75.06" y2="28.86" xlink:href="#_新規グラデーションスウォッチ_2"/><linearGradient id="_新規グラデーションスウォッチ_2-3" x1="44.41" y1="23.04" x2="66.73" y2="23.04" xlink:href="#_新規グラデーションスウォッチ_2"/><linearGradient id="_新規グラデーションスウォッチ_2-4" x1="44.41" y1="33.01" x2="66.73" y2="33.01" xlink:href="#_新規グラデーションスウォッチ_2"/><linearGradient id="_新規グラデーションスウォッチ_2-5" x1="8.78" y1="52.35" x2="33.61" y2="52.35" xlink:href="#_新規グラデーションスウォッチ_2"/></defs><path d="M21.2,34.02c4.28,0,7.74-3.33,7.74-7.45s-3.47-7.45-7.74-7.45-7.74,3.33-7.74,7.45,3.47,7.45,7.74,7.45h0Z" fill="url(#_新規グラデーションスウォッチ_2)"/><path d="M21.2,35.12c-4.87,0-8.84-3.83-8.84-8.55s3.97-8.55,8.84-8.55,8.84,3.83,8.84,8.55-3.97,8.55-8.84,8.55ZM21.2,20.23c-3.66,0-6.64,2.85-6.64,6.35s2.98,6.35,6.64,6.35,6.64-2.85,6.64-6.35-2.98-6.35-6.64-6.35Z" fill="#231815"/><polygon points="75.06 39.86 43.12 42.28 43.12 17.85 75.06 15.43 75.06 39.86" fill="url(#_新規グラデーションスウォッチ_2-2)"/><path d="M75.06,15.43v24.43l-31.94,2.43v-24.43l31.94-2.43M75.06,13.23c-.06,0-.11,0-.17,0l-31.94,2.43c-1.15.09-2.03,1.04-2.03,2.19v24.43c0,.61.26,1.2.7,1.61.41.38.94.59,1.5.59.06,0,.11,0,.17,0l31.94-2.43c1.15-.09,2.03-1.04,2.03-2.19V15.43c0-.61-.26-1.2-.7-1.61-.41-.38-.94-.59-1.5-.59h0Z" fill="#231815"/><polygon points="71.31 36.19 39.38 38.61 39.38 14.18 71.31 11.76 71.31 36.19" fill="#fff"/><path d="M71.31,11.76v24.43l-31.94,2.43V14.18l31.94-2.43M71.31,9.56c-.06,0-.11,0-.17,0l-31.94,2.43c-1.15.09-2.03,1.04-2.03,2.19v24.43c0,.61.26,1.2.7,1.61.41.38.94.59,1.5.59.06,0,.11,0,.17,0l31.94-2.43c1.15-.09,2.03-1.04,2.03-2.19V11.76c0-.61-.26-1.2-.7-1.61-.41-.38-.94-.59-1.5-.59h0Z" fill="#231815"/><path d="M54.78,18.15c1.06-.08,1.67-.14,2.25-.22.02,0,.05,0,.08,0,.17-.01.17,0,.15.5-.01.26-.03.31-.13.31,0,0-.02,0-.02,0-.38,0-.6.03-2.27.15-.61.05-.92.07-1.45.13-.04,0-.09,0-.17.01-.19.01-.21.02-.33.05-.03,0-.05.01-.06.01-.06,0-.1-.02-.11-.08-.02-.13-.03-.36-.03-.6,0-.09.08-.17.16-.17.41,0,.86-.02,1.93-.1Z"/><polygon points="44.49 24.24 44.41 23.73 66.65 21.85 66.73 22.36 44.49 24.24" fill="url(#_新規グラデーションスウォッチ_2-3)"/><polygon points="44.49 34.2 44.41 33.69 66.65 31.81 66.73 32.32 44.49 34.2" fill="url(#_新規グラデーションスウォッチ_2-4)"/><path d="M47.29,18.85c1.06-.08,1.67-.14,2.25-.22.02,0,.05,0,.08,0,.17-.01.17,0,.15.5-.01.26-.03.31-.13.31,0,0-.02,0-.02,0-.38,0-.6.03-2.27.15-.61.05-.92.07-1.45.13-.04,0-.09,0-.17.01-.19.01-.21.02-.33.05-.03,0-.05.01-.06.01-.06,0-.1-.02-.11-.08-.02-.13-.03-.36-.03-.6,0-.09.08-.17.16-.17.41,0,.86-.02,1.93-.1Z"/><path d="M62.5,17.56c1.06-.08,1.67-.14,2.25-.22.02,0,.05,0,.08,0,.17-.01.17,0,.15.5-.01.26-.03.31-.13.31,0,0-.02,0-.02,0-.38,0-.6.03-2.27.15-.61.05-.92.07-1.45.13-.04,0-.09,0-.17.01-.19.01-.21.02-.33.05-.03,0-.05.01-.06.01-.06,0-.1-.02-.11-.08-.02-.13-.03-.36-.03-.6,0-.09.08-.17.16-.17.41,0,.86-.02,1.93-.1Z"/><path d="M54.88,28.23c1.06-.08,1.67-.14,2.25-.22.02,0,.05,0,.08,0,.17-.01.17,0,.15.5-.01.26-.03.31-.13.31,0,0-.02,0-.02,0-.38,0-.6.03-2.27.15-.61.05-.92.07-1.45.13-.04,0-.09,0-.17.01-.19.01-.21.02-.33.05-.03,0-.05.01-.06.01-.06,0-.1-.02-.11-.08-.02-.13-.03-.36-.03-.6,0-.09.08-.17.16-.17.41,0,.86-.02,1.93-.1Z"/><path d="M47.4,28.93c1.06-.08,1.67-.14,2.25-.22.02,0,.05,0,.08,0,.17-.01.17,0,.15.5-.01.26-.03.31-.13.31,0,0-.02,0-.02,0-.38,0-.6.03-2.27.15-.61.05-.92.07-1.45.13-.04,0-.09,0-.17.01-.19.01-.21.02-.33.05-.03,0-.05.01-.06.01-.06,0-.1-.02-.11-.08-.02-.13-.03-.36-.03-.6,0-.09.08-.17.16-.17.41,0,.86-.02,1.93-.1Z"/><path d="M62.6,27.64c1.06-.08,1.67-.14,2.25-.22.02,0,.05,0,.08,0,.17-.01.17,0,.15.5-.01.26-.03.31-.13.31,0,0-.02,0-.02,0-.38,0-.6.03-2.27.15-.61.05-.92.07-1.45.13-.04,0-.09,0-.17.01-.19.01-.21.02-.33.05-.03,0-.05.01-.06.01-.06,0-.1-.02-.11-.08-.02-.13-.03-.36-.03-.6,0-.09.08-.17.16-.17.41,0,.86-.02,1.93-.1Z"/><path d="M33.61,53.19v-5.48c0-5.72-4.68-10.41-10.41-10.41h-4.01c-5.72,0-10.41,4.68-10.41,10.41v19.68" fill="url(#_新規グラデーションスウォッチ_2-5)"/><path d="M8.78,68.5c-.61,0-1.1-.49-1.1-1.1v-19.68c0-6.35,5.16-11.51,11.51-11.51h4.01c6.35,0,11.51,5.16,11.51,11.51v5.48c0,.61-.49,1.1-1.1,1.1s-1.1-.49-1.1-1.1v-5.48c0-5.13-4.18-9.31-9.31-9.31h-4.01c-5.13,0-9.31,4.18-9.31,9.31v19.68c0,.61-.49,1.1-1.1,1.1Z" fill="#231815"/><path d="M46.5,64.93c2.69,0,4.87-2.1,4.87-4.68s-2.18-4.68-4.87-4.68-4.87,2.1-4.87,4.68,2.18,4.68,4.87,4.68h0Z" fill="#d1e8df"/><path d="M46.5,66.03c-3.29,0-5.97-2.59-5.97-5.78s2.68-5.78,5.97-5.78,5.97,2.59,5.97,5.78-2.68,5.78-5.97,5.78ZM46.5,56.67c-2.08,0-3.77,1.61-3.77,3.58s1.69,3.58,3.77,3.58,3.77-1.61,3.77-3.58-1.69-3.58-3.77-3.58Z" fill="#231815"/><path d="M65.93,62.72c3.41,0,6.18-2.66,6.18-5.95s-2.77-5.95-6.18-5.95-6.18,2.66-6.18,5.95,2.77,5.95,6.18,5.95h0Z" fill="#d1e8df"/><path d="M65.93,63.82c-4.02,0-7.28-3.16-7.28-7.05s3.27-7.05,7.28-7.05,7.28,3.16,7.28,7.05-3.27,7.05-7.28,7.05ZM65.93,51.93c-2.8,0-5.08,2.17-5.08,4.85s2.28,4.85,5.08,4.85,5.08-2.17,5.08-4.85-2.28-4.85-5.08-4.85Z" fill="#231815"/><path d="M55.34,79.24v-3.9c0-4.08-3.34-7.41-7.41-7.41h-2.86c-4.08,0-7.41,3.34-7.41,7.41v3.9" fill="#d1e8df"/><path d="M56.44,79.24h-2.2v-3.9c0-3.48-2.83-6.31-6.31-6.31h-2.86c-3.48,0-6.31,2.83-6.31,6.31v3.9h-2.2v-3.9c0-4.69,3.82-8.51,8.51-8.51h2.86c4.69,0,8.51,3.82,8.51,8.51v3.9Z" fill="#231815"/><path d="M76.51,79.24v-4.67c0-4.88-3.99-8.87-8.87-8.87h-3.42c-4.88,0-8.87,3.99-8.87,8.87v4.67" fill="#d1e8df"/><path d="M77.61,79.24h-2.2v-4.67c0-4.29-3.49-7.77-7.77-7.77h-3.42c-4.29,0-7.77,3.49-7.77,7.77v4.67h-2.2v-4.67c0-5.5,4.47-9.97,9.97-9.97h3.42c5.5,0,9.97,4.47,9.97,9.97v4.67Z" fill="#231815"/></svg>