<?xml version="1.0" encoding="UTF-8"?><svg id="_レイヤー_1" xmlns="http://www.w3.org/2000/svg" viewBox="0 0 85.04 85.04"><circle cx="42.52" cy="42.52" r="34.9" fill="#040000"/><path d="M37.89,37.53v-1.89c-.63-.09-1.28-.14-1.94-.14-7.92,0-14.37,6.45-14.37,14.37,0,4.86,2.43,9.16,6.14,11.77-2.39-2.57-3.81-6.01-3.81-9.79,0-7.81,6.22-14.14,13.98-14.32Z" fill="#6bc5cb"/><path d="M38.23,58.45c3.54,0,6.46-2.85,6.59-6.36l.03-31.25h5.67s0-.04,0-.04c-.12-.64-.18-1.3-.18-1.98h-7.81v31.29c-.14,3.5-3.03,6.32-6.56,6.32-1.1,0-2.13-.27-3.04-.75,1.19,1.65,3.13,2.78,5.32,2.78Z" fill="#6bc5cb"/><path d="M61.18,31.51v-1.83c-2.18,0-4.21-.65-5.92-1.76,1.52,1.74,3.58,3.09,5.92,3.59Z" fill="#6bc5cb"/><path d="M55.27,27.92c-1.66-1.91-2.67-4.4-2.67-7.12h-2.13c.55,2.97,2.35,5.53,4.8,7.12Z" fill="#e73554"/><path d="M35.95,43.24c-3.62,0-6.61,3-6.61,6.62,0,2.52,1.47,4.71,3.56,5.81-.78-1.08-1.24-2.4-1.24-3.83,0-3.62,2.94-6.56,6.56-6.56.68,0,1.32.11,1.94.3v-7.97c-.63-.09-1.28-.14-1.94-.14-.11,0-.23,0-.34,0h-.03s-.02,6.04-.02,6.04c-.61-.19-1.21-.28-1.89-.28Z" fill="#e73554"/><path d="M61.18,31.42h-.04s0,6.02,0,6.02c-4.05,0-7.81-1.33-10.87-3.53v15.95c0,7.92-6.4,14.33-14.32,14.33-3.06,0-5.9-.93-8.24-2.56,2.63,2.82,6.37,4.59,10.51,4.59,7.92,0,14.37-6.45,14.37-14.37v-15.87c3.06,2.2,6.81,3.49,10.86,3.49v-7.81c-.78,0-1.54-.08-2.28-.24Z" fill="#e73554"/><path d="M50.32,49.86v-15.87c3.06,2.2,6.81,3.49,10.86,3.49v-6.07c-2.34-.5-4.4-1.76-5.92-3.5-2.45-1.6-4.21-4.15-4.76-7.12h-5.72v31.29c-.14,3.5-3.03,6.32-6.56,6.32-2.19,0-4.13-1.08-5.32-2.74-2.09-1.1-3.52-3.29-3.52-5.81,0-3.62,2.94-6.56,6.56-6.56.68,0,1.32.11,1.94.3v-6.12c-7.77.18-14.03,6.55-14.03,14.36,0,3.78,1.47,7.22,3.86,9.79,2.33,1.64,5.17,2.6,8.24,2.6,7.92,0,14.37-6.45,14.37-14.37Z" fill="#fff"/></svg>