<?xml version="1.0" encoding="UTF-8"?><svg id="_レイヤー_1" xmlns="http://www.w3.org/2000/svg" viewBox="0 0 85.04 85.04"><path d="M75.89,25.75c-.8-3-3.16-5.36-6.16-6.16-5.43-1.46-27.21-1.46-27.21-1.46,0,0-21.78,0-27.21,1.46-3,.8-5.36,3.16-6.16,6.16-1.46,5.43-1.46,16.76-1.46,16.76,0,0,0,11.33,1.46,16.76.8,3,3.16,5.36,6.16,6.16,5.43,1.46,27.21,1.46,27.21,1.46,0,0,21.78,0,27.21-1.46,3-.8,5.36-3.16,6.16-6.16,1.46-5.43,1.46-16.76,1.46-16.76,0,0,0-11.33-1.46-16.76Z" fill="#e72410"/><polygon points="35.56 52.96 53.65 42.52 35.56 32.07 35.56 52.96" fill="#fff"/></svg>