<?xml version="1.0" encoding="UTF-8"?>
<svg id="_レイヤー_1" xmlns="http://www.w3.org/2000/svg" width="30mm" height="30mm" version="1.1" viewBox="0 0 85.04 85.04">
  <!-- Generator: Adobe Illustrator 29.6.1, SVG Export Plug-In . SVG Version: 2.1.1 Build 9)  -->
  <defs>
    <style>
      .st0 {
        fill: none;
      }

      .st1 {
        stroke-width: 1.04px;
      }

      .st1, .st2, .st3 {
        stroke: #231815;
        stroke-linecap: round;
      }

      .st1, .st4 {
        fill: #92cdab;
      }

      .st1, .st3 {
        stroke-miterlimit: 10;
      }

      .st5, .st2 {
        fill: #c3e2d2;
      }

      .st2 {
        stroke-linejoin: round;
        stroke-width: 1.02px;
      }

      .st6 {
        fill: #3d9770;
      }

      .st7 {
        fill: #040000;
      }

      .st8, .st3 {
        fill: #fff;
      }

      .st3 {
        stroke-width: .68px;
      }

      .st9 {
        fill: #86c8a5;
      }
    </style>
  </defs>
  <g>
    <g>
      <path class="st8" d="M17.41,54.69c-.12,3.38-.98,6.35-2.29,8.39l7.22-3.22.32-9.24-6.76-4.07c1.03,2.1,1.61,4.96,1.5,8.14Z"/>
      <path class="st8" d="M13.71,45.22c-.47-.5-.98-.86-1.53-1.04-.18-.06-.35-.1-.54-.12-.06,0-.12-.02-.18-.02-.03,0-.06,0-.09,0-2.79,0-5.29,4.66-5.49,10.25-.19,5.65,2.03,10.51,4.86,10.61.06,0,.11,0,.17,0,.18,0,.36-.03.54-.07.48-.11.95-.36,1.4-.73,1.88-1.57,3.32-5.25,3.47-9.44.14-4.03-.96-7.64-2.62-9.43ZM12.28,56.79c-.17.2-.35.37-.56.48-.17.09-.35.15-.55.17-.04,0-.08.02-.12.02-.02,0-.03,0-.05,0-.6-.02-1.14-.44-1.47-1.15-.27-.57-.4-1.3-.37-2.06.06-1.77.92-3.08,2.01-3.08.02,0,.03,0,.05,0,.06,0,.11.03.17.03.19.03.37.1.53.21.19.12.37.29.52.5.09.12.17.25.24.41.27.57.4,1.3.37,2.06-.03,1.01-.33,1.86-.79,2.41Z"/>
      <path d="M12.7,52.31c-.07-.15-.16-.28-.24-.41-.15-.21-.33-.38-.52-.5-.17-.11-.35-.18-.53-.21-.06,0-.11-.03-.17-.03-.02,0-.03,0-.05,0-1.09,0-1.95,1.31-2.01,3.08-.03.76.11,1.49.37,2.06.33.71.87,1.13,1.47,1.15.02,0,.03,0,.05,0,.04,0,.08-.01.12-.02.19-.02.37-.07.55-.17.2-.11.39-.28.56-.48.45-.55.75-1.4.79-2.41.03-.76-.11-1.49-.37-2.06Z"/>
      <path d="M27.1,49.83l-3.48-.12c-.11,0-.21.02-.3.06l-8.84-5.33c-.86-.91-1.88-1.44-2.98-1.48-3.51-.12-6.47,4.84-6.69,11.29s2.37,11.6,5.9,11.72c.04,0,.08,0,.13,0,.92,0,1.8-.36,2.6-.98l9.65-4.31c.05-.02.09-.07.13-.11.01,0,.02,0,.03,0l1.33.05v6.06h2.73v-6.04c1.15-.12,2.23-.58,3.09-1.39,1.04-.97,1.65-2.3,1.7-3.73v-.35c.11-2.86-2.14-5.26-4.99-5.36ZM12.86,64.09c-.44.37-.91.62-1.4.73-.18.04-.36.07-.54.07-.06,0-.11.01-.17,0-2.83-.1-5.05-4.96-4.86-10.61.19-5.59,2.69-10.25,5.49-10.25.03,0,.06,0,.09,0,.06,0,.12.02.18.02.18.02.36.06.54.12.55.18,1.06.53,1.53,1.04,1.66,1.79,2.75,5.4,2.62,9.43-.14,4.19-1.58,7.87-3.47,9.44ZM15.12,63.08c1.3-2.05,2.17-5.01,2.29-8.39.11-3.18-.47-6.04-1.5-8.14l6.76,4.07-.32,9.24-7.22,3.22Z"/>
    </g>
    <path class="st4" d="M74.96,23.46s-1.32.13-2.5.72l-.95-1.31s-1.64-2.66-4.17-4.19-4.74-5.34-4.74-5.34l-.94.87s-.85,2.01-2.75,3.59-4.9,4.01-4.9,4.01l-1.67,2.11-2.08-.47s-1.37-9.2,2.94-13.23,13.05-5.24,18.08-.22,3.69,13.45,3.69,13.45Z"/>
    <path class="st5" d="M71.51,32.75s-2.14,2.91-4.19,4.01l-.04,1.96,1.07-.59,2.7.46,3.87,2.14s.52-2.13-3.43-7.98Z"/>
    <path class="st1" d="M71.4,32.63s2.99,2.84,3.54,8.1l-7.14.35-2.34-3.65,5.94-4.8Z"/>
    <path class="st3" d="M58.06,37.1l-.29,2.22s.13,1.56,4.44,1.4,5.1-1.81,5.1-1.81l-.19-2.02"/>
    <path class="st8" d="M37.86,15.77s-.63.87-1.55,1.11-2.3-.48-2.42-1.51,2.38-2.34,3.41-2.93,2.18-.28,3.33,1.43-.2,5.55-.24,5.87,0,2.02.36,3.05c.31.89,5.31,7.25,6.71,9.02.22.28.23.66.04.95l-4.09,6.14c-.34.52-1.12.47-1.4-.08-1.82-3.6-7-13.86-7.69-14.97-.83-1.35-3.13-4.01-3.61-4.56s-2.22-2.46-.79-4.92,5-3.53,5.55-3.45,1.11,0,1.78,1.03"/>
    <g>
      <path class="st8" d="M34.74,16.57s-1.69,1.46-2.51,1.74"/>
      <path d="M32.22,18.65c-.14,0-.27-.09-.32-.23-.06-.18.03-.37.21-.43.63-.22,1.95-1.29,2.4-1.68.14-.12.36-.11.48.04.12.14.11.36-.04.48-.18.15-1.76,1.51-2.62,1.81-.04.01-.07.02-.11.02Z"/>
    </g>
    <path d="M80.34,49.65l-1.74-4.32c-1.8-5.81-9.61-7.47-9.94-7.54-.19-.04-.4.01-.55.14-5.58,4.85-10.93.64-11.2.43-3.85-2.6-8.11-6.82-8.16-6.87-.21-.21-.55-.25-.8-.08l-.09.06c-3.77-4.78-6.43-8.34-6.62-8.86-.33-.96-.36-2.59-.33-2.81,0-.05.04-.15.08-.29.51-1.84,1.08-4.47.08-5.95-1.27-1.88-2.49-2.08-3.35-1.86,0-.01-.01-.02-.02-.03-.72-1.11-1.43-1.18-1.95-1.24l-.19-.02c-.75-.13-4.54,1.07-6.08,3.71-1.04,1.8-.77,3.64.85,5.52l.08.09c1.8,2.09,2.97,3.57,3.48,4.41.56.9,4.22,8.11,6.44,12.49-.04.15-.03.32.05.48,2.62,4.88,7.12,10.11,8.08,11.21l-1.22,17.94c-.01.18.05.35.17.48.12.13.29.2.47.2h27.88c.18,0,.34-.07.46-.2s.18-.3.17-.48l-.55-13.93,4.18-1.86c.31-.14.46-.5.33-.82ZM31.19,19.05l-.12-.14c-.81-.94-1.77-2.41-.69-4.27,1.25-2.16,4.46-3.2,5.01-3.2,0,0,.01,0,.02,0l.23.03c.41.04.71.08,1.13.68h-.02c-1.85,1.06-3.5,2.1-3.36,3.28.07.58.42,1.12.99,1.51.64.44,1.44.61,2.08.44,1.08-.28,1.81-1.27,1.84-1.31.17-.23.12-.56-.11-.72-.23-.17-.56-.12-.73.11,0,0-.54.73-1.26.91-.34.09-.84-.03-1.23-.3-.31-.21-.51-.49-.54-.77-.03-.27.44-.88,2.84-2.25l.31-.18c.32-.18,1.29-.74,2.64,1.27.56.83.49,2.54-.22,5.09-.06.22-.1.37-.11.43-.05.41,0,2.19.38,3.29.31.89,4.32,6.04,6.73,9.09l-5.87,3.86c-2.36-4.67-5.79-11.41-6.35-12.32-.54-.88-1.75-2.4-3.58-4.54Z"/>
    <path class="st2" d="M70.85,38.5s5.02,2.06,7.32,4.68c0,0-4.68,9.52-8.49,14.32-3.81,4.8-9.06,8.78-9.06,8.78h-12.49s7.59-5.17,14.02-13.9c6.42-8.73,8.71-13.88,8.71-13.88Z"/>
    <path class="st8" d="M52.4,30.16c1.02,3.15,2.67,4.76,4.02,5.8s5.67,4.48,11.03.71c2.96-2.08,4.3-4.34,4.9-5.94.49-1.29.15-.42.15-.42l.31.22s2.61.6,3.23-2.51-.52-4.52-1.41-4.37-2.26.97-2.26.97c0,0-1.07-2.53-2.53-3.67s-4.64-3.67-5.91-5.26-1.36-2.18-1.36-2.18l-1.09,1.36s-2,3.2-5.42,5.43-3.64,3.75-3.64,3.75l-.74.12s-2.8-1.22-3.25,1.86,1.49,4.91,3.13,4.54l.6-.25.27-.17Z"/>
    <path d="M76.83,25.17c-.33-1.01-.85-1.54-1.33-1.81.16-1.27.89-8.51-3.17-13.23-2.27-2.63-5.6-3.96-9.91-3.96h-.06c-4.28.01-7.56,1.35-9.76,3.97-3.79,4.53-3.13,11.38-2.9,13.04-.57.19-1.3.69-1.73,1.99-.58,1.79.27,4.13,1.4,5.27.57.58,1.21.88,1.85.88.21,0,.41-.03.62-.1.12-.04.22-.12.29-.21.71,1.97,1.93,3.94,3.98,5.51.99.75,3.29,2.52,6.36,2.52,1.61,0,3.42-.48,5.36-1.85,2.97-2.09,4.38-4.35,5.05-6.03.03.02.06.04.09.05.2.06.41.1.62.1.64,0,1.28-.3,1.85-.88,1.13-1.14,1.98-3.49,1.4-5.27ZM74.5,29.53c-.28.28-.71.6-1.15.46-.03,0-.05,0-.08,0,.21-.8.22-1.33.22-1.39,0-.36-.28-.65-.64-.65-.36-.01-.65.28-.66.64,0,.16-.13,4.06-5.12,7.57-4.87,3.42-8.73.47-10.26-.7-2.67-2.04-4.12-5.15-4.31-9.23-.02-.36-.33-.61-.68-.62-.36.02-.64.32-.62.68.05,1.12.21,2.4.58,3.71-.11-.03-.23-.04-.35,0-.44.14-.87-.17-1.15-.46-.95-.97-1.46-2.82-1.09-3.96.15-.46.44-1.04.94-1.18.38-.11.82.06,1.06.27.26.23.66.21.9-.05.05.02.1.04.15.05.03,0,.05,0,.08,0,.25,0,.47-.19.52-.43.07-.37,1.5-2.12,4.58-4.28,3-2.11,4.62-5.13,4.68-5.26.13-.25.04-.57-.22-.7-.25-.13-.57-.04-.7.22-.02.03-1.57,2.93-4.36,4.89-2.08,1.46-4.23,3.35-4.84,4.52-.3-.25-.75-.48-1.26-.55-.19-1.42-.86-8.08,2.66-12.29,1.99-2.37,5-3.58,8.96-3.6,4.03,0,7.11,1.2,9.18,3.6,3.6,4.18,3.11,10.77,2.95,12.27-.73-.03-1.38.29-1.76.62-.07.06-.12.14-.16.22-.58-1.08-1.94-3.34-3.76-4.56-5.2-3.49-6.08-6.78-6.09-6.83-.07-.28-.35-.45-.63-.38-.28.07-.45.35-.38.63.04.15.94,3.7,6.52,7.45,2.15,1.45,3.69,4.71,3.71,4.75.09.19.28.3.47.3.07,0,.15-.02.22-.05.18-.08.28-.25.29-.43.22.09.48.06.67-.11.24-.21.68-.38,1.06-.27.51.14.79.72.94,1.18.37,1.14-.14,2.99-1.09,3.96Z"/>
    <ellipse cx="62.43" cy="32.06" rx="2.44" ry="2.23"/>
    <g>
      <path class="st8" d="M59.91,40.14l.4,16.34s-.04,1.53,1.47,1.52c1.82-.02,1.71-1.48,1.71-1.48l1.59-16.38h-5.16Z"/>
      <path d="M61.75,58.34c-.52,0-.95-.16-1.26-.48-.54-.55-.52-1.35-.52-1.39l-.4-16.32c0-.09.03-.18.1-.25s.15-.1.24-.1h5.16c.1,0,.19.04.25.11s.1.17.09.26l-1.59,16.38h0s.04.66-.44,1.18c-.36.39-.9.6-1.61.6h-.03ZM60.26,40.48l.39,15.99s0,.58.33.91c.19.19.43.28.79.27.51,0,.88-.13,1.1-.38.29-.31.27-.73.26-.74l1.55-16.06h-4.43Z"/>
    </g>
    <g>
      <circle class="st8" cx="62.41" cy="36.81" r="4.05"/>
      <path d="M62.41,41.2c-2.42,0-4.39-1.97-4.39-4.38s1.97-4.39,4.39-4.39,4.39,1.97,4.39,4.39-1.97,4.38-4.39,4.38ZM62.41,33.11c-2.04,0-3.71,1.66-3.71,3.71s1.66,3.71,3.71,3.71,3.71-1.66,3.71-3.71-1.66-3.71-3.71-3.71Z"/>
    </g>
    <ellipse cx="66.71" cy="24.74" rx="1.09" ry="1.75"/>
    <ellipse cx="58.36" cy="24.74" rx="1.09" ry="1.75"/>
    <path d="M64.96,37.75l-1.03,1.03-.7-.7.76-.76.41.41s.11.07.18.07.13-.02.18-.07c.1-.1.1-.26,0-.35l-.41-.41.97-.97c.1-.1.1-.26,0-.35s-.26-.1-.35,0l-.97.97-.76-.76,1.1-1.1c.1-.1.1-.26,0-.35s-.26-.1-.35,0l-1.1,1.1-.82-.83.7-.7c.1-.1.1-.26,0-.35s-.26-.1-.35,0l-.7.7-.42-.42c-.1-.1-.26-.1-.35,0s-.1.26,0,.35l.42.42-.76.76-.51-.51c-.1-.1-.26-.1-.35,0s-.1.26,0,.35l.51.51-1.3,1.3c-.1.1-.1.26,0,.35.05.05.11.07.18.07s.13-.02.18-.07l.11-.11.83.83-.37.37c-.1.1-.1.26,0,.35.05.05.11.07.18.07s.13-.02.18-.07l.37-.37.76.76-.14.14c-.1.1-.1.26,0,.35.05.05.11.07.18.07s.13-.02.18-.07l.14-.14.39.39s.11.07.18.07.13-.02.18-.07c.1-.1.1-.26,0-.35l-.39-.39.83-.83.7.7-.36.36c-.1.1-.1.26,0,.35.05.05.11.07.18.07s.13-.02.18-.07l.36-.36.04.04s.11.07.18.07.13-.02.18-.07c.1-.1.1-.26,0-.35l-.04-.04,1.03-1.03c.1-.1.1-.26,0-.35s-.26-.1-.35,0ZM63.64,36.96l-.76.76-.76-.76.76-.76.76.76ZM61.7,35.03l.83.83-.76.76-.83-.83.76-.76ZM59.75,36.98l.83-.83.83.83-.83.83-.83-.83ZM61.69,38.91l-.76-.76.83-.83.76.76-.83.83Z"/>
  </g>
  <g>
    <path d="M68.93,20.55c-1.65-1.15-3.4.13-4.1.98-.14.17-.12.43.05.57.08.06.17.09.26.09.12,0,.23-.05.31-.15.06-.08,1.57-1.84,3.02-.83.18.13.44.08.56-.1s.08-.44-.1-.56Z"/>
    <path d="M56.21,20.55c-.18.13-.23.38-.1.56.13.18.38.23.56.1,1.45-1.01,2.95.76,3.02.83.08.1.2.15.31.15.09,0,.18-.03.26-.09.17-.14.2-.4.05-.57-.7-.84-2.45-2.13-4.1-.98Z"/>
  </g>
  <g>
    <rect class="st8" x="58.08" y="36.22" width="8.7" height="1.33" rx=".66" ry=".66"/>
    <path d="M66.11,37.89h-7.37c-.55,0-1-.45-1-1s.45-1,1-1h7.37c.55,0,1,.45,1,1s-.45,1-1,1ZM58.75,36.56c-.18,0-.32.15-.32.32s.15.33.32.33h7.37c.18,0,.32-.15.32-.33s-.15-.32-.32-.32h-7.37Z"/>
  </g>
  <g>
    <path class="st8" d="M81.24,57.79c-.17-1.96-1.98-7.38-1.98-7.38l-3.75,1.6-.17,3.23,3.62,2.9c-.43-.29-2.08-1.59-3.62-2.9-1.04-.88-2.02-1.77-2.56-2.35-1.32-1.46-4.45-3.9-4.45-3.9,0,0,.52-2.94-.64-4.81-1-1.62-3.17-2.53-5.59-2.51-2.42.02-2.99.86-3.27,1.59-.04.11-.11.26-.14.46-.03,0-.07-.02-.1-.02-.78,0-1.43,1.42-1.43,2.56s.68,2.58,1.47,2.58c.24,0,.46-.15.66-.38.04,0,.06.01.06.01l.95-.04c-.87.02-1.34.21-1.33.79,0,.79.53,1.26,2.27,1.11,1.43-.12,2.56.53,2.56.53l-.1,1.08s2.39,4.77,5.99,8.52c3.6,3.74,5.77,5.6,9.12,3.86,3.34-1.74,2.6-4.57,2.43-6.53ZM59.53,44.45c.12-.03.26-.07.41-.1-.13.03-.27.06-.41.1ZM60.8,44.23s-.02,0-.04,0c.01,0,.03,0,.04,0ZM60.36,44.28c-.05,0-.1.01-.15.02.05,0,.1-.02.15-.02ZM60.31,48.43l2.62-.12s-1.5.1-2.62.12Z"/>
    <path class="st7" d="M81.68,58.42c-.02-.23-.05-.45-.07-.66-.17-1.99-1.93-7.25-2-7.47-.03-.1-.11-.18-.2-.22-.1-.04-.2-.04-.3,0l-3.75,1.6c-.13.06-.22.18-.23.33l-.13,2.46c-.9-.78-1.56-1.4-1.94-1.82-1.16-1.28-3.65-3.27-4.33-3.81.1-.75.31-3.16-.73-4.85-1.03-1.68-3.3-2.7-5.91-2.69-2.59.02-3.28.94-3.64,1.9-.1.24-.27.65-.01,1.38-.35.43-.48.86-.4,1.28.07.35.27.62.47.8-.2.27-.31.65-.29.99.03.49.26.8.53.98-.1.15-.16.35-.16.6,0,.44.15.8.43,1.05.43.39,1.14.53,2.24.43.95-.09,1.76.21,2.13.38l-.07.82c0,.07,0,.14.04.2.02.05,2.46,4.87,6.05,8.61,2.65,2.75,4.66,4.63,7.01,4.63.8,0,1.64-.22,2.55-.69,3.21-1.67,2.92-4.31,2.7-6.24ZM78.63,63.99c-3.04,1.58-4.97.06-8.67-3.79-3.24-3.37-5.52-7.65-5.88-8.33l.09-.97c.01-.14-.06-.28-.19-.36-.05-.03-1.25-.71-2.78-.58-1.06.09-1.5-.08-1.67-.24-.08-.07-.18-.2-.18-.51,0-.14,0-.35.71-.4h.26c1.13-.04,2.64-.13,2.64-.13.21-.01.36-.19.35-.39-.01-.21-.19-.36-.39-.35l-2.45.12c-.05,0-.11,0-.16,0-.1,0-.25,0-.42.02l-.48.02c-.09-.01-.4-.09-.42-.51-.02-.29.14-.55.2-.57h0c.43-.03,3.19-.16,3.67-.14.03,0,.06,0,.08,0,.2.03.39-.1.43-.29.04-.2-.08-.39-.28-.44,0,0-.02,0-.03,0h0c-.5-.08-3.06.07-3.82.11-.16-.1-.42-.31-.46-.57-.04-.2.05-.44.27-.69.02,0,.06-.03.13-.05.14-.05.27-.09.4-.13.54-.15,1.4-.32,2.24-.19.2.04.39-.1.43-.3.04-.2-.09-.39-.29-.44-.04,0-.9-.2-2.23.11-.25.06-.46.12-.63.17-.1-.37-.02-.57.07-.8.17-.47.5-1.33,2.92-1.35,2.36.01,4.37.87,5.27,2.33,1.07,1.73.6,4.52.59,4.55-.02.14.03.28.14.36.03.02,3.12,2.44,4.41,3.85.61.67,1.74,1.67,2.59,2.38,0,0,0,0,0,0,1.58,1.35,3.22,2.63,3.65,2.92.17.12.4.07.52-.1.12-.17.07-.4-.1-.52-.39-.27-1.94-1.48-3.44-2.75l.15-2.81,3.16-1.35c.41,1.27,1.7,5.31,1.84,6.91.02.22.04.44.07.68.21,1.9.45,4.06-2.3,5.49Z"/>
  </g>
  <g>
    <path class="st6" d="M26.33,83.04c0,.56.33,1.13.96,1.13,1.39,0,2.09-2.62,2.34-3.63-1.33.08-3.3.89-3.3,2.5Z"/>
    <path class="st6" d="M31.89,80.72c-.28,1.23-.73,2.73-1.52,3.87h3.1c.79-.77,1.35-1.77,1.71-3.01-1.11-.38-2.22-.67-3.3-.86Z"/>
    <path class="st8" d="M38.97,83.37s.09.05.14.05c.07,0,.14-.05.17-.17l.53-1.83c.03-.14,0-.24-.14-.31-.62-.34-1.27-.65-1.92-.92.17-1.15.26-2.36.27-3.61,0-.21-.09-.31-.22-.33l-1.85-.21c-.17-.02-.26.07-.26.24l.02.74c0,.86-.05,1.66-.12,2.4-1.09-.33-2.21-.56-3.32-.7.22-1.2.43-2.46.68-3.8.02-.1.02-.17.02-.26v-.03l-.02-1.18c0-.15-.09-.24-.24-.24l-6.43.02c-.17,0-.24.09-.24.24v1.68c0,.15.09.24.24.24l4.19-.03c-.1.84-.24,1.98-.45,3.2-1.66.02-2.94.5-3.87,1.16-1.27.92-1.83,2.28-1.83,3.47,0,.5.11.98.31,1.41h5.72c.79-1.14,1.24-2.64,1.52-3.87,1.08.19,2.19.48,3.3.86-.36,1.24-.92,2.25-1.71,3.01h2.89c.36-.65.66-1.37.89-2.14.58.27,1.16.58,1.71.92ZM27.29,84.17c-.63,0-.96-.56-.96-1.13,0-1.61,1.97-2.41,3.3-2.5-.26,1.01-.96,3.63-2.34,3.63Z"/>
    <path class="st8" d="M56.54,79.06c-.65-.24-1.42-.38-2.27-.38-1.49,0-3.22.43-4.88,1.54.03-1.11.21-2.55.43-3.81.03-.15-.03-.26-.21-.26l-1.85-.05c-.15,0-.24.07-.26.22-.24,1.73-.44,4.28-.48,6.07-.02.15.07.24.22.24l1.75.08c.12,0,.21-.03.29-.12,1.51-1.25,3.18-1.88,4.64-1.88,1.08,0,2.65.39,2.65,1.73,0,.5-.26,1.04-.8,1.5-.34.28-.77.48-1.23.64h3.75c.48-.7.75-1.46.75-2.21,0-1.37-.82-2.67-2.5-3.32Z"/>
    <path class="st8" d="M48.87,75.05c2.19.03,4.07.17,6.02.82.14.05.26,0,.31-.14l.58-1.8c.05-.14,0-.26-.14-.29-1.83-.58-4.16-.75-6.36-.75-.15,0-.26.05-.27.21l-.34,1.69c-.03.15.05.26.21.26Z"/>
    <path class="st8" d="M73.71,83.3c0-.07-.03-.14-.09-.19l-1.28-1.35c-.05-.05-.1-.07-.15-.07-.07,0-.14.05-.17.17-.58,1.56-1.28,2.21-1.86,2.21-.26,0-.48-.12-.67-.34-.79-.92-1.09-2.89-1.09-5.2,0-1.37.1-2.84.27-4.31.02-.15-.05-.26-.21-.27l-2.02-.21c-.15-.02-.24.05-.26.22-.05,1.27-.09,2.51-.09,3.69,0,2.86.26,5.33,1.22,6.93h5.77c.2-.32.4-.67.57-1.08.03-.07.05-.14.05-.21Z"/>
    <path class="st8" d="M78.17,84.15c0,.15.07.22.19.22h.07l1.88-.41c.14-.03.21-.12.21-.27-.02-3.64-1.49-7.2-4-9.46-.05-.05-.1-.07-.17-.07-.05,0-.1.02-.15.05l-1.52.99c-.09.05-.12.1-.12.17,0,.05.03.1.1.15,2.46,2.12,3.44,5.54,3.52,8.62Z"/>
  </g>
  <g>
    <path class="st0" d="M76.51,74.23c-.05-.05-.1-.07-.17-.07-.05,0-.1.02-.15.05l-1.52.99c-.09.05-.12.1-.12.17,0,.05.03.1.1.15,2.46,2.12,3.44,5.54,3.52,8.62,0,.15.07.22.19.22h.07l1.88-.41c.14-.03.21-.12.21-.27-.02-3.64-1.49-7.2-4-9.46Z"/>
    <path class="st0" d="M49.28,72.9c-.15,0-.26.05-.27.21l-.34,1.69c-.03.15.05.26.21.26,2.19.03,4.07.17,6.02.82.14.05.26,0,.31-.14l.58-1.8c.05-.14,0-.26-.14-.29-1.83-.58-4.16-.75-6.36-.75Z"/>
    <path class="st6" d="M21.27,67.6c-1.4,0-2.54,1.14-2.54,2.54v14.45h5.92c-.19-.43-.31-.9-.31-1.41,0-1.2.56-2.55,1.83-3.47.92-.67,2.21-1.15,3.87-1.16.21-1.21.34-2.36.45-3.2l-4.19.03c-.15,0-.24-.09-.24-.24v-1.68c0-.15.07-.24.24-.24l6.43-.02c.15,0,.24.09.24.24l.02,1.18v.03c0,.09,0,.15-.02.26-.26,1.33-.46,2.6-.68,3.8,1.11.14,2.22.38,3.32.7.07-.74.12-1.54.12-2.4l-.02-.74c0-.17.09-.26.26-.24l1.85.21c.14.02.22.12.22.33-.02,1.25-.1,2.46-.27,3.61.65.27,1.3.58,1.92.92.14.07.17.17.14.31l-.53,1.83c-.03.12-.1.17-.17.17-.05,0-.1-.02-.14-.05-.55-.34-1.13-.65-1.71-.92-.23.78-.53,1.49-.89,2.14h18.17c.47-.16.9-.36,1.23-.64.55-.46.8-1.01.8-1.5,0-1.33-1.57-1.73-2.65-1.73-1.45,0-3.13.63-4.64,1.88-.09.08-.17.12-.29.12l-1.75-.08c-.15,0-.24-.09-.22-.24.03-1.8.24-4.34.48-6.07.02-.15.1-.22.26-.22l1.85.05c.17,0,.24.1.21.26-.22,1.27-.39,2.7-.43,3.81,1.66-1.11,3.39-1.54,4.88-1.54.85,0,1.62.14,2.27.38,1.68.65,2.5,1.95,2.5,3.32,0,.75-.27,1.51-.75,2.21h9.02c-.96-1.6-1.22-4.07-1.22-6.93,0-1.18.03-2.43.09-3.69.02-.17.1-.24.26-.22l2.02.21c.15.02.22.12.21.27-.17,1.47-.27,2.94-.27,4.31,0,2.31.31,4.28,1.09,5.2.19.22.41.34.67.34.58,0,1.28-.65,1.86-2.21.03-.12.1-.17.17-.17.05,0,.1.02.15.07l1.28,1.35c.05.05.09.12.09.19s-.02.14-.05.21c-.18.41-.37.76-.57,1.08h10.7v-16.99H21.27ZM55.78,73.94l-.58,1.8c-.05.14-.17.19-.31.14-1.95-.65-3.83-.79-6.02-.82-.15,0-.24-.1-.21-.26l.34-1.69c.02-.15.12-.21.27-.21,2.21,0,4.53.17,6.36.75.14.03.19.15.14.29ZM80.31,83.97l-1.88.41h-.07c-.12,0-.19-.07-.19-.22-.08-3.08-1.06-6.5-3.52-8.62-.07-.05-.1-.1-.1-.15,0-.07.03-.12.12-.17l1.52-.99c.05-.03.1-.05.15-.05.07,0,.12.02.17.07,2.51,2.26,3.99,5.82,4,9.46,0,.15-.07.24-.21.27Z"/>
    <path d="M21.27,66.7h62.52v-.9H21.27c-2.39,0-4.34,1.95-4.34,4.34v14.45h.9v-14.45c0-1.9,1.54-3.44,3.44-3.44Z"/>
    <path d="M21.27,67.6h62.52v-.9H21.27c-1.9,0-3.44,1.54-3.44,3.44v14.45h.9v-14.45c0-1.4,1.14-2.54,2.54-2.54Z"/>
  </g>
  <path class="st9" d="M25.56,17.37c-.29,0-.57-.16-.71-.43l-6.9-13.36c-.2-.39-.05-.88.34-1.08.39-.2.87-.05,1.08.34l6.9,13.36c.2.39.05.88-.34,1.08-.12.06-.24.09-.37.09Z"/>
  <path class="st9" d="M22.11,19.82c-.18,0-.36-.06-.51-.18l-6.88-5.72c-.34-.28-.39-.79-.1-1.13s.79-.38,1.13-.1l6.88,5.72c.34.28.39.79.1,1.13-.16.19-.39.29-.62.29Z"/>
  <path class="st9" d="M15.36,21.6c-.12,0-.24-.03-.35-.08L2.62,15.43c-.4-.19-.56-.67-.37-1.07.2-.4.67-.56,1.07-.37l12.39,6.09c.4.19.56.67.37,1.07-.14.28-.42.45-.72.45Z"/>
  <path class="st9" d="M18.43,27.04c-.05,0-.1,0-.15-.01l-8.54-1.64c-.43-.08-.72-.5-.64-.94.08-.43.5-.72.94-.64l8.54,1.64c.43.08.72.5.64.94-.07.38-.41.65-.78.65Z"/>
  <path class="st9" d="M4.8,32.86c-.41,0-.76-.31-.8-.73-.04-.44.29-.83.73-.87l12.74-1.1c.44-.04.83.29.87.73.04.44-.29.83-.73.87l-12.74,1.1s-.05,0-.07,0Z"/>
</svg>