<?xml version="1.0" encoding="UTF-8"?><svg id="_レイヤー_1" xmlns="http://www.w3.org/2000/svg" viewBox="0 0 85.04 85.04"><path d="M9.17,42.42c0-8.86,3.25-16.48,9.75-22.84,6.47-6.36,14.25-9.54,23.33-9.54s16.67,3.21,23.08,9.62c6.44,6.42,9.67,14.12,9.67,23.12s-3.24,16.73-9.71,23.04c-6.5,6.34-14.34,9.5-23.53,9.5-8.13,0-15.43-2.81-21.9-8.44-7.12-6.23-10.68-14.38-10.68-24.47ZM18.75,42.54c0,6.96,2.34,12.68,7.01,17.17,4.65,4.49,10.02,6.73,16.11,6.73,6.61,0,12.18-2.28,16.72-6.85,4.54-4.62,6.81-10.25,6.81-16.88s-2.24-12.34-6.73-16.88c-4.46-4.57-9.98-6.85-16.56-6.85s-12.09,2.28-16.6,6.85c-4.51,4.51-6.77,10.09-6.77,16.72Z" fill="#d1e8df"/><path d="M41.75,76.43c-8.36,0-15.98-2.93-22.62-8.71-7.34-6.42-11.06-14.93-11.06-25.3,0-9.13,3.39-17.08,10.08-23.62,6.65-6.54,14.76-9.86,24.1-9.86s17.26,3.35,23.86,9.95c6.63,6.6,9.99,14.64,9.99,23.9s-3.38,17.34-10.04,23.83c-6.68,6.51-14.85,9.81-24.3,9.81ZM42.24,11.14c-8.74,0-16.33,3.1-22.56,9.23-6.25,6.12-9.42,13.54-9.42,22.05,0,9.71,3.47,17.66,10.31,23.64,6.23,5.42,13.36,8.17,21.18,8.17,8.85,0,16.51-3.09,22.76-9.19,6.22-6.06,9.37-13.55,9.37-22.25s-3.14-16.17-9.34-22.34c-6.17-6.17-13.68-9.3-22.31-9.3ZM41.88,67.54c-6.36,0-12.03-2.37-16.87-7.04-4.88-4.68-7.35-10.72-7.35-17.96s2.39-12.79,7.09-17.5c4.7-4.76,10.55-7.17,17.38-7.17s12.69,2.42,17.34,7.18c4.67,4.73,7.04,10.67,7.04,17.65s-2.4,12.84-7.13,17.65c-4.74,4.77-10.63,7.18-17.51,7.18ZM42.12,20.07c-6.22,0-11.54,2.19-15.82,6.52-4.28,4.28-6.45,9.65-6.45,15.95,0,6.62,2.25,12.13,6.68,16.38,4.42,4.26,9.58,6.42,15.35,6.42,6.27,0,11.63-2.2,15.94-6.53,4.31-4.38,6.49-9.8,6.49-16.11s-2.16-11.8-6.41-16.11c-4.23-4.33-9.53-6.52-15.77-6.52Z" fill="#231815"/><path d="M12.34,42.44c0-8.01,2.94-14.89,8.81-20.64,5.85-5.75,12.87-8.62,21.08-8.62s15.06,2.9,20.86,8.7c5.82,5.8,8.73,12.76,8.73,20.9s-2.92,15.12-8.77,20.82c-5.87,5.73-12.96,8.59-21.27,8.59-7.35,0-13.94-2.54-19.79-7.63-6.44-5.63-9.66-13-9.66-22.11ZM21,42.55c0,6.29,2.11,11.46,6.34,15.52,4.2,4.05,9.05,6.08,14.56,6.08,5.97,0,11.01-2.06,15.11-6.19,4.1-4.18,6.15-9.26,6.15-15.26s-2.03-11.15-6.08-15.26c-4.03-4.13-9.02-6.19-14.96-6.19s-10.92,2.06-15,6.19c-4.08,4.08-6.12,9.12-6.12,15.11Z" fill="#d1e8df"/><circle cx="42.08" cy="42.68" r="22.16" fill="#7dc1ad"/><path d="M42.08,65.94c-12.83,0-23.26-10.44-23.26-23.26s10.43-23.26,23.26-23.26,23.26,10.43,23.26,23.26-10.43,23.26-23.26,23.26ZM42.08,21.62c-11.61,0-21.06,9.45-21.06,21.06s9.45,21.06,21.06,21.06,21.06-9.45,21.06-21.06-9.45-21.06-21.06-21.06Z" fill="#231815"/><rect x="59.44" y="49.96" width="9.61" height="28.38" rx="4.14" ry="4.14" transform="translate(-26.55 64.21) rotate(-45)" fill="#d1e8df"/><path d="M70.88,76.96c-1.4,0-2.72-.54-3.71-1.53l-14.21-14.21c-.99-.99-1.53-2.3-1.53-3.71s.54-2.72,1.53-3.71l.94-.94c2.04-2.04,5.37-2.04,7.41,0l14.21,14.21c.99.99,1.53,2.3,1.53,3.71s-.54,2.72-1.53,3.71l-.94.94c-.99.99-2.3,1.53-3.71,1.53ZM57.61,53.54c-.78,0-1.56.3-2.15.89l-.94.94c-.57.57-.89,1.34-.89,2.15s.31,1.58.89,2.15l14.21,14.21c1.14,1.14,3.16,1.14,4.3,0l.94-.94c.57-.57.89-1.34.89-2.15s-.31-1.58-.89-2.15l-14.21-14.21c-.59-.59-1.37-.89-2.15-.89Z" fill="#231815"/><ellipse cx="33.29" cy="40.78" rx="6.7" ry="8.74" fill="#fff"/><path d="M33.29,50.62c-4.3,0-7.8-4.41-7.8-9.84s3.5-9.84,7.8-9.84,7.8,4.41,7.8,9.84-3.5,9.84-7.8,9.84ZM33.29,33.14c-3.09,0-5.6,3.43-5.6,7.64s2.51,7.64,5.6,7.64,5.6-3.43,5.6-7.64-2.51-7.64-5.6-7.64Z" fill="#231815"/><ellipse cx="35.75" cy="37.9" rx="4.24" ry="5.86" fill="#231815"/><ellipse cx="50.87" cy="40.78" rx="6.7" ry="8.74" fill="#fff"/><path d="M50.87,50.62c-4.3,0-7.8-4.41-7.8-9.84s3.5-9.84,7.8-9.84,7.8,4.41,7.8,9.84-3.5,9.84-7.8,9.84ZM50.87,33.14c-3.09,0-5.6,3.43-5.6,7.64s2.51,7.64,5.6,7.64,5.6-3.43,5.6-7.64-2.51-7.64-5.6-7.64Z" fill="#231815"/><ellipse cx="53.32" cy="37.9" rx="4.24" ry="5.86" fill="#231815"/></svg>