<?xml version="1.0" encoding="UTF-8"?><svg id="_レイヤー_1" xmlns="http://www.w3.org/2000/svg" viewBox="0 0 85.04 85.04"><rect x="7.65" y="9.17" width="69.73" height="69.73" rx="14.79" ry="14.79" fill="#fff"/><path d="M27.31,29.19c5.86,0,13.88-.3,19.65-.14,7.72.2,10.64,3.57,10.74,11.88.1,4.71,0,18.17,0,18.17h-8.36c0-11.78.04-13.73,0-17.44-.1-3.27-1.02-4.82-3.54-5.12-2.66-.3-10.11-.04-10.11-.04v22.62h-8.36v-29.92Z" fill="#070001"/><path d="M62.59,79.05H22.45c-8.24,0-14.94-6.7-14.94-14.94V23.97c0-8.24,6.7-14.94,14.94-14.94h40.14c8.24,0,14.94,6.7,14.94,14.94v40.14c0,8.24-6.7,14.94-14.94,14.94ZM22.45,9.32c-8.08,0-14.65,6.57-14.65,14.65v40.14c0,8.08,6.57,14.65,14.65,14.65h40.14c8.08,0,14.65-6.57,14.65-14.65V23.97c0-8.08-6.57-14.65-14.65-14.65H22.45Z" fill="#ebebeb"/></svg>