<?xml version="1.0" encoding="UTF-8"?><svg id="_レイヤー_1" xmlns="http://www.w3.org/2000/svg" viewBox="0 0 85.04 85.04"><path d="M42.52,8.18C23.27,8.18,7.72,23.85,7.72,43.24c0,15.5,9.97,28.62,23.8,33.26,1.73.35,2.36-.75,2.36-1.68,0-.81-.06-3.6-.06-6.5-9.68,2.09-11.7-4.18-11.7-4.18-1.56-4.06-3.86-5.11-3.86-5.11-3.17-2.15.23-2.15.23-2.15,3.52.23,5.36,3.6,5.36,3.6,3.11,5.34,8.12,3.83,10.14,2.9.29-2.26,1.21-3.83,2.19-4.7-7.72-.81-15.85-3.83-15.85-17.3,0-3.83,1.38-6.97,3.57-9.4-.35-.87-1.56-4.47.35-9.29,0,0,2.94-.93,9.56,3.6,2.84-.77,5.76-1.16,8.7-1.16,2.94,0,5.93.41,8.7,1.16,6.63-4.53,9.57-3.6,9.57-3.6,1.9,4.82.69,8.42.35,9.29,2.25,2.44,3.57,5.57,3.57,9.4,0,13.47-8.12,16.43-15.9,17.3,1.27,1.1,2.36,3.19,2.36,6.5,0,4.7-.06,8.48-.06,9.64,0,.93.63,2.03,2.36,1.68,13.83-4.64,23.8-17.76,23.8-33.26.06-19.39-15.56-35.06-34.75-35.06Z" fill="#231815" fill-rule="evenodd"/></svg>