<?xml version="1.0" encoding="UTF-8"?><svg id="_レイヤー_1" xmlns="http://www.w3.org/2000/svg" viewBox="0 0 85.04 84.7"><path d="M41.36,74.85h-.02c-9.7-.07-17.15-3.26-22.16-9.51-4.46-5.55-6.76-13.28-6.84-22.97v-.05c.08-9.69,2.38-17.42,6.84-22.97,5.01-6.24,12.46-9.44,22.16-9.51h.04c7.43.05,13.65,1.96,18.49,5.68,4.54,3.49,7.74,8.48,9.51,14.81l-5.52,1.54c-2.99-10.72-10.55-16.21-22.49-16.29-7.88.06-13.84,2.53-17.71,7.36-3.63,4.52-5.5,11.05-5.57,19.4.07,8.36,1.95,14.89,5.57,19.4,3.87,4.83,9.83,7.3,17.71,7.36,7.1-.05,11.8-1.71,15.71-5.54,4.46-4.37,4.38-9.73,2.95-12.99-.84-1.92-2.37-3.52-4.42-4.74-.52,3.66-1.68,6.62-3.48,8.86-2.4,2.98-5.8,4.62-10.1,4.85-3.26.18-6.39-.59-8.83-2.17-2.88-1.86-4.56-4.71-4.74-8.03-.18-3.22,1.1-6.19,3.6-8.35,2.39-2.06,5.74-3.27,9.7-3.49,2.92-.16,5.65-.04,8.18.39-.33-2.01-1.01-3.6-2.02-4.76-1.39-1.58-3.54-2.39-6.39-2.41h-.08c-2.29,0-5.39.63-7.37,3.57l-4.76-3.2c2.65-3.94,6.95-6.11,12.13-6.11h.12c8.65.05,13.81,5.35,14.32,14.59.29.12.58.25.87.39,4.04,1.9,6.99,4.77,8.54,8.31,2.16,4.93,2.36,12.98-4.19,19.39-5,4.9-11.08,7.11-19.7,7.17h-.02,0ZM44.08,43.18c-.66,0-1.32.02-2,.06-4.97.28-8.07,2.56-7.9,5.8.18,3.4,3.93,4.98,7.54,4.78,3.32-.18,7.63-1.47,8.36-10.05-1.83-.39-3.84-.6-6-.6Z" fill="#040000"/></svg>