<?xml version="1.0" encoding="UTF-8"?><svg id="_レイヤー_1" xmlns="http://www.w3.org/2000/svg" viewBox="0 0 85.04 85.04"><path d="M15.75,56.68l-4.64-7.27,12.52-18,4.31.89s8.05-1.83,11.81,1.14l-15.28,6.83-.71,3.77,5.54,2.22s7.61-3.63,9.26-3.66,9.71.44,9.71.44c0,0,9.09,10.53,10.38,12.03,3.08,3.57,5.07,5.78,2.47,8.06-2.33,2.05-3.11,2.42-3.92,1.55,0,0-.92,2.43-2.68,2.82s-4.16-.25-4.16-.25c0,0-.26,3.67-1.61,4.06-1.35.4-4.64-.57-4.64-.57,0,0-3.46,2.77-4.36,2.74s-4.12-1.11-4.12-1.11l1.89-4.48-3.92-2.87-1.41-2.92-2.6-1.03-1.89-3.07-2.28-1.05-2.46-1.51-.92-1.56-2.41-.23-3.89,3.01Z" fill="#f9d5ce"/><path d="M29.66,47.37c-.35,0-.69-.03-1.03-.08-4.53-.29-5.79-1.99-6.05-3.36-.32-1.68.91-3.58,2.93-4.52,2.62-1.22,15.22-6.9,16.65-7.54.99-.45,2.09-.62,3.18-.51l8.91.95,4.72-3.27c.5-.35,1.19-.22,1.53.28.35.5.22,1.19-.28,1.53l-5.06,3.5c-.22.15-.48.22-.74.19l-9.31-1c-.7-.07-1.41.04-2.04.33-1.43.64-14.02,6.31-16.63,7.53-1.06.5-1.83,1.45-1.7,2.12.12.62,1.26,1.41,4.08,1.58.04,0,.09,0,.13.02,2.76.5,7.4-2.28,8.96-3.39.18-.13.4-.2.63-.21l10.85-.14c.64,0,1.11.48,1.11,1.08,0,.61-.48,1.11-1.09,1.11l-10.52.14c-1.25.85-5.62,3.66-9.25,3.66Z" fill="#231815"/><rect x="66.08" y="21.45" width="9.26" height="28.05" transform="translate(-7.35 48.34) rotate(-36)" fill="#cee5dc"/><path d="M75.21,50.64c-.06,0-.11,0-.17-.01-.29-.05-.55-.2-.72-.44l-16.49-22.69c-.36-.49-.25-1.18.24-1.54l7.49-5.44c.24-.17.53-.24.82-.2.29.05.55.2.72.44l16.49,22.69c.36.49.25,1.18-.24,1.54l-7.49,5.44c-.19.14-.42.21-.65.21ZM60.26,27.09l15.2,20.92,5.71-4.15-15.2-20.91-5.71,4.15Z" fill="#231815"/><path d="M9.3,52.33c-.23,0-.46-.07-.65-.21l-6.96-5.06c-.24-.17-.39-.43-.44-.72s.03-.58.2-.82l16.49-22.69c.36-.49,1.04-.6,1.54-.24l6.96,5.06c.24.17.39.43.44.72.05.29-.02.58-.2.82l-16.49,22.69c-.17.24-.43.39-.72.44-.06,0-.11.01-.17.01ZM3.87,45.93l5.18,3.77,15.2-20.92-5.18-3.77L3.87,45.93Z" fill="#231815"/><rect x="16.97" y="53.37" width="5.82" height="8.76" rx="2.26" ry="2.26" transform="translate(2.03 116.15) rotate(-144)" fill="#fff"/><path d="M19.16,63.21c-.68,0-1.38-.21-1.97-.64l-1.05-.76s0,0,0,0c-.73-.53-1.2-1.31-1.34-2.19-.14-.89.07-1.77.6-2.5l2.5-3.44c.53-.73,1.31-1.2,2.19-1.34.89-.14,1.77.07,2.5.6l1.05.77c1.5,1.09,1.83,3.19.74,4.69l-2.5,3.44c-.66.9-1.68,1.38-2.72,1.38ZM17.43,60.02l1.05.76c.52.38,1.24.26,1.62-.25l2.5-3.44c.38-.52.26-1.24-.26-1.62l-1.05-.77c-.25-.18-.56-.26-.86-.21-.31.05-.57.21-.76.46l-2.5,3.44c-.18.25-.26.56-.21.86s.21.57.46.76h0Z" fill="#231815"/><rect x="30.69" y="65.37" width="5.82" height="8.76" rx="2.26" ry="2.26" transform="translate(19.79 145.93) rotate(-144)" fill="#fff"/><path d="M32.88,75.21c-.68,0-1.38-.21-1.97-.64l-1.05-.77c-1.5-1.09-1.83-3.19-.74-4.69l2.5-3.44c1.09-1.5,3.19-1.83,4.69-.74l1.05.77c1.5,1.09,1.83,3.19.74,4.69l-2.5,3.44c-.66.9-1.68,1.38-2.72,1.38ZM34.33,66.49c-.36,0-.71.17-.94.48l-2.5,3.44c-.38.52-.26,1.24.26,1.62h0l1.05.77c.52.38,1.24.26,1.62-.26l2.5-3.44c.38-.52.26-1.24-.26-1.62l-1.05-.77c-.21-.15-.44-.22-.68-.22Z" fill="#231815"/><rect x="21.56" y="56.8" width="5.82" height="9.64" rx="2.26" ry="2.26" transform="translate(8.04 125.85) rotate(-144)" fill="#fff"/><path d="M23.48,67.43c-.7,0-1.39-.22-1.97-.64l-1.05-.77h0c-.73-.53-1.2-1.31-1.34-2.19-.14-.89.07-1.77.6-2.5l3.01-4.14c.53-.73,1.31-1.2,2.19-1.34.89-.14,1.77.07,2.5.6l1.05.77c.73.53,1.2,1.31,1.34,2.19.14.89-.07,1.77-.6,2.5l-3.01,4.14c-.53.73-1.31,1.2-2.19,1.34-.18.03-.36.04-.53.04ZM21.75,64.24l1.05.77c.25.18.56.25.86.21.31-.05.57-.21.76-.46l3.01-4.14c.18-.25.26-.56.21-.86-.05-.31-.21-.57-.46-.76l-1.05-.77c-.25-.18-.56-.26-.86-.21-.31.05-.57.21-.76.46l-3.01,4.14c-.18.25-.26.56-.21.86.05.31.21.57.46.76h0Z" fill="#231815"/><rect x="25.73" y="60.8" width="5.82" height="10.69" rx="2.26" ry="2.26" transform="translate(12.93 136.49) rotate(-144)" fill="#fff"/><path d="M27.34,72.39c-.7,0-1.39-.22-1.97-.64l-1.05-.77h0c-.73-.53-1.2-1.31-1.34-2.19-.14-.89.07-1.77.6-2.5l3.63-5c.53-.73,1.31-1.2,2.19-1.34.89-.14,1.77.07,2.5.6l1.05.77c1.5,1.09,1.83,3.19.74,4.69l-3.63,5c-.53.73-1.31,1.2-2.19,1.34-.18.03-.36.04-.53.04ZM25.62,69.2l1.05.77c.25.18.56.26.86.21.31-.05.57-.21.76-.46l3.63-5c.38-.52.26-1.24-.26-1.62l-1.05-.77c-.25-.18-.56-.26-.86-.21-.31.05-.57.21-.76.46l-3.63,5c-.18.25-.26.56-.21.86.05.31.21.57.46.76h0Z" fill="#231815"/><path d="M39.75,34.55c-.24,0-.48-.08-.68-.24-2.74-2.17-8.79-1.41-10.89-.93-.15.04-.31.04-.47,0l-4.31-.89c-.59-.12-.98-.7-.86-1.3.12-.6.7-.98,1.3-.86l4.08.84c1.44-.3,8.71-1.59,12.5,1.41.48.38.56,1.07.18,1.55-.22.27-.54.42-.86.42Z" fill="#231815"/><path d="M15.75,57.78c-.36,0-.72-.18-.93-.51l-4.64-7.27c-.33-.51-.18-1.19.34-1.52.51-.33,1.19-.18,1.52.34l4.64,7.27c.33.51.18,1.19-.34,1.52-.18.12-.39.17-.59.17Z" fill="#231815"/><path d="M38.43,74.59c-2.35,0-3.62-1.47-3.64-1.49-.39-.47-.33-1.16.14-1.55.46-.38,1.15-.33,1.54.13.1.12,2.06,2.15,6.17-1.2.47-.38,1.16-.31,1.55.16.38.47.31,1.16-.16,1.55-2.26,1.84-4.13,2.41-5.6,2.41Z" fill="#231815"/><path d="M46.91,72.88c-4.19,0-7.16-5.37-7.31-5.64-.29-.53-.09-1.2.44-1.49.53-.29,1.2-.09,1.49.44.03.06,3.18,5.73,6.62,4.2,1.77-1.43,1.3-2.46,1.24-2.57-.28-.52-.1-1.19.42-1.49s1.16-.15,1.47.36c.58.94.95,3.31-1.87,5.51-.06.05-.13.09-.2.12-.8.39-1.57.55-2.31.55Z" fill="#231815"/><path d="M52.96,69.03c-2.96,0-5.51-3.13-6.71-5.35-.29-.53-.09-1.2.44-1.49.53-.29,1.2-.09,1.49.44.03.05,3.03,5.39,5.82,3.92.03-.02.07-.04.11-.05,1.49-.59,2.04-2.14,2.05-2.15.2-.57.82-.88,1.39-.68.57.19.88.81.69,1.38-.03.1-.85,2.48-3.27,3.47-.69.35-1.36.51-2.02.51Z" fill="#231815"/><path d="M58.39,65.38c-1.5,0-2.79-.72-3.5-1.48-.81-.87-3.06-3.48-3.16-3.6-.4-.46-.34-1.15.12-1.55.46-.4,1.15-.35,1.55.12.02.03,2.32,2.69,3.1,3.53.02.02,1.73,1.81,3.88-.08,1.58-1.38.95-2.43-2.4-6.31l-10.56-12.24,1.67-1.44,10.56,12.24c2.98,3.46,5.56,6.44,2.18,9.4-1.16,1.02-2.36,1.4-3.45,1.4Z" fill="#231815"/><path d="M62.33,57.78c-.33,0-.65-.15-.87-.42-.37-.48-.29-1.17.19-1.54,3.11-2.42,6.6-5.36,7.06-6.1.26-.42.43-.83.61-1.27.36-.86.76-1.84,1.86-2.95.43-.43,1.12-.43,1.56,0,.43.43.43,1.12,0,1.56-.79.79-1.06,1.46-1.38,2.23-.21.5-.42,1.02-.77,1.58-.9,1.46-6.48,5.83-7.59,6.69-.2.16-.44.23-.67.23Z" fill="#231815"/><path d="M30.09,21.18c-.33,0-.65-.14-.86-.42l-4.21-5.34c-.38-.48-.29-1.17.18-1.54.48-.38,1.17-.29,1.54.18l4.21,5.34c.38.48.29,1.17-.18,1.54-.2.16-.44.24-.68.24Z" fill="#231815"/><path d="M38.03,18.51c-.49,0-.93-.33-1.06-.82l-1.5-5.73c-.15-.59.2-1.19.79-1.34.59-.15,1.19.2,1.34.79l1.5,5.73c.15.59-.2,1.19-.79,1.34-.09.02-.19.04-.28.04Z" fill="#231815"/><path d="M53.95,21.18c-.24,0-.48-.08-.68-.24-.48-.38-.56-1.07-.18-1.54l4.21-5.34c.38-.48,1.07-.56,1.54-.18.48.38.56,1.07.18,1.54l-4.21,5.34c-.22.27-.54.42-.86.42Z" fill="#231815"/><path d="M47.01,18.51c-.09,0-.19-.01-.28-.04-.59-.15-.94-.75-.79-1.34l1.5-5.73c.15-.59.75-.94,1.34-.79.59.15.94.75.79,1.34l-1.5,5.73c-.13.49-.58.82-1.06.82Z" fill="#231815"/></svg>