<?xml version="1.0" encoding="UTF-8"?>
<svg id="_レイヤー_1" data-name="レイヤー 1" xmlns="http://www.w3.org/2000/svg" viewBox="0 0 85.04 85.04">
  <defs>
    <style>
      .cls-1 {
        fill: #040000;
      }
    </style>
  </defs>
  <path class="cls-1" d="M60.36,39.8c-.32-.15-.65-.3-.98-.44-.58-10.61-6.37-16.68-16.1-16.74-.04,0-.09,0-.13,0-5.82,0-10.66,2.48-13.64,7l5.35,3.67c2.23-3.38,5.72-4.1,8.29-4.1.03,0,.06,0,.09,0,3.2.02,5.62.95,7.19,2.77,1.14,1.32,1.9,3.15,2.28,5.46-2.84-.48-5.91-.63-9.2-.44-9.25.53-15.2,5.93-14.8,13.43.2,3.8,2.1,7.07,5.33,9.21,2.74,1.81,6.26,2.69,9.93,2.49,4.84-.27,8.63-2.11,11.28-5.49,2.01-2.56,3.28-5.89,3.84-10.07,2.31,1.39,4.01,3.22,4.96,5.42,1.6,3.74,1.7,9.89-3.32,14.9-4.4,4.39-9.68,6.29-17.67,6.35-8.86-.07-15.56-2.91-19.91-8.44-4.08-5.19-6.19-12.67-6.27-22.26.08-9.59,2.19-17.08,6.27-22.26,4.36-5.54,11.06-8.38,19.91-8.44,8.92.07,15.74,2.92,20.26,8.49,2.22,2.73,3.89,6.16,4.99,10.16l6.27-1.67c-1.34-4.92-3.44-9.17-6.3-12.69-5.8-7.13-14.28-10.79-25.2-10.86h-.04c-10.9.08-19.29,3.74-24.92,10.91-5.01,6.37-7.6,15.24-7.69,26.35v.03s0,.03,0,.03c.09,11.11,2.67,19.98,7.69,26.35,5.63,7.16,14.02,10.83,24.92,10.91h.04c9.69-.07,16.53-2.61,22.16-8.23,7.36-7.36,7.14-16.58,4.72-22.24-1.74-4.06-5.06-7.36-9.6-9.54ZM43.63,55.53c-4.05.23-8.27-1.59-8.47-5.49-.15-2.89,2.06-6.12,8.72-6.5.76-.04,1.51-.07,2.25-.07,2.42,0,4.69.24,6.75.69-.77,9.59-5.27,11.15-9.24,11.37Z"/>
</svg>