<?xml version="1.0" encoding="UTF-8"?><svg id="_レイヤー_1" xmlns="http://www.w3.org/2000/svg" viewBox="0 0 85.04 85.04"><path d="M9.11,41.65c0-8.86,3.25-16.48,9.75-22.84,6.47-6.36,14.25-9.54,23.33-9.54s16.67,3.21,23.08,9.62c6.44,6.42,9.67,14.12,9.67,23.12s-3.24,16.73-9.71,23.04c-6.5,6.34-14.34,9.5-23.53,9.5-8.13,0-15.43-2.81-21.9-8.44-7.12-6.23-10.68-14.38-10.68-24.47ZM18.69,41.77c0,6.96,2.34,12.68,7.01,17.17,4.65,4.49,10.02,6.73,16.11,6.73,6.61,0,12.18-2.28,16.72-6.85,4.54-4.62,6.81-10.25,6.81-16.88s-2.24-12.34-6.73-16.88c-4.46-4.57-9.98-6.85-16.56-6.85s-12.09,2.28-16.6,6.85c-4.51,4.51-6.77,10.09-6.77,16.72Z" fill="#d1e8df"/><path d="M41.69,75.66c-8.36,0-15.98-2.93-22.62-8.71-7.34-6.42-11.06-14.93-11.06-25.3,0-9.13,3.39-17.08,10.08-23.62,6.65-6.54,14.76-9.86,24.1-9.86s17.26,3.35,23.86,9.95c6.63,6.6,9.99,14.64,9.99,23.9s-3.38,17.34-10.04,23.83c-6.68,6.51-14.86,9.81-24.3,9.81ZM42.18,10.37c-8.74,0-16.33,3.1-22.56,9.23-6.25,6.12-9.42,13.54-9.42,22.05,0,9.71,3.47,17.66,10.31,23.64,6.23,5.42,13.36,8.17,21.18,8.17,8.85,0,16.51-3.09,22.76-9.19,6.22-6.06,9.37-13.55,9.37-22.25s-3.14-16.17-9.34-22.34c-6.18-6.17-13.68-9.3-22.31-9.3ZM41.82,66.77c-6.36,0-12.03-2.37-16.87-7.04-4.88-4.68-7.35-10.72-7.35-17.96s2.39-12.79,7.09-17.5c4.7-4.76,10.55-7.17,17.38-7.17s12.69,2.42,17.34,7.18c4.67,4.73,7.04,10.67,7.04,17.65s-2.4,12.84-7.13,17.65c-4.74,4.77-10.63,7.18-17.5,7.18ZM42.06,19.3c-6.22,0-11.54,2.2-15.82,6.52-4.28,4.28-6.45,9.65-6.45,15.95,0,6.62,2.25,12.13,6.68,16.38,4.42,4.26,9.58,6.42,15.35,6.42,6.27,0,11.63-2.2,15.94-6.53,4.31-4.38,6.49-9.8,6.49-16.11s-2.16-11.8-6.41-16.11c-4.23-4.33-9.53-6.52-15.77-6.52Z" fill="#231815"/><path d="M12.28,41.68c0-8.01,2.94-14.89,8.81-20.64,5.85-5.75,12.87-8.62,21.08-8.62s15.06,2.9,20.86,8.7c5.82,5.8,8.73,12.76,8.73,20.9s-2.92,15.12-8.77,20.82c-5.87,5.73-12.96,8.59-21.27,8.59-7.35,0-13.94-2.54-19.79-7.63-6.44-5.63-9.66-13-9.66-22.11ZM20.94,41.79c0,6.29,2.11,11.46,6.34,15.52,4.2,4.05,9.05,6.08,14.56,6.08,5.97,0,11.01-2.06,15.11-6.19,4.1-4.18,6.15-9.26,6.15-15.26s-2.03-11.15-6.08-15.26c-4.03-4.13-9.02-6.19-14.96-6.19s-10.92,2.06-15,6.19c-4.08,4.08-6.12,9.12-6.12,15.11Z" fill="#d1e8df"/><circle cx="42.02" cy="41.92" r="22.16" fill="#fff"/><path d="M42.02,65.18c-12.83,0-23.26-10.43-23.26-23.26s10.43-23.26,23.26-23.26,23.26,10.43,23.26,23.26-10.43,23.26-23.26,23.26ZM42.02,20.86c-11.61,0-21.06,9.45-21.06,21.06s9.45,21.06,21.06,21.06,21.06-9.45,21.06-21.06-9.45-21.06-21.06-21.06Z" fill="#231815"/><rect x="59.37" y="49.19" width="9.61" height="28.38" rx="4.14" ry="4.14" transform="translate(-26.02 63.95) rotate(-45)" fill="#d1e8df"/><path d="M70.82,76.2c-1.34,0-2.68-.51-3.71-1.53l-14.21-14.21c-.99-.99-1.53-2.3-1.53-3.71s.54-2.72,1.53-3.71l.94-.94c.99-.99,2.3-1.53,3.71-1.53s2.72.54,3.71,1.53l14.21,14.21c.99.99,1.53,2.3,1.53,3.71s-.54,2.72-1.53,3.71l-.94.94c-1.02,1.02-2.36,1.53-3.71,1.53ZM57.54,52.77c-.82,0-1.58.31-2.15.89l-.94.94c-.57.57-.89,1.34-.89,2.15s.31,1.58.89,2.15l14.21,14.21c1.19,1.19,3.12,1.19,4.3,0l.94-.94c.57-.57.89-1.34.89-2.15s-.31-1.58-.89-2.15l-14.21-14.21c-.57-.57-1.34-.89-2.15-.89Z" fill="#231815"/><path d="M49.61,48.38c-.61-.47-1.44-.71-2.48-.71h-6.08c.59-.59,1.44-1.34,2.53-2.24,1.6-1.31,2.71-2.24,3.4-2.86.74-.66,1.46-1.58,2.15-2.72.74-1.21,1.11-2.58,1.11-4.05,0-.95-.18-1.88-.53-2.76-.35-.88-.86-1.67-1.5-2.34-.64-.68-1.39-1.21-2.25-1.61-1.25-.56-2.76-.84-4.5-.84-1.45,0-2.74.22-3.84.66-1.11.44-2.04,1.03-2.78,1.76-.73.73-1.3,1.56-1.67,2.46-.37.9-.56,1.79-.56,2.64s.27,1.58.81,2.12c.53.53,1.22.81,2.01.81,1.13,0,1.78-.51,2.13-.93.39-.47.71-1.1,1-1.92.3-.86.41-1.05.42-1.07.6-.92,1.36-1.35,2.39-1.35.49,0,.92.1,1.32.32.39.21.69.49.92.87.23.37.33.79.33,1.28s-.12.96-.35,1.47c-.25.54-.63,1.09-1.12,1.62-.52.56-1.19,1.13-1.97,1.68-.53.35-1.35,1.05-2.52,2.12-1.13,1.04-2.41,2.3-3.81,3.76-.41.44-.78,1.01-1.11,1.74-.34.76-.51,1.38-.51,1.91,0,.85.33,1.62.96,2.24.63.62,1.48.94,2.54.94h11.54c.97,0,1.73-.28,2.27-.84.51-.54.79-1.23.79-1.99,0-.88-.35-1.63-1.03-2.15Z" fill="#7dc1ad"/><path d="M47.59,54.46h-11.54c-1.35,0-2.47-.42-3.31-1.26-.84-.83-1.28-1.87-1.28-3.02,0-.68.2-1.46.61-2.36.38-.84.81-1.51,1.31-2.04,1.42-1.48,2.72-2.76,3.87-3.81,1.23-1.13,2.07-1.84,2.65-2.23.7-.5,1.31-1.01,1.78-1.52.42-.45.73-.89.93-1.33.17-.36.25-.7.25-1.01,0-.29-.06-.51-.18-.71-.12-.21-.28-.35-.49-.46-.25-.13-.5-.19-.81-.19-.65,0-1.06.23-1.46.84.01-.02-.09.2-.31.85-.33.94-.72,1.68-1.19,2.25-.7.86-1.76,1.33-2.98,1.33-1.08,0-2.04-.39-2.79-1.13-.74-.74-1.13-1.74-1.13-2.9,0-1,.22-2.02.65-3.06.43-1.04,1.07-1.99,1.91-2.82.84-.84,1.9-1.51,3.15-2.01,1.23-.49,2.66-.74,4.25-.74,1.89,0,3.55.31,4.94.93.99.46,1.86,1.08,2.6,1.85.73.78,1.31,1.68,1.72,2.69.41,1.02.61,2.08.61,3.17,0,1.68-.43,3.23-1.27,4.62-.75,1.23-1.54,2.23-2.36,2.97-.7.63-1.83,1.58-3.44,2.89-.12.1-.24.19-.35.29h3.2c1.29,0,2.35.32,3.16.95h0c.94.73,1.45,1.8,1.45,3.02,0,1.05-.38,2.01-1.09,2.75-.74.77-1.8,1.18-3.06,1.18ZM41.38,32.32c.66,0,1.28.15,1.84.45.56.3,1.01.73,1.34,1.27.33.54.49,1.16.49,1.85,0,.63-.15,1.28-.46,1.93-.3.65-.74,1.29-1.32,1.91-.57.61-1.29,1.23-2.14,1.83-.49.33-1.3,1.01-2.41,2.03-1.12,1.03-2.38,2.28-3.77,3.71-.32.34-.62.81-.9,1.43-.27.61-.41,1.1-.41,1.46,0,.55.21,1.04.63,1.46.42.42,1,.62,1.76.62h11.54c.67,0,1.15-.16,1.47-.5.32-.33.48-.75.48-1.23,0-.55-.2-.97-.6-1.28,0,0,0,0,0,0-.41-.32-1.01-.48-1.8-.48h-6.08c-.44,0-.84-.27-1.02-.68-.17-.41-.08-.88.23-1.2.61-.62,1.5-1.4,2.62-2.32,1.58-1.29,2.68-2.22,3.36-2.83.66-.59,1.31-1.42,1.95-2.47.63-1.04.95-2.21.95-3.48,0-.81-.15-1.6-.46-2.35-.3-.75-.73-1.42-1.27-2-.54-.57-1.18-1.03-1.91-1.36-1.1-.49-2.46-.74-4.04-.74-1.31,0-2.46.2-3.43.58-.97.38-1.78.9-2.41,1.52-.63.63-1.11,1.33-1.43,2.1-.32.77-.48,1.51-.48,2.22,0,.57.16,1.01.49,1.34.32.32.74.49,1.23.49.56,0,.99-.18,1.28-.53.3-.37.57-.89.81-1.58.23-.65.4-1.08.51-1.26.83-1.27,1.94-1.89,3.34-1.89Z" fill="#231815"/></svg>