<?xml version="1.0" encoding="UTF-8"?><svg id="_レイヤー_1" xmlns="http://www.w3.org/2000/svg" viewBox="0 0 85.04 85.04"><path d="M23.95,77.68c-1.03-.55-1.34-1.98-.19-2.57.8-.41,4.78.02,4.95-.15-.08-1.31.05-2.37.88-3.41,1.76-2.18,4.25-1.53,6.73-1.65l1.51-6.66H15.98c-2.39,0-5.03-3-4.97-5.38.11-12.19-.23-24.43.17-36.6.79-2.87,2.87-4.15,5.75-4.33l36.48-.02c2.52-2.7,4.15-8.27,8.26-8.9,4.24-.65,7.91,3.06,6.89,7.3-.14.57-.47,1.07-.62,1.63,3.35-.09,5.98,1.99,6.26,5.38v35.55c.06,2.38-2.58,5.38-4.97,5.38h-21.86l1.51,6.66c2.48.12,4.98-.54,6.73,1.65.83,1.03.97,2.1.88,3.41.18.18,4.15-.25,4.95.15,1.1.56.82,2.06-.19,2.57H23.95ZM52,24.15c1.34.68,2.49,1.97,3.77,2.71.14.08.28.22.45.1l9.29-11.42c1.4-2.67-1.02-5.71-3.95-4.63-1.01.37-1.58,1.35-2.18,2.18-2.59,3.55-4.82,7.49-7.38,11.07ZM51.6,19.79H15.84c-.5,0-1.98,1.44-1.98,1.98v26.76h4.02c.89,0,1.63,1.59.76,2.39-.14.12-.77.47-.89.47h-3.88v7.01c0,.19.51,1.01.68,1.19.66.71,1.6.82,2.51.93,17.42-.13,34.88.23,52.27-.18.71-.01,2.01-1.29,2.01-1.94v-7.01H28.51c-.12,0-.76-.35-.89-.47-.87-.8-.13-2.39.76-2.39h42.97v-26.76c0-.64-1.37-1.82-2.01-1.94-.56-.11-2.79-.12-3.38-.04-.24.03-.39.07-.55.27l-12.12,14.72c-.14.31.35,2.07.35,2.65.04,2.68-1.63,5.51-4.19,6.44-3.04,1.1-6.27-.51-9.12,1.1-.91.52-2.07,2.05-3.12.57-.57-.8-1.11-4.67-1.16-5.79-.21-4.96,1.82-9.26,6.98-10.33.8-.17,1.57-.2,2.37-.36l6.19-9.27ZM50.39,26.49l-2.46,3.73,3.45,2.5,2.95-3.46-3.54-2.72-.39-.05ZM39.2,42.41c1.95-1.01,3.94-.96,6.07-.96.43,0,.85.16,1.36.15,3.39-.08,4.95-2.8,3.86-5.91l-4.88-3.7c-2.45-.22-4.98.94-6.07,3.21-.95,2.3-.75,4.82-.34,7.22ZM39.2,69.92h6.81l-1.5-6.67h-3.73s-1.58,6.67-1.58,6.67ZM53.78,74.96c.09-.8-.05-2.02-1.03-2.17l-20.59.09c-.74.45-.77,1.29-.72,2.08h22.34Z"/><path d="M51.6,19.79l-6.19,9.27c-.8.15-1.57.19-2.37.36-5.16,1.08-7.19,5.37-6.98,10.33.05,1.12.59,4.98,1.16,5.79,1.05,1.48,2.2-.06,3.12-.57,2.85-1.6,6.08,0,9.12-1.1,2.57-.93,4.23-3.76,4.19-6.44,0-.58-.5-2.34-.35-2.65l12.12-14.72c.15-.2.3-.24.55-.27.6-.08,2.82-.08,3.38.04.63.13,2.01,1.31,2.01,1.94v26.76H28.37c-.89,0-1.63,1.59-.76,2.39.14.12.77.47.89.47h42.84v7.01c0,.64-1.31,1.93-2.01,1.94-17.39.41-34.85.05-52.27.18-.91-.11-1.86-.22-2.51-.93-.17-.18-.68-.99-.68-1.19v-7.01h3.88c.12,0,.76-.35.89-.47.87-.8.13-2.39-.76-2.39h-4.02v-26.76c0-.53,1.48-1.98,1.98-1.98h35.75ZM22.96,48.56c-2.14.26-1.07,3.75.9,2.54,1.3-.8.45-2.71-.9-2.54Z" fill="#fff"/><path d="M52,24.15c2.56-3.58,4.79-7.53,7.38-11.07.6-.82,1.17-1.8,2.18-2.18,2.93-1.08,5.35,1.96,3.95,4.63l-9.29,11.42c-.17.12-.31-.02-.45-.1-1.28-.73-2.43-2.03-3.77-2.71Z" fill="#7ec9bb"/><path d="M39.2,42.41c-.41-2.4-.61-4.92.34-7.22,1.09-2.27,3.62-3.42,6.07-3.21l4.88,3.7c1.09,3.12-.47,5.84-3.86,5.91-.51.01-.93-.15-1.36-.15-2.13,0-4.12-.05-6.07.96Z" fill="#7ec9bb"/><path d="M53.78,74.96h-22.34c-.06-.79-.03-1.63.72-2.08l20.59-.09c.98.15,1.12,1.37,1.03,2.17Z" fill="#fff"/><polygon points="39.2 69.92 40.78 63.24 44.51 63.25 46.01 69.92 39.2 69.92" fill="#fff"/><polygon points="50.39 26.49 50.77 26.54 54.32 29.26 51.37 32.72 47.92 30.22 50.39 26.49" fill="#fff"/><path d="M22.96,48.56c1.35-.16,2.2,1.74.9,2.54-1.97,1.21-3.04-2.28-.9-2.54Z"/></svg>